<svg version="1.1" xmlns="http://www.w3.org/2000/svg" xmlns:xlink="http://www.w3.org/1999/xlink" width="1373.666015625" height="405"><defs/><g>""""""""""""""""""""""""""""""""""""""""""""""""""""""""""""""""""""""""""""""""""""""""""""""""""<g transform="translate(2,-126) scale(1,1)"><path fill="#C0C0C0" stroke="none" d="M 617.495849609375 162.5 C 617.495849609375 156.1487248 622.644574409375 151 628.995849609375 151 C 635.347124809375 151 640.495849609375 156.1487248 640.495849609375 162.5 C 640.495849609375 168.8512752 635.347124809375 174 628.995849609375 174 C 622.644574409375 174 617.495849609375 168.8512752 617.495849609375 162.5 Z" opacity="0.2"/></g><g transform="translate(2,-126) scale(1,1)"><path fill="none" stroke="#000000" d="M 621 166.5 A 11.5 11.5 0 0 1 621 143.5" stroke-miterlimit="10"/></g><g transform="translate(2,-126) scale(1,1)"><path fill="#ffffff" stroke="none" d="M 613.495849609375 155.5 C 613.495849609375 150.8055792 617.301428809375 147 621.995849609375 147 C 626.690270409375 147 630.495849609375 150.8055792 630.495849609375 155.5 C 630.495849609375 160.1944208 626.690270409375 164 621.995849609375 164 C 617.301428809375 164 613.495849609375 160.1944208 613.495849609375 155.5 Z"/></g><g transform="translate(2,-126) scale(1,1)"><path fill="none" stroke="#000000" d="M 613.495849609375 155.5 C 613.495849609375 150.8055792 617.301428809375 147 621.995849609375 147 C 626.690270409375 147 630.495849609375 150.8055792 630.495849609375 155.5 C 630.495849609375 160.1944208 626.690270409375 164 621.995849609375 164 C 617.301428809375 164 613.495849609375 160.1944208 613.495849609375 155.5 Z" stroke-miterlimit="10"/></g><g transform="translate(2,-126) scale(1,1)"><g><path fill="none" stroke="none"/><text fill="#000000" stroke="none" font-family="Arial" font-size="13px" font-style="normal" font-weight="bold" text-decoration="none" x="575.0263671875" y="186.5">IExternalReader</text></g></g><g transform="translate(2,-126) scale(1,1)"><rect fill="#C0C0C0" stroke="none" x="15" y="143" width="505.30419921875" height="72" opacity="0.2"/></g><g transform="translate(2,-126) scale(1,1)"><rect fill="#ffffff" stroke="none" x="8" y="136" width="505.30419921875" height="72"/></g><g transform="translate(2,-126) scale(1,1)"><path fill="none" stroke="#000000" d="M 8 136 L 513.30419921875 136 L 513.30419921875 208 L 8 208 L 8 136 Z Z" stroke-miterlimit="10"/></g><g transform="translate(2,-126) scale(1,1)"><path fill="none" stroke="#000000" d="M 8 161 L 513.30419921875 161" stroke-miterlimit="10"/></g><g transform="translate(2,-126) scale(1,1)"><path fill="none" stroke="#000000" d="M 8 171 L 513.30419921875 171" stroke-miterlimit="10"/></g><g transform="translate(2,-126) scale(1,1)"><g><path fill="none" stroke="none"/><text fill="#000000" stroke="none" font-family="Arial" font-size="13px" font-style="normal" font-weight="bold" text-decoration="none" x="203.567626953125" y="155.5">BugReaderImporter</text></g></g><g transform="translate(2,-126) scale(1,1)"><g><path fill="none" stroke="none"/><text fill="#000000" stroke="none" font-family="Arial" font-size="13px" font-style="normal" font-weight="normal" text-decoration="none" x="13" y="188.5">+GetExternalReadersInfo(): IEnumerable&lt;Tuple&lt;string, IEnumerable&lt;Parameter&gt;&gt;&gt;()</text></g></g><g transform="translate(2,-126) scale(1,1)"><g><path fill="none" stroke="none"/><text fill="#000000" stroke="none" font-family="Arial" font-size="13px" font-style="normal" font-weight="normal" text-decoration="none" x="13" y="203.5">+GetExternalReader(string name) : IExternalReader()</text></g></g><g transform="translate(2,-126) scale(1,1)"><path fill="none" stroke="#000000" d="M 513 155 L 610.495849609375 155" stroke-miterlimit="10"/></g><g transform="translate(2,-126) scale(1,1)"><rect fill="#C0C0C0" stroke="none" x="239" y="303" width="544.02490234375" height="87" opacity="0.2"/></g><g transform="translate(2,-126) scale(1,1)"><rect fill="#ffffff" stroke="none" x="232" y="296" width="544.02490234375" height="87"/></g><g transform="translate(2,-126) scale(1,1)"><path fill="none" stroke="#000000" d="M 232 296 L 776.02490234375 296 L 776.02490234375 383 L 232 383 L 232 296 Z Z" stroke-miterlimit="10"/></g><g transform="translate(2,-126) scale(1,1)"><path fill="none" stroke="#000000" d="M 232 321 L 776.02490234375 321" stroke-miterlimit="10"/></g><g transform="translate(2,-126) scale(1,1)"><path fill="none" stroke="#000000" d="M 232 331 L 776.02490234375 331" stroke-miterlimit="10"/></g><g transform="translate(2,-126) scale(1,1)"><g><path fill="none" stroke="none"/><text fill="#000000" stroke="none" font-family="Arial" font-size="13px" font-style="normal" font-weight="bold" text-decoration="none" x="448.362548828125" y="315.5">BugReaderAdapter</text></g></g><g transform="translate(2,-126) scale(1,1)"><g><path fill="none" stroke="none"/><text fill="#000000" stroke="none" font-family="Arial" font-size="13px" font-style="normal" font-weight="normal" text-decoration="none" x="237" y="348.5">+BugReaderAdapter(IFileReaderStrategy internalReader)</text></g></g><g transform="translate(2,-126) scale(1,1)"><g><path fill="none" stroke="none"/><text fill="#000000" stroke="none" font-family="Arial" font-size="13px" font-style="normal" font-weight="normal" text-decoration="none" x="237" y="363.5">+GetProjectsFromFile(IEnumerable&lt;Parameter&gt; parameters): IEnumerable&lt;ProjectModel&gt;()</text></g></g><g transform="translate(2,-126) scale(1,1)"><g><path fill="none" stroke="none"/><text fill="#000000" stroke="none" font-family="Arial" font-size="13px" font-style="normal" font-weight="normal" text-decoration="none" x="237" y="378.5">+GetParameters() : IEnumerable&lt;Parameter&gt;()</text></g></g><g transform="translate(2,-126) scale(1,1)"><path fill="none" stroke="#000000" d="M 680 296 L 680 155 L 633.495849609375 155" stroke-miterlimit="10"/></g><g transform="translate(2,-126) scale(1,1)"><path fill="#C0C0C0" stroke="none" d="M 941.0517578125 322.5 C 941.0517578125 316.1487248 946.2004826125 311 952.5517578125 311 C 958.9030330125 311 964.0517578125 316.1487248 964.0517578125 322.5 C 964.0517578125 328.8512752 958.9030330125 334 952.5517578125 334 C 946.2004826125 334 941.0517578125 328.8512752 941.0517578125 322.5 Z" opacity="0.2"/></g><g transform="translate(2,-126) scale(1,1)"><path fill="none" stroke="#000000" d="M 945 326.5 A 11.5 11.5 0 0 1 945 303.5" stroke-miterlimit="10"/></g><g transform="translate(2,-126) scale(1,1)"><path fill="#ffffff" stroke="none" d="M 937.0517578125 315.5 C 937.0517578125 310.8055792 940.8573370125 307 945.5517578125 307 C 950.2461786125 307 954.0517578125 310.8055792 954.0517578125 315.5 C 954.0517578125 320.1944208 950.2461786125 324 945.5517578125 324 C 940.8573370125 324 937.0517578125 320.1944208 937.0517578125 315.5 Z"/></g><g transform="translate(2,-126) scale(1,1)"><path fill="none" stroke="#000000" d="M 937.0517578125 315.5 C 937.0517578125 310.8055792 940.8573370125 307 945.5517578125 307 C 950.2461786125 307 954.0517578125 310.8055792 954.0517578125 315.5 C 954.0517578125 320.1944208 950.2461786125 324 945.5517578125 324 C 940.8573370125 324 937.0517578125 320.1944208 937.0517578125 315.5 Z" stroke-miterlimit="10"/></g><g transform="translate(2,-126) scale(1,1)"><g><path fill="none" stroke="none"/><text fill="#000000" stroke="none" font-family="Arial" font-size="13px" font-style="normal" font-weight="bold" text-decoration="none" x="887.746826171875" y="346.5">IFileReaderStrategy</text></g></g><g transform="translate(2,-126) scale(1,1)"><path fill="none" stroke="#000000" d="M 776 315 L 934.0517578125 315" stroke-miterlimit="10"/></g><g transform="translate(2,-126) scale(1,1)"><rect fill="#C0C0C0" stroke="none" x="519" y="471" width="432" height="57" opacity="0.2"/></g><g transform="translate(2,-126) scale(1,1)"><rect fill="#ffffff" stroke="none" x="512" y="464" width="432" height="57"/></g><g transform="translate(2,-126) scale(1,1)"><path fill="none" stroke="#000000" d="M 512 464 L 944 464 L 944 521 L 512 521 L 512 464 Z Z" stroke-miterlimit="10"/></g><g transform="translate(2,-126) scale(1,1)"><path fill="none" stroke="#000000" d="M 512 489 L 944 489" stroke-miterlimit="10"/></g><g transform="translate(2,-126) scale(1,1)"><path fill="none" stroke="#000000" d="M 512 499 L 944 499" stroke-miterlimit="10"/></g><g transform="translate(2,-126) scale(1,1)"><g><path fill="none" stroke="none"/><text fill="#000000" stroke="none" font-family="Arial" font-size="13px" font-style="normal" font-weight="bold" text-decoration="none" x="675.247802734375" y="483.5">CompanyReader1</text></g></g><g transform="translate(2,-126) scale(1,1)"><g><path fill="none" stroke="none"/><text fill="#000000" stroke="none" font-family="Arial" font-size="13px" font-style="normal" font-weight="normal" text-decoration="none" x="517" y="516.5">+GetProjectsFromFile(string path):  IEnumerable&lt;ProjectModel&gt; ()</text></g></g><g transform="translate(2,-126) scale(1,1)"><rect fill="#C0C0C0" stroke="none" x="967" y="471" width="401.666015625" height="57" opacity="0.2"/></g><g transform="translate(2,-126) scale(1,1)"><rect fill="#ffffff" stroke="none" x="960" y="464" width="401.666015625" height="57"/></g><g transform="translate(2,-126) scale(1,1)"><path fill="none" stroke="#000000" d="M 960 464 L 1361.666015625 464 L 1361.666015625 521 L 960 521 L 960 464 Z Z" stroke-miterlimit="10"/></g><g transform="translate(2,-126) scale(1,1)"><path fill="none" stroke="#000000" d="M 960 489 L 1361.666015625 489" stroke-miterlimit="10"/></g><g transform="translate(2,-126) scale(1,1)"><path fill="none" stroke="#000000" d="M 960 499 L 1361.666015625 499" stroke-miterlimit="10"/></g><g transform="translate(2,-126) scale(1,1)"><g><path fill="none" stroke="none"/><text fill="#000000" stroke="none" font-family="Arial" font-size="13px" font-style="normal" font-weight="bold" text-decoration="none" x="1108.080810546875" y="483.5">CompanyReader2</text></g></g><g transform="translate(2,-126) scale(1,1)"><g><path fill="none" stroke="none"/><text fill="#000000" stroke="none" font-family="Arial" font-size="13px" font-style="normal" font-weight="normal" text-decoration="none" x="965" y="516.5">+GetProjectsFromFile(string path):  IEnumerable&lt;ProjectModel&gt; ()()</text></g></g><g transform="translate(2,-126) scale(1,1)"><path fill="none" stroke="#000000" d="M 728 464 L 728 400 L 945 400 L 945 327" stroke-miterlimit="10"/></g><g transform="translate(2,-126) scale(1,1)"><path fill="none" stroke="#000000" d="M 1144 464 L 1144 400 L 945 400 L 945 327" stroke-miterlimit="10"/></g></g></svg>