<svg version="1.1" xmlns="http://www.w3.org/2000/svg" xmlns:xlink="http://www.w3.org/1999/xlink" width="1588" height="1210"><defs/><g>""""""""""""""""""""""""""""""""""""""""""""""""""""""""""""""""""""""""""""""""""""""""""""""""""""""""""""""""""""""""""""""""""""""""""""""""""""""""""""""""""""""""""""""""""""""""""""""""""""""""""""""""""""""""""""""""""""""""""""""""""""""""""""""""""""""""""""""""""""""""""""""""""""""""""""""""""""""""""""""""""""""""<g transform="translate(-270,-6) scale(1,1)"><rect fill="#C0C0C0" stroke="none" x="583" y="415" width="546.22119140625" height="265" opacity="0.2"/></g><g transform="translate(-270,-6) scale(1,1)"><rect fill="#ffffff" stroke="none" x="576" y="408" width="546.22119140625" height="265"/></g><g transform="translate(-270,-6) scale(1,1)"><path fill="none" stroke="#000000" d="M 576 408 L 1122.22119140625 408 L 1122.22119140625 673 L 576 673 L 576 408 Z Z" stroke-miterlimit="10"/></g><g transform="translate(-270,-6) scale(1,1)"><path fill="none" stroke="#000000" d="M 576 433 L 1122.22119140625 433" stroke-miterlimit="10"/></g><g transform="translate(-270,-6) scale(1,1)"><path fill="none" stroke="#000000" d="M 576 486 L 1122.22119140625 486" stroke-miterlimit="10"/></g><g transform="translate(-270,-6) scale(1,1)"><g><path fill="none" stroke="none"/><text fill="#000000" stroke="none" font-family="Arial" font-size="13px" font-style="normal" font-weight="bold" text-decoration="none" x="813.341552734375" y="427.5">ProjectLogic</text></g></g><g transform="translate(-270,-6) scale(1,1)"><g><path fill="none" stroke="none"/><text fill="#000000" stroke="none" font-family="Arial" font-size="13px" font-style="normal" font-weight="normal" text-decoration="none" x="581" y="450.5">+readerFactory: ReaderFactory</text></g></g><g transform="translate(-270,-6) scale(1,1)"><g><path fill="none" stroke="none"/><text fill="#000000" stroke="none" font-family="Arial" font-size="13px" font-style="normal" font-weight="normal" text-decoration="none" x="581" y="465.5">-_projectRepository: IProjectRepository</text></g></g><g transform="translate(-270,-6) scale(1,1)"><g><path fill="none" stroke="none"/><text fill="#000000" stroke="none" font-family="Arial" font-size="13px" font-style="normal" font-weight="normal" text-decoration="none" x="581" y="480.5">-_externalReaderImporter: IExternalReaderImporter</text></g></g><g transform="translate(-270,-6) scale(1,1)"><g><path fill="none" stroke="none"/><text fill="#000000" stroke="none" font-family="Arial" font-size="13px" font-style="normal" font-weight="normal" text-decoration="none" x="581" y="503.5">«constructor»+ProjectLogic()</text></g></g><g transform="translate(-270,-6) scale(1,1)"><g><path fill="none" stroke="none"/><text fill="#000000" stroke="none" font-family="Arial" font-size="13px" font-style="normal" font-weight="normal" text-decoration="none" x="581" y="518.5">+Add(newProject: Project): void</text></g></g><g transform="translate(-270,-6) scale(1,1)"><g><path fill="none" stroke="none"/><text fill="#000000" stroke="none" font-family="Arial" font-size="13px" font-style="normal" font-weight="normal" text-decoration="none" x="581" y="533.5">+Update(id: int, updatedProject: Project): void</text></g></g><g transform="translate(-270,-6) scale(1,1)"><g><path fill="none" stroke="none"/><text fill="#000000" stroke="none" font-family="Arial" font-size="13px" font-style="normal" font-weight="normal" text-decoration="none" x="581" y="548.5">+Delete(projectId: int): void</text></g></g><g transform="translate(-270,-6) scale(1,1)"><g><path fill="none" stroke="none"/><text fill="#000000" stroke="none" font-family="Arial" font-size="13px" font-style="normal" font-weight="normal" text-decoration="none" x="581" y="563.5">+AssignUserToProject(userId: int, projectId: int): void</text></g></g><g transform="translate(-270,-6) scale(1,1)"><g><path fill="none" stroke="none"/><text fill="#000000" stroke="none" font-family="Arial" font-size="13px" font-style="normal" font-weight="normal" text-decoration="none" x="581" y="578.5">+DissociateUserFromProject(userId: int, projectId: int): void</text></g></g><g transform="translate(-270,-6) scale(1,1)"><g><path fill="none" stroke="none"/><text fill="#000000" stroke="none" font-family="Arial" font-size="13px" font-style="normal" font-weight="normal" text-decoration="none" x="581" y="593.5">+AddBugsFromFile(path: string, companyName: string): void</text></g></g><g transform="translate(-270,-6) scale(1,1)"><g><path fill="none" stroke="none"/><text fill="#000000" stroke="none" font-family="Arial" font-size="13px" font-style="normal" font-weight="normal" text-decoration="none" x="581" y="608.5">+GetAll(): IEnumerable</text></g></g><g transform="translate(-270,-6) scale(1,1)"><g><path fill="none" stroke="none"/><text fill="#000000" stroke="none" font-family="Arial" font-size="13px" font-style="normal" font-weight="normal" text-decoration="none" x="581" y="623.5">+GetExternalReadersInfo(): IEnumerable</text></g></g><g transform="translate(-270,-6) scale(1,1)"><g><path fill="none" stroke="none"/><text fill="#000000" stroke="none" font-family="Arial" font-size="13px" font-style="normal" font-weight="normal" text-decoration="none" x="581" y="638.5">+AddBugsFromExternalReader(externalReaderName: string, parameters: IEnumerable): void</text></g></g><g transform="translate(-270,-6) scale(1,1)"><g><path fill="none" stroke="none"/><text fill="#000000" stroke="none" font-family="Arial" font-size="13px" font-style="normal" font-weight="normal" text-decoration="none" x="581" y="653.5">-ParseProjectModels(projects: IEnumerable): IEnumerable</text></g></g><g transform="translate(-270,-6) scale(1,1)"><g><path fill="none" stroke="none"/><text fill="#000000" stroke="none" font-family="Arial" font-size="13px" font-style="normal" font-weight="normal" text-decoration="none" x="581" y="668.5">+Get(projectId: int): Project</text></g></g><g transform="translate(-270,-6) scale(1,1)"><rect fill="#C0C0C0" stroke="none" x="583" y="703" width="546.22119140625" height="130" opacity="0.2"/></g><g transform="translate(-270,-6) scale(1,1)"><rect fill="#ffffff" stroke="none" x="576" y="696" width="546.22119140625" height="130"/></g><g transform="translate(-270,-6) scale(1,1)"><path fill="none" stroke="#000000" d="M 576 696 L 1122.22119140625 696 L 1122.22119140625 826 L 576 826 L 576 696 Z Z" stroke-miterlimit="10"/></g><g transform="translate(-270,-6) scale(1,1)"><path fill="none" stroke="#000000" d="M 576 721 L 1122.22119140625 721" stroke-miterlimit="10"/></g><g transform="translate(-270,-6) scale(1,1)"><path fill="none" stroke="#000000" d="M 576 744 L 1122.22119140625 744" stroke-miterlimit="10"/></g><g transform="translate(-270,-6) scale(1,1)"><g><path fill="none" stroke="none"/><text fill="#000000" stroke="none" font-family="Arial" font-size="13px" font-style="normal" font-weight="bold" text-decoration="none" x="819.847900390625" y="715.5">UserLogic</text></g></g><g transform="translate(-270,-6) scale(1,1)"><g><path fill="none" stroke="none"/><text fill="#000000" stroke="none" font-family="Arial" font-size="13px" font-style="normal" font-weight="normal" text-decoration="none" x="581" y="738.5">-_userRepository: IUserRepository</text></g></g><g transform="translate(-270,-6) scale(1,1)"><g><path fill="none" stroke="none"/><text fill="#000000" stroke="none" font-family="Arial" font-size="13px" font-style="normal" font-weight="normal" text-decoration="none" x="581" y="761.5">«constructor»+UserLogic()</text></g></g><g transform="translate(-270,-6) scale(1,1)"><g><path fill="none" stroke="none"/><text fill="#000000" stroke="none" font-family="Arial" font-size="13px" font-style="normal" font-weight="normal" text-decoration="none" x="581" y="776.5">+Add(newUser: User): void</text></g></g><g transform="translate(-270,-6) scale(1,1)"><g><path fill="none" stroke="none"/><text fill="#000000" stroke="none" font-family="Arial" font-size="13px" font-style="normal" font-weight="normal" text-decoration="none" x="581" y="791.5">+Get(token: string): User</text></g></g><g transform="translate(-270,-6) scale(1,1)"><g><path fill="none" stroke="none"/><text fill="#000000" stroke="none" font-family="Arial" font-size="13px" font-style="normal" font-weight="normal" text-decoration="none" x="581" y="806.5">+GetProjects(token: string): IEnumerable</text></g></g><g transform="translate(-270,-6) scale(1,1)"><g><path fill="none" stroke="none"/><text fill="#000000" stroke="none" font-family="Arial" font-size="13px" font-style="normal" font-weight="normal" text-decoration="none" x="581" y="821.5">+GetAll(): IEnumerable</text></g></g><g transform="translate(-270,-6) scale(1,1)"><rect fill="#C0C0C0" stroke="none" x="583" y="1023" width="546.22119140625" height="190" opacity="0.2"/></g><g transform="translate(-270,-6) scale(1,1)"><rect fill="#ffffff" stroke="none" x="576" y="1016" width="546.22119140625" height="190"/></g><g transform="translate(-270,-6) scale(1,1)"><path fill="none" stroke="#000000" d="M 576 1016 L 1122.22119140625 1016 L 1122.22119140625 1206 L 576 1206 L 576 1016 Z Z" stroke-miterlimit="10"/></g><g transform="translate(-270,-6) scale(1,1)"><path fill="none" stroke="#000000" d="M 576 1041 L 1122.22119140625 1041" stroke-miterlimit="10"/></g><g transform="translate(-270,-6) scale(1,1)"><path fill="none" stroke="#000000" d="M 576 1094 L 1122.22119140625 1094" stroke-miterlimit="10"/></g><g transform="translate(-270,-6) scale(1,1)"><g><path fill="none" stroke="none"/><text fill="#000000" stroke="none" font-family="Arial" font-size="13px" font-style="normal" font-weight="bold" text-decoration="none" x="822.006103515625" y="1035.5">BugLogic</text></g></g><g transform="translate(-270,-6) scale(1,1)"><g><path fill="none" stroke="none"/><text fill="#000000" stroke="none" font-family="Arial" font-size="13px" font-style="normal" font-weight="normal" text-decoration="none" x="581" y="1058.5">-_bugRepository: IBugRepository</text></g></g><g transform="translate(-270,-6) scale(1,1)"><g><path fill="none" stroke="none"/><text fill="#000000" stroke="none" font-family="Arial" font-size="13px" font-style="normal" font-weight="normal" text-decoration="none" x="581" y="1073.5">-_userRepository: IUserRepository</text></g></g><g transform="translate(-270,-6) scale(1,1)"><g><path fill="none" stroke="none"/><text fill="#000000" stroke="none" font-family="Arial" font-size="13px" font-style="normal" font-weight="normal" text-decoration="none" x="581" y="1088.5">-_userLogic: UserLogic</text></g></g><g transform="translate(-270,-6) scale(1,1)"><g><path fill="none" stroke="none"/><text fill="#000000" stroke="none" font-family="Arial" font-size="13px" font-style="normal" font-weight="normal" text-decoration="none" x="581" y="1111.5">«constructor»+BugLogic()</text></g></g><g transform="translate(-270,-6) scale(1,1)"><g><path fill="none" stroke="none"/><text fill="#000000" stroke="none" font-family="Arial" font-size="13px" font-style="normal" font-weight="normal" text-decoration="none" x="581" y="1126.5">+Add(token: string, newBug: Bug): void</text></g></g><g transform="translate(-270,-6) scale(1,1)"><g><path fill="none" stroke="none"/><text fill="#000000" stroke="none" font-family="Arial" font-size="13px" font-style="normal" font-weight="normal" text-decoration="none" x="581" y="1141.5">+Update(token: string, updatedBug: Bug): void</text></g></g><g transform="translate(-270,-6) scale(1,1)"><g><path fill="none" stroke="none"/><text fill="#000000" stroke="none" font-family="Arial" font-size="13px" font-style="normal" font-weight="normal" text-decoration="none" x="581" y="1156.5">+Fix(token: string, bugId: int, fixingTime: int): void</text></g></g><g transform="translate(-270,-6) scale(1,1)"><g><path fill="none" stroke="none"/><text fill="#000000" stroke="none" font-family="Arial" font-size="13px" font-style="normal" font-weight="normal" text-decoration="none" x="581" y="1171.5">+Delete(token: string, bugId: int): void</text></g></g><g transform="translate(-270,-6) scale(1,1)"><g><path fill="none" stroke="none"/><text fill="#000000" stroke="none" font-family="Arial" font-size="13px" font-style="normal" font-weight="normal" text-decoration="none" x="581" y="1186.5">+Get(token: string, bugId: int): Bug</text></g></g><g transform="translate(-270,-6) scale(1,1)"><g><path fill="none" stroke="none"/><text fill="#000000" stroke="none" font-family="Arial" font-size="13px" font-style="normal" font-weight="normal" text-decoration="none" x="581" y="1201.5">+GetAllFiltered(token: string, criteria: BugSearchCriteria): IEnumerable</text></g></g><g transform="translate(-270,-6) scale(1,1)"><rect fill="#C0C0C0" stroke="none" x="583" y="863" width="546.22119140625" height="102" opacity="0.2"/></g><g transform="translate(-270,-6) scale(1,1)"><rect fill="#ffffff" stroke="none" x="576" y="856" width="546.22119140625" height="102"/></g><g transform="translate(-270,-6) scale(1,1)"><path fill="none" stroke="#000000" d="M 576 856 L 1122.22119140625 856 L 1122.22119140625 958 L 576 958 L 576 856 Z Z" stroke-miterlimit="10"/></g><g transform="translate(-270,-6) scale(1,1)"><path fill="none" stroke="#000000" d="M 576 881 L 1122.22119140625 881" stroke-miterlimit="10"/></g><g transform="translate(-270,-6) scale(1,1)"><path fill="none" stroke="#000000" d="M 576 891 L 1122.22119140625 891" stroke-miterlimit="10"/></g><g transform="translate(-270,-6) scale(1,1)"><g><path fill="none" stroke="none"/><text fill="#000000" stroke="none" font-family="Arial" font-size="13px" font-style="normal" font-weight="bold" text-decoration="none" x="810.447021484375" y="875.5">SessionLogic</text></g></g><g transform="translate(-270,-6) scale(1,1)"><g><path fill="none" stroke="none"/><text fill="#000000" stroke="none" font-family="Arial" font-size="13px" font-style="normal" font-weight="normal" text-decoration="none" x="581" y="908.5">«constructor»+SessionLogic()</text></g></g><g transform="translate(-270,-6) scale(1,1)"><g><path fill="none" stroke="none"/><text fill="#000000" stroke="none" font-family="Arial" font-size="13px" font-style="normal" font-weight="normal" text-decoration="none" x="581" y="923.5">+GenerateToken(): string</text></g></g><g transform="translate(-270,-6) scale(1,1)"><g><path fill="none" stroke="none"/><text fill="#000000" stroke="none" font-family="Arial" font-size="13px" font-style="normal" font-weight="normal" text-decoration="none" x="581" y="938.5">+Authenticate(username: string, pass: string): string</text></g></g><g transform="translate(-270,-6) scale(1,1)"><g><path fill="none" stroke="none"/><text fill="#000000" stroke="none" font-family="Arial" font-size="13px" font-style="normal" font-weight="normal" text-decoration="none" x="581" y="953.5">+GetRoleByToken(token: string): RoleType</text></g></g><g transform="translate(-270,-6) scale(1,1)"><rect fill="#C0C0C0" stroke="none" x="588" y="303" width="546.22119140625" height="85" opacity="0.2"/></g><g transform="translate(-270,-6) scale(1,1)"><rect fill="#ffffff" stroke="none" x="581" y="296" width="546.22119140625" height="85"/></g><g transform="translate(-270,-6) scale(1,1)"><path fill="none" stroke="#000000" d="M 581 296 L 1127.22119140625 296 L 1127.22119140625 381 L 581 381 L 581 296 Z Z" stroke-miterlimit="10"/></g><g transform="translate(-270,-6) scale(1,1)"><path fill="none" stroke="#000000" d="M 581 321 L 1127.22119140625 321" stroke-miterlimit="10"/></g><g transform="translate(-270,-6) scale(1,1)"><path fill="none" stroke="#000000" d="M 581 344 L 1127.22119140625 344" stroke-miterlimit="10"/></g><g transform="translate(-270,-6) scale(1,1)"><g><path fill="none" stroke="none"/><text fill="#000000" stroke="none" font-family="Arial" font-size="13px" font-style="normal" font-weight="bold" text-decoration="none" x="804.611572265625" y="315.5">AssignmentLogic</text></g></g><g transform="translate(-270,-6) scale(1,1)"><g><path fill="none" stroke="none"/><text fill="#000000" stroke="none" font-family="Arial" font-size="13px" font-style="normal" font-weight="normal" text-decoration="none" x="586" y="338.5">-_assignmentRepository: IAssignmentRepository</text></g></g><g transform="translate(-270,-6) scale(1,1)"><g><path fill="none" stroke="none"/><text fill="#000000" stroke="none" font-family="Arial" font-size="13px" font-style="normal" font-weight="normal" text-decoration="none" x="586" y="361.5">«constructor»+AssignmentLogic()</text></g></g><g transform="translate(-270,-6) scale(1,1)"><g><path fill="none" stroke="none"/><text fill="#000000" stroke="none" font-family="Arial" font-size="13px" font-style="normal" font-weight="normal" text-decoration="none" x="586" y="376.5">+Add(assignment: Assignment): void</text></g></g><g transform="translate(-270,-6) scale(1,1)"><path fill="none" stroke="#000000" d="M 365 303.5 A 11.5 11.5 0 0 1 365 326.5" stroke-miterlimit="10"/></g><g transform="translate(-270,-6) scale(1,1)"><g><path fill="none" stroke="none"/><text fill="#000000" stroke="none" font-family="Arial" font-size="13px" font-style="normal" font-weight="bold" text-decoration="none" x="298.622314453125" y="346.5">IAssignmentRepository</text></g></g><g transform="translate(-270,-6) scale(1,1)"><path fill="none" stroke="#000000" d="M 581 315 L 376.956787109375 315" stroke-miterlimit="10"/></g><g transform="translate(-270,-6) scale(1,1)"><path fill="none" stroke="#000000" d="M 358 455.5 A 11.5 11.5 0 0 1 358 478.5" stroke-miterlimit="10"/></g><g transform="translate(-270,-6) scale(1,1)"><g><path fill="none" stroke="none"/><text fill="#000000" stroke="none" font-family="Arial" font-size="13px" font-style="normal" font-weight="bold" text-decoration="none" x="305.187744140625" y="498.5">IProjectRepository</text></g></g><g transform="translate(-270,-6) scale(1,1)"><path fill="none" stroke="#000000" d="M 576 467 L 369.792236328125 467" stroke-miterlimit="10"/></g><g transform="translate(-270,-6) scale(1,1)"><path fill="none" stroke="#000000" d="M 360 535.5 A 11.5 11.5 0 0 1 360 558.5" stroke-miterlimit="10"/></g><g transform="translate(-270,-6) scale(1,1)"><g><path fill="none" stroke="none"/><text fill="#000000" stroke="none" font-family="Arial" font-size="13px" font-style="normal" font-weight="bold" text-decoration="none" x="289.19091796875" y="578.5">IExternalReaderImporter</text></g></g><g transform="translate(-270,-6) scale(1,1)"><path fill="none" stroke="#000000" d="M 576 547 L 371.86083984375 547" stroke-miterlimit="10"/></g><g transform="translate(-270,-6) scale(1,1)"><path fill="none" stroke="#000000" d="M 358 735.5 A 11.5 11.5 0 0 1 358 758.5" stroke-miterlimit="10"/></g><g transform="translate(-270,-6) scale(1,1)"><path fill="none" stroke="#000000" d="M 369.5 747 A 11.5 11.5 0 0 1 346.5 747" stroke-miterlimit="10"/></g><g transform="translate(-270,-6) scale(1,1)"><path fill="none" stroke="#000000" d="M 358 735.5 A 11.5 11.5 0 0 1 358 758.5" stroke-miterlimit="10"/></g><g transform="translate(-270,-6) scale(1,1)"><g><path fill="none" stroke="none"/><text fill="#000000" stroke="none" font-family="Arial" font-size="13px" font-style="normal" font-weight="bold" text-decoration="none" x="312.11181640625" y="778.5">IUserRepository</text></g></g><g transform="translate(-270,-6) scale(1,1)"><path fill="none" stroke="#000000" d="M 576 747 L 370.2099609375 747" stroke-miterlimit="10"/></g><g transform="translate(-270,-6) scale(1,1)"><path fill="none" stroke="#000000" d="M 428 1039.5 A 11.5 11.5 0 0 1 428 1062.5" stroke-miterlimit="10"/></g><g transform="translate(-270,-6) scale(1,1)"><g><path fill="none" stroke="none"/><text fill="#000000" stroke="none" font-family="Arial" font-size="13px" font-style="normal" font-weight="bold" text-decoration="none" x="384.451416015625" y="1082.5">IBugRepository</text></g></g><g transform="translate(-270,-6) scale(1,1)"><path fill="none" stroke="#000000" d="M 576 1051 L 440.391357421875 1051" stroke-miterlimit="10"/></g><g transform="translate(-270,-6) scale(1,1)"><path fill="none" stroke="#000000" d="M 576 1143 L 358 1143 L 358 759" stroke-miterlimit="10"/></g><g transform="translate(-270,-6) scale(1,1)"><path fill="none" stroke="#000000" d="M 576 907 L 488 907 L 488 747 L 370.2099609375 747" stroke-miterlimit="10"/></g><g transform="translate(-270,-6) scale(1,1)"><path fill="#C0C0C0" stroke="none" d="M 1048.338623046875 194.5 C 1048.338623046875 188.1487248 1053.487347846875 183 1059.838623046875 183 C 1066.189898246875 183 1071.338623046875 188.1487248 1071.338623046875 194.5 C 1071.338623046875 200.8512752 1066.189898246875 206 1059.838623046875 206 C 1053.487347846875 206 1048.338623046875 200.8512752 1048.338623046875 194.5 Z" opacity="0.2"/></g><g transform="translate(-270,-6) scale(1,1)"><path fill="#ffffff" stroke="none" d="M 1041.338623046875 187.5 C 1041.338623046875 181.1487248 1046.487347846875 176 1052.838623046875 176 C 1059.189898246875 176 1064.338623046875 181.1487248 1064.338623046875 187.5 C 1064.338623046875 193.8512752 1059.189898246875 199 1052.838623046875 199 C 1046.487347846875 199 1041.338623046875 193.8512752 1041.338623046875 187.5 Z"/></g><g transform="translate(-270,-6) scale(1,1)"><path fill="none" stroke="#000000" d="M 1041.338623046875 187.5 C 1041.338623046875 181.1487248 1046.487347846875 176 1052.838623046875 176 C 1059.189898246875 176 1064.338623046875 181.1487248 1064.338623046875 187.5 C 1064.338623046875 193.8512752 1059.189898246875 199 1052.838623046875 199 C 1046.487347846875 199 1041.338623046875 193.8512752 1041.338623046875 187.5 Z" stroke-miterlimit="10"/></g><g transform="translate(-270,-6) scale(1,1)"><g><path fill="none" stroke="none"/><text fill="#000000" stroke="none" font-family="Arial" font-size="13px" font-style="normal" font-weight="bold" text-decoration="none" x="1001.53369140625" y="218.5">IAssignmentLogic</text></g></g><g transform="translate(-270,-6) scale(1,1)"><path fill="none" stroke="#000000" d="M 1052 296 L 1052 199" stroke-miterlimit="10"/></g><g transform="translate(-270,-6) scale(1,1)"><g><path fill="none" stroke="none"/><text fill="#000000" stroke="none" font-family="Arial" font-size="13px" font-style="normal" font-weight="normal" text-decoration="none" x="973" y="154">+Add(in assignment:Assignment): void</text></g></g><g transform="translate(-270,-6) scale(1,1)"><path fill="#C0C0C0" stroke="none" d="M 1441.174072265625 226.5 C 1441.174072265625 220.1487248 1446.322797065625 215 1452.674072265625 215 C 1459.025347465625 215 1464.174072265625 220.1487248 1464.174072265625 226.5 C 1464.174072265625 232.8512752 1459.025347465625 238 1452.674072265625 238 C 1446.322797065625 238 1441.174072265625 232.8512752 1441.174072265625 226.5 Z" opacity="0.2"/></g><g transform="translate(-270,-6) scale(1,1)"><path fill="#ffffff" stroke="none" d="M 1434.174072265625 219.5 C 1434.174072265625 213.1487248 1439.322797065625 208 1445.674072265625 208 C 1452.025347465625 208 1457.174072265625 213.1487248 1457.174072265625 219.5 C 1457.174072265625 225.8512752 1452.025347465625 231 1445.674072265625 231 C 1439.322797065625 231 1434.174072265625 225.8512752 1434.174072265625 219.5 Z"/></g><g transform="translate(-270,-6) scale(1,1)"><path fill="none" stroke="#000000" d="M 1434.174072265625 219.5 C 1434.174072265625 213.1487248 1439.322797065625 208 1445.674072265625 208 C 1452.025347465625 208 1457.174072265625 213.1487248 1457.174072265625 219.5 C 1457.174072265625 225.8512752 1452.025347465625 231 1445.674072265625 231 C 1439.322797065625 231 1434.174072265625 225.8512752 1434.174072265625 219.5 Z" stroke-miterlimit="10"/></g><g transform="translate(-270,-6) scale(1,1)"><g><path fill="none" stroke="none"/><text fill="#000000" stroke="none" font-family="Arial" font-size="13px" font-style="normal" font-weight="bold" text-decoration="none" x="1408.09912109375" y="250.5">IProjectLogic</text></g></g><g transform="translate(-270,-6) scale(1,1)"><g><path fill="none" stroke="none"/><text fill="#000000" stroke="none" font-family="Arial" font-size="13px" font-style="normal" font-weight="normal" text-decoration="none" x="1277" y="34">+Add(in newProject:Project): void</text></g></g><g transform="translate(-270,-6) scale(1,1)"><g><path fill="none" stroke="none"/><text fill="#000000" stroke="none" font-family="Arial" font-size="13px" font-style="normal" font-weight="normal" text-decoration="none" x="1277" y="49">+Update(in id:int, in updatedProject:Project): void</text></g></g><g transform="translate(-270,-6) scale(1,1)"><g><path fill="none" stroke="none"/><text fill="#000000" stroke="none" font-family="Arial" font-size="13px" font-style="normal" font-weight="normal" text-decoration="none" x="1277" y="64">+Delete(in projectId:int): void</text></g></g><g transform="translate(-270,-6) scale(1,1)"><g><path fill="none" stroke="none"/><text fill="#000000" stroke="none" font-family="Arial" font-size="13px" font-style="normal" font-weight="normal" text-decoration="none" x="1277" y="79">+AssignUserToProject(in userId:int, in projectId:int): void</text></g></g><g transform="translate(-270,-6) scale(1,1)"><g><path fill="none" stroke="none"/><text fill="#000000" stroke="none" font-family="Arial" font-size="13px" font-style="normal" font-weight="normal" text-decoration="none" x="1277" y="94">+DissociateUserFromProject(in userId:int, in projectId:int): void</text></g></g><g transform="translate(-270,-6) scale(1,1)"><g><path fill="none" stroke="none"/><text fill="#000000" stroke="none" font-family="Arial" font-size="13px" font-style="normal" font-weight="normal" text-decoration="none" x="1277" y="109">+AddBugsFromFile(in path:string, in companyName:string): void</text></g></g><g transform="translate(-270,-6) scale(1,1)"><g><path fill="none" stroke="none"/><text fill="#000000" stroke="none" font-family="Arial" font-size="13px" font-style="normal" font-weight="normal" text-decoration="none" x="1277" y="124">+GetAll(): IEnumerable</text></g></g><g transform="translate(-270,-6) scale(1,1)"><g><path fill="none" stroke="none"/><text fill="#000000" stroke="none" font-family="Arial" font-size="13px" font-style="normal" font-weight="normal" text-decoration="none" x="1277" y="139">+GetExternalReadersInfo(): IEnumerable</text></g></g><g transform="translate(-270,-6) scale(1,1)"><g><path fill="none" stroke="none"/><text fill="#000000" stroke="none" font-family="Arial" font-size="13px" font-style="normal" font-weight="normal" text-decoration="none" x="1277" y="154">+AddBugsFromExternalReader(in externalReaderName:string, in parameters:IEnumerable): void</text></g></g><g transform="translate(-270,-6) scale(1,1)"><g><path fill="none" stroke="none"/><text fill="#000000" stroke="none" font-family="Arial" font-size="13px" font-style="normal" font-weight="normal" text-decoration="none" x="1277" y="169">+ParseProjectModels(in projects:IEnumerable): IEnumerable</text></g></g><g transform="translate(-270,-6) scale(1,1)"><g><path fill="none" stroke="none"/><text fill="#000000" stroke="none" font-family="Arial" font-size="13px" font-style="normal" font-weight="normal" text-decoration="none" x="1277" y="184">+Get(in projectId:int): Project</text></g></g><g transform="translate(-270,-6) scale(1,1)"><path fill="none" stroke="#000000" d="M 1122 432 L 1445 432 L 1445 231" stroke-miterlimit="10"/></g><g transform="translate(-270,-6) scale(1,1)"><path fill="#C0C0C0" stroke="none" d="M 1401.591796875 578.5 C 1401.591796875 572.1487248 1406.740521675 567 1413.091796875 567 C 1419.443072075 567 1424.591796875 572.1487248 1424.591796875 578.5 C 1424.591796875 584.8512752 1419.443072075 590 1413.091796875 590 C 1406.740521675 590 1401.591796875 584.8512752 1401.591796875 578.5 Z" opacity="0.2"/></g><g transform="translate(-270,-6) scale(1,1)"><path fill="#ffffff" stroke="none" d="M 1394.591796875 571.5 C 1394.591796875 565.1487248 1399.740521675 560 1406.091796875 560 C 1412.443072075 560 1417.591796875 565.1487248 1417.591796875 571.5 C 1417.591796875 577.8512752 1412.443072075 583 1406.091796875 583 C 1399.740521675 583 1394.591796875 577.8512752 1394.591796875 571.5 Z"/></g><g transform="translate(-270,-6) scale(1,1)"><path fill="none" stroke="#000000" d="M 1394.591796875 571.5 C 1394.591796875 565.1487248 1399.740521675 560 1406.091796875 560 C 1412.443072075 560 1417.591796875 565.1487248 1417.591796875 571.5 C 1417.591796875 577.8512752 1412.443072075 583 1406.091796875 583 C 1399.740521675 583 1394.591796875 577.8512752 1394.591796875 571.5 Z" stroke-miterlimit="10"/></g><g transform="translate(-270,-6) scale(1,1)"><g><path fill="none" stroke="none"/><text fill="#000000" stroke="none" font-family="Arial" font-size="13px" font-style="normal" font-weight="bold" text-decoration="none" x="1375.023193359375" y="602.5">IUserLogic</text></g></g><g transform="translate(-270,-6) scale(1,1)"><g><path fill="none" stroke="none"/><text fill="#000000" stroke="none" font-family="Arial" font-size="13px" font-style="normal" font-weight="normal" text-decoration="none" x="1469" y="562">+Add(in newUser:User): void</text></g></g><g transform="translate(-270,-6) scale(1,1)"><g><path fill="none" stroke="none"/><text fill="#000000" stroke="none" font-family="Arial" font-size="13px" font-style="normal" font-weight="normal" text-decoration="none" x="1469" y="577">+Get(in token:string): User</text></g></g><g transform="translate(-270,-6) scale(1,1)"><g><path fill="none" stroke="none"/><text fill="#000000" stroke="none" font-family="Arial" font-size="13px" font-style="normal" font-weight="normal" text-decoration="none" x="1469" y="592">+GetProjects(in token:string): IEnumerable</text></g></g><g transform="translate(-270,-6) scale(1,1)"><g><path fill="none" stroke="none"/><text fill="#000000" stroke="none" font-family="Arial" font-size="13px" font-style="normal" font-weight="normal" text-decoration="none" x="1469" y="607">+GetAll(): IEnumerable</text></g></g><g transform="translate(-270,-6) scale(1,1)"><path fill="none" stroke="#000000" d="M 1122 720 L 1406 720 L 1406 583" stroke-miterlimit="10"/></g><g transform="translate(-270,-6) scale(1,1)"><path fill="#C0C0C0" stroke="none" d="M 1404.0654296875 794.5 C 1404.0654296875 788.1487248 1409.2141544875 783 1415.5654296875 783 C 1421.9167048875 783 1427.0654296875 788.1487248 1427.0654296875 794.5 C 1427.0654296875 800.8512752 1421.9167048875 806 1415.5654296875 806 C 1409.2141544875 806 1404.0654296875 800.8512752 1404.0654296875 794.5 Z" opacity="0.2"/></g><g transform="translate(-270,-6) scale(1,1)"><path fill="#ffffff" stroke="none" d="M 1397.0654296875 787.5 C 1397.0654296875 781.1487248 1402.2141544875 776 1408.5654296875 776 C 1414.9167048875 776 1420.0654296875 781.1487248 1420.0654296875 787.5 C 1420.0654296875 793.8512752 1414.9167048875 799 1408.5654296875 799 C 1402.2141544875 799 1397.0654296875 793.8512752 1397.0654296875 787.5 Z"/></g><g transform="translate(-270,-6) scale(1,1)"><path fill="none" stroke="#000000" d="M 1397.0654296875 787.5 C 1397.0654296875 781.1487248 1402.2141544875 776 1408.5654296875 776 C 1414.9167048875 776 1420.0654296875 781.1487248 1420.0654296875 787.5 C 1420.0654296875 793.8512752 1414.9167048875 799 1408.5654296875 799 C 1402.2141544875 799 1397.0654296875 793.8512752 1397.0654296875 787.5 Z" stroke-miterlimit="10"/></g><g transform="translate(-270,-6) scale(1,1)"><g><path fill="none" stroke="none"/><text fill="#000000" stroke="none" font-family="Arial" font-size="13px" font-style="normal" font-weight="bold" text-decoration="none" x="1368.095947265625" y="818.5">ISessionLogic</text></g></g><g transform="translate(-270,-6) scale(1,1)"><g><path fill="none" stroke="none"/><text fill="#000000" stroke="none" font-family="Arial" font-size="13px" font-style="normal" font-weight="normal" text-decoration="none" x="1477" y="786">+GenerateToken(): string</text></g></g><g transform="translate(-270,-6) scale(1,1)"><g><path fill="none" stroke="none"/><text fill="#000000" stroke="none" font-family="Arial" font-size="13px" font-style="normal" font-weight="normal" text-decoration="none" x="1477" y="801">+Authenticate(in username:string, in pass:string): string  </text><text fill="#000000" stroke="none" font-family="Arial" font-size="13px" font-style="normal" font-weight="normal" text-decoration="none" x="1477" y="814">  </text></g></g><g transform="translate(-270,-6) scale(1,1)"><g><path fill="none" stroke="none"/><text fill="#000000" stroke="none" font-family="Arial" font-size="13px" font-style="normal" font-weight="normal" text-decoration="none" x="1477" y="816">+GetRoleByToken(in token:string): RoleType</text></g></g><g transform="translate(-270,-6) scale(1,1)"><path fill="none" stroke="#000000" d="M 1122 856 L 1408 856 L 1408 799" stroke-miterlimit="10"/></g><g transform="translate(-270,-6) scale(1,1)"><path fill="#C0C0C0" stroke="none" d="M 1391.773193359375 1082.5 C 1391.773193359375 1076.1487248 1396.921918159375 1071 1403.273193359375 1071 C 1409.624468559375 1071 1414.773193359375 1076.1487248 1414.773193359375 1082.5 C 1414.773193359375 1088.8512752 1409.624468559375 1094 1403.273193359375 1094 C 1396.921918159375 1094 1391.773193359375 1088.8512752 1391.773193359375 1082.5 Z" opacity="0.2"/></g><g transform="translate(-270,-6) scale(1,1)"><path fill="#ffffff" stroke="none" d="M 1384.773193359375 1075.5 C 1384.773193359375 1069.1487248 1389.921918159375 1064 1396.273193359375 1064 C 1402.624468559375 1064 1407.773193359375 1069.1487248 1407.773193359375 1075.5 C 1407.773193359375 1081.8512752 1402.624468559375 1087 1396.273193359375 1087 C 1389.921918159375 1087 1384.773193359375 1081.8512752 1384.773193359375 1075.5 Z"/></g><g transform="translate(-270,-6) scale(1,1)"><path fill="none" stroke="#000000" d="M 1384.773193359375 1075.5 C 1384.773193359375 1069.1487248 1389.921918159375 1064 1396.273193359375 1064 C 1402.624468559375 1064 1407.773193359375 1069.1487248 1407.773193359375 1075.5 C 1407.773193359375 1081.8512752 1402.624468559375 1087 1396.273193359375 1087 C 1389.921918159375 1087 1384.773193359375 1081.8512752 1384.773193359375 1075.5 Z" stroke-miterlimit="10"/></g><g transform="translate(-270,-6) scale(1,1)"><g><path fill="none" stroke="none"/><text fill="#000000" stroke="none" font-family="Arial" font-size="13px" font-style="normal" font-weight="bold" text-decoration="none" x="1367.36279296875" y="1106.5">IBugLogic</text></g></g><g transform="translate(-270,-6) scale(1,1)"><g><path fill="none" stroke="none"/><text fill="#000000" stroke="none" font-family="Arial" font-size="13px" font-style="normal" font-weight="normal" text-decoration="none" x="1469" y="1050">+Add(in token:string, in newBug:Bug): void</text></g></g><g transform="translate(-270,-6) scale(1,1)"><g><path fill="none" stroke="none"/><text fill="#000000" stroke="none" font-family="Arial" font-size="13px" font-style="normal" font-weight="normal" text-decoration="none" x="1469" y="1065">+Update(in token:string, in updatedBug:Bug): void</text></g></g><g transform="translate(-270,-6) scale(1,1)"><g><path fill="none" stroke="none"/><text fill="#000000" stroke="none" font-family="Arial" font-size="13px" font-style="normal" font-weight="normal" text-decoration="none" x="1469" y="1080">+Fix(in token:string, in bugId:int, in fixingTime:int): void</text></g></g><g transform="translate(-270,-6) scale(1,1)"><g><path fill="none" stroke="none"/><text fill="#000000" stroke="none" font-family="Arial" font-size="13px" font-style="normal" font-weight="normal" text-decoration="none" x="1469" y="1095">+Delete(in token:string, in bugId:int): void</text></g></g><g transform="translate(-270,-6) scale(1,1)"><g><path fill="none" stroke="none"/><text fill="#000000" stroke="none" font-family="Arial" font-size="13px" font-style="normal" font-weight="normal" text-decoration="none" x="1469" y="1110">+void Update(string token, Bug updatedBug);</text></g></g><g transform="translate(-270,-6) scale(1,1)"><g><path fill="none" stroke="none"/><text fill="#000000" stroke="none" font-family="Arial" font-size="13px" font-style="normal" font-weight="normal" text-decoration="none" x="1469" y="1125">+Get(in token:string, in bugId:int): Bug</text></g></g><g transform="translate(-270,-6) scale(1,1)"><g><path fill="none" stroke="none"/><text fill="#000000" stroke="none" font-family="Arial" font-size="13px" font-style="normal" font-weight="normal" text-decoration="none" x="1469" y="1140">+Get(in token:string, in bugId:int): Bug</text></g></g><g transform="translate(-270,-6) scale(1,1)"><path fill="none" stroke="#000000" d="M 1122 1075 L 1384.773193359375 1075" stroke-miterlimit="10"/></g><g transform="translate(-270,-6) scale(1,1)"><path fill="none" stroke="#000000" d="M 1122 1024 L 1184 1024 L 1184 808 L 1122 808" stroke-miterlimit="10"/></g><g transform="translate(-270,-6) scale(1,1)"><path fill="none" stroke="#000000" d="M 1132.162674857624 803.790482243984 L 1122 808 L 1132.162674857624 812.209517756016" stroke-miterlimit="10"/></g><g transform="translate(-270,-6) scale(1,1)"><g><path fill="none" stroke="none"/><text fill="#000000" stroke="none" font-family="Arial" font-size="13px" font-style="normal" font-weight="normal" text-decoration="none" x="1131.5" y="1042.5">0...*</text></g></g><g transform="translate(-270,-6) scale(1,1)"><g><path fill="none" stroke="none"/><text fill="#000000" stroke="none" font-family="Arial" font-size="13px" font-style="normal" font-weight="normal" text-decoration="none" x="1139.5" y="801.5">1</text></g></g></g></svg>