<svg version="1.1" xmlns="http://www.w3.org/2000/svg" xmlns:xlink="http://www.w3.org/1999/xlink" width="1356" height="1156"><defs/><g>""""""""""""""""""""""""""""""""""""""""""""""""""""""""""""""""""""""""""""""""""""""""""""""""""""""""""""""""""""""""""""""""""""""""""""""""""""""""""""""""""""""""""""""""""""""""""""""""""""""""""""""""""""""""""""""""""""""""""""""""""""""""""""""""""""""""""""""""<text fill="#eeeeee" stroke="none" font-family="Arial" font-size="24px" font-style="normal" font-weight="normal" text-decoration="none" x="1200" y="1140">UNREGISTERED</text><g transform="translate(-710,-190) scale(1,1)"><rect fill="#C0C0C0" stroke="none" x="735" y="391" width="73.60000000000002" height="15" opacity="0.2"/></g><g transform="translate(-710,-190) scale(1,1)"><rect fill="#C0C0C0" stroke="none" x="735" y="405" width="184" height="178" opacity="0.2"/></g><g transform="translate(-710,-190) scale(1,1)"><rect fill="#ffffff" stroke="none" x="728" y="399" width="184" height="177"/></g><g transform="translate(-710,-190) scale(1,1)"><path fill="none" stroke="#000000" d="M 728 399 L 912 399 L 912 576 L 728 576 L 728 399 Z Z" stroke-miterlimit="10"/></g><g transform="translate(-710,-190) scale(1,1)"><rect fill="#ffffff" stroke="none" x="728" y="384" width="73.60000000000002" height="15"/></g><g transform="translate(-710,-190) scale(1,1)"><path fill="none" stroke="#000000" d="M 728 384 L 801.6 384 L 801.6 399 L 728 399 L 728 384 Z Z" stroke-miterlimit="10"/></g><g transform="translate(-710,-190) scale(1,1)"><rect fill="#ffffff" stroke="none" x="728" y="398" width="184" height="178"/></g><g transform="translate(-710,-190) scale(1,1)"><path fill="none" stroke="#000000" d="M 728 398 L 912 398 L 912 576 L 728 576 L 728 398 Z Z" stroke-miterlimit="10"/></g><g transform="translate(-710,-190) scale(1,1)"><g><path fill="none" stroke="none"/><text fill="#000000" stroke="none" font-family="Arial" font-size="13px" font-style="normal" font-weight="bold" text-decoration="none" x="774.83642578125" y="418.5">ExternalReader</text></g></g><g transform="translate(-710,-190) scale(1,1)"><rect fill="#C0C0C0" stroke="none" x="727" y="735" width="84.51992187500002" height="15" opacity="0.2"/></g><g transform="translate(-710,-190) scale(1,1)"><rect fill="#C0C0C0" stroke="none" x="727" y="749" width="211.2998046875" height="74" opacity="0.2"/></g><g transform="translate(-710,-190) scale(1,1)"><rect fill="#ffffff" stroke="none" x="720" y="743" width="211.2998046875" height="73"/></g><g transform="translate(-710,-190) scale(1,1)"><path fill="none" stroke="#000000" d="M 720 743 L 931.2998046875 743 L 931.2998046875 816 L 720 816 L 720 743 Z Z" stroke-miterlimit="10"/></g><g transform="translate(-710,-190) scale(1,1)"><rect fill="#ffffff" stroke="none" x="720" y="728" width="84.51992187500002" height="15"/></g><g transform="translate(-710,-190) scale(1,1)"><path fill="none" stroke="#000000" d="M 720 728 L 804.519921875 728 L 804.519921875 743 L 720 743 L 720 728 Z Z" stroke-miterlimit="10"/></g><g transform="translate(-710,-190) scale(1,1)"><rect fill="#ffffff" stroke="none" x="720" y="742" width="211.2998046875" height="74"/></g><g transform="translate(-710,-190) scale(1,1)"><path fill="none" stroke="#000000" d="M 720 742 L 931.2998046875 742 L 931.2998046875 816 L 720 816 L 720 742 Z Z" stroke-miterlimit="10"/></g><g transform="translate(-710,-190) scale(1,1)"><g><path fill="none" stroke="none"/><text fill="#000000" stroke="none" font-family="Arial" font-size="13px" font-style="normal" font-weight="bold" text-decoration="none" x="768.5654296875" y="762.5">BugReaderImporter</text></g></g><g transform="translate(-710,-190) scale(1,1)"><rect fill="#C0C0C0" stroke="none" x="727" y="647" width="84.51992187500002" height="15" opacity="0.2"/></g><g transform="translate(-710,-190) scale(1,1)"><rect fill="#C0C0C0" stroke="none" x="727" y="661" width="211.2998046875" height="58" opacity="0.2"/></g><g transform="translate(-710,-190) scale(1,1)"><rect fill="#ffffff" stroke="none" x="720" y="655" width="211.2998046875" height="57"/></g><g transform="translate(-710,-190) scale(1,1)"><path fill="none" stroke="#000000" d="M 720 655 L 931.2998046875 655 L 931.2998046875 712 L 720 712 L 720 655 Z Z" stroke-miterlimit="10"/></g><g transform="translate(-710,-190) scale(1,1)"><rect fill="#ffffff" stroke="none" x="720" y="640" width="84.51992187500002" height="15"/></g><g transform="translate(-710,-190) scale(1,1)"><path fill="none" stroke="#000000" d="M 720 640 L 804.519921875 640 L 804.519921875 655 L 720 655 L 720 640 Z Z" stroke-miterlimit="10"/></g><g transform="translate(-710,-190) scale(1,1)"><rect fill="#ffffff" stroke="none" x="720" y="654" width="211.2998046875" height="58"/></g><g transform="translate(-710,-190) scale(1,1)"><path fill="none" stroke="#000000" d="M 720 654 L 931.2998046875 654 L 931.2998046875 712 L 720 712 L 720 654 Z Z" stroke-miterlimit="10"/></g><g transform="translate(-710,-190) scale(1,1)"><g><path fill="none" stroke="none"/><text fill="#000000" stroke="none" font-family="Arial" font-size="13px" font-style="normal" font-weight="bold" text-decoration="none" x="743.273193359375" y="674.5">BugReaderImporterInterface</text></g></g><g transform="translate(-710,-190) scale(1,1)"><rect fill="#C0C0C0" stroke="none" x="1607" y="647" width="73.59999999999991" height="15" opacity="0.2"/></g><g transform="translate(-710,-190) scale(1,1)"><rect fill="#C0C0C0" stroke="none" x="1607" y="661" width="184" height="114" opacity="0.2"/></g><g transform="translate(-710,-190) scale(1,1)"><rect fill="#ffffff" stroke="none" x="1600" y="655" width="184" height="113"/></g><g transform="translate(-710,-190) scale(1,1)"><path fill="none" stroke="#000000" d="M 1600 655 L 1784 655 L 1784 768 L 1600 768 L 1600 655 Z Z" stroke-miterlimit="10"/></g><g transform="translate(-710,-190) scale(1,1)"><rect fill="#ffffff" stroke="none" x="1600" y="640" width="73.59999999999991" height="15"/></g><g transform="translate(-710,-190) scale(1,1)"><path fill="none" stroke="#000000" d="M 1600 640 L 1673.6 640 L 1673.6 655 L 1600 655 L 1600 640 Z Z" stroke-miterlimit="10"/></g><g transform="translate(-710,-190) scale(1,1)"><rect fill="#ffffff" stroke="none" x="1600" y="654" width="184" height="114"/></g><g transform="translate(-710,-190) scale(1,1)"><path fill="none" stroke="#000000" d="M 1600 654 L 1784 654 L 1784 768 L 1600 768 L 1600 654 Z Z" stroke-miterlimit="10"/></g><g transform="translate(-710,-190) scale(1,1)"><g><path fill="none" stroke="none"/><text fill="#000000" stroke="none" font-family="Arial" font-size="13px" font-style="normal" font-weight="bold" text-decoration="none" x="1650.08642578125" y="674.5">BusinessLogic</text></g></g><g transform="translate(-710,-190) scale(1,1)"><rect fill="#C0C0C0" stroke="none" x="1615" y="495" width="76.79999999999995" height="15" opacity="0.2"/></g><g transform="translate(-710,-190) scale(1,1)"><rect fill="#C0C0C0" stroke="none" x="1615" y="509" width="192" height="114" opacity="0.2"/></g><g transform="translate(-710,-190) scale(1,1)"><rect fill="#ffffff" stroke="none" x="1608" y="503" width="192" height="113"/></g><g transform="translate(-710,-190) scale(1,1)"><path fill="none" stroke="#000000" d="M 1608 503 L 1800 503 L 1800 616 L 1608 616 L 1608 503 Z Z" stroke-miterlimit="10"/></g><g transform="translate(-710,-190) scale(1,1)"><rect fill="#ffffff" stroke="none" x="1608" y="488" width="76.79999999999995" height="15"/></g><g transform="translate(-710,-190) scale(1,1)"><path fill="none" stroke="#000000" d="M 1608 488 L 1684.8 488 L 1684.8 503 L 1608 503 L 1608 488 Z Z" stroke-miterlimit="10"/></g><g transform="translate(-710,-190) scale(1,1)"><rect fill="#ffffff" stroke="none" x="1608" y="502" width="192" height="114"/></g><g transform="translate(-710,-190) scale(1,1)"><path fill="none" stroke="#000000" d="M 1608 502 L 1800 502 L 1800 616 L 1608 616 L 1608 502 Z Z" stroke-miterlimit="10"/></g><g transform="translate(-710,-190) scale(1,1)"><g><path fill="none" stroke="none"/><text fill="#000000" stroke="none" font-family="Arial" font-size="13px" font-style="normal" font-weight="bold" text-decoration="none" x="1636.794189453125" y="522.5">BusinessLogicInterface</text></g></g><g transform="translate(-710,-190) scale(1,1)"><rect fill="#C0C0C0" stroke="none" x="1591" y="991" width="76.79999999999995" height="15" opacity="0.2"/></g><g transform="translate(-710,-190) scale(1,1)"><rect fill="#C0C0C0" stroke="none" x="1591" y="1005" width="192" height="130" opacity="0.2"/></g><g transform="translate(-710,-190) scale(1,1)"><rect fill="#ffffff" stroke="none" x="1584" y="999" width="192" height="129"/></g><g transform="translate(-710,-190) scale(1,1)"><path fill="none" stroke="#000000" d="M 1584 999 L 1776 999 L 1776 1128 L 1584 1128 L 1584 999 Z Z" stroke-miterlimit="10"/></g><g transform="translate(-710,-190) scale(1,1)"><rect fill="#ffffff" stroke="none" x="1584" y="984" width="76.79999999999995" height="15"/></g><g transform="translate(-710,-190) scale(1,1)"><path fill="none" stroke="#000000" d="M 1584 984 L 1660.8 984 L 1660.8 999 L 1584 999 L 1584 984 Z Z" stroke-miterlimit="10"/></g><g transform="translate(-710,-190) scale(1,1)"><rect fill="#ffffff" stroke="none" x="1584" y="998" width="192" height="130"/></g><g transform="translate(-710,-190) scale(1,1)"><path fill="none" stroke="#000000" d="M 1584 998 L 1776 998 L 1776 1128 L 1584 1128 L 1584 998 Z Z" stroke-miterlimit="10"/></g><g transform="translate(-710,-190) scale(1,1)"><g><path fill="none" stroke="none"/><text fill="#000000" stroke="none" font-family="Arial" font-size="13px" font-style="normal" font-weight="bold" text-decoration="none" x="1645.319580078125" y="1018.5">DataAccess</text></g></g><g transform="translate(-710,-190) scale(1,1)"><rect fill="#C0C0C0" stroke="none" x="1607" y="807" width="73.59999999999991" height="15" opacity="0.2"/></g><g transform="translate(-710,-190) scale(1,1)"><rect fill="#C0C0C0" stroke="none" x="1607" y="821" width="184" height="98" opacity="0.2"/></g><g transform="translate(-710,-190) scale(1,1)"><rect fill="#ffffff" stroke="none" x="1600" y="815" width="184" height="97"/></g><g transform="translate(-710,-190) scale(1,1)"><path fill="none" stroke="#000000" d="M 1600 815 L 1784 815 L 1784 912 L 1600 912 L 1600 815 Z Z" stroke-miterlimit="10"/></g><g transform="translate(-710,-190) scale(1,1)"><rect fill="#ffffff" stroke="none" x="1600" y="800" width="73.59999999999991" height="15"/></g><g transform="translate(-710,-190) scale(1,1)"><path fill="none" stroke="#000000" d="M 1600 800 L 1673.6 800 L 1673.6 815 L 1600 815 L 1600 800 Z Z" stroke-miterlimit="10"/></g><g transform="translate(-710,-190) scale(1,1)"><rect fill="#ffffff" stroke="none" x="1600" y="814" width="184" height="98"/></g><g transform="translate(-710,-190) scale(1,1)"><path fill="none" stroke="#000000" d="M 1600 814 L 1784 814 L 1784 912 L 1600 912 L 1600 814 Z Z" stroke-miterlimit="10"/></g><g transform="translate(-710,-190) scale(1,1)"><g><path fill="none" stroke="none"/><text fill="#000000" stroke="none" font-family="Arial" font-size="13px" font-style="normal" font-weight="bold" text-decoration="none" x="1632.02734375" y="834.5">DataAccessInterface</text></g></g><g transform="translate(-710,-190) scale(1,1)"><rect fill="#C0C0C0" stroke="none" x="1023" y="511" width="80" height="15" opacity="0.2"/></g><g transform="translate(-710,-190) scale(1,1)"><rect fill="#C0C0C0" stroke="none" x="1023" y="525" width="200" height="98" opacity="0.2"/></g><g transform="translate(-710,-190) scale(1,1)"><rect fill="#ff8282" stroke="none" x="1016" y="519" width="200" height="97"/></g><g transform="translate(-710,-190) scale(1,1)"><path fill="none" stroke="#000000" d="M 1016 519 L 1216 519 L 1216 616 L 1016 616 L 1016 519 Z Z" stroke-miterlimit="10"/></g><g transform="translate(-710,-190) scale(1,1)"><rect fill="#ff8282" stroke="none" x="1016" y="504" width="80" height="15"/></g><g transform="translate(-710,-190) scale(1,1)"><path fill="none" stroke="#000000" d="M 1016 504 L 1096 504 L 1096 519 L 1016 519 L 1016 504 Z Z" stroke-miterlimit="10"/></g><g transform="translate(-710,-190) scale(1,1)"><rect fill="#ff8282" stroke="none" x="1016" y="518" width="200" height="98"/></g><g transform="translate(-710,-190) scale(1,1)"><path fill="none" stroke="#000000" d="M 1016 518 L 1216 518 L 1216 616 L 1016 616 L 1016 518 Z Z" stroke-miterlimit="10"/></g><g transform="translate(-710,-190) scale(1,1)"><g><path fill="none" stroke="none"/><text fill="#000000" stroke="none" font-family="Arial" font-size="13px" font-style="normal" font-weight="bold" text-decoration="none" x="1093.602294921875" y="538.5">Domain</text></g></g><g transform="translate(-710,-190) scale(1,1)"><rect fill="#C0C0C0" stroke="none" x="1071" y="639" width="63.0498046875" height="15" opacity="0.2"/></g><g transform="translate(-710,-190) scale(1,1)"><rect fill="#C0C0C0" stroke="none" x="1071" y="653" width="157.62451171875" height="82" opacity="0.2"/></g><g transform="translate(-710,-190) scale(1,1)"><rect fill="#ffffff" stroke="none" x="1064" y="647" width="157.62451171875" height="81"/></g><g transform="translate(-710,-190) scale(1,1)"><path fill="none" stroke="#000000" d="M 1064 647 L 1221.62451171875 647 L 1221.62451171875 728 L 1064 728 L 1064 647 Z Z" stroke-miterlimit="10"/></g><g transform="translate(-710,-190) scale(1,1)"><rect fill="#ffffff" stroke="none" x="1064" y="632" width="63.0498046875" height="15"/></g><g transform="translate(-710,-190) scale(1,1)"><path fill="none" stroke="#000000" d="M 1064 632 L 1127.0498046875 632 L 1127.0498046875 647 L 1064 647 L 1064 632 Z Z" stroke-miterlimit="10"/></g><g transform="translate(-710,-190) scale(1,1)"><rect fill="#ffffff" stroke="none" x="1064" y="646" width="157.62451171875" height="82"/></g><g transform="translate(-710,-190) scale(1,1)"><path fill="none" stroke="#000000" d="M 1064 646 L 1221.62451171875 646 L 1221.62451171875 728 L 1064 728 L 1064 646 Z Z" stroke-miterlimit="10"/></g><g transform="translate(-710,-190) scale(1,1)"><g><path fill="none" stroke="none"/><text fill="#000000" stroke="none" font-family="Arial" font-size="13px" font-style="normal" font-weight="bold" text-decoration="none" x="1099.46728515625" y="666.5">DomainUtilities</text></g></g><g transform="translate(-710,-190) scale(1,1)"><rect fill="#C0C0C0" stroke="none" x="1071" y="759" width="70.40000000000009" height="15" opacity="0.2"/></g><g transform="translate(-710,-190) scale(1,1)"><rect fill="#C0C0C0" stroke="none" x="1071" y="773" width="176" height="74" opacity="0.2"/></g><g transform="translate(-710,-190) scale(1,1)"><rect fill="#ffffff" stroke="none" x="1064" y="767" width="176" height="73"/></g><g transform="translate(-710,-190) scale(1,1)"><path fill="none" stroke="#000000" d="M 1064 767 L 1240 767 L 1240 840 L 1064 840 L 1064 767 Z Z" stroke-miterlimit="10"/></g><g transform="translate(-710,-190) scale(1,1)"><rect fill="#ffffff" stroke="none" x="1064" y="752" width="70.40000000000009" height="15"/></g><g transform="translate(-710,-190) scale(1,1)"><path fill="none" stroke="#000000" d="M 1064 752 L 1134.4 752 L 1134.4 767 L 1064 767 L 1064 752 Z Z" stroke-miterlimit="10"/></g><g transform="translate(-710,-190) scale(1,1)"><rect fill="#ffffff" stroke="none" x="1064" y="766" width="176" height="74"/></g><g transform="translate(-710,-190) scale(1,1)"><path fill="none" stroke="#000000" d="M 1064 766 L 1240 766 L 1240 840 L 1064 840 L 1064 766 Z Z" stroke-miterlimit="10"/></g><g transform="translate(-710,-190) scale(1,1)"><g><path fill="none" stroke="none"/><text fill="#000000" stroke="none" font-family="Arial" font-size="13px" font-style="normal" font-weight="bold" text-decoration="none" x="1097.81005859375" y="786.5">CustomExceptions</text></g></g><g transform="translate(-710,-190) scale(1,1)"><rect fill="#C0C0C0" stroke="none" x="1903" y="561" width="60.799999999999955" height="15" opacity="0.2"/></g><g transform="translate(-710,-190) scale(1,1)"><rect fill="#C0C0C0" stroke="none" x="1903" y="575" width="152" height="90" opacity="0.2"/></g><g transform="translate(-710,-190) scale(1,1)"><rect fill="#ffffff" stroke="none" x="1896" y="569" width="152" height="89"/></g><g transform="translate(-710,-190) scale(1,1)"><path fill="none" stroke="#000000" d="M 1896 569 L 2048 569 L 2048 658 L 1896 658 L 1896 569 Z Z" stroke-miterlimit="10"/></g><g transform="translate(-710,-190) scale(1,1)"><rect fill="#ffffff" stroke="none" x="1896" y="554" width="60.799999999999955" height="15"/></g><g transform="translate(-710,-190) scale(1,1)"><path fill="none" stroke="#000000" d="M 1896 554 L 1956.8 554 L 1956.8 569 L 1896 569 L 1896 554 Z Z" stroke-miterlimit="10"/></g><g transform="translate(-710,-190) scale(1,1)"><rect fill="#ffffff" stroke="none" x="1896" y="568" width="152" height="90"/></g><g transform="translate(-710,-190) scale(1,1)"><path fill="none" stroke="#000000" d="M 1896 568 L 2048 568 L 2048 658 L 1896 658 L 1896 568 Z Z" stroke-miterlimit="10"/></g><g transform="translate(-710,-190) scale(1,1)"><g><path fill="none" stroke="none"/><text fill="#000000" stroke="none" font-family="Arial" font-size="13px" font-style="normal" font-weight="bold" text-decoration="none" x="1950.3291015625" y="588.5">Factory</text></g></g><g transform="translate(-710,-190) scale(1,1)"><rect fill="#C0C0C0" stroke="none" x="1903" y="801" width="60.799999999999955" height="15" opacity="0.2"/></g><g transform="translate(-710,-190) scale(1,1)"><rect fill="#C0C0C0" stroke="none" x="1903" y="815" width="152" height="72" opacity="0.2"/></g><g transform="translate(-710,-190) scale(1,1)"><rect fill="#ffffff" stroke="none" x="1896" y="809" width="152" height="71"/></g><g transform="translate(-710,-190) scale(1,1)"><path fill="none" stroke="#000000" d="M 1896 809 L 2048 809 L 2048 880 L 1896 880 L 1896 809 Z Z" stroke-miterlimit="10"/></g><g transform="translate(-710,-190) scale(1,1)"><rect fill="#ffffff" stroke="none" x="1896" y="794" width="60.799999999999955" height="15"/></g><g transform="translate(-710,-190) scale(1,1)"><path fill="none" stroke="#000000" d="M 1896 794 L 1956.8 794 L 1956.8 809 L 1896 809 L 1896 794 Z Z" stroke-miterlimit="10"/></g><g transform="translate(-710,-190) scale(1,1)"><rect fill="#ffffff" stroke="none" x="1896" y="808" width="152" height="72"/></g><g transform="translate(-710,-190) scale(1,1)"><path fill="none" stroke="#000000" d="M 1896 808 L 2048 808 L 2048 880 L 1896 880 L 1896 808 Z Z" stroke-miterlimit="10"/></g><g transform="translate(-710,-190) scale(1,1)"><g><path fill="none" stroke="none"/><text fill="#000000" stroke="none" font-family="Arial" font-size="13px" font-style="normal" font-weight="bold" text-decoration="none" x="1945.27001953125" y="828.5">Factories</text></g></g><g transform="translate(-710,-190) scale(1,1)"><rect fill="#C0C0C0" stroke="none" x="1015" y="393" width="80" height="15" opacity="0.2"/></g><g transform="translate(-710,-190) scale(1,1)"><rect fill="#C0C0C0" stroke="none" x="1015" y="407" width="200" height="85" opacity="0.2"/></g><g transform="translate(-710,-190) scale(1,1)"><rect fill="#ffffff" stroke="none" x="1008" y="401" width="200" height="84"/></g><g transform="translate(-710,-190) scale(1,1)"><path fill="none" stroke="#000000" d="M 1008 401 L 1208 401 L 1208 485 L 1008 485 L 1008 401 Z Z" stroke-miterlimit="10"/></g><g transform="translate(-710,-190) scale(1,1)"><rect fill="#ffffff" stroke="none" x="1008" y="386" width="80" height="15"/></g><g transform="translate(-710,-190) scale(1,1)"><path fill="none" stroke="#000000" d="M 1008 386 L 1088 386 L 1088 401 L 1008 401 L 1008 386 Z Z" stroke-miterlimit="10"/></g><g transform="translate(-710,-190) scale(1,1)"><rect fill="#ffffff" stroke="none" x="1008" y="400" width="200" height="85"/></g><g transform="translate(-710,-190) scale(1,1)"><path fill="none" stroke="#000000" d="M 1008 400 L 1208 400 L 1208 485 L 1008 485 L 1008 400 Z Z" stroke-miterlimit="10"/></g><g transform="translate(-710,-190) scale(1,1)"><g><path fill="none" stroke="none"/><text fill="#000000" stroke="none" font-family="Arial" font-size="13px" font-style="normal" font-weight="bold" text-decoration="none" x="1074.763671875" y="420.5">FileHandler</text></g></g><g transform="translate(-710,-190) scale(1,1)"><rect fill="#C0C0C0" stroke="none" x="1031" y="249" width="70.40000000000009" height="15" opacity="0.2"/></g><g transform="translate(-710,-190) scale(1,1)"><rect fill="#C0C0C0" stroke="none" x="1031" y="263" width="176" height="85" opacity="0.2"/></g><g transform="translate(-710,-190) scale(1,1)"><rect fill="#ffffff" stroke="none" x="1024" y="257" width="176" height="84"/></g><g transform="translate(-710,-190) scale(1,1)"><path fill="none" stroke="#000000" d="M 1024 257 L 1200 257 L 1200 341 L 1024 341 L 1024 257 Z Z" stroke-miterlimit="10"/></g><g transform="translate(-710,-190) scale(1,1)"><rect fill="#ffffff" stroke="none" x="1024" y="242" width="70.40000000000009" height="15"/></g><g transform="translate(-710,-190) scale(1,1)"><path fill="none" stroke="#000000" d="M 1024 242 L 1094.4 242 L 1094.4 257 L 1024 257 L 1024 242 Z Z" stroke-miterlimit="10"/></g><g transform="translate(-710,-190) scale(1,1)"><rect fill="#ffffff" stroke="none" x="1024" y="256" width="176" height="85"/></g><g transform="translate(-710,-190) scale(1,1)"><path fill="none" stroke="#000000" d="M 1024 256 L 1200 256 L 1200 341 L 1024 341 L 1024 256 Z Z" stroke-miterlimit="10"/></g><g transform="translate(-710,-190) scale(1,1)"><g><path fill="none" stroke="none"/><text fill="#000000" stroke="none" font-family="Arial" font-size="13px" font-style="normal" font-weight="bold" text-decoration="none" x="1057.0927734375" y="276.5">FileHandlerFactory</text></g></g><g transform="translate(-710,-190) scale(1,1)"><rect fill="#C0C0C0" stroke="none" x="1031" y="881" width="89.18144531250005" height="15" opacity="0.2"/></g><g transform="translate(-710,-190) scale(1,1)"><rect fill="#C0C0C0" stroke="none" x="1031" y="895" width="222.95361328125" height="93" opacity="0.2"/></g><g transform="translate(-710,-190) scale(1,1)"><rect fill="#6dceff" stroke="none" x="1024" y="889" width="222.95361328125" height="92"/></g><g transform="translate(-710,-190) scale(1,1)"><path fill="none" stroke="#000000" d="M 1024 889 L 1246.95361328125 889 L 1246.95361328125 981 L 1024 981 L 1024 889 Z Z" stroke-miterlimit="10"/></g><g transform="translate(-710,-190) scale(1,1)"><rect fill="#6dceff" stroke="none" x="1024" y="874" width="89.18144531250005" height="15"/></g><g transform="translate(-710,-190) scale(1,1)"><path fill="none" stroke="#000000" d="M 1024 874 L 1113.1814453125 874 L 1113.1814453125 889 L 1024 889 L 1024 874 Z Z" stroke-miterlimit="10"/></g><g transform="translate(-710,-190) scale(1,1)"><rect fill="#6dceff" stroke="none" x="1024" y="888" width="222.95361328125" height="93"/></g><g transform="translate(-710,-190) scale(1,1)"><path fill="none" stroke="#000000" d="M 1024 888 L 1246.95361328125 888 L 1246.95361328125 981 L 1024 981 L 1024 888 Z Z" stroke-miterlimit="10"/></g><g transform="translate(-710,-190) scale(1,1)"><g><path fill="none" stroke="none"/><text fill="#000000" stroke="none" font-family="Arial" font-size="13px" font-style="normal" font-weight="bold" text-decoration="none" x="1114.529541015625" y="908.5">Utilities</text></g></g><g transform="translate(-710,-190) scale(1,1)"><rect fill="#C0C0C0" stroke="none" x="903" y="1019" width="54.39999999999998" height="15" opacity="0.2"/></g><g transform="translate(-710,-190) scale(1,1)"><rect fill="#C0C0C0" stroke="none" x="903" y="1033" width="136" height="80" opacity="0.2"/></g><g transform="translate(-710,-190) scale(1,1)"><rect fill="#ffffff" stroke="none" x="896" y="1027" width="136" height="79"/></g><g transform="translate(-710,-190) scale(1,1)"><path fill="none" stroke="#000000" d="M 896 1027 L 1032 1027 L 1032 1106 L 896 1106 L 896 1027 Z Z" stroke-miterlimit="10"/></g><g transform="translate(-710,-190) scale(1,1)"><rect fill="#ffffff" stroke="none" x="896" y="1012" width="54.39999999999998" height="15"/></g><g transform="translate(-710,-190) scale(1,1)"><path fill="none" stroke="#000000" d="M 896 1012 L 950.4 1012 L 950.4 1027 L 896 1027 L 896 1012 Z Z" stroke-miterlimit="10"/></g><g transform="translate(-710,-190) scale(1,1)"><rect fill="#ffffff" stroke="none" x="896" y="1026" width="136" height="80"/></g><g transform="translate(-710,-190) scale(1,1)"><path fill="none" stroke="#000000" d="M 896 1026 L 1032 1026 L 1032 1106 L 896 1106 L 896 1026 Z Z" stroke-miterlimit="10"/></g><g transform="translate(-710,-190) scale(1,1)"><g><path fill="none" stroke="none"/><text fill="#000000" stroke="none" font-family="Arial" font-size="13px" font-style="normal" font-weight="bold" text-decoration="none" x="939.802734375" y="1046.5">Criterias</text></g></g><g transform="translate(-710,-190) scale(1,1)"><rect fill="#C0C0C0" stroke="none" x="1607" y="369" width="80" height="15" opacity="0.2"/></g><g transform="translate(-710,-190) scale(1,1)"><rect fill="#C0C0C0" stroke="none" x="1607" y="383" width="200" height="90" opacity="0.2"/></g><g transform="translate(-710,-190) scale(1,1)"><rect fill="#ffffff" stroke="none" x="1600" y="377" width="200" height="89"/></g><g transform="translate(-710,-190) scale(1,1)"><path fill="none" stroke="#000000" d="M 1600 377 L 1800 377 L 1800 466 L 1600 466 L 1600 377 Z Z" stroke-miterlimit="10"/></g><g transform="translate(-710,-190) scale(1,1)"><rect fill="#ffffff" stroke="none" x="1600" y="362" width="80" height="15"/></g><g transform="translate(-710,-190) scale(1,1)"><path fill="none" stroke="#000000" d="M 1600 362 L 1680 362 L 1680 377 L 1600 377 L 1600 362 Z Z" stroke-miterlimit="10"/></g><g transform="translate(-710,-190) scale(1,1)"><rect fill="#ffffff" stroke="none" x="1600" y="376" width="200" height="90"/></g><g transform="translate(-710,-190) scale(1,1)"><path fill="none" stroke="#000000" d="M 1600 376 L 1800 376 L 1800 466 L 1600 466 L 1600 376 Z Z" stroke-miterlimit="10"/></g><g transform="translate(-710,-190) scale(1,1)"><g><path fill="none" stroke="none"/><text fill="#000000" stroke="none" font-family="Arial" font-size="13px" font-style="normal" font-weight="bold" text-decoration="none" x="1677.35791015625" y="396.5">WebApi</text></g></g><g transform="translate(-710,-190) scale(1,1)"><rect fill="#C0C0C0" stroke="none" x="1463" y="207" width="60.799999999999955" height="15" opacity="0.2"/></g><g transform="translate(-710,-190) scale(1,1)"><rect fill="#C0C0C0" stroke="none" x="1463" y="221" width="152" height="132" opacity="0.2"/></g><g transform="translate(-710,-190) scale(1,1)"><rect fill="#ffffff" stroke="none" x="1456" y="215" width="152" height="131"/></g><g transform="translate(-710,-190) scale(1,1)"><path fill="none" stroke="#000000" d="M 1456 215 L 1608 215 L 1608 346 L 1456 346 L 1456 215 Z Z" stroke-miterlimit="10"/></g><g transform="translate(-710,-190) scale(1,1)"><rect fill="#ffffff" stroke="none" x="1456" y="200" width="60.799999999999955" height="15"/></g><g transform="translate(-710,-190) scale(1,1)"><path fill="none" stroke="#000000" d="M 1456 200 L 1516.8 200 L 1516.8 215 L 1456 215 L 1456 200 Z Z" stroke-miterlimit="10"/></g><g transform="translate(-710,-190) scale(1,1)"><rect fill="#ffffff" stroke="none" x="1456" y="214" width="152" height="132"/></g><g transform="translate(-710,-190) scale(1,1)"><path fill="none" stroke="#000000" d="M 1456 214 L 1608 214 L 1608 346 L 1456 346 L 1456 214 Z Z" stroke-miterlimit="10"/></g><g transform="translate(-710,-190) scale(1,1)"><g><path fill="none" stroke="none"/><text fill="#000000" stroke="none" font-family="Arial" font-size="13px" font-style="normal" font-weight="bold" text-decoration="none" x="1500.57275390625" y="234.5">Controllers</text></g></g><g transform="translate(-710,-190) scale(1,1)"><rect fill="#C0C0C0" stroke="none" x="1631" y="247" width="83.20000000000005" height="15" opacity="0.2"/></g><g transform="translate(-710,-190) scale(1,1)"><rect fill="#C0C0C0" stroke="none" x="1631" y="261" width="208" height="82" opacity="0.2"/></g><g transform="translate(-710,-190) scale(1,1)"><rect fill="#ffffff" stroke="none" x="1624" y="255" width="208" height="81"/></g><g transform="translate(-710,-190) scale(1,1)"><path fill="none" stroke="#000000" d="M 1624 255 L 1832 255 L 1832 336 L 1624 336 L 1624 255 Z Z" stroke-miterlimit="10"/></g><g transform="translate(-710,-190) scale(1,1)"><rect fill="#ffffff" stroke="none" x="1624" y="240" width="83.20000000000005" height="15"/></g><g transform="translate(-710,-190) scale(1,1)"><path fill="none" stroke="#000000" d="M 1624 240 L 1707.2 240 L 1707.2 255 L 1624 255 L 1624 240 Z Z" stroke-miterlimit="10"/></g><g transform="translate(-710,-190) scale(1,1)"><rect fill="#ffffff" stroke="none" x="1624" y="254" width="208" height="82"/></g><g transform="translate(-710,-190) scale(1,1)"><path fill="none" stroke="#000000" d="M 1624 254 L 1832 254 L 1832 336 L 1624 336 L 1624 254 Z Z" stroke-miterlimit="10"/></g><g transform="translate(-710,-190) scale(1,1)"><g><path fill="none" stroke="none"/><text fill="#000000" stroke="none" font-family="Arial" font-size="13px" font-style="normal" font-weight="bold" text-decoration="none" x="1710.305908203125" y="274.5">Filters</text></g></g><g transform="translate(-710,-190) scale(1,1)"><rect fill="#C0C0C0" stroke="none" x="1911" y="207" width="60.799999999999955" height="15" opacity="0.2"/></g><g transform="translate(-710,-190) scale(1,1)"><rect fill="#C0C0C0" stroke="none" x="1911" y="221" width="152" height="170" opacity="0.2"/></g><g transform="translate(-710,-190) scale(1,1)"><rect fill="#ffffff" stroke="none" x="1904" y="215" width="152" height="169"/></g><g transform="translate(-710,-190) scale(1,1)"><path fill="none" stroke="#000000" d="M 1904 215 L 2056 215 L 2056 384 L 1904 384 L 1904 215 Z Z" stroke-miterlimit="10"/></g><g transform="translate(-710,-190) scale(1,1)"><rect fill="#ffffff" stroke="none" x="1904" y="200" width="60.799999999999955" height="15"/></g><g transform="translate(-710,-190) scale(1,1)"><path fill="none" stroke="#000000" d="M 1904 200 L 1964.8 200 L 1964.8 215 L 1904 215 L 1904 200 Z Z" stroke-miterlimit="10"/></g><g transform="translate(-710,-190) scale(1,1)"><rect fill="#ffffff" stroke="none" x="1904" y="214" width="152" height="170"/></g><g transform="translate(-710,-190) scale(1,1)"><path fill="none" stroke="#000000" d="M 1904 214 L 2056 214 L 2056 384 L 1904 384 L 1904 214 Z Z" stroke-miterlimit="10"/></g><g transform="translate(-710,-190) scale(1,1)"><g><path fill="none" stroke="none"/><text fill="#000000" stroke="none" font-family="Arial" font-size="13px" font-style="normal" font-weight="bold" text-decoration="none" x="1959.04638671875" y="234.5">Models</text></g></g><g transform="translate(-710,-190) scale(1,1)"><path fill="none" stroke="#000000" d="M 1168 632 L 1168 616" stroke-miterlimit="10"/></g><g transform="translate(-710,-190) scale(1,1)"><path fill="#FFFFFF" stroke="none" d="M 1161 623 C 1161 619.1340064 1164.1340064 616 1168 616 C 1171.8659936 616 1175 619.1340064 1175 623 C 1175 626.8659936 1171.8659936 630 1168 630 C 1164.1340064 630 1161 626.8659936 1161 623 Z"/></g><g transform="translate(-710,-190) scale(1,1)"><path fill="none" stroke="#000000" d="M 1161 623 C 1161 619.1340064 1164.1340064 616 1168 616 C 1171.8659936 616 1175 619.1340064 1175 623 C 1175 626.8659936 1171.8659936 630 1168 630 C 1164.1340064 630 1161 626.8659936 1161 623 Z" stroke-miterlimit="10"/></g><g transform="translate(-710,-190) scale(1,1)"><path fill="none" stroke="#000000" d="M 1168 630 L 1168 616" stroke-miterlimit="10"/></g><g transform="translate(-710,-190) scale(1,1)"><path fill="none" stroke="#000000" d="M 1175 623 L 1161 623" stroke-miterlimit="10"/></g><g transform="translate(-710,-190) scale(1,1)"><path fill="none" stroke="#000000" d="M 1162 752 L 1162 728" stroke-miterlimit="10"/></g><g transform="translate(-710,-190) scale(1,1)"><path fill="#FFFFFF" stroke="none" d="M 1155 735 C 1155 731.1340064 1158.1340064 728 1162 728 C 1165.8659936 728 1169 731.1340064 1169 735 C 1169 738.8659936 1165.8659936 742 1162 742 C 1158.1340064 742 1155 738.8659936 1155 735 Z"/></g><g transform="translate(-710,-190) scale(1,1)"><path fill="none" stroke="#000000" d="M 1155 735 C 1155 731.1340064 1158.1340064 728 1162 728 C 1165.8659936 728 1169 731.1340064 1169 735 C 1169 738.8659936 1165.8659936 742 1162 742 C 1158.1340064 742 1155 738.8659936 1155 735 Z" stroke-miterlimit="10"/></g><g transform="translate(-710,-190) scale(1,1)"><path fill="none" stroke="#000000" d="M 1162 742 L 1162 728" stroke-miterlimit="10"/></g><g transform="translate(-710,-190) scale(1,1)"><path fill="none" stroke="#000000" d="M 1169 735 L 1155 735" stroke-miterlimit="10"/></g><g transform="translate(-710,-190) scale(1,1)"><path fill="none" stroke="#000000" d="M 1976 794 L 1976 658" stroke-miterlimit="10"/></g><g transform="translate(-710,-190) scale(1,1)"><path fill="#FFFFFF" stroke="none" d="M 1969 665 C 1969 661.1340064 1972.1340064 658 1976 658 C 1979.8659936 658 1983 661.1340064 1983 665 C 1983 668.8659936 1979.8659936 672 1976 672 C 1972.1340064 672 1969 668.8659936 1969 665 Z"/></g><g transform="translate(-710,-190) scale(1,1)"><path fill="none" stroke="#000000" d="M 1969 665 C 1969 661.1340064 1972.1340064 658 1976 658 C 1979.8659936 658 1983 661.1340064 1983 665 C 1983 668.8659936 1979.8659936 672 1976 672 C 1972.1340064 672 1969 668.8659936 1969 665 Z" stroke-miterlimit="10"/></g><g transform="translate(-710,-190) scale(1,1)"><path fill="none" stroke="#000000" d="M 1976 672 L 1976 658" stroke-miterlimit="10"/></g><g transform="translate(-710,-190) scale(1,1)"><path fill="none" stroke="#000000" d="M 1983 665 L 1969 665" stroke-miterlimit="10"/></g><g transform="translate(-710,-190) scale(1,1)"><path fill="none" stroke="#000000" d="M 960 1012 L 960 981 L 1024 981" stroke-miterlimit="10"/></g><g transform="translate(-710,-190) scale(1,1)"><path fill="#FFFFFF" stroke="none" d="M 1010 981 C 1010 977.1340064 1013.1340064 974 1017 974 C 1020.8659936 974 1024 977.1340064 1024 981 C 1024 984.8659936 1020.8659936 988 1017 988 C 1013.1340064 988 1010 984.8659936 1010 981 Z"/></g><g transform="translate(-710,-190) scale(1,1)"><path fill="none" stroke="#000000" d="M 1010 981 C 1010 977.1340064 1013.1340064 974 1017 974 C 1020.8659936 974 1024 977.1340064 1024 981 C 1024 984.8659936 1020.8659936 988 1017 988 C 1013.1340064 988 1010 984.8659936 1010 981 Z" stroke-miterlimit="10"/></g><g transform="translate(-710,-190) scale(1,1)"><path fill="none" stroke="#000000" d="M 1010 981 L 1024 981" stroke-miterlimit="10"/></g><g transform="translate(-710,-190) scale(1,1)"><path fill="none" stroke="#000000" d="M 1017 988 L 1017 974" stroke-miterlimit="10"/></g><g transform="translate(-710,-190) scale(1,1)"><path fill="none" stroke="#000000" d="M 1200 1043 L 1168 1043 L 1168 981" stroke-miterlimit="10"/></g><g transform="translate(-710,-190) scale(1,1)"><path fill="#FFFFFF" stroke="none" d="M 1161 988 C 1161 984.1340064 1164.1340064 981 1168 981 C 1171.8659936 981 1175 984.1340064 1175 988 C 1175 991.8659936 1171.8659936 995 1168 995 C 1164.1340064 995 1161 991.8659936 1161 988 Z"/></g><g transform="translate(-710,-190) scale(1,1)"><path fill="none" stroke="#000000" d="M 1161 988 C 1161 984.1340064 1164.1340064 981 1168 981 C 1171.8659936 981 1175 984.1340064 1175 988 C 1175 991.8659936 1171.8659936 995 1168 995 C 1164.1340064 995 1161 991.8659936 1161 988 Z" stroke-miterlimit="10"/></g><g transform="translate(-710,-190) scale(1,1)"><path fill="none" stroke="#000000" d="M 1168 995 L 1168 981" stroke-miterlimit="10"/></g><g transform="translate(-710,-190) scale(1,1)"><path fill="none" stroke="#000000" d="M 1175 988 L 1161 988" stroke-miterlimit="10"/></g><g transform="translate(-710,-190) scale(1,1)"><path fill="none" stroke="#000000" d="M 1503 346 L 1503 410 L 1600 410" stroke-miterlimit="10"/></g><g transform="translate(-710,-190) scale(1,1)"><path fill="#FFFFFF" stroke="none" d="M 1586 410 C 1586 406.1340064 1589.1340064 403 1593 403 C 1596.8659936 403 1600 406.1340064 1600 410 C 1600 413.8659936 1596.8659936 417 1593 417 C 1589.1340064 417 1586 413.8659936 1586 410 Z"/></g><g transform="translate(-710,-190) scale(1,1)"><path fill="none" stroke="#000000" d="M 1586 410 C 1586 406.1340064 1589.1340064 403 1593 403 C 1596.8659936 403 1600 406.1340064 1600 410 C 1600 413.8659936 1596.8659936 417 1593 417 C 1589.1340064 417 1586 413.8659936 1586 410 Z" stroke-miterlimit="10"/></g><g transform="translate(-710,-190) scale(1,1)"><path fill="none" stroke="#000000" d="M 1586 410 L 1600 410" stroke-miterlimit="10"/></g><g transform="translate(-710,-190) scale(1,1)"><path fill="none" stroke="#000000" d="M 1593 417 L 1593 403" stroke-miterlimit="10"/></g><g transform="translate(-710,-190) scale(1,1)"><path fill="none" stroke="#000000" d="M 1720 336 L 1720 362" stroke-miterlimit="10"/></g><g transform="translate(-710,-190) scale(1,1)"><path fill="#FFFFFF" stroke="none" d="M 1713 355 C 1713 351.1340064 1716.1340064 348 1720 348 C 1723.8659936 348 1727 351.1340064 1727 355 C 1727 358.8659936 1723.8659936 362 1720 362 C 1716.1340064 362 1713 358.8659936 1713 355 Z"/></g><g transform="translate(-710,-190) scale(1,1)"><path fill="none" stroke="#000000" d="M 1713 355 C 1713 351.1340064 1716.1340064 348 1720 348 C 1723.8659936 348 1727 351.1340064 1727 355 C 1727 358.8659936 1723.8659936 362 1720 362 C 1716.1340064 362 1713 358.8659936 1713 355 Z" stroke-miterlimit="10"/></g><g transform="translate(-710,-190) scale(1,1)"><path fill="none" stroke="#000000" d="M 1720 348 L 1720 362" stroke-miterlimit="10"/></g><g transform="translate(-710,-190) scale(1,1)"><path fill="none" stroke="#000000" d="M 1713 355 L 1727 355" stroke-miterlimit="10"/></g><g transform="translate(-710,-190) scale(1,1)"><path fill="none" stroke="#000000" d="M 1920 384 L 1920 410 L 1800 410" stroke-miterlimit="10"/></g><g transform="translate(-710,-190) scale(1,1)"><path fill="#FFFFFF" stroke="none" d="M 1800 410 C 1800 406.1340064 1803.1340064 403 1807 403 C 1810.8659936 403 1814 406.1340064 1814 410 C 1814 413.8659936 1810.8659936 417 1807 417 C 1803.1340064 417 1800 413.8659936 1800 410 Z"/></g><g transform="translate(-710,-190) scale(1,1)"><path fill="none" stroke="#000000" d="M 1800 410 C 1800 406.1340064 1803.1340064 403 1807 403 C 1810.8659936 403 1814 406.1340064 1814 410 C 1814 413.8659936 1810.8659936 417 1807 417 C 1803.1340064 417 1800 413.8659936 1800 410 Z" stroke-miterlimit="10"/></g><g transform="translate(-710,-190) scale(1,1)"><path fill="none" stroke="#000000" d="M 1814 410 L 1800 410" stroke-miterlimit="10"/></g><g transform="translate(-710,-190) scale(1,1)"><path fill="none" stroke="#000000" d="M 1807 403 L 1807 417" stroke-miterlimit="10"/></g><g transform="translate(-710,-190) scale(1,1)"><path fill="none" stroke="#000000" d="M 1800 442 L 1964 442 L 1964 554" stroke-miterlimit="10" stroke-dasharray="3"/></g><g transform="translate(-710,-190) scale(1,1)"><path fill="none" stroke="#000000" d="M 1959.7904822439841 543.8373251423759 L 1964 554 L 1968.2095177560159 543.8373251423759" stroke-miterlimit="10"/></g><g transform="translate(-710,-190) scale(1,1)"><path fill="none" stroke="#000000" d="M 1698 466 L 1698 488" stroke-miterlimit="10" stroke-dasharray="3"/></g><g transform="translate(-710,-190) scale(1,1)"><path fill="none" stroke="#000000" d="M 1693.7904822439841 477.83732514237585 L 1698 488 L 1702.2095177560159 477.83732514237585" stroke-miterlimit="10"/></g><g transform="translate(-710,-190) scale(1,1)"><path fill="none" stroke="#d10000" d="M 1600 466 L 1576 466 L 1576 496 L 1044 496 L 1044 504" stroke-miterlimit="10" stroke-dasharray="3"/></g><g transform="translate(-710,-190) scale(1,1)"><path fill="none" stroke="#d10000" d="M 1039.7904822439841 493.83732514237585 L 1044 504 L 1048.2095177560159 493.83732514237585" stroke-miterlimit="10"/></g><g transform="translate(-710,-190) scale(1,1)"><path fill="none" stroke="#00a9ff" d="M 1600 450 L 1296 450 L 1296 906 L 1247 906" stroke-miterlimit="10" stroke-dasharray="3"/></g><g transform="translate(-710,-190) scale(1,1)"><path fill="none" stroke="#00a9ff" d="M 1257.162674857624 901.790482243984 L 1247 906 L 1257.162674857624 910.209517756016" stroke-miterlimit="10"/></g><g transform="translate(-710,-190) scale(1,1)"><path fill="none" stroke="#000000" d="M 1693 640 L 1693 616" stroke-miterlimit="10" stroke-dasharray="3"/></g><g transform="translate(-710,-190) scale(1,1)"><path fill="none" stroke="#000000" d="M 1697.2095177560159 626.1626748576241 L 1693 616 L 1688.7904822439841 626.1626748576241" stroke-miterlimit="10"/></g><g transform="translate(-710,-190) scale(1,1)"><path fill="none" stroke="#000000" d="M 1695 768 L 1695 800" stroke-miterlimit="10" stroke-dasharray="3"/></g><g transform="translate(-710,-190) scale(1,1)"><path fill="none" stroke="#000000" d="M 1690.7904822439841 789.8373251423759 L 1695 800 L 1699.2095177560159 789.8373251423759" stroke-miterlimit="10"/></g><g transform="translate(-710,-190) scale(1,1)"><path fill="none" stroke="#000000" d="M 1700 984 L 1700 912" stroke-miterlimit="10" stroke-dasharray="3"/></g><g transform="translate(-710,-190) scale(1,1)"><path fill="none" stroke="#000000" d="M 1704.2095177560159 922.1626748576241 L 1700 912 L 1695.7904822439841 922.1626748576241" stroke-miterlimit="10"/></g><g transform="translate(-710,-190) scale(1,1)"><rect fill="#C0C0C0" stroke="none" x="1287" y="239" width="60.799999999999955" height="15" opacity="0.2"/></g><g transform="translate(-710,-190) scale(1,1)"><rect fill="#C0C0C0" stroke="none" x="1287" y="253" width="152" height="82" opacity="0.2"/></g><g transform="translate(-710,-190) scale(1,1)"><rect fill="#ffffff" stroke="none" x="1280" y="247" width="152" height="81"/></g><g transform="translate(-710,-190) scale(1,1)"><path fill="none" stroke="#000000" d="M 1280 247 L 1432 247 L 1432 328 L 1280 328 L 1280 247 Z Z" stroke-miterlimit="10"/></g><g transform="translate(-710,-190) scale(1,1)"><rect fill="#ffffff" stroke="none" x="1280" y="232" width="60.799999999999955" height="15"/></g><g transform="translate(-710,-190) scale(1,1)"><path fill="none" stroke="#000000" d="M 1280 232 L 1340.8 232 L 1340.8 247 L 1280 247 L 1280 232 Z Z" stroke-miterlimit="10"/></g><g transform="translate(-710,-190) scale(1,1)"><rect fill="#ffffff" stroke="none" x="1280" y="246" width="152" height="82"/></g><g transform="translate(-710,-190) scale(1,1)"><path fill="none" stroke="#000000" d="M 1280 246 L 1432 246 L 1432 328 L 1280 328 L 1280 246 Z Z" stroke-miterlimit="10"/></g><g transform="translate(-710,-190) scale(1,1)"><g><path fill="none" stroke="none"/><text fill="#000000" stroke="none" font-family="Arial" font-size="13px" font-style="normal" font-weight="bold" text-decoration="none" x="1297.471435546875" y="266.5">FileHandlerInterface</text></g></g><g transform="translate(-710,-190) scale(1,1)"><path fill="none" stroke="#000000" d="M 1608 520 L 1376 520 L 1376 328" stroke-miterlimit="10" stroke-dasharray="3"/></g><g transform="translate(-710,-190) scale(1,1)"><path fill="none" stroke="#000000" d="M 1380.2095177560159 338.16267485762415 L 1376 328 L 1371.7904822439841 338.16267485762415" stroke-miterlimit="10"/></g><g transform="translate(-710,-190) scale(1,1)"><path fill="none" stroke="#000000" d="M 1200 312 L 1280 312" stroke-miterlimit="10" stroke-dasharray="3"/></g><g transform="translate(-710,-190) scale(1,1)"><path fill="none" stroke="#000000" d="M 1269.837325142376 316.209517756016 L 1280 312 L 1269.837325142376 307.790482243984" stroke-miterlimit="10"/></g><g transform="translate(-710,-190) scale(1,1)"><path fill="none" stroke="#000000" d="M 1112 341 L 1112 386" stroke-miterlimit="10" stroke-dasharray="3"/></g><g transform="translate(-710,-190) scale(1,1)"><path fill="none" stroke="#000000" d="M 1107.7904822439841 375.83732514237585 L 1112 386 L 1116.2095177560159 375.83732514237585" stroke-miterlimit="10"/></g><g transform="translate(-710,-190) scale(1,1)"><path fill="none" stroke="#00a9ff" d="M 1024 341 L 952 341 L 952 914 L 1024 914" stroke-miterlimit="10" stroke-dasharray="3"/></g><g transform="translate(-710,-190) scale(1,1)"><path fill="none" stroke="#00a9ff" d="M 1013.8373251423759 918.209517756016 L 1024 914 L 1013.8373251423758 909.790482243984" stroke-miterlimit="10"/></g><g transform="translate(-710,-190) scale(1,1)"><path fill="none" stroke="#000000" d="M 1208 426 L 1344 426 L 1344 328" stroke-miterlimit="10" stroke-dasharray="3"/></g><g transform="translate(-710,-190) scale(1,1)"><path fill="none" stroke="#000000" d="M 1348.2095177560159 338.16267485762415 L 1344 328 L 1339.7904822439841 338.16267485762415" stroke-miterlimit="10"/></g><g transform="translate(-710,-190) scale(1,1)"><path fill="none" stroke="#d10000" d="M 1008 442 L 992 442 L 992 560 L 1016 560" stroke-miterlimit="10" stroke-dasharray="3"/></g><g transform="translate(-710,-190) scale(1,1)"><path fill="none" stroke="#d10000" d="M 1005.8373251423759 564.209517756016 L 1016 560 L 1005.8373251423758 555.790482243984" stroke-miterlimit="10"/></g><g transform="translate(-710,-190) scale(1,1)"><path fill="none" stroke="#00a9ff" d="M 1008 426 L 968 426 L 968 890 L 1024 890" stroke-miterlimit="10" stroke-dasharray="3"/></g><g transform="translate(-710,-190) scale(1,1)"><path fill="none" stroke="#00a9ff" d="M 1013.8373251423759 894.209517756016 L 1024 890 L 1013.8373251423758 885.790482243984" stroke-miterlimit="10"/></g><g transform="translate(-710,-190) scale(1,1)"><path fill="none" stroke="#d10000" d="M 1392 328 L 1392 586 L 1216 586" stroke-miterlimit="10" stroke-dasharray="3"/></g><g transform="translate(-710,-190) scale(1,1)"><path fill="none" stroke="#d10000" d="M 1226.162674857624 581.790482243984 L 1216 586 L 1226.162674857624 590.209517756016" stroke-miterlimit="10"/></g><g transform="translate(-710,-190) scale(1,1)"><path fill="none" stroke="#d10000" d="M 1600 810 L 1592 810 L 1592 850 L 1032 850 L 1032 616" stroke-miterlimit="10" stroke-dasharray="3"/></g><g transform="translate(-710,-190) scale(1,1)"><path fill="none" stroke="#d10000" d="M 1036.2095177560159 626.1626748576241 L 1032 616 L 1027.7904822439841 626.1626748576241" stroke-miterlimit="10"/></g><g transform="translate(-710,-190) scale(1,1)"><path fill="none" stroke="#d10000" d="M 1624 984 L 1624 944 L 1440 944 L 1440 595 L 1216 595" stroke-miterlimit="10" stroke-dasharray="3"/></g><g transform="translate(-710,-190) scale(1,1)"><path fill="none" stroke="#d10000" d="M 1226.162674857624 590.790482243984 L 1216 595 L 1226.162674857624 599.209517756016" stroke-miterlimit="10"/></g><g transform="translate(-710,-190) scale(1,1)"><path fill="none" stroke="#00a9ff" d="M 1600 984 L 1600 976 L 1400 976 L 1400 938 L 1247 938" stroke-miterlimit="10" stroke-dasharray="3"/></g><g transform="translate(-710,-190) scale(1,1)"><path fill="none" stroke="#00a9ff" d="M 1257.162674857624 933.790482243984 L 1247 938 L 1257.162674857624 942.209517756016" stroke-miterlimit="10"/></g><g transform="translate(-710,-190) scale(1,1)"><path fill="none" stroke="#d10000" d="M 1608 578 L 1216 578" stroke-miterlimit="10" stroke-dasharray="3"/></g><g transform="translate(-710,-190) scale(1,1)"><path fill="none" stroke="#d10000" d="M 1226.162674857624 573.790482243984 L 1216 578 L 1226.162674857624 582.209517756016" stroke-miterlimit="10"/></g><g transform="translate(-710,-190) scale(1,1)"><path fill="none" stroke="#00a9ff" d="M 1600 730 L 1336 730 L 1336 922 L 1247 922" stroke-miterlimit="10" stroke-dasharray="3"/></g><g transform="translate(-710,-190) scale(1,1)"><path fill="none" stroke="#00a9ff" d="M 1257.162674857624 917.790482243984 L 1247 922 L 1257.162674857624 926.209517756016" stroke-miterlimit="10"/></g><g transform="translate(-710,-190) scale(1,1)"><path fill="none" stroke="#d10000" d="M 1600 674 L 1592 674 L 1592 568 L 1216 568" stroke-miterlimit="10" stroke-dasharray="3"/></g><g transform="translate(-710,-190) scale(1,1)"><path fill="none" stroke="#d10000" d="M 1226.162674857624 563.790482243984 L 1216 568 L 1226.162674857624 572.209517756016" stroke-miterlimit="10"/></g><g transform="translate(-710,-190) scale(1,1)"><path fill="none" stroke="#000000" d="M 1600 682 L 1304 682 L 1304 341 L 1200 341" stroke-miterlimit="10" stroke-dasharray="3"/></g><g transform="translate(-710,-190) scale(1,1)"><path fill="none" stroke="#000000" d="M 1210.162674857624 336.790482243984 L 1200 341 L 1210.162674857624 345.209517756016" stroke-miterlimit="10"/></g><g transform="translate(-710,-190) scale(1,1)"><path fill="none" stroke="#000000" d="M 1896 578 L 1800 578" stroke-miterlimit="10" stroke-dasharray="3"/></g><g transform="translate(-710,-190) scale(1,1)"><path fill="none" stroke="#000000" d="M 1810.162674857624 573.790482243984 L 1800 578 L 1810.162674857624 582.209517756016" stroke-miterlimit="10"/></g><g transform="translate(-710,-190) scale(1,1)"><path fill="none" stroke="#000000" d="M 1904 658 L 1904 706 L 1784 706" stroke-miterlimit="10" stroke-dasharray="3"/></g><g transform="translate(-710,-190) scale(1,1)"><path fill="none" stroke="#000000" d="M 1794.162674857624 701.790482243984 L 1784 706 L 1794.162674857624 710.209517756016" stroke-miterlimit="10"/></g><g transform="translate(-710,-190) scale(1,1)"><path fill="none" stroke="#000000" d="M 1912 658 L 1912 746 L 1864 746 L 1864 842 L 1784 842" stroke-miterlimit="10" stroke-dasharray="3"/></g><g transform="translate(-710,-190) scale(1,1)"><path fill="none" stroke="#000000" d="M 1794.162674857624 837.790482243984 L 1784 842 L 1794.162674857624 846.209517756016" stroke-miterlimit="10"/></g><g transform="translate(-710,-190) scale(1,1)"><path fill="none" stroke="#000000" d="M 1920 658 L 1920 762 L 1880 762 L 1880 1044 L 1776 1044" stroke-miterlimit="10" stroke-dasharray="3"/></g><g transform="translate(-710,-190) scale(1,1)"><path fill="none" stroke="#000000" d="M 1786.162674857624 1039.7904822439841 L 1776 1044 L 1786.162674857624 1048.2095177560159" stroke-miterlimit="10"/></g><g transform="translate(-710,-190) scale(1,1)"><path fill="none" stroke="#ff0000" d="M 1896 626 L 1256 626 L 1256 611 L 1216 611" stroke-miterlimit="10" stroke-dasharray="3"/></g><g transform="translate(-710,-190) scale(1,1)"><path fill="none" stroke="#ff0000" d="M 1226.162674857624 606.790482243984 L 1216 611 L 1226.162674857624 615.209517756016" stroke-miterlimit="10"/></g><g transform="translate(-710,-190) scale(1,1)"><path fill="none" stroke="#38bcff" d="M 812 816 L 812 928 L 1024 928" stroke-miterlimit="10" stroke-dasharray="3"/></g><g transform="translate(-710,-190) scale(1,1)"><path fill="none" stroke="#38bcff" d="M 1013.8373251423759 932.209517756016 L 1024 928 L 1013.8373251423758 923.790482243984" stroke-miterlimit="10"/></g><g transform="translate(-710,-190) scale(1,1)"><path fill="none" stroke="#000000" d="M 824 728 L 824 712" stroke-miterlimit="10" stroke-dasharray="3"/></g><g transform="translate(-710,-190) scale(1,1)"><path fill="none" stroke="#000000" d="M 828.209517756016 722.1626748576241 L 824 712 L 819.790482243984 722.1626748576241" stroke-miterlimit="10"/></g><g transform="translate(-710,-190) scale(1,1)"><path fill="none" stroke="#000000" d="M 827 640 L 827 576" stroke-miterlimit="10" stroke-dasharray="3"/></g><g transform="translate(-710,-190) scale(1,1)"><path fill="none" stroke="#000000" d="M 831.209517756016 586.1626748576241 L 827 576 L 822.790482243984 586.1626748576241" stroke-miterlimit="10"/></g><g transform="translate(-710,-190) scale(1,1)"><path fill="#ffffff" stroke="none" d="M 728 424 L 901 424 L 911 434 L 911 575 L 728 575 L 728 424"/></g><g transform="translate(-710,-190) scale(1,1)"><path fill="none" stroke="#000000" d="M 728 424 L 901 424 L 911 434 L 911 575 L 728 575 L 728 424 L 728 424" stroke-miterlimit="10"/></g><g transform="translate(-710,-190) scale(1,1)"><path fill="none" stroke="#000000" d="M 901 424 L 901 434 L 911 434 L 901 424" stroke-miterlimit="10"/></g><g transform="translate(-710,-190) scale(1,1)"><g><path fill="none" stroke="none"/><text fill="#000000" stroke="none" font-family="Arial" font-size="13px" font-style="normal" font-weight="normal" text-decoration="none" x="733" y="442">BugModel</text></g></g><g transform="translate(-710,-190) scale(1,1)"><g><path fill="none" stroke="none"/><text fill="#000000" stroke="none" font-family="Arial" font-size="13px" font-style="normal" font-weight="normal" text-decoration="none" x="733" y="457">ExternalReaderException</text></g></g><g transform="translate(-710,-190) scale(1,1)"><g><path fill="none" stroke="none"/><text fill="#000000" stroke="none" font-family="Arial" font-size="13px" font-style="normal" font-weight="normal" text-decoration="none" x="733" y="472">IExternalReader</text></g></g><g transform="translate(-710,-190) scale(1,1)"><g><path fill="none" stroke="none"/><text fill="#000000" stroke="none" font-family="Arial" font-size="13px" font-style="normal" font-weight="normal" text-decoration="none" x="733" y="487">Parameter</text></g></g><g transform="translate(-710,-190) scale(1,1)"><g><path fill="none" stroke="none"/><text fill="#000000" stroke="none" font-family="Arial" font-size="13px" font-style="normal" font-weight="normal" text-decoration="none" x="733" y="502">ParameterException</text></g></g><g transform="translate(-710,-190) scale(1,1)"><g><path fill="none" stroke="none"/><text fill="#000000" stroke="none" font-family="Arial" font-size="13px" font-style="normal" font-weight="normal" text-decoration="none" x="733" y="517">ParameterType</text></g></g><g transform="translate(-710,-190) scale(1,1)"><g><path fill="none" stroke="none"/><text fill="#000000" stroke="none" font-family="Arial" font-size="13px" font-style="normal" font-weight="normal" text-decoration="none" x="733" y="532">ProjectModel</text></g></g><g transform="translate(-710,-190) scale(1,1)"><g><path fill="none" stroke="none"/><text fill="#000000" stroke="none" font-family="Arial" font-size="13px" font-style="normal" font-weight="normal" text-decoration="none" x="733" y="547">UnableToReadException</text></g></g><g transform="translate(-710,-190) scale(1,1)"><g><path fill="none" stroke="none"/><text fill="#000000" stroke="none" font-family="Arial" font-size="13px" font-style="normal" font-weight="normal" text-decoration="none" x="733" y="562">WrongFormatException</text></g></g><g transform="translate(-710,-190) scale(1,1)"><path fill="#ffffff" stroke="none" d="M 720 680 L 917 680 L 927 690 L 927 709 L 720 709 L 720 680"/></g><g transform="translate(-710,-190) scale(1,1)"><path fill="none" stroke="#000000" d="M 720 680 L 917 680 L 927 690 L 927 709 L 720 709 L 720 680 L 720 680" stroke-miterlimit="10"/></g><g transform="translate(-710,-190) scale(1,1)"><path fill="none" stroke="#000000" d="M 917 680 L 917 690 L 927 690 L 917 680" stroke-miterlimit="10"/></g><g transform="translate(-710,-190) scale(1,1)"><g><path fill="none" stroke="none"/><text fill="#000000" stroke="none" font-family="Arial" font-size="13px" font-style="normal" font-weight="normal" text-decoration="none" x="725" y="698">IBugReaderImporter</text></g></g><g transform="translate(-710,-190) scale(1,1)"><path fill="#ffffff" stroke="none" d="M 720 776 L 917 776 L 927 786 L 927 814 L 720 814 L 720 776"/></g><g transform="translate(-710,-190) scale(1,1)"><path fill="none" stroke="#000000" d="M 720 776 L 917 776 L 927 786 L 927 814 L 720 814 L 720 776 L 720 776" stroke-miterlimit="10"/></g><g transform="translate(-710,-190) scale(1,1)"><path fill="none" stroke="#000000" d="M 917 776 L 917 786 L 927 786 L 917 776" stroke-miterlimit="10"/></g><g transform="translate(-710,-190) scale(1,1)"><g><path fill="none" stroke="none"/><text fill="#000000" stroke="none" font-family="Arial" font-size="13px" font-style="normal" font-weight="normal" text-decoration="none" x="725" y="794">BugReaderImporterLogic</text></g></g><g transform="translate(-710,-190) scale(1,1)"><g><path fill="none" stroke="none"/><text fill="#000000" stroke="none" font-family="Arial" font-size="13px" font-style="normal" font-weight="normal" text-decoration="none" x="725" y="809">BugReaderAdapter</text></g></g><g transform="translate(-710,-190) scale(1,1)"><path fill="#ff8282" stroke="none" d="M 1016 544 L 1205 544 L 1215 554 L 1215 612 L 1016 612 L 1016 544"/></g><g transform="translate(-710,-190) scale(1,1)"><path fill="none" stroke="#000000" d="M 1016 544 L 1205 544 L 1215 554 L 1215 612 L 1016 612 L 1016 544 L 1016 544" stroke-miterlimit="10"/></g><g transform="translate(-710,-190) scale(1,1)"><path fill="none" stroke="#000000" d="M 1205 544 L 1205 554 L 1215 554 L 1205 544" stroke-miterlimit="10"/></g><g transform="translate(-710,-190) scale(1,1)"><g><path fill="none" stroke="none"/><text fill="#000000" stroke="none" font-family="Arial" font-size="13px" font-style="normal" font-weight="normal" text-decoration="none" x="1021" y="562">Bug</text></g></g><g transform="translate(-710,-190) scale(1,1)"><g><path fill="none" stroke="none"/><text fill="#000000" stroke="none" font-family="Arial" font-size="13px" font-style="normal" font-weight="normal" text-decoration="none" x="1021" y="577">Assignment</text></g></g><g transform="translate(-710,-190) scale(1,1)"><g><path fill="none" stroke="none"/><text fill="#000000" stroke="none" font-family="Arial" font-size="13px" font-style="normal" font-weight="normal" text-decoration="none" x="1021" y="592">Project</text></g></g><g transform="translate(-710,-190) scale(1,1)"><g><path fill="none" stroke="none"/><text fill="#000000" stroke="none" font-family="Arial" font-size="13px" font-style="normal" font-weight="normal" text-decoration="none" x="1021" y="607">User</text></g></g><g transform="translate(-710,-190) scale(1,1)"><path fill="#ffffff" stroke="none" d="M 1064 672 L 1213 672 L 1223 682 L 1223 725 L 1064 725 L 1064 672"/></g><g transform="translate(-710,-190) scale(1,1)"><path fill="none" stroke="#000000" d="M 1064 672 L 1213 672 L 1223 682 L 1223 725 L 1064 725 L 1064 672 L 1064 672" stroke-miterlimit="10"/></g><g transform="translate(-710,-190) scale(1,1)"><path fill="none" stroke="#000000" d="M 1213 672 L 1213 682 L 1223 682 L 1213 672" stroke-miterlimit="10"/></g><g transform="translate(-710,-190) scale(1,1)"><g><path fill="none" stroke="none"/><text fill="#000000" stroke="none" font-family="Arial" font-size="13px" font-style="normal" font-weight="normal" text-decoration="none" x="1069" y="690">BugState</text></g></g><g transform="translate(-710,-190) scale(1,1)"><g><path fill="none" stroke="none"/><text fill="#000000" stroke="none" font-family="Arial" font-size="13px" font-style="normal" font-weight="normal" text-decoration="none" x="1069" y="705">RoleType</text></g></g><g transform="translate(-710,-190) scale(1,1)"><g><path fill="none" stroke="none"/><text fill="#000000" stroke="none" font-family="Arial" font-size="13px" font-style="normal" font-weight="normal" text-decoration="none" x="1069" y="720">Validator</text></g></g><g transform="translate(-710,-190) scale(1,1)"><path fill="#ffffff" stroke="none" d="M 896 1048 L 1021 1048 L 1031 1058 L 1031 1103 L 896 1103 L 896 1048"/></g><g transform="translate(-710,-190) scale(1,1)"><path fill="none" stroke="#000000" d="M 896 1048 L 1021 1048 L 1031 1058 L 1031 1103 L 896 1103 L 896 1048 L 896 1048" stroke-miterlimit="10"/></g><g transform="translate(-710,-190) scale(1,1)"><path fill="none" stroke="#000000" d="M 1021 1048 L 1021 1058 L 1031 1058 L 1021 1048" stroke-miterlimit="10"/></g><g transform="translate(-710,-190) scale(1,1)"><g><path fill="none" stroke="none"/><text fill="#000000" stroke="none" font-family="Arial" font-size="13px" font-style="normal" font-weight="normal" text-decoration="none" x="901" y="1066">BugSearchCriteria</text></g></g><g transform="translate(-710,-190) scale(1,1)"><path fill="#ffffff" stroke="none" d="M 1008 424 L 1197 424 L 1207 434 L 1207 487 L 1008 487 L 1008 424"/></g><g transform="translate(-710,-190) scale(1,1)"><path fill="none" stroke="#000000" d="M 1008 424 L 1197 424 L 1207 434 L 1207 487 L 1008 487 L 1008 424 L 1008 424" stroke-miterlimit="10"/></g><g transform="translate(-710,-190) scale(1,1)"><path fill="none" stroke="#000000" d="M 1197 424 L 1197 434 L 1207 434 L 1197 424" stroke-miterlimit="10"/></g><g transform="translate(-710,-190) scale(1,1)"><g><path fill="none" stroke="none"/><text fill="#000000" stroke="none" font-family="Arial" font-size="13px" font-style="normal" font-weight="normal" text-decoration="none" x="1013" y="442">Company1Reader</text></g></g><g transform="translate(-710,-190) scale(1,1)"><g><path fill="none" stroke="none"/><text fill="#000000" stroke="none" font-family="Arial" font-size="13px" font-style="normal" font-weight="normal" text-decoration="none" x="1013" y="457">Company2Reader</text></g></g><g transform="translate(-710,-190) scale(1,1)"><path fill="#ffffff" stroke="none" d="M 1024 288 L 1189 288 L 1199 298 L 1199 343 L 1024 343 L 1024 288"/></g><g transform="translate(-710,-190) scale(1,1)"><path fill="none" stroke="#000000" d="M 1024 288 L 1189 288 L 1199 298 L 1199 343 L 1024 343 L 1024 288 L 1024 288" stroke-miterlimit="10"/></g><g transform="translate(-710,-190) scale(1,1)"><path fill="none" stroke="#000000" d="M 1189 288 L 1189 298 L 1199 298 L 1189 288" stroke-miterlimit="10"/></g><g transform="translate(-710,-190) scale(1,1)"><g><path fill="none" stroke="none"/><text fill="#000000" stroke="none" font-family="Arial" font-size="13px" font-style="normal" font-weight="normal" text-decoration="none" x="1029" y="306">ReaderFactory</text></g></g><g transform="translate(-710,-190) scale(1,1)"><path fill="#ffffff" stroke="none" d="M 1280 272 L 1421 272 L 1431 282 L 1431 327 L 1280 327 L 1280 272"/></g><g transform="translate(-710,-190) scale(1,1)"><path fill="none" stroke="#000000" d="M 1280 272 L 1421 272 L 1431 282 L 1431 327 L 1280 327 L 1280 272 L 1280 272" stroke-miterlimit="10"/></g><g transform="translate(-710,-190) scale(1,1)"><path fill="none" stroke="#000000" d="M 1421 272 L 1421 282 L 1431 282 L 1421 272" stroke-miterlimit="10"/></g><g transform="translate(-710,-190) scale(1,1)"><g><path fill="none" stroke="none"/><text fill="#000000" stroke="none" font-family="Arial" font-size="13px" font-style="normal" font-weight="normal" text-decoration="none" x="1285" y="290">IFileReaderStrategy</text></g></g><g transform="translate(-710,-190) scale(1,1)"><path fill="#ffffff" stroke="none" d="M 1456 248 L 1594.78076171875 248 L 1604.78076171875 258 L 1604.78076171875 346 L 1456 346 L 1456 248"/></g><g transform="translate(-710,-190) scale(1,1)"><path fill="none" stroke="#000000" d="M 1456 248 L 1594.78076171875 248 L 1604.78076171875 258 L 1604.78076171875 346 L 1456 346 L 1456 248 L 1456 248" stroke-miterlimit="10"/></g><g transform="translate(-710,-190) scale(1,1)"><path fill="none" stroke="#000000" d="M 1594.78076171875 248 L 1594.78076171875 258 L 1604.78076171875 258 L 1594.78076171875 248" stroke-miterlimit="10"/></g><g transform="translate(-710,-190) scale(1,1)"><g><path fill="none" stroke="none"/><text fill="#000000" stroke="none" font-family="Arial" font-size="13px" font-style="normal" font-weight="normal" text-decoration="none" x="1461" y="266">AssignmentController</text></g></g><g transform="translate(-710,-190) scale(1,1)"><g><path fill="none" stroke="none"/><text fill="#000000" stroke="none" font-family="Arial" font-size="13px" font-style="normal" font-weight="normal" text-decoration="none" x="1461" y="281">BugReadersController</text></g></g><g transform="translate(-710,-190) scale(1,1)"><g><path fill="none" stroke="none"/><text fill="#000000" stroke="none" font-family="Arial" font-size="13px" font-style="normal" font-weight="normal" text-decoration="none" x="1461" y="296">BugsController</text></g></g><g transform="translate(-710,-190) scale(1,1)"><g><path fill="none" stroke="none"/><text fill="#000000" stroke="none" font-family="Arial" font-size="13px" font-style="normal" font-weight="normal" text-decoration="none" x="1461" y="311">ProjectsController</text></g></g><g transform="translate(-710,-190) scale(1,1)"><g><path fill="none" stroke="none"/><text fill="#000000" stroke="none" font-family="Arial" font-size="13px" font-style="normal" font-weight="normal" text-decoration="none" x="1461" y="326">SessionsController</text></g></g><g transform="translate(-710,-190) scale(1,1)"><g><path fill="none" stroke="none"/><text fill="#000000" stroke="none" font-family="Arial" font-size="13px" font-style="normal" font-weight="normal" text-decoration="none" x="1461" y="341">UsersController</text></g></g><g transform="translate(-710,-190) scale(1,1)"><path fill="#ffffff" stroke="none" d="M 1624 288 L 1823.4580078125 288 L 1833.4580078125 298 L 1833.4580078125 335 L 1624 335 L 1624 288"/></g><g transform="translate(-710,-190) scale(1,1)"><path fill="none" stroke="#000000" d="M 1624 288 L 1823.4580078125 288 L 1833.4580078125 298 L 1833.4580078125 335 L 1624 335 L 1624 288 L 1624 288" stroke-miterlimit="10"/></g><g transform="translate(-710,-190) scale(1,1)"><path fill="none" stroke="#000000" d="M 1823.4580078125 288 L 1823.4580078125 298 L 1833.4580078125 298 L 1823.4580078125 288" stroke-miterlimit="10"/></g><g transform="translate(-710,-190) scale(1,1)"><g><path fill="none" stroke="none"/><text fill="#000000" stroke="none" font-family="Arial" font-size="13px" font-style="normal" font-weight="normal" text-decoration="none" x="1629" y="306">AuthorizationWithParameterFilter</text></g></g><g transform="translate(-710,-190) scale(1,1)"><g><path fill="none" stroke="none"/><text fill="#000000" stroke="none" font-family="Arial" font-size="13px" font-style="normal" font-weight="normal" text-decoration="none" x="1629" y="321">ExceptionFilter</text></g></g><g transform="translate(-710,-190) scale(1,1)"><path fill="#ffffff" stroke="none" d="M 1904 240 L 2042.78076171875 240 L 2052.78076171875 250 L 2052.78076171875 383 L 1904 383 L 1904 240"/></g><g transform="translate(-710,-190) scale(1,1)"><path fill="none" stroke="#000000" d="M 1904 240 L 2042.78076171875 240 L 2052.78076171875 250 L 2052.78076171875 383 L 1904 383 L 1904 240 L 1904 240" stroke-miterlimit="10"/></g><g transform="translate(-710,-190) scale(1,1)"><path fill="none" stroke="#000000" d="M 2042.78076171875 240 L 2042.78076171875 250 L 2052.78076171875 250 L 2042.78076171875 240" stroke-miterlimit="10"/></g><g transform="translate(-710,-190) scale(1,1)"><g><path fill="none" stroke="none"/><text fill="#000000" stroke="none" font-family="Arial" font-size="13px" font-style="normal" font-weight="normal" text-decoration="none" x="1909" y="258">AssignmentModel</text></g></g><g transform="translate(-710,-190) scale(1,1)"><g><path fill="none" stroke="none"/><text fill="#000000" stroke="none" font-family="Arial" font-size="13px" font-style="normal" font-weight="normal" text-decoration="none" x="1909" y="273">AuthorizationModel</text></g></g><g transform="translate(-710,-190) scale(1,1)"><g><path fill="none" stroke="none"/><text fill="#000000" stroke="none" font-family="Arial" font-size="13px" font-style="normal" font-weight="normal" text-decoration="none" x="1909" y="288">BugModel</text></g></g><g transform="translate(-710,-190) scale(1,1)"><g><path fill="none" stroke="none"/><text fill="#000000" stroke="none" font-family="Arial" font-size="13px" font-style="normal" font-weight="normal" text-decoration="none" x="1909" y="303">BugReaderInfoModel</text></g></g><g transform="translate(-710,-190) scale(1,1)"><g><path fill="none" stroke="none"/><text fill="#000000" stroke="none" font-family="Arial" font-size="13px" font-style="normal" font-weight="normal" text-decoration="none" x="1909" y="318">BugReaderModel</text></g></g><g transform="translate(-710,-190) scale(1,1)"><g><path fill="none" stroke="none"/><text fill="#000000" stroke="none" font-family="Arial" font-size="13px" font-style="normal" font-weight="normal" text-decoration="none" x="1909" y="333">LoginModel</text></g></g><g transform="translate(-710,-190) scale(1,1)"><g><path fill="none" stroke="none"/><text fill="#000000" stroke="none" font-family="Arial" font-size="13px" font-style="normal" font-weight="normal" text-decoration="none" x="1909" y="348">PorjectAddModel</text></g></g><g transform="translate(-710,-190) scale(1,1)"><g><path fill="none" stroke="none"/><text fill="#000000" stroke="none" font-family="Arial" font-size="13px" font-style="normal" font-weight="normal" text-decoration="none" x="1909" y="363">ProjectModel</text></g></g><g transform="translate(-710,-190) scale(1,1)"><g><path fill="none" stroke="none"/><text fill="#000000" stroke="none" font-family="Arial" font-size="13px" font-style="normal" font-weight="normal" text-decoration="none" x="1909" y="378">UserModel</text></g></g><g transform="translate(-710,-190) scale(1,1)"><path fill="#ffffff" stroke="none" d="M 1600 400 L 1789 400 L 1799 410 L 1799 463 L 1600 463 L 1600 400"/></g><g transform="translate(-710,-190) scale(1,1)"><path fill="none" stroke="#000000" d="M 1600 400 L 1789 400 L 1799 410 L 1799 463 L 1600 463 L 1600 400 L 1600 400" stroke-miterlimit="10"/></g><g transform="translate(-710,-190) scale(1,1)"><path fill="none" stroke="#000000" d="M 1789 400 L 1789 410 L 1799 410 L 1789 400" stroke-miterlimit="10"/></g><g transform="translate(-710,-190) scale(1,1)"><g><path fill="none" stroke="none"/><text fill="#000000" stroke="none" font-family="Arial" font-size="13px" font-style="normal" font-weight="normal" text-decoration="none" x="1605" y="418">Program</text></g></g><g transform="translate(-710,-190) scale(1,1)"><g><path fill="none" stroke="none"/><text fill="#000000" stroke="none" font-family="Arial" font-size="13px" font-style="normal" font-weight="normal" text-decoration="none" x="1605" y="433">Startup</text></g></g><g transform="translate(-710,-190) scale(1,1)"><path fill="#ffffff" stroke="none" d="M 1608 528 L 1789 528 L 1799 538 L 1799 615 L 1608 615 L 1608 528"/></g><g transform="translate(-710,-190) scale(1,1)"><path fill="none" stroke="#000000" d="M 1608 528 L 1789 528 L 1799 538 L 1799 615 L 1608 615 L 1608 528 L 1608 528" stroke-miterlimit="10"/></g><g transform="translate(-710,-190) scale(1,1)"><path fill="none" stroke="#000000" d="M 1789 528 L 1789 538 L 1799 538 L 1789 528" stroke-miterlimit="10"/></g><g transform="translate(-710,-190) scale(1,1)"><g><path fill="none" stroke="none"/><text fill="#000000" stroke="none" font-family="Arial" font-size="13px" font-style="normal" font-weight="normal" text-decoration="none" x="1613" y="546">IAssignmentLogic</text></g></g><g transform="translate(-710,-190) scale(1,1)"><g><path fill="none" stroke="none"/><text fill="#000000" stroke="none" font-family="Arial" font-size="13px" font-style="normal" font-weight="normal" text-decoration="none" x="1613" y="561">IBugLogic</text></g></g><g transform="translate(-710,-190) scale(1,1)"><g><path fill="none" stroke="none"/><text fill="#000000" stroke="none" font-family="Arial" font-size="13px" font-style="normal" font-weight="normal" text-decoration="none" x="1613" y="576">IProjectLogic</text></g></g><g transform="translate(-710,-190) scale(1,1)"><g><path fill="none" stroke="none"/><text fill="#000000" stroke="none" font-family="Arial" font-size="13px" font-style="normal" font-weight="normal" text-decoration="none" x="1613" y="591">ISessionLogic</text></g></g><g transform="translate(-710,-190) scale(1,1)"><g><path fill="none" stroke="none"/><text fill="#000000" stroke="none" font-family="Arial" font-size="13px" font-style="normal" font-weight="normal" text-decoration="none" x="1613" y="606">IUserLogic</text></g></g><g transform="translate(-710,-190) scale(1,1)"><path fill="#ffffff" stroke="none" d="M 1600 680 L 1773 680 L 1783 690 L 1783 763 L 1600 763 L 1600 680"/></g><g transform="translate(-710,-190) scale(1,1)"><path fill="none" stroke="#000000" d="M 1600 680 L 1773 680 L 1783 690 L 1783 763 L 1600 763 L 1600 680 L 1600 680" stroke-miterlimit="10"/></g><g transform="translate(-710,-190) scale(1,1)"><path fill="none" stroke="#000000" d="M 1773 680 L 1773 690 L 1783 690 L 1773 680" stroke-miterlimit="10"/></g><g transform="translate(-710,-190) scale(1,1)"><g><path fill="none" stroke="none"/><text fill="#000000" stroke="none" font-family="Arial" font-size="13px" font-style="normal" font-weight="normal" text-decoration="none" x="1605" y="698">AssignmentLogic</text></g></g><g transform="translate(-710,-190) scale(1,1)"><g><path fill="none" stroke="none"/><text fill="#000000" stroke="none" font-family="Arial" font-size="13px" font-style="normal" font-weight="normal" text-decoration="none" x="1605" y="713">BugLogic</text></g></g><g transform="translate(-710,-190) scale(1,1)"><g><path fill="none" stroke="none"/><text fill="#000000" stroke="none" font-family="Arial" font-size="13px" font-style="normal" font-weight="normal" text-decoration="none" x="1605" y="728">ProjectLogic</text></g></g><g transform="translate(-710,-190) scale(1,1)"><g><path fill="none" stroke="none"/><text fill="#000000" stroke="none" font-family="Arial" font-size="13px" font-style="normal" font-weight="normal" text-decoration="none" x="1605" y="743">SessionLogic</text></g></g><g transform="translate(-710,-190) scale(1,1)"><g><path fill="none" stroke="none"/><text fill="#000000" stroke="none" font-family="Arial" font-size="13px" font-style="normal" font-weight="normal" text-decoration="none" x="1605" y="758">UserLogic</text></g></g><g transform="translate(-710,-190) scale(1,1)"><path fill="#ffffff" stroke="none" d="M 1600 840 L 1773 840 L 1783 850 L 1783 908 L 1600 908 L 1600 840"/></g><g transform="translate(-710,-190) scale(1,1)"><path fill="none" stroke="#000000" d="M 1600 840 L 1773 840 L 1783 850 L 1783 908 L 1600 908 L 1600 840 L 1600 840" stroke-miterlimit="10"/></g><g transform="translate(-710,-190) scale(1,1)"><path fill="none" stroke="#000000" d="M 1773 840 L 1773 850 L 1783 850 L 1773 840" stroke-miterlimit="10"/></g><g transform="translate(-710,-190) scale(1,1)"><g><path fill="none" stroke="none"/><text fill="#000000" stroke="none" font-family="Arial" font-size="13px" font-style="normal" font-weight="normal" text-decoration="none" x="1605" y="858">IAssignmentRepository</text></g></g><g transform="translate(-710,-190) scale(1,1)"><g><path fill="none" stroke="none"/><text fill="#000000" stroke="none" font-family="Arial" font-size="13px" font-style="normal" font-weight="normal" text-decoration="none" x="1605" y="873">IBugRepository</text></g></g><g transform="translate(-710,-190) scale(1,1)"><g><path fill="none" stroke="none"/><text fill="#000000" stroke="none" font-family="Arial" font-size="13px" font-style="normal" font-weight="normal" text-decoration="none" x="1605" y="888">IProjectRepository</text></g></g><g transform="translate(-710,-190) scale(1,1)"><g><path fill="none" stroke="none"/><text fill="#000000" stroke="none" font-family="Arial" font-size="13px" font-style="normal" font-weight="normal" text-decoration="none" x="1605" y="903">IUserRepository</text></g></g><g transform="translate(-710,-190) scale(1,1)"><path fill="#ffffff" stroke="none" d="M 1584 1024 L 1765 1024 L 1775 1034 L 1775 1122 L 1584 1122 L 1584 1024"/></g><g transform="translate(-710,-190) scale(1,1)"><path fill="none" stroke="#000000" d="M 1584 1024 L 1765 1024 L 1775 1034 L 1775 1122 L 1584 1122 L 1584 1024 L 1584 1024" stroke-miterlimit="10"/></g><g transform="translate(-710,-190) scale(1,1)"><path fill="none" stroke="#000000" d="M 1765 1024 L 1765 1034 L 1775 1034 L 1765 1024" stroke-miterlimit="10"/></g><g transform="translate(-710,-190) scale(1,1)"><g><path fill="none" stroke="none"/><text fill="#000000" stroke="none" font-family="Arial" font-size="13px" font-style="normal" font-weight="normal" text-decoration="none" x="1589" y="1042">AssignmentRepository</text></g></g><g transform="translate(-710,-190) scale(1,1)"><g><path fill="none" stroke="none"/><text fill="#000000" stroke="none" font-family="Arial" font-size="13px" font-style="normal" font-weight="normal" text-decoration="none" x="1589" y="1057">BugRepository</text></g></g><g transform="translate(-710,-190) scale(1,1)"><g><path fill="none" stroke="none"/><text fill="#000000" stroke="none" font-family="Arial" font-size="13px" font-style="normal" font-weight="normal" text-decoration="none" x="1589" y="1072">ProjectRepository</text></g></g><g transform="translate(-710,-190) scale(1,1)"><g><path fill="none" stroke="none"/><text fill="#000000" stroke="none" font-family="Arial" font-size="13px" font-style="normal" font-weight="normal" text-decoration="none" x="1589" y="1087">UserRepository</text></g></g><g transform="translate(-710,-190) scale(1,1)"><g><path fill="none" stroke="none"/><text fill="#000000" stroke="none" font-family="Arial" font-size="13px" font-style="normal" font-weight="normal" text-decoration="none" x="1589" y="1102">BaseRepository</text></g></g><g transform="translate(-710,-190) scale(1,1)"><g><path fill="none" stroke="none"/><text fill="#000000" stroke="none" font-family="Arial" font-size="13px" font-style="normal" font-weight="normal" text-decoration="none" x="1589" y="1117">BugSummaryContext</text></g></g><g transform="translate(-710,-190) scale(1,1)"><path fill="#ffffff" stroke="none" d="M 1896 832 L 2037 832 L 2047 842 L 2047 879 L 1896 879 L 1896 832"/></g><g transform="translate(-710,-190) scale(1,1)"><path fill="none" stroke="#000000" d="M 1896 832 L 2037 832 L 2047 842 L 2047 879 L 1896 879 L 1896 832 L 1896 832" stroke-miterlimit="10"/></g><g transform="translate(-710,-190) scale(1,1)"><path fill="none" stroke="#000000" d="M 2037 832 L 2037 842 L 2047 842 L 2037 832" stroke-miterlimit="10"/></g><g transform="translate(-710,-190) scale(1,1)"><g><path fill="none" stroke="none"/><text fill="#000000" stroke="none" font-family="Arial" font-size="13px" font-style="normal" font-weight="normal" text-decoration="none" x="1901" y="850">ServiceFactory</text></g></g><g transform="translate(-710,-190) scale(1,1)"><path fill="#ffffff" stroke="none" d="M 1064 792 L 1230.0185546875 792 L 1240.0185546875 802 L 1240.0185546875 837 L 1064 837 L 1064 792"/></g><g transform="translate(-710,-190) scale(1,1)"><path fill="none" stroke="#000000" d="M 1064 792 L 1230.0185546875 792 L 1240.0185546875 802 L 1240.0185546875 837 L 1064 837 L 1064 792 L 1064 792" stroke-miterlimit="10"/></g><g transform="translate(-710,-190) scale(1,1)"><path fill="none" stroke="#000000" d="M 1230.0185546875 792 L 1230.0185546875 802 L 1240.0185546875 802 L 1230.0185546875 792" stroke-miterlimit="10"/></g><g transform="translate(-710,-190) scale(1,1)"><g><path fill="none" stroke="none"/><text fill="#000000" stroke="none" font-family="Arial" font-size="13px" font-style="normal" font-weight="normal" text-decoration="none" x="1069" y="810">DomainValidationException</text></g></g><g transform="translate(-710,-190) scale(1,1)"><path fill="none" stroke="#000000" d="M 1256 1216 L 1256 1158 L 1200 1158 L 1200 1120" stroke-miterlimit="10"/></g><g transform="translate(-710,-190) scale(1,1)"><path fill="#FFFFFF" stroke="none" d="M 1193 1127 C 1193 1123.1340064 1196.1340064 1120 1200 1120 C 1203.8659936 1120 1207 1123.1340064 1207 1127 C 1207 1130.8659936 1203.8659936 1134 1200 1134 C 1196.1340064 1134 1193 1130.8659936 1193 1127 Z"/></g><g transform="translate(-710,-190) scale(1,1)"><path fill="none" stroke="#000000" d="M 1193 1127 C 1193 1123.1340064 1196.1340064 1120 1200 1120 C 1203.8659936 1120 1207 1123.1340064 1207 1127 C 1207 1130.8659936 1203.8659936 1134 1200 1134 C 1196.1340064 1134 1193 1130.8659936 1193 1127 Z" stroke-miterlimit="10"/></g><g transform="translate(-710,-190) scale(1,1)"><path fill="none" stroke="#000000" d="M 1200 1134 L 1200 1120" stroke-miterlimit="10"/></g><g transform="translate(-710,-190) scale(1,1)"><path fill="none" stroke="#000000" d="M 1207 1127 L 1193 1127" stroke-miterlimit="10"/></g><g transform="translate(-710,-190) scale(1,1)"><path fill="none" stroke="#000000" d="M 1464 1224 L 1464 1120 L 1392 1120" stroke-miterlimit="10"/></g><g transform="translate(-710,-190) scale(1,1)"><path fill="#FFFFFF" stroke="none" d="M 1392 1120 C 1392 1116.1340064 1395.1340064 1113 1399 1113 C 1402.8659936 1113 1406 1116.1340064 1406 1120 C 1406 1123.8659936 1402.8659936 1127 1399 1127 C 1395.1340064 1127 1392 1123.8659936 1392 1120 Z"/></g><g transform="translate(-710,-190) scale(1,1)"><path fill="none" stroke="#000000" d="M 1392 1120 C 1392 1116.1340064 1395.1340064 1113 1399 1113 C 1402.8659936 1113 1406 1116.1340064 1406 1120 C 1406 1123.8659936 1402.8659936 1127 1399 1127 C 1395.1340064 1127 1392 1123.8659936 1392 1120 Z" stroke-miterlimit="10"/></g><g transform="translate(-710,-190) scale(1,1)"><path fill="none" stroke="#000000" d="M 1406 1120 L 1392 1120" stroke-miterlimit="10"/></g><g transform="translate(-710,-190) scale(1,1)"><path fill="none" stroke="#000000" d="M 1399 1113 L 1399 1127" stroke-miterlimit="10"/></g><g transform="translate(-710,-190) scale(1,1)"><rect fill="#C0C0C0" stroke="none" x="927" y="1215" width="73.60000000000002" height="15" opacity="0.2"/></g><g transform="translate(-710,-190) scale(1,1)"><rect fill="#C0C0C0" stroke="none" x="927" y="1229" width="184" height="90" opacity="0.2"/></g><g transform="translate(-710,-190) scale(1,1)"><rect fill="#ffffff" stroke="none" x="920" y="1223" width="184" height="89"/></g><g transform="translate(-710,-190) scale(1,1)"><path fill="none" stroke="#000000" d="M 920 1223 L 1104 1223 L 1104 1312 L 920 1312 L 920 1223 Z Z" stroke-miterlimit="10"/></g><g transform="translate(-710,-190) scale(1,1)"><rect fill="#ffffff" stroke="none" x="920" y="1208" width="73.60000000000002" height="15"/></g><g transform="translate(-710,-190) scale(1,1)"><path fill="none" stroke="#000000" d="M 920 1208 L 993.6 1208 L 993.6 1223 L 920 1223 L 920 1208 Z Z" stroke-miterlimit="10"/></g><g transform="translate(-710,-190) scale(1,1)"><rect fill="#ffffff" stroke="none" x="920" y="1222" width="184" height="90"/></g><g transform="translate(-710,-190) scale(1,1)"><path fill="none" stroke="#000000" d="M 920 1222 L 1104 1222 L 1104 1312 L 920 1312 L 920 1222 Z Z" stroke-miterlimit="10"/></g><g transform="translate(-710,-190) scale(1,1)"><g><path fill="none" stroke="none"/><text fill="#000000" stroke="none" font-family="Arial" font-size="13px" font-style="normal" font-weight="bold" text-decoration="none" x="989.35791015625" y="1242.5">WebApi</text></g></g><g transform="translate(-710,-190) scale(1,1)"><path fill="#ffffff" stroke="none" d="M 920 1264 L 1093 1264 L 1103 1274 L 1103 1306 L 920 1306 L 920 1264"/></g><g transform="translate(-710,-190) scale(1,1)"><path fill="none" stroke="#000000" d="M 920 1264 L 1093 1264 L 1103 1274 L 1103 1306 L 920 1306 L 920 1264 L 920 1264" stroke-miterlimit="10"/></g><g transform="translate(-710,-190) scale(1,1)"><path fill="none" stroke="#000000" d="M 1093 1264 L 1093 1274 L 1103 1274 L 1093 1264" stroke-miterlimit="10"/></g><g transform="translate(-710,-190) scale(1,1)"><g><path fill="none" stroke="none"/></g></g><g transform="translate(-710,-190) scale(1,1)"><g><path fill="none" stroke="none"/><text fill="#000000" stroke="none" font-family="Arial" font-size="13px" font-style="normal" font-weight="normal" text-decoration="none" x="925" y="1284">ModelMissingFieldsException</text></g></g><g transform="translate(-710,-190) scale(1,1)"><g><path fill="none" stroke="none"/><text fill="#000000" stroke="none" font-family="Arial" font-size="13px" font-style="normal" font-weight="normal" text-decoration="none" x="925" y="1299">LoginException</text></g></g><g transform="translate(-710,-190) scale(1,1)"><g><path fill="none" stroke="none"/></g></g><g transform="translate(-710,-190) scale(1,1)"><path fill="none" stroke="#000000" d="M 1072 1208 L 1072 1120 L 1200 1120" stroke-miterlimit="10"/></g><g transform="translate(-710,-190) scale(1,1)"><path fill="#FFFFFF" stroke="none" d="M 1186 1120 C 1186 1116.1340064 1189.1340064 1113 1193 1113 C 1196.8659936 1113 1200 1116.1340064 1200 1120 C 1200 1123.8659936 1196.8659936 1127 1193 1127 C 1189.1340064 1127 1186 1123.8659936 1186 1120 Z"/></g><g transform="translate(-710,-190) scale(1,1)"><path fill="none" stroke="#000000" d="M 1186 1120 C 1186 1116.1340064 1189.1340064 1113 1193 1113 C 1196.8659936 1113 1200 1116.1340064 1200 1120 C 1200 1123.8659936 1196.8659936 1127 1193 1127 C 1189.1340064 1127 1186 1123.8659936 1186 1120 Z" stroke-miterlimit="10"/></g><g transform="translate(-710,-190) scale(1,1)"><path fill="none" stroke="#000000" d="M 1186 1120 L 1200 1120" stroke-miterlimit="10"/></g><g transform="translate(-710,-190) scale(1,1)"><path fill="none" stroke="#000000" d="M 1193 1127 L 1193 1113" stroke-miterlimit="10"/></g><g transform="translate(-710,-190) scale(1,1)"><rect fill="#C0C0C0" stroke="none" x="1207" y="1031" width="76.79999999999995" height="15" opacity="0.2"/></g><g transform="translate(-710,-190) scale(1,1)"><rect fill="#C0C0C0" stroke="none" x="1207" y="1045" width="192" height="82" opacity="0.2"/></g><g transform="translate(-710,-190) scale(1,1)"><rect fill="#ffffff" stroke="none" x="1200" y="1039" width="192" height="81"/></g><g transform="translate(-710,-190) scale(1,1)"><path fill="none" stroke="#000000" d="M 1200 1039 L 1392 1039 L 1392 1120 L 1200 1120 L 1200 1039 Z Z" stroke-miterlimit="10"/></g><g transform="translate(-710,-190) scale(1,1)"><rect fill="#ffffff" stroke="none" x="1200" y="1024" width="76.79999999999995" height="15"/></g><g transform="translate(-710,-190) scale(1,1)"><path fill="none" stroke="#000000" d="M 1200 1024 L 1276.8 1024 L 1276.8 1039 L 1200 1039 L 1200 1024 Z Z" stroke-miterlimit="10"/></g><g transform="translate(-710,-190) scale(1,1)"><rect fill="#ffffff" stroke="none" x="1200" y="1038" width="192" height="82"/></g><g transform="translate(-710,-190) scale(1,1)"><path fill="none" stroke="#000000" d="M 1200 1038 L 1392 1038 L 1392 1120 L 1200 1120 L 1200 1038 Z Z" stroke-miterlimit="10"/></g><g transform="translate(-710,-190) scale(1,1)"><g><path fill="none" stroke="none"/><text fill="#000000" stroke="none" font-family="Arial" font-size="13px" font-style="normal" font-weight="bold" text-decoration="none" x="1241.81005859375" y="1058.5">CustomExceptions</text></g></g><g transform="translate(-710,-190) scale(1,1)"><path fill="#ffffff" stroke="none" d="M 1358 811 L 1531 811 L 1541 821 L 1541 853 L 1358 853 L 1358 811"/></g><g transform="translate(-710,-190) scale(1,1)"><path fill="none" stroke="#000000" d="M 1358 811 L 1531 811 L 1541 821 L 1541 853 L 1358 853 L 1358 811 L 1358 811" stroke-miterlimit="10"/></g><g transform="translate(-710,-190) scale(1,1)"><path fill="none" stroke="#000000" d="M 1531 811 L 1531 821 L 1541 821 L 1531 811" stroke-miterlimit="10"/></g><g transform="translate(-710,-190) scale(1,1)"><g><path fill="none" stroke="none"/></g></g><g transform="translate(-710,-190) scale(1,1)"><g><path fill="none" stroke="none"/><text fill="#000000" stroke="none" font-family="Arial" font-size="13px" font-style="normal" font-weight="normal" text-decoration="none" x="1363" y="831">ModelMissingFieldsException</text></g></g><g transform="translate(-710,-190) scale(1,1)"><g><path fill="none" stroke="none"/><text fill="#000000" stroke="none" font-family="Arial" font-size="13px" font-style="normal" font-weight="normal" text-decoration="none" x="1363" y="846">LoginException</text></g></g><g transform="translate(-710,-190) scale(1,1)"><g><path fill="none" stroke="none"/></g></g><g transform="translate(-710,-190) scale(1,1)"><path fill="#ffffff" stroke="none" d="M 1208 1072 L 1381 1072 L 1391 1082 L 1391 1114 L 1208 1114 L 1208 1072"/></g><g transform="translate(-710,-190) scale(1,1)"><path fill="none" stroke="#000000" d="M 1208 1072 L 1381 1072 L 1391 1082 L 1391 1114 L 1208 1114 L 1208 1072 L 1208 1072" stroke-miterlimit="10"/></g><g transform="translate(-710,-190) scale(1,1)"><path fill="none" stroke="#000000" d="M 1381 1072 L 1381 1082 L 1391 1082 L 1381 1072" stroke-miterlimit="10"/></g><g transform="translate(-710,-190) scale(1,1)"><g><path fill="none" stroke="none"/><text fill="#000000" stroke="none" font-family="Arial" font-size="13px" font-style="normal" font-weight="normal" text-decoration="none" x="1213" y="1090">LoginException</text></g></g><g transform="translate(-710,-190) scale(1,1)"><g><path fill="none" stroke="none"/></g></g><g transform="translate(-710,-190) scale(1,1)"><rect fill="#C0C0C0" stroke="none" x="1143" y="1223" width="73.59999999999991" height="15" opacity="0.2"/></g><g transform="translate(-710,-190) scale(1,1)"><rect fill="#C0C0C0" stroke="none" x="1143" y="1237" width="184" height="106" opacity="0.2"/></g><g transform="translate(-710,-190) scale(1,1)"><rect fill="#ffffff" stroke="none" x="1136" y="1231" width="184" height="105"/></g><g transform="translate(-710,-190) scale(1,1)"><path fill="none" stroke="#000000" d="M 1136 1231 L 1320 1231 L 1320 1336 L 1136 1336 L 1136 1231 Z Z" stroke-miterlimit="10"/></g><g transform="translate(-710,-190) scale(1,1)"><rect fill="#ffffff" stroke="none" x="1136" y="1216" width="73.59999999999991" height="15"/></g><g transform="translate(-710,-190) scale(1,1)"><path fill="none" stroke="#000000" d="M 1136 1216 L 1209.6 1216 L 1209.6 1231 L 1136 1231 L 1136 1216 Z Z" stroke-miterlimit="10"/></g><g transform="translate(-710,-190) scale(1,1)"><rect fill="#ffffff" stroke="none" x="1136" y="1230" width="184" height="106"/></g><g transform="translate(-710,-190) scale(1,1)"><path fill="none" stroke="#000000" d="M 1136 1230 L 1320 1230 L 1320 1336 L 1136 1336 L 1136 1230 Z Z" stroke-miterlimit="10"/></g><g transform="translate(-710,-190) scale(1,1)"><g><path fill="none" stroke="none"/><text fill="#000000" stroke="none" font-family="Arial" font-size="13px" font-style="normal" font-weight="bold" text-decoration="none" x="1193.319580078125" y="1250.5">DataAccess</text></g></g><g transform="translate(-710,-190) scale(1,1)"><path fill="#ffffff" stroke="none" d="M 1144 1264 L 1301 1264 L 1311 1274 L 1311 1319 L 1144 1319 L 1144 1264"/></g><g transform="translate(-710,-190) scale(1,1)"><path fill="none" stroke="#000000" d="M 1144 1264 L 1301 1264 L 1311 1274 L 1311 1319 L 1144 1319 L 1144 1264 L 1144 1264" stroke-miterlimit="10"/></g><g transform="translate(-710,-190) scale(1,1)"><path fill="none" stroke="#000000" d="M 1301 1264 L 1301 1274 L 1311 1274 L 1301 1264" stroke-miterlimit="10"/></g><g transform="translate(-710,-190) scale(1,1)"><g><path fill="none" stroke="none"/><text fill="#000000" stroke="none" font-family="Arial" font-size="13px" font-style="normal" font-weight="normal" text-decoration="none" x="1149" y="1282">DataAccessException</text></g></g><g transform="translate(-710,-190) scale(1,1)"><rect fill="#C0C0C0" stroke="none" x="1359" y="1231" width="89.59999999999991" height="15" opacity="0.2"/></g><g transform="translate(-710,-190) scale(1,1)"><rect fill="#C0C0C0" stroke="none" x="1359" y="1245" width="224" height="98" opacity="0.2"/></g><g transform="translate(-710,-190) scale(1,1)"><rect fill="#ffffff" stroke="none" x="1352" y="1239" width="224" height="97"/></g><g transform="translate(-710,-190) scale(1,1)"><path fill="none" stroke="#000000" d="M 1352 1239 L 1576 1239 L 1576 1336 L 1352 1336 L 1352 1239 Z Z" stroke-miterlimit="10"/></g><g transform="translate(-710,-190) scale(1,1)"><rect fill="#ffffff" stroke="none" x="1352" y="1224" width="89.59999999999991" height="15"/></g><g transform="translate(-710,-190) scale(1,1)"><path fill="none" stroke="#000000" d="M 1352 1224 L 1441.6 1224 L 1441.6 1239 L 1352 1239 L 1352 1224 Z Z" stroke-miterlimit="10"/></g><g transform="translate(-710,-190) scale(1,1)"><rect fill="#ffffff" stroke="none" x="1352" y="1238" width="224" height="98"/></g><g transform="translate(-710,-190) scale(1,1)"><path fill="none" stroke="#000000" d="M 1352 1238 L 1576 1238 L 1576 1336 L 1352 1336 L 1352 1238 Z Z" stroke-miterlimit="10"/></g><g transform="translate(-710,-190) scale(1,1)"><g><path fill="none" stroke="none"/><text fill="#000000" stroke="none" font-family="Arial" font-size="13px" font-style="normal" font-weight="bold" text-decoration="none" x="1430.763671875" y="1258.5">FileHandler</text></g></g><g transform="translate(-710,-190) scale(1,1)"><path fill="#ffffff" stroke="none" d="M 1352 1280 L 1565.93701171875 1280 L 1575.93701171875 1290 L 1575.93701171875 1333 L 1352 1333 L 1352 1280"/></g><g transform="translate(-710,-190) scale(1,1)"><path fill="none" stroke="#000000" d="M 1352 1280 L 1565.93701171875 1280 L 1575.93701171875 1290 L 1575.93701171875 1333 L 1352 1333 L 1352 1280 L 1352 1280" stroke-miterlimit="10"/></g><g transform="translate(-710,-190) scale(1,1)"><path fill="none" stroke="#000000" d="M 1565.93701171875 1280 L 1565.93701171875 1290 L 1575.93701171875 1290 L 1565.93701171875 1280" stroke-miterlimit="10"/></g><g transform="translate(-710,-190) scale(1,1)"><g><path fill="none" stroke="none"/><text fill="#000000" stroke="none" font-family="Arial" font-size="13px" font-style="normal" font-weight="normal" text-decoration="none" x="1357" y="1297">InexistentExternalReaderException</text></g></g><g transform="translate(-710,-190) scale(1,1)"><g><path fill="none" stroke="none"/><text fill="#000000" stroke="none" font-family="Arial" font-size="13px" font-style="normal" font-weight="normal" text-decoration="none" x="1357" y="1312">InvalidCompany2BugFileException</text></g></g><g transform="translate(-710,-190) scale(1,1)"><g><path fill="none" stroke="none"/><text fill="#000000" stroke="none" font-family="Arial" font-size="13px" font-style="normal" font-weight="normal" text-decoration="none" x="1357" y="1327">CompanyIsNotRegisteredException</text></g></g></g></svg>