<svg version="1.1" xmlns="http://www.w3.org/2000/svg" xmlns:xlink="http://www.w3.org/1999/xlink" width="1293.78271484375" height="525"><defs/><g><g transform="translate(-54,-142) scale(1,1)"><rect fill="#C0C0C0" stroke="none" x="793" y="183" width="158" height="44" opacity="0.2"/></g><g transform="translate(-54,-142) scale(1,1)"><rect fill="#ffffff" stroke="none" x="786" y="176" width="158" height="44"/></g><g transform="translate(-54,-142) scale(1,1)"><path fill="none" stroke="#000000" d="M 786 176 L 944 176 L 944 220 L 786 220 L 786 176 Z Z" stroke-miterlimit="10"/></g><g transform="translate(-54,-142) scale(1,1)"><rect fill="#ffffff" stroke="none" x="776" y="183" width="20" height="10"/></g><g transform="translate(-54,-142) scale(1,1)"><path fill="none" stroke="#000000" d="M 776 183 L 796 183 L 796 193 L 776 193 L 776 183 Z Z" stroke-miterlimit="10"/></g><g transform="translate(-54,-142) scale(1,1)"><rect fill="#ffffff" stroke="none" x="776" y="203" width="20" height="10"/></g><g transform="translate(-54,-142) scale(1,1)"><path fill="none" stroke="#000000" d="M 776 203 L 796 203 L 796 213 L 776 213 L 776 203 Z Z" stroke-miterlimit="10"/></g><g transform="translate(-54,-142) scale(1,1)"><g><path fill="none" stroke="none"/><text fill="#000000" stroke="none" font-family="Arial" font-size="13px" font-style="normal" font-weight="bold" text-decoration="none" x="847.35791015625" y="195.5">WebApi</text></g></g><g transform="translate(-54,-142) scale(1,1)"><rect fill="#C0C0C0" stroke="none" x="801" y="327" width="165.65625" height="44" opacity="0.2"/></g><g transform="translate(-54,-142) scale(1,1)"><rect fill="#ffffff" stroke="none" x="794" y="320" width="165.65625" height="44"/></g><g transform="translate(-54,-142) scale(1,1)"><path fill="none" stroke="#000000" d="M 794 320 L 959.65625 320 L 959.65625 364 L 794 364 L 794 320 Z Z" stroke-miterlimit="10"/></g><g transform="translate(-54,-142) scale(1,1)"><rect fill="#ffffff" stroke="none" x="784" y="327" width="20" height="10"/></g><g transform="translate(-54,-142) scale(1,1)"><path fill="none" stroke="#000000" d="M 784 327 L 804 327 L 804 337 L 784 337 L 784 327 Z Z" stroke-miterlimit="10"/></g><g transform="translate(-54,-142) scale(1,1)"><rect fill="#ffffff" stroke="none" x="784" y="347" width="20" height="10"/></g><g transform="translate(-54,-142) scale(1,1)"><path fill="none" stroke="#000000" d="M 784 347 L 804 347 L 804 357 L 784 357 L 784 347 Z Z" stroke-miterlimit="10"/></g><g transform="translate(-54,-142) scale(1,1)"><g><path fill="none" stroke="none"/><text fill="#000000" stroke="none" font-family="Arial" font-size="13px" font-style="normal" font-weight="bold" text-decoration="none" x="814.622314453125" y="339.5">BusinessLogicInterface</text></g></g><g transform="translate(-54,-142) scale(1,1)"><rect fill="#C0C0C0" stroke="none" x="801" y="399" width="166" height="80" opacity="0.2"/></g><g transform="translate(-54,-142) scale(1,1)"><rect fill="#ffffff" stroke="none" x="794" y="392" width="166" height="80"/></g><g transform="translate(-54,-142) scale(1,1)"><path fill="none" stroke="#000000" d="M 794 392 L 960 392 L 960 472 L 794 472 L 794 392 Z Z" stroke-miterlimit="10"/></g><g transform="translate(-54,-142) scale(1,1)"><rect fill="#ffffff" stroke="none" x="784" y="399" width="20" height="10"/></g><g transform="translate(-54,-142) scale(1,1)"><path fill="none" stroke="#000000" d="M 784 399 L 804 399 L 804 409 L 784 409 L 784 399 Z Z" stroke-miterlimit="10"/></g><g transform="translate(-54,-142) scale(1,1)"><rect fill="#ffffff" stroke="none" x="784" y="419" width="20" height="10"/></g><g transform="translate(-54,-142) scale(1,1)"><path fill="none" stroke="#000000" d="M 784 419 L 804 419 L 804 429 L 784 429 L 784 419 Z Z" stroke-miterlimit="10"/></g><g transform="translate(-54,-142) scale(1,1)"><g><path fill="none" stroke="none"/><text fill="#000000" stroke="none" font-family="Arial" font-size="13px" font-style="normal" font-weight="bold" text-decoration="none" x="840.08642578125" y="411.5">BusinessLogic</text></g></g><g transform="translate(-54,-142) scale(1,1)"><rect fill="#C0C0C0" stroke="none" x="153" y="159" width="142" height="44" opacity="0.2"/></g><g transform="translate(-54,-142) scale(1,1)"><rect fill="#ffffff" stroke="none" x="146" y="152" width="142" height="44"/></g><g transform="translate(-54,-142) scale(1,1)"><path fill="none" stroke="#000000" d="M 146 152 L 288 152 L 288 196 L 146 196 L 146 152 Z Z" stroke-miterlimit="10"/></g><g transform="translate(-54,-142) scale(1,1)"><rect fill="#ffffff" stroke="none" x="136" y="159" width="20" height="10"/></g><g transform="translate(-54,-142) scale(1,1)"><path fill="none" stroke="#000000" d="M 136 159 L 156 159 L 156 169 L 136 169 L 136 159 Z Z" stroke-miterlimit="10"/></g><g transform="translate(-54,-142) scale(1,1)"><rect fill="#ffffff" stroke="none" x="136" y="179" width="20" height="10"/></g><g transform="translate(-54,-142) scale(1,1)"><path fill="none" stroke="#000000" d="M 136 179 L 156 179 L 156 189 L 136 189 L 136 179 Z Z" stroke-miterlimit="10"/></g><g transform="translate(-54,-142) scale(1,1)"><g><path fill="none" stroke="none"/><text fill="#000000" stroke="none" font-family="Arial" font-size="13px" font-style="normal" font-weight="bold" text-decoration="none" x="188.763671875" y="171.5">FileHandler</text></g></g><g transform="translate(-54,-142) scale(1,1)"><rect fill="#C0C0C0" stroke="none" x="801" y="519" width="166" height="44" opacity="0.2"/></g><g transform="translate(-54,-142) scale(1,1)"><rect fill="#ffffff" stroke="none" x="794" y="512" width="166" height="44"/></g><g transform="translate(-54,-142) scale(1,1)"><path fill="none" stroke="#000000" d="M 794 512 L 960 512 L 960 556 L 794 556 L 794 512 Z Z" stroke-miterlimit="10"/></g><g transform="translate(-54,-142) scale(1,1)"><rect fill="#ffffff" stroke="none" x="784" y="519" width="20" height="10"/></g><g transform="translate(-54,-142) scale(1,1)"><path fill="none" stroke="#000000" d="M 784 519 L 804 519 L 804 529 L 784 529 L 784 519 Z Z" stroke-miterlimit="10"/></g><g transform="translate(-54,-142) scale(1,1)"><rect fill="#ffffff" stroke="none" x="784" y="539" width="20" height="10"/></g><g transform="translate(-54,-142) scale(1,1)"><path fill="none" stroke="#000000" d="M 784 539 L 804 539 L 804 549 L 784 549 L 784 539 Z Z" stroke-miterlimit="10"/></g><g transform="translate(-54,-142) scale(1,1)"><g><path fill="none" stroke="none"/><text fill="#000000" stroke="none" font-family="Arial" font-size="13px" font-style="normal" font-weight="bold" text-decoration="none" x="822.02734375" y="531.5">DataAccessInterface</text></g></g><g transform="translate(-54,-142) scale(1,1)"><rect fill="#C0C0C0" stroke="none" x="801" y="583" width="166" height="44" opacity="0.2"/></g><g transform="translate(-54,-142) scale(1,1)"><rect fill="#ffffff" stroke="none" x="794" y="576" width="166" height="44"/></g><g transform="translate(-54,-142) scale(1,1)"><path fill="none" stroke="#000000" d="M 794 576 L 960 576 L 960 620 L 794 620 L 794 576 Z Z" stroke-miterlimit="10"/></g><g transform="translate(-54,-142) scale(1,1)"><rect fill="#ffffff" stroke="none" x="784" y="583" width="20" height="10"/></g><g transform="translate(-54,-142) scale(1,1)"><path fill="none" stroke="#000000" d="M 784 583 L 804 583 L 804 593 L 784 593 L 784 583 Z Z" stroke-miterlimit="10"/></g><g transform="translate(-54,-142) scale(1,1)"><rect fill="#ffffff" stroke="none" x="784" y="603" width="20" height="10"/></g><g transform="translate(-54,-142) scale(1,1)"><path fill="none" stroke="#000000" d="M 784 603 L 804 603 L 804 613 L 784 613 L 784 603 Z Z" stroke-miterlimit="10"/></g><g transform="translate(-54,-142) scale(1,1)"><g><path fill="none" stroke="none"/><text fill="#000000" stroke="none" font-family="Arial" font-size="13px" font-style="normal" font-weight="bold" text-decoration="none" x="847.319580078125" y="595.5">DataAccess</text></g></g><g transform="translate(-54,-142) scale(1,1)"><rect fill="#C0C0C0" stroke="none" x="377" y="327" width="158" height="88" opacity="0.2"/></g><g transform="translate(-54,-142) scale(1,1)"><rect fill="#ff8282" stroke="none" x="370" y="320" width="158" height="88"/></g><g transform="translate(-54,-142) scale(1,1)"><path fill="none" stroke="#000000" d="M 370 320 L 528 320 L 528 408 L 370 408 L 370 320 Z Z" stroke-miterlimit="10"/></g><g transform="translate(-54,-142) scale(1,1)"><rect fill="#ff8282" stroke="none" x="360" y="327" width="20" height="10"/></g><g transform="translate(-54,-142) scale(1,1)"><path fill="none" stroke="#000000" d="M 360 327 L 380 327 L 380 337 L 360 337 L 360 327 Z Z" stroke-miterlimit="10"/></g><g transform="translate(-54,-142) scale(1,1)"><rect fill="#ff8282" stroke="none" x="360" y="347" width="20" height="10"/></g><g transform="translate(-54,-142) scale(1,1)"><path fill="none" stroke="#000000" d="M 360 347 L 380 347 L 380 357 L 360 357 L 360 347 Z Z" stroke-miterlimit="10"/></g><g transform="translate(-54,-142) scale(1,1)"><g><path fill="none" stroke="none"/><text fill="#000000" stroke="none" font-family="Arial" font-size="13px" font-style="normal" font-weight="bold" text-decoration="none" x="431.602294921875" y="339.5">Domain</text></g></g><g transform="translate(-54,-142) scale(1,1)"><rect fill="#C0C0C0" stroke="none" x="377" y="159" width="143.9853515625" height="44" opacity="0.2"/></g><g transform="translate(-54,-142) scale(1,1)"><rect fill="#ffffff" stroke="none" x="370" y="152" width="143.9853515625" height="44"/></g><g transform="translate(-54,-142) scale(1,1)"><path fill="none" stroke="#000000" d="M 370 152 L 513.9853515625 152 L 513.9853515625 196 L 370 196 L 370 152 Z Z" stroke-miterlimit="10"/></g><g transform="translate(-54,-142) scale(1,1)"><rect fill="#ffffff" stroke="none" x="360" y="159" width="20" height="10"/></g><g transform="translate(-54,-142) scale(1,1)"><path fill="none" stroke="#000000" d="M 360 159 L 380 159 L 380 169 L 360 169 L 360 159 Z Z" stroke-miterlimit="10"/></g><g transform="translate(-54,-142) scale(1,1)"><rect fill="#ffffff" stroke="none" x="360" y="179" width="20" height="10"/></g><g transform="translate(-54,-142) scale(1,1)"><path fill="none" stroke="#000000" d="M 360 179 L 380 179 L 380 189 L 360 189 L 360 179 Z Z" stroke-miterlimit="10"/></g><g transform="translate(-54,-142) scale(1,1)"><g><path fill="none" stroke="none"/><text fill="#000000" stroke="none" font-family="Arial" font-size="13px" font-style="normal" font-weight="bold" text-decoration="none" x="388.464111328125" y="171.5">FileHandlerInterface</text></g></g><g transform="translate(-54,-142) scale(1,1)"><rect fill="#C0C0C0" stroke="none" x="137" y="311" width="136.75537109375" height="44" opacity="0.2"/></g><g transform="translate(-54,-142) scale(1,1)"><rect fill="#ffffff" stroke="none" x="130" y="304" width="136.75537109375" height="44"/></g><g transform="translate(-54,-142) scale(1,1)"><path fill="none" stroke="#000000" d="M 130 304 L 266.75537109375 304 L 266.75537109375 348 L 130 348 L 130 304 Z Z" stroke-miterlimit="10"/></g><g transform="translate(-54,-142) scale(1,1)"><rect fill="#ffffff" stroke="none" x="120" y="311" width="20" height="10"/></g><g transform="translate(-54,-142) scale(1,1)"><path fill="none" stroke="#000000" d="M 120 311 L 140 311 L 140 321 L 120 321 L 120 311 Z Z" stroke-miterlimit="10"/></g><g transform="translate(-54,-142) scale(1,1)"><rect fill="#ffffff" stroke="none" x="120" y="331" width="20" height="10"/></g><g transform="translate(-54,-142) scale(1,1)"><path fill="none" stroke="#000000" d="M 120 331 L 140 331 L 140 341 L 120 341 L 120 331 Z Z" stroke-miterlimit="10"/></g><g transform="translate(-54,-142) scale(1,1)"><g><path fill="none" stroke="none"/><text fill="#000000" stroke="none" font-family="Arial" font-size="13px" font-style="normal" font-weight="bold" text-decoration="none" x="148.470458984375" y="323.5">FileHandlerFactory</text></g></g><g transform="translate(-54,-142) scale(1,1)"><rect fill="#C0C0C0" stroke="none" x="673" y="239" width="98.44091796875" height="64" opacity="0.2"/></g><g transform="translate(-54,-142) scale(1,1)"><rect fill="#ffffff" stroke="none" x="666" y="232" width="98.44091796875" height="64"/></g><g transform="translate(-54,-142) scale(1,1)"><path fill="none" stroke="#000000" d="M 666 232 L 764.44091796875 232 L 764.44091796875 296 L 666 296 L 666 232 Z Z" stroke-miterlimit="10"/></g><g transform="translate(-54,-142) scale(1,1)"><rect fill="#ffffff" stroke="none" x="656" y="239" width="20" height="10"/></g><g transform="translate(-54,-142) scale(1,1)"><path fill="none" stroke="#000000" d="M 656 239 L 676 239 L 676 249 L 656 249 L 656 239 Z Z" stroke-miterlimit="10"/></g><g transform="translate(-54,-142) scale(1,1)"><rect fill="#ffffff" stroke="none" x="656" y="259" width="20" height="10"/></g><g transform="translate(-54,-142) scale(1,1)"><path fill="none" stroke="#000000" d="M 656 259 L 676 259 L 676 269 L 656 269 L 656 259 Z Z" stroke-miterlimit="10"/></g><g transform="translate(-54,-142) scale(1,1)"><g><path fill="none" stroke="none"/><text fill="#000000" stroke="none" font-family="Arial" font-size="13px" font-style="normal" font-weight="bold" text-decoration="none" x="698.549560546875" y="251.5">Factory</text></g></g><g transform="translate(-54,-142) scale(1,1)"><rect fill="#C0C0C0" stroke="none" x="369" y="495" width="158" height="44" opacity="0.2"/></g><g transform="translate(-54,-142) scale(1,1)"><rect fill="#a3e0ff" stroke="none" x="362" y="488" width="158" height="44"/></g><g transform="translate(-54,-142) scale(1,1)"><path fill="none" stroke="#000000" d="M 362 488 L 520 488 L 520 532 L 362 532 L 362 488 Z Z" stroke-miterlimit="10"/></g><g transform="translate(-54,-142) scale(1,1)"><rect fill="#a3e0ff" stroke="none" x="352" y="495" width="20" height="10"/></g><g transform="translate(-54,-142) scale(1,1)"><path fill="none" stroke="#000000" d="M 352 495 L 372 495 L 372 505 L 352 505 L 352 495 Z Z" stroke-miterlimit="10"/></g><g transform="translate(-54,-142) scale(1,1)"><rect fill="#a3e0ff" stroke="none" x="352" y="515" width="20" height="10"/></g><g transform="translate(-54,-142) scale(1,1)"><path fill="none" stroke="#000000" d="M 352 515 L 372 515 L 372 525 L 352 525 L 352 515 Z Z" stroke-miterlimit="10"/></g><g transform="translate(-54,-142) scale(1,1)"><g><path fill="none" stroke="none"/><text fill="#000000" stroke="none" font-family="Arial" font-size="13px" font-style="normal" font-weight="bold" text-decoration="none" x="425.052734375" y="507.5">Utilities</text></g></g><g transform="translate(-54,-142) scale(1,1)"><path fill="none" stroke="#d10000" d="M 656 254 L 584 254 L 584 336 L 528 336" stroke-miterlimit="10" stroke-dasharray="3"/></g><g transform="translate(-54,-142) scale(1,1)"><path fill="none" stroke="#d10000" d="M 538.1626748576241 331.790482243984 L 528 336 L 538.1626748576241 340.209517756016" stroke-miterlimit="10"/></g><g transform="translate(-54,-142) scale(1,1)"><path fill="none" stroke="#d10000" d="M 776 198 L 568 198 L 568 320 L 528 320" stroke-miterlimit="10" stroke-dasharray="3"/></g><g transform="translate(-54,-142) scale(1,1)"><path fill="none" stroke="#d10000" d="M 538.1626748576241 315.790482243984 L 528 320 L 538.1626748576241 324.209517756016" stroke-miterlimit="10"/></g><g transform="translate(-54,-142) scale(1,1)"><path fill="none" stroke="#d10000" d="M 404 196 L 404 320" stroke-miterlimit="10" stroke-dasharray="3"/></g><g transform="translate(-54,-142) scale(1,1)"><path fill="none" stroke="#d10000" d="M 399.790482243984 309.83732514237585 L 404 320 L 408.209517756016 309.83732514237585" stroke-miterlimit="10"/></g><g transform="translate(-54,-142) scale(1,1)"><path fill="none" stroke="#d10000" d="M 288 174 L 296 174 L 296 352 L 360 352" stroke-miterlimit="10" stroke-dasharray="3"/></g><g transform="translate(-54,-142) scale(1,1)"><path fill="none" stroke="#d10000" d="M 349.83732514237585 356.209517756016 L 360 352 L 349.83732514237585 347.790482243984" stroke-miterlimit="10"/></g><g transform="translate(-54,-142) scale(1,1)"><path fill="none" stroke="#d10000" d="M 784 392 L 696 392 L 696 368 L 528 368" stroke-miterlimit="10" stroke-dasharray="3"/></g><g transform="translate(-54,-142) scale(1,1)"><path fill="none" stroke="#d10000" d="M 538.1626748576241 363.790482243984 L 528 368 L 538.1626748576241 372.209517756016" stroke-miterlimit="10"/></g><g transform="translate(-54,-142) scale(1,1)"><path fill="none" stroke="#d10000" d="M 784 534 L 688 534 L 688 384 L 528 384" stroke-miterlimit="10" stroke-dasharray="3"/></g><g transform="translate(-54,-142) scale(1,1)"><path fill="none" stroke="#d10000" d="M 538.1626748576241 379.790482243984 L 528 384 L 538.1626748576241 388.209517756016" stroke-miterlimit="10"/></g><g transform="translate(-54,-142) scale(1,1)"><path fill="none" stroke="#d10000" d="M 784 584 L 672 584 L 672 400 L 528 400" stroke-miterlimit="10" stroke-dasharray="3"/></g><g transform="translate(-54,-142) scale(1,1)"><path fill="none" stroke="#d10000" d="M 538.1626748576241 395.790482243984 L 528 400 L 538.1626748576241 404.209517756016" stroke-miterlimit="10"/></g><g transform="translate(-54,-142) scale(1,1)"><path fill="none" stroke="#d10000" d="M 444 488 L 444 408" stroke-miterlimit="10" stroke-dasharray="3"/></g><g transform="translate(-54,-142) scale(1,1)"><path fill="none" stroke="#d10000" d="M 448.209517756016 418.16267485762415 L 444 408 L 439.790482243984 418.16267485762415" stroke-miterlimit="10"/></g><g transform="translate(-54,-142) scale(1,1)"><path fill="none" stroke="#d10000" d="M 784 352 L 528 352" stroke-miterlimit="10" stroke-dasharray="3"/></g><g transform="translate(-54,-142) scale(1,1)"><path fill="none" stroke="#d10000" d="M 538.1626748576241 347.790482243984 L 528 352 L 538.1626748576241 356.209517756016" stroke-miterlimit="10"/></g><g transform="translate(-54,-142) scale(1,1)"><path fill="#C0C0C0" stroke="none" d="M 1280.391357421875 594.5 C 1280.391357421875 588.1487248 1285.540082221875 583 1291.891357421875 583 C 1298.242632621875 583 1303.391357421875 588.1487248 1303.391357421875 594.5 C 1303.391357421875 600.8512752 1298.242632621875 606 1291.891357421875 606 C 1285.540082221875 606 1280.391357421875 600.8512752 1280.391357421875 594.5 Z" opacity="0.2"/></g><g transform="translate(-54,-142) scale(1,1)"><path fill="none" stroke="#000000" d="M 1276.2291667720506 578.5227273876915 A 11.5 11.5 0 0 1 1291.7708332279494 595.4772726123085" stroke-miterlimit="10"/></g><g transform="translate(-54,-142) scale(1,1)"><path fill="none" stroke="#000000" d="M 1275.8682720163547 595.1317279836453 A 11.5 11.5 0 0 1 1292.1317279836453 578.8682720163547" stroke-miterlimit="10"/></g><g transform="translate(-54,-142) scale(1,1)"><path fill="#ffffff" stroke="none" d="M 1276.391357421875 587.5 C 1276.391357421875 582.8055792 1280.196936621875 579 1284.891357421875 579 C 1289.585778221875 579 1293.391357421875 582.8055792 1293.391357421875 587.5 C 1293.391357421875 592.1944208 1289.585778221875 596 1284.891357421875 596 C 1280.196936621875 596 1276.391357421875 592.1944208 1276.391357421875 587.5 Z"/></g><g transform="translate(-54,-142) scale(1,1)"><path fill="none" stroke="#000000" d="M 1276.391357421875 587.5 C 1276.391357421875 582.8055792 1280.196936621875 579 1284.891357421875 579 C 1289.585778221875 579 1293.391357421875 582.8055792 1293.391357421875 587.5 C 1293.391357421875 592.1944208 1289.585778221875 596 1284.891357421875 596 C 1280.196936621875 596 1276.391357421875 592.1944208 1276.391357421875 587.5 Z" stroke-miterlimit="10"/></g><g transform="translate(-54,-142) scale(1,1)"><g><path fill="none" stroke="none"/><text fill="#000000" stroke="none" font-family="Arial" font-size="13px" font-style="normal" font-weight="bold" text-decoration="none" x="1240.451416015625" y="618.5">IBugRepository</text></g></g><g transform="translate(-54,-142) scale(1,1)"><path fill="none" stroke="#000000" d="M 764 240 L 1296 240 L 1296 576" stroke-miterlimit="10"/></g><g transform="translate(-54,-142) scale(1,1)"><path fill="none" stroke="#000000" d="M 896 620 L 896 656 L 1284 656 L 1284 599" stroke-miterlimit="10"/></g><g transform="translate(-54,-142) scale(1,1)"><path fill="#C0C0C0" stroke="none" d="M 1169.792236328125 594.5 C 1169.792236328125 588.1487248 1174.940961128125 583 1181.292236328125 583 C 1187.643511528125 583 1192.792236328125 588.1487248 1192.792236328125 594.5 C 1192.792236328125 600.8512752 1187.643511528125 606 1181.292236328125 606 C 1174.940961128125 606 1169.792236328125 600.8512752 1169.792236328125 594.5 Z" opacity="0.2"/></g><g transform="translate(-54,-142) scale(1,1)"><path fill="none" stroke="#000000" d="M 1163.9042009114846 592.5067995028265 A 11.5 11.5 0 0 1 1184.0957990885154 581.4932004971735" stroke-miterlimit="10"/></g><g transform="translate(-54,-142) scale(1,1)"><path fill="none" stroke="#000000" d="M 1165.8682720163547 595.1317279836453 A 11.5 11.5 0 0 1 1182.1317279836453 578.8682720163547" stroke-miterlimit="10"/></g><g transform="translate(-54,-142) scale(1,1)"><path fill="#ffffff" stroke="none" d="M 1165.792236328125 587.5 C 1165.792236328125 582.8055792 1169.597815528125 579 1174.292236328125 579 C 1178.986657128125 579 1182.792236328125 582.8055792 1182.792236328125 587.5 C 1182.792236328125 592.1944208 1178.986657128125 596 1174.292236328125 596 C 1169.597815528125 596 1165.792236328125 592.1944208 1165.792236328125 587.5 Z"/></g><g transform="translate(-54,-142) scale(1,1)"><path fill="none" stroke="#000000" d="M 1165.792236328125 587.5 C 1165.792236328125 582.8055792 1169.597815528125 579 1174.292236328125 579 C 1178.986657128125 579 1182.792236328125 582.8055792 1182.792236328125 587.5 C 1182.792236328125 592.1944208 1178.986657128125 596 1174.292236328125 596 C 1169.597815528125 596 1165.792236328125 592.1944208 1165.792236328125 587.5 Z" stroke-miterlimit="10"/></g><g transform="translate(-54,-142) scale(1,1)"><g><path fill="none" stroke="none"/><text fill="#000000" stroke="none" font-family="Arial" font-size="13px" font-style="normal" font-weight="bold" text-decoration="none" x="1121.187744140625" y="618.5">IProjectRepository</text></g></g><g transform="translate(-54,-142) scale(1,1)"><path fill="#C0C0C0" stroke="none" d="M 1049.792236328125 594.5 C 1049.792236328125 588.1487248 1054.940961128125 583 1061.292236328125 583 C 1067.643511528125 583 1072.792236328125 588.1487248 1072.792236328125 594.5 C 1072.792236328125 600.8512752 1067.643511528125 606 1061.292236328125 606 C 1054.940961128125 606 1049.792236328125 600.8512752 1049.792236328125 594.5 Z" opacity="0.2"/></g><g transform="translate(-54,-142) scale(1,1)"><path fill="none" stroke="#000000" d="M 1045.4906891559467 579.2642628690425 A 11.5 11.5 0 0 1 1062.5093108440533 594.7357371309575" stroke-miterlimit="10"/></g><g transform="translate(-54,-142) scale(1,1)"><path fill="none" stroke="#000000" d="M 1042.685496033851 584.9428174607002 A 11.5 11.5 0 0 1 1065.314503966149 589.0571825392998" stroke-miterlimit="10"/></g><g transform="translate(-54,-142) scale(1,1)"><path fill="#ffffff" stroke="none" d="M 1045.792236328125 587.5 C 1045.792236328125 582.8055792 1049.597815528125 579 1054.292236328125 579 C 1058.986657128125 579 1062.792236328125 582.8055792 1062.792236328125 587.5 C 1062.792236328125 592.1944208 1058.986657128125 596 1054.292236328125 596 C 1049.597815528125 596 1045.792236328125 592.1944208 1045.792236328125 587.5 Z"/></g><g transform="translate(-54,-142) scale(1,1)"><path fill="none" stroke="#000000" d="M 1045.792236328125 587.5 C 1045.792236328125 582.8055792 1049.597815528125 579 1054.292236328125 579 C 1058.986657128125 579 1062.792236328125 582.8055792 1062.792236328125 587.5 C 1062.792236328125 592.1944208 1058.986657128125 596 1054.292236328125 596 C 1049.597815528125 596 1045.792236328125 592.1944208 1045.792236328125 587.5 Z" stroke-miterlimit="10"/></g><g transform="translate(-54,-142) scale(1,1)"><g><path fill="none" stroke="none"/><text fill="#000000" stroke="none" font-family="Arial" font-size="13px" font-style="normal" font-weight="bold" text-decoration="none" x="1001.187744140625" y="618.5">IProjectRepository</text></g></g><g transform="translate(-54,-142) scale(1,1)"><path fill="none" stroke="#000000" d="M 960 587 L 1042.792236328125 587" stroke-miterlimit="10"/></g><g transform="translate(-54,-142) scale(1,1)"><path fill="none" stroke="#000000" d="M 944 620 L 944 632 L 1174 632 L 1174 599" stroke-miterlimit="10"/></g><g transform="translate(-54,-142) scale(1,1)"><path fill="none" stroke="#000000" d="M 764 248 L 1168 248 L 1168 576" stroke-miterlimit="10"/></g><g transform="translate(-54,-142) scale(1,1)"><path fill="none" stroke="#000000" d="M 764 256 L 1064 256 L 1064 576" stroke-miterlimit="10"/></g><g transform="translate(-54,-142) scale(1,1)"><path fill="none" stroke="#000000" d="M 752 296 L 752 320 L 784 320" stroke-miterlimit="10" stroke-dasharray="3"/></g><g transform="translate(-54,-142) scale(1,1)"><path fill="none" stroke="#000000" d="M 773.8373251423759 324.209517756016 L 784 320 L 773.8373251423758 315.790482243984" stroke-miterlimit="10"/></g><g transform="translate(-54,-142) scale(1,1)"><path fill="none" stroke="#000000" d="M 736 296 L 736 414 L 784 414" stroke-miterlimit="10" stroke-dasharray="3"/></g><g transform="translate(-54,-142) scale(1,1)"><path fill="none" stroke="#000000" d="M 773.8373251423759 418.209517756016 L 784 414 L 773.8373251423758 409.790482243984" stroke-miterlimit="10"/></g><g transform="translate(-54,-142) scale(1,1)"><path fill="none" stroke="#000000" d="M 744 296 L 744 512 L 784 512" stroke-miterlimit="10" stroke-dasharray="3"/></g><g transform="translate(-54,-142) scale(1,1)"><path fill="none" stroke="#000000" d="M 773.8373251423759 516.209517756016 L 784 512 L 773.8373251423758 507.790482243984" stroke-miterlimit="10"/></g><g transform="translate(-54,-142) scale(1,1)"><path fill="none" stroke="#000000" d="M 728 296 L 728 598 L 784 598" stroke-miterlimit="10" stroke-dasharray="3"/></g><g transform="translate(-54,-142) scale(1,1)"><path fill="none" stroke="#000000" d="M 773.8373251423759 602.209517756016 L 784 598 L 773.8373251423758 593.790482243984" stroke-miterlimit="10"/></g><g transform="translate(-54,-142) scale(1,1)"><path fill="none" stroke="#000000" d="M 872 576 L 872 556" stroke-miterlimit="10" stroke-dasharray="3"/></g><g transform="translate(-54,-142) scale(1,1)"><path fill="none" stroke="#000000" d="M 876.209517756016 566.1626748576241 L 872 556 L 867.790482243984 566.1626748576241" stroke-miterlimit="10"/></g><g transform="translate(-54,-142) scale(1,1)"><path fill="none" stroke="#000000" d="M 872 472 L 872 512" stroke-miterlimit="10" stroke-dasharray="3"/></g><g transform="translate(-54,-142) scale(1,1)"><path fill="none" stroke="#000000" d="M 867.790482243984 501.83732514237585 L 872 512 L 876.209517756016 501.83732514237585" stroke-miterlimit="10"/></g><g transform="translate(-54,-142) scale(1,1)"><path fill="none" stroke="#000000" d="M 871 392 L 871 364" stroke-miterlimit="10" stroke-dasharray="3"/></g><g transform="translate(-54,-142) scale(1,1)"><path fill="none" stroke="#000000" d="M 875.209517756016 374.16267485762415 L 871 364 L 866.790482243984 374.16267485762415" stroke-miterlimit="10"/></g><g transform="translate(-54,-142) scale(1,1)"><path fill="none" stroke="#000000" d="M 862 220 L 862 320" stroke-miterlimit="10" stroke-dasharray="3"/></g><g transform="translate(-54,-142) scale(1,1)"><path fill="none" stroke="#000000" d="M 857.790482243984 309.83732514237585 L 862 320 L 866.209517756016 309.83732514237585" stroke-miterlimit="10"/></g><g transform="translate(-54,-142) scale(1,1)"><path fill="none" stroke="#000000" d="M 784 336 L 600 336 L 600 272 L 444 272 L 444 196" stroke-miterlimit="10" stroke-dasharray="3"/></g><g transform="translate(-54,-142) scale(1,1)"><path fill="none" stroke="#000000" d="M 448.209517756016 206.16267485762415 L 444 196 L 439.790482243984 206.16267485762415" stroke-miterlimit="10"/></g><g transform="translate(-54,-142) scale(1,1)"><path fill="none" stroke="#0073ad" d="M 198 348 L 198 520 L 352 520" stroke-miterlimit="10" stroke-dasharray="3"/></g><g transform="translate(-54,-142) scale(1,1)"><path fill="none" stroke="#0073ad" d="M 341.83732514237585 524.209517756016 L 352 520 L 341.83732514237585 515.790482243984" stroke-miterlimit="10"/></g><g transform="translate(-54,-142) scale(1,1)"><path fill="none" stroke="#0073ad" d="M 280 196 L 280 496 L 352 496" stroke-miterlimit="10" stroke-dasharray="3"/></g><g transform="translate(-54,-142) scale(1,1)"><path fill="none" stroke="#0073ad" d="M 341.83732514237585 500.209517756016 L 352 496 L 341.83732514237585 491.790482243984" stroke-miterlimit="10"/></g><g transform="translate(-54,-142) scale(1,1)"><path fill="none" stroke="#0073ad" d="M 784 424 L 712 424 L 712 512 L 520 512" stroke-miterlimit="10" stroke-dasharray="3"/></g><g transform="translate(-54,-142) scale(1,1)"><path fill="none" stroke="#0073ad" d="M 530.1626748576241 507.790482243984 L 520 512 L 530.1626748576241 516.209517756016" stroke-miterlimit="10"/></g><g transform="translate(-54,-142) scale(1,1)"><path fill="none" stroke="#0073ad" d="M 784 608 L 436 608 L 436 532" stroke-miterlimit="10" stroke-dasharray="3"/></g><g transform="translate(-54,-142) scale(1,1)"><path fill="none" stroke="#0073ad" d="M 440.209517756016 542.1626748576241 L 436 532 L 431.790482243984 542.1626748576241" stroke-miterlimit="10"/></g><g transform="translate(-54,-142) scale(1,1)"><path fill="none" stroke="#0073ad" d="M 776 220 L 592 220 L 592 488 L 520 488" stroke-miterlimit="10" stroke-dasharray="3"/></g><g transform="translate(-54,-142) scale(1,1)"><path fill="none" stroke="#0073ad" d="M 530.1626748576241 483.790482243984 L 520 488 L 530.1626748576241 492.209517756016" stroke-miterlimit="10"/></g><g transform="translate(-54,-142) scale(1,1)"><path fill="none" stroke="#000000" d="M 120 320 L 64 320 L 64 174 L 136 174" stroke-miterlimit="10" stroke-dasharray="3"/></g><g transform="translate(-54,-142) scale(1,1)"><path fill="none" stroke="#000000" d="M 125.83732514237585 178.209517756016 L 136 174 L 125.83732514237585 169.790482243984" stroke-miterlimit="10"/></g><g transform="translate(-54,-142) scale(1,1)"><path fill="none" stroke="#000000" d="M 267 326 L 336 326 L 336 184 L 360 184" stroke-miterlimit="10" stroke-dasharray="3"/></g><g transform="translate(-54,-142) scale(1,1)"><path fill="none" stroke="#000000" d="M 349.83732514237585 188.209517756016 L 360 184 L 349.83732514237585 179.790482243984" stroke-miterlimit="10"/></g><g transform="translate(-54,-142) scale(1,1)"><path fill="none" stroke="#000000" d="M 288 166 L 360 166" stroke-miterlimit="10" stroke-dasharray="3"/></g><g transform="translate(-54,-142) scale(1,1)"><path fill="none" stroke="#000000" d="M 349.83732514237585 170.209517756016 L 360 166 L 349.83732514237585 161.790482243984" stroke-miterlimit="10"/></g><g transform="translate(-54,-142) scale(1,1)"><path fill="none" stroke="#000000" d="M 880 472 L 880 504 L 1056 504 L 1056 576" stroke-miterlimit="10"/></g><g transform="translate(-54,-142) scale(1,1)"><path fill="none" stroke="#000000" d="M 888 472 L 888 496 L 1163 496 L 1163 576" stroke-miterlimit="10"/></g><g transform="translate(-54,-142) scale(1,1)"><path fill="none" stroke="#000000" d="M 896 472 L 896 488 L 1273.391357421875 488 L 1273.391357421875 576.391357421875" stroke-miterlimit="10"/></g><g transform="translate(-54,-142) scale(1,1)"><path fill="#C0C0C0" stroke="none" d="M 1001.591796875 402.5 C 1001.591796875 396.1487248 1006.740521675 391 1013.091796875 391 C 1019.443072075 391 1024.591796875 396.1487248 1024.591796875 402.5 C 1024.591796875 408.8512752 1019.443072075 414 1013.091796875 414 C 1006.740521675 414 1001.591796875 408.8512752 1001.591796875 402.5 Z" opacity="0.2"/></g><g transform="translate(-54,-142) scale(1,1)"><path fill="none" stroke="#000000" d="M 994.6854960338511 392.9428174607002 A 11.5 11.5 0 0 1 1017.3145039661489 397.0571825392998" stroke-miterlimit="10"/></g><g transform="translate(-54,-142) scale(1,1)"><path fill="none" stroke="#000000" d="M 997.8682720163547 403.1317279836453 A 11.5 11.5 0 0 1 1014.1317279836453 386.8682720163547" stroke-miterlimit="10"/></g><g transform="translate(-54,-142) scale(1,1)"><path fill="#ffffff" stroke="none" d="M 997.591796875 395.5 C 997.591796875 390.8055792 1001.397376075 387 1006.091796875 387 C 1010.786217675 387 1014.591796875 390.8055792 1014.591796875 395.5 C 1014.591796875 400.1944208 1010.786217675 404 1006.091796875 404 C 1001.397376075 404 997.591796875 400.1944208 997.591796875 395.5 Z"/></g><g transform="translate(-54,-142) scale(1,1)"><path fill="none" stroke="#000000" d="M 997.591796875 395.5 C 997.591796875 390.8055792 1001.397376075 387 1006.091796875 387 C 1010.786217675 387 1014.591796875 390.8055792 1014.591796875 395.5 C 1014.591796875 400.1944208 1010.786217675 404 1006.091796875 404 C 1001.397376075 404 997.591796875 400.1944208 997.591796875 395.5 Z" stroke-miterlimit="10"/></g><g transform="translate(-54,-142) scale(1,1)"><g><path fill="none" stroke="none"/><text fill="#000000" stroke="none" font-family="Arial" font-size="13px" font-style="normal" font-weight="bold" text-decoration="none" x="975.023193359375" y="426.5">IUserLogic</text></g></g><g transform="translate(-54,-142) scale(1,1)"><path fill="#C0C0C0" stroke="none" d="M 1092.0654296875 402.5 C 1092.0654296875 396.1487248 1097.2141544875 391 1103.5654296875 391 C 1109.9167048875 391 1115.0654296875 396.1487248 1115.0654296875 402.5 C 1115.0654296875 408.8512752 1109.9167048875 414 1103.5654296875 414 C 1097.2141544875 414 1092.0654296875 408.8512752 1092.0654296875 402.5 Z" opacity="0.2"/></g><g transform="translate(-54,-142) scale(1,1)"><path fill="none" stroke="#000000" d="M 1084.5 395 A 11.5 11.5 0 0 1 1107.5 395" stroke-miterlimit="10"/></g><g transform="translate(-54,-142) scale(1,1)"><path fill="none" stroke="#000000" d="M 1087.8682720163547 403.1317279836453 A 11.5 11.5 0 0 1 1104.1317279836453 386.8682720163547" stroke-miterlimit="10"/></g><g transform="translate(-54,-142) scale(1,1)"><path fill="#ffffff" stroke="none" d="M 1088.0654296875 395.5 C 1088.0654296875 390.8055792 1091.8710088875 387 1096.5654296875 387 C 1101.2598504875 387 1105.0654296875 390.8055792 1105.0654296875 395.5 C 1105.0654296875 400.1944208 1101.2598504875 404 1096.5654296875 404 C 1091.8710088875 404 1088.0654296875 400.1944208 1088.0654296875 395.5 Z"/></g><g transform="translate(-54,-142) scale(1,1)"><path fill="none" stroke="#000000" d="M 1088.0654296875 395.5 C 1088.0654296875 390.8055792 1091.8710088875 387 1096.5654296875 387 C 1101.2598504875 387 1105.0654296875 390.8055792 1105.0654296875 395.5 C 1105.0654296875 400.1944208 1101.2598504875 404 1096.5654296875 404 C 1091.8710088875 404 1088.0654296875 400.1944208 1088.0654296875 395.5 Z" stroke-miterlimit="10"/></g><g transform="translate(-54,-142) scale(1,1)"><g><path fill="none" stroke="none"/><text fill="#000000" stroke="none" font-family="Arial" font-size="13px" font-style="normal" font-weight="bold" text-decoration="none" x="1056.095947265625" y="426.5">ISessionLogic</text></g></g><g transform="translate(-54,-142) scale(1,1)"><path fill="#C0C0C0" stroke="none" d="M 1185.174072265625 402.5 C 1185.174072265625 396.1487248 1190.322797065625 391 1196.674072265625 391 C 1203.025347465625 391 1208.174072265625 396.1487248 1208.174072265625 402.5 C 1208.174072265625 408.8512752 1203.025347465625 414 1196.674072265625 414 C 1190.322797065625 414 1185.174072265625 408.8512752 1185.174072265625 402.5 Z" opacity="0.2"/></g><g transform="translate(-54,-142) scale(1,1)"><path fill="none" stroke="#000000" d="M 1177.905216055766 391.97414983339075 A 11.5 11.5 0 0 1 1200.094783944234 398.02585016660925" stroke-miterlimit="10"/></g><g transform="translate(-54,-142) scale(1,1)"><path fill="none" stroke="#000000" d="M 1178.53078550918 399.75873385946363 A 11.5 11.5 0 0 1 1199.46921449082 390.24126614053637" stroke-miterlimit="10"/></g><g transform="translate(-54,-142) scale(1,1)"><path fill="#ffffff" stroke="none" d="M 1181.174072265625 395.5 C 1181.174072265625 390.8055792 1184.979651465625 387 1189.674072265625 387 C 1194.368493065625 387 1198.174072265625 390.8055792 1198.174072265625 395.5 C 1198.174072265625 400.1944208 1194.368493065625 404 1189.674072265625 404 C 1184.979651465625 404 1181.174072265625 400.1944208 1181.174072265625 395.5 Z"/></g><g transform="translate(-54,-142) scale(1,1)"><path fill="none" stroke="#000000" d="M 1181.174072265625 395.5 C 1181.174072265625 390.8055792 1184.979651465625 387 1189.674072265625 387 C 1194.368493065625 387 1198.174072265625 390.8055792 1198.174072265625 395.5 C 1198.174072265625 400.1944208 1194.368493065625 404 1189.674072265625 404 C 1184.979651465625 404 1181.174072265625 400.1944208 1181.174072265625 395.5 Z" stroke-miterlimit="10"/></g><g transform="translate(-54,-142) scale(1,1)"><g><path fill="none" stroke="none"/><text fill="#000000" stroke="none" font-family="Arial" font-size="13px" font-style="normal" font-weight="bold" text-decoration="none" x="1152.09912109375" y="426.5">IProjectLogic</text></g></g><g transform="translate(-54,-142) scale(1,1)"><path fill="#C0C0C0" stroke="none" d="M 1271.773193359375 402.5 C 1271.773193359375 396.1487248 1276.921918159375 391 1283.273193359375 391 C 1289.624468559375 391 1294.773193359375 396.1487248 1294.773193359375 402.5 C 1294.773193359375 408.8512752 1289.624468559375 414 1283.273193359375 414 C 1276.921918159375 414 1271.773193359375 408.8512752 1271.773193359375 402.5 Z" opacity="0.2"/></g><g transform="translate(-54,-142) scale(1,1)"><path fill="none" stroke="#000000" d="M 1265.192375629883 398.9300452254971 A 11.5 11.5 0 0 1 1286.807624370117 391.0699547745029" stroke-miterlimit="10"/></g><g transform="translate(-54,-142) scale(1,1)"><path fill="none" stroke="#000000" d="M 1267.8682720163547 403.1317279836453 A 11.5 11.5 0 0 1 1284.1317279836453 386.8682720163547" stroke-miterlimit="10"/></g><g transform="translate(-54,-142) scale(1,1)"><path fill="#ffffff" stroke="none" d="M 1267.773193359375 395.5 C 1267.773193359375 390.8055792 1271.578772559375 387 1276.273193359375 387 C 1280.967614159375 387 1284.773193359375 390.8055792 1284.773193359375 395.5 C 1284.773193359375 400.1944208 1280.967614159375 404 1276.273193359375 404 C 1271.578772559375 404 1267.773193359375 400.1944208 1267.773193359375 395.5 Z"/></g><g transform="translate(-54,-142) scale(1,1)"><path fill="none" stroke="#000000" d="M 1267.773193359375 395.5 C 1267.773193359375 390.8055792 1271.578772559375 387 1276.273193359375 387 C 1280.967614159375 387 1284.773193359375 390.8055792 1284.773193359375 395.5 C 1284.773193359375 400.1944208 1280.967614159375 404 1276.273193359375 404 C 1271.578772559375 404 1267.773193359375 400.1944208 1267.773193359375 395.5 Z" stroke-miterlimit="10"/></g><g transform="translate(-54,-142) scale(1,1)"><g><path fill="none" stroke="none"/><text fill="#000000" stroke="none" font-family="Arial" font-size="13px" font-style="normal" font-weight="bold" text-decoration="none" x="1247.36279296875" y="426.5">IBugLogic</text></g></g><g transform="translate(-54,-142) scale(1,1)"><path fill="none" stroke="#000000" d="M 960 440 L 1006 440 L 1006 407" stroke-miterlimit="10"/></g><g transform="translate(-54,-142) scale(1,1)"><path fill="none" stroke="#000000" d="M 960 448 L 1096 448 L 1096 407" stroke-miterlimit="10"/></g><g transform="translate(-54,-142) scale(1,1)"><path fill="none" stroke="#000000" d="M 960 456 L 1189 456 L 1189 407" stroke-miterlimit="10"/></g><g transform="translate(-54,-142) scale(1,1)"><path fill="none" stroke="#000000" d="M 960 464 L 1276 464 L 1276 407" stroke-miterlimit="10"/></g><g transform="translate(-54,-142) scale(1,1)"><path fill="none" stroke="#000000" d="M 944 208 L 1008 208 L 1008 384" stroke-miterlimit="10"/></g><g transform="translate(-54,-142) scale(1,1)"><path fill="none" stroke="#000000" d="M 944 200 L 1096 200 L 1096 384" stroke-miterlimit="10"/></g><g transform="translate(-54,-142) scale(1,1)"><path fill="none" stroke="#000000" d="M 944 192 L 1192 192 L 1192 384" stroke-miterlimit="10"/></g><g transform="translate(-54,-142) scale(1,1)"><path fill="none" stroke="#000000" d="M 944 184 L 1272 184 L 1272 384" stroke-miterlimit="10"/></g><g transform="translate(-54,-142) scale(1,1)"><path fill="none" stroke="#000000" d="M 764 288 L 995 288 L 995 384" stroke-miterlimit="10"/></g><g transform="translate(-54,-142) scale(1,1)"><path fill="none" stroke="#000000" d="M 764 280 L 1085.0654296875 280 L 1085.0654296875 384.0654296875" stroke-miterlimit="10"/></g><g transform="translate(-54,-142) scale(1,1)"><path fill="none" stroke="#000000" d="M 764 272 L 1184 272 L 1184 384" stroke-miterlimit="10"/></g><g transform="translate(-54,-142) scale(1,1)"><path fill="none" stroke="#000000" d="M 764 264 L 1265 264 L 1265 384" stroke-miterlimit="10"/></g><g transform="translate(-54,-142) scale(1,1)"><path fill="#C0C0C0" stroke="none" d="M 176.298583984375 234.5 C 176.298583984375 228.1487248 181.447308784375 223 187.798583984375 223 C 194.149859184375 223 199.298583984375 228.1487248 199.298583984375 234.5 C 199.298583984375 240.8512752 194.149859184375 246 187.798583984375 246 C 181.447308784375 246 176.298583984375 240.8512752 176.298583984375 234.5 Z" opacity="0.2"/></g><g transform="translate(-54,-142) scale(1,1)"><path fill="none" stroke="#000000" d="M 180 238.5 A 11.5 11.5 0 0 1 180 215.5" stroke-miterlimit="10"/></g><g transform="translate(-54,-142) scale(1,1)"><path fill="none" stroke="#000000" d="M 191.5 227 A 11.5 11.5 0 0 1 168.5 227" stroke-miterlimit="10"/></g><g transform="translate(-54,-142) scale(1,1)"><path fill="#ffffff" stroke="none" d="M 172.298583984375 227.5 C 172.298583984375 222.8055792 176.104163184375 219 180.798583984375 219 C 185.493004784375 219 189.298583984375 222.8055792 189.298583984375 227.5 C 189.298583984375 232.1944208 185.493004784375 236 180.798583984375 236 C 176.104163184375 236 172.298583984375 232.1944208 172.298583984375 227.5 Z"/></g><g transform="translate(-54,-142) scale(1,1)"><path fill="none" stroke="#000000" d="M 172.298583984375 227.5 C 172.298583984375 222.8055792 176.104163184375 219 180.798583984375 219 C 185.493004784375 219 189.298583984375 222.8055792 189.298583984375 227.5 C 189.298583984375 232.1944208 185.493004784375 236 180.798583984375 236 C 176.104163184375 236 172.298583984375 232.1944208 172.298583984375 227.5 Z" stroke-miterlimit="10"/></g><g transform="translate(-54,-142) scale(1,1)"><g><path fill="none" stroke="none"/><text fill="#000000" stroke="none" font-family="Arial" font-size="13px" font-style="normal" font-weight="bold" text-decoration="none" x="120.464111328125" y="258.5">IFileHandlerInterface</text></g></g><g transform="translate(-54,-142) scale(1,1)"><path fill="none" stroke="#000000" d="M 201 197 L 191 216" stroke-miterlimit="10"/></g><g transform="translate(-54,-142) scale(1,1)"><path fill="none" stroke="#000000" d="M 120 304 L 104 304 L 104 227 L 169.298583984375 227" stroke-miterlimit="10"/></g><g transform="translate(-54,-142) scale(1,1)"><path fill="none" stroke="#000000" d="M 784 456 L 312 456 L 312 280 L 180 280 L 180 239" stroke-miterlimit="10"/></g><g transform="translate(-54,-142) scale(1,1)"><path fill="none" stroke="#000000" d="M 784 440 L 248 440 L 248 348" stroke-miterlimit="10" stroke-dasharray="3"/></g><g transform="translate(-54,-142) scale(1,1)"><path fill="none" stroke="#000000" d="M 252.209517756016 358.16267485762415 L 248 348 L 243.790482243984 358.16267485762415" stroke-miterlimit="10"/></g></g></svg>