<svg version="1.1" xmlns="http://www.w3.org/2000/svg" xmlns:xlink="http://www.w3.org/1999/xlink" width="1388" height="703"><defs/><g><g transform="translate(-54,-86) scale(1,1)"><rect fill="#C0C0C0" stroke="none" x="671" y="137" width="127.97900390625" height="57" opacity="0.2"/></g><g transform="translate(-54,-86) scale(1,1)"><rect fill="#C0C0C0" stroke="none" x="791.0380859375" y="119" width="16.94091796875" height="22" opacity="0.2"/></g><g transform="translate(-54,-86) scale(1,1)"><rect fill="#ffffff" stroke="none" x="664" y="130" width="127.97900390625" height="57"/></g><g transform="translate(-54,-86) scale(1,1)"><path fill="none" stroke="#000000" d="M 664 130 L 791.97900390625 130 L 791.97900390625 187 L 664 187 L 664 130 Z Z" stroke-miterlimit="10"/></g><g transform="translate(-54,-86) scale(1,1)"><path fill="none" stroke="#000000" d="M 664 155 L 791.97900390625 155" stroke-miterlimit="10"/></g><g transform="translate(-54,-86) scale(1,1)"><path fill="none" stroke="#000000" d="M 664 165 L 791.97900390625 165" stroke-miterlimit="10"/></g><g transform="translate(-54,-86) scale(1,1)"><g><path fill="none" stroke="none"/><text fill="#000000" stroke="none" font-family="Arial" font-size="13px" font-style="italic" font-weight="bold" text-decoration="none" x="682.10546875" y="149.5">BaseRepository</text></g></g><g transform="translate(-54,-86) scale(1,1)"><g><path fill="none" stroke="none"/><text fill="#000000" stroke="none" font-family="Arial" font-size="13px" font-style="normal" font-weight="normal" text-decoration="none" x="669" y="182.5">+Save(): void</text></g></g><g transform="translate(-54,-86) scale(1,1)"><rect fill="#ffffff" stroke="none" x="784.0380859375" y="112" width="16.94091796875" height="22"/></g><g transform="translate(-54,-86) scale(1,1)"><path fill="none" stroke="#000000" d="M 784.0380859375 112 L 800.97900390625 112 L 800.97900390625 134 L 784.0380859375 134 L 784.0380859375 112 Z Z" stroke-miterlimit="10" stroke-dasharray="3"/></g><g transform="translate(-54,-86) scale(1,1)"><g><path fill="none" stroke="none"/><text fill="#000000" stroke="none" font-family="Arial" font-size="13px" font-style="normal" font-weight="normal" text-decoration="none" x="789.0380859375" y="129.5">T</text></g></g><g transform="translate(-54,-86) scale(1,1)"><rect fill="#C0C0C0" stroke="none" x="991" y="351" width="438.55224609375" height="160" opacity="0.2"/></g><g transform="translate(-54,-86) scale(1,1)"><rect fill="#ffffff" stroke="none" x="984" y="344" width="438.55224609375" height="160"/></g><g transform="translate(-54,-86) scale(1,1)"><path fill="none" stroke="#000000" d="M 984 344 L 1422.55224609375 344 L 1422.55224609375 504 L 984 504 L 984 344 Z Z" stroke-miterlimit="10"/></g><g transform="translate(-54,-86) scale(1,1)"><path fill="none" stroke="#000000" d="M 984 369 L 1422.55224609375 369" stroke-miterlimit="10"/></g><g transform="translate(-54,-86) scale(1,1)"><path fill="none" stroke="#000000" d="M 984 379 L 1422.55224609375 379" stroke-miterlimit="10"/></g><g transform="translate(-54,-86) scale(1,1)"><g><path fill="none" stroke="none"/><text fill="#000000" stroke="none" font-family="Arial" font-size="13px" font-style="normal" font-weight="bold" text-decoration="none" x="1160.64208984375" y="363.5">BugRepository</text></g></g><g transform="translate(-54,-86) scale(1,1)"><g><path fill="none" stroke="none"/><text fill="#000000" stroke="none" font-family="Arial" font-size="13px" font-style="normal" font-weight="normal" text-decoration="none" x="989" y="396.5">«constructor»+BugRepository(BugSummaryContext bugSummaryContext)</text></g></g><g transform="translate(-54,-86) scale(1,1)"><g><path fill="none" stroke="none"/><text fill="#000000" stroke="none" font-family="Arial" font-size="13px" font-style="normal" font-weight="normal" text-decoration="none" x="989" y="411.5">+GetAllFiltered(user: User, criteria: Func): IEnumerable</text></g></g><g transform="translate(-54,-86) scale(1,1)"><g><path fill="none" stroke="none"/><text fill="#000000" stroke="none" font-family="Arial" font-size="13px" font-style="normal" font-weight="normal" text-decoration="none" x="989" y="426.5">+Add(userToCreateBug: User, newBug: Bug): void</text></g></g><g transform="translate(-54,-86) scale(1,1)"><g><path fill="none" stroke="none"/><text fill="#000000" stroke="none" font-family="Arial" font-size="13px" font-style="normal" font-weight="normal" text-decoration="none" x="989" y="441.5">+Update(testerUser: User, updatedBug: Bug): void</text></g></g><g transform="translate(-54,-86) scale(1,1)"><g><path fill="none" stroke="none"/><text fill="#000000" stroke="none" font-family="Arial" font-size="13px" font-style="normal" font-weight="normal" text-decoration="none" x="989" y="456.5">+Delete(user: User, bugId: int): void</text></g></g><g transform="translate(-54,-86) scale(1,1)"><g><path fill="none" stroke="none"/><text fill="#000000" stroke="none" font-family="Arial" font-size="13px" font-style="normal" font-weight="normal" text-decoration="none" x="989" y="471.5">+Fix(developerUser: User, bugId: int): void</text></g></g><g transform="translate(-54,-86) scale(1,1)"><g><path fill="none" stroke="none"/><text fill="#000000" stroke="none" font-family="Arial" font-size="13px" font-style="normal" font-weight="normal" text-decoration="none" x="989" y="486.5">+Get(user: User, bugId: int): Bug</text></g></g><g transform="translate(-54,-86) scale(1,1)"><path fill="none" stroke="#000000" d="M 1251 344 L 1251 312 L 752 312 L 752 187" stroke-miterlimit="10" stroke-dasharray="3"/></g><g transform="translate(-54,-86) scale(1,1)"><path fill="#FFFFFF" stroke="none" d="M 760.419035512032 207.3253497152483 L 752 187 L 743.580964487968 207.3253497152483"/></g><g transform="translate(-54,-86) scale(1,1)"><path fill="none" stroke="#000000" d="M 760.419035512032 207.3253497152483 L 752 187 L 743.580964487968 207.3253497152483 L 760.419035512032 207.3253497152483" stroke-miterlimit="10"/></g><g transform="translate(-54,-86) scale(1,1)"><rect fill="#C0C0C0" stroke="none" x="519" y="351" width="455.88134765625" height="162" opacity="0.2"/></g><g transform="translate(-54,-86) scale(1,1)"><rect fill="#ffffff" stroke="none" x="512" y="344" width="455.88134765625" height="162"/></g><g transform="translate(-54,-86) scale(1,1)"><path fill="none" stroke="#000000" d="M 512 344 L 967.88134765625 344 L 967.88134765625 506 L 512 506 L 512 344 Z Z" stroke-miterlimit="10"/></g><g transform="translate(-54,-86) scale(1,1)"><path fill="none" stroke="#000000" d="M 512 369 L 967.88134765625 369" stroke-miterlimit="10"/></g><g transform="translate(-54,-86) scale(1,1)"><path fill="none" stroke="#000000" d="M 512 379 L 967.88134765625 379" stroke-miterlimit="10"/></g><g transform="translate(-54,-86) scale(1,1)"><g><path fill="none" stroke="none"/><text fill="#000000" stroke="none" font-family="Arial" font-size="13px" font-style="normal" font-weight="bold" text-decoration="none" x="688.64208984375" y="363.5">ProjectRepository</text></g></g><g transform="translate(-54,-86) scale(1,1)"><g><path fill="none" stroke="none"/><text fill="#000000" stroke="none" font-family="Arial" font-size="13px" font-style="normal" font-weight="normal" text-decoration="none" x="517" y="396.5">«constructor»+ProjectRepository(BugSummaryContext bugSummaryContext)</text></g></g><g transform="translate(-54,-86) scale(1,1)"><g><path fill="none" stroke="none"/><text fill="#000000" stroke="none" font-family="Arial" font-size="13px" font-style="normal" font-weight="normal" text-decoration="none" x="517" y="411.5">+Add(project: Project): void</text></g></g><g transform="translate(-54,-86) scale(1,1)"><g><path fill="none" stroke="none"/><text fill="#000000" stroke="none" font-family="Arial" font-size="13px" font-style="normal" font-weight="normal" text-decoration="none" x="517" y="426.5">+GetAll(): IEnumerable</text></g></g><g transform="translate(-54,-86) scale(1,1)"><g><path fill="none" stroke="none"/><text fill="#000000" stroke="none" font-family="Arial" font-size="13px" font-style="normal" font-weight="normal" text-decoration="none" x="517" y="441.5">+Update(updatedProject: Project): void</text></g></g><g transform="translate(-54,-86) scale(1,1)"><g><path fill="none" stroke="none"/><text fill="#000000" stroke="none" font-family="Arial" font-size="13px" font-style="normal" font-weight="normal" text-decoration="none" x="517" y="456.5">+Delete(projectId: int): void</text></g></g><g transform="translate(-54,-86) scale(1,1)"><g><path fill="none" stroke="none"/><text fill="#000000" stroke="none" font-family="Arial" font-size="13px" font-style="normal" font-weight="normal" text-decoration="none" x="517" y="471.5">+AssignUserToProject(userId: int, projectId: int): void</text></g></g><g transform="translate(-54,-86) scale(1,1)"><g><path fill="none" stroke="none"/><text fill="#000000" stroke="none" font-family="Arial" font-size="13px" font-style="normal" font-weight="normal" text-decoration="none" x="517" y="486.5">+DissociateUserFromProject(userId: int, projectId: int): void</text></g></g><g transform="translate(-54,-86) scale(1,1)"><g><path fill="none" stroke="none"/><text fill="#000000" stroke="none" font-family="Arial" font-size="13px" font-style="normal" font-weight="normal" text-decoration="none" x="517" y="501.5">+AddBugsFromFile(projects: IEnumerable): void</text></g></g><g transform="translate(-54,-86) scale(1,1)"><path fill="none" stroke="#000000" d="M 720 344 L 720 187" stroke-miterlimit="10" stroke-dasharray="3"/></g><g transform="translate(-54,-86) scale(1,1)"><path fill="#FFFFFF" stroke="none" d="M 728.419035512032 207.3253497152483 L 720 187 L 711.580964487968 207.3253497152483"/></g><g transform="translate(-54,-86) scale(1,1)"><path fill="none" stroke="#000000" d="M 728.419035512032 207.3253497152483 L 720 187 L 711.580964487968 207.3253497152483 L 728.419035512032 207.3253497152483" stroke-miterlimit="10"/></g><g transform="translate(-54,-86) scale(1,1)"><rect fill="#C0C0C0" stroke="none" x="71" y="351" width="442.86865234375" height="160" opacity="0.2"/></g><g transform="translate(-54,-86) scale(1,1)"><rect fill="#ffffff" stroke="none" x="64" y="344" width="442.86865234375" height="160"/></g><g transform="translate(-54,-86) scale(1,1)"><path fill="none" stroke="#000000" d="M 64 344 L 506.86865234375 344 L 506.86865234375 504 L 64 504 L 64 344 Z Z" stroke-miterlimit="10"/></g><g transform="translate(-54,-86) scale(1,1)"><path fill="none" stroke="#000000" d="M 64 369 L 506.86865234375 369" stroke-miterlimit="10"/></g><g transform="translate(-54,-86) scale(1,1)"><path fill="none" stroke="#000000" d="M 64 379 L 506.86865234375 379" stroke-miterlimit="10"/></g><g transform="translate(-54,-86) scale(1,1)"><g><path fill="none" stroke="none"/><text fill="#000000" stroke="none" font-family="Arial" font-size="13px" font-style="normal" font-weight="bold" text-decoration="none" x="240.64208984375" y="363.5">UserRepository</text></g></g><g transform="translate(-54,-86) scale(1,1)"><g><path fill="none" stroke="none"/><text fill="#000000" stroke="none" font-family="Arial" font-size="13px" font-style="normal" font-weight="normal" text-decoration="none" x="69" y="396.5">«constructor»+UserRepository(BugSummaryContext bugSummaryContext)</text></g></g><g transform="translate(-54,-86) scale(1,1)"><g><path fill="none" stroke="none"/><text fill="#000000" stroke="none" font-family="Arial" font-size="13px" font-style="normal" font-weight="normal" text-decoration="none" x="69" y="411.5">+Add(user: User): void</text></g></g><g transform="translate(-54,-86) scale(1,1)"><g><path fill="none" stroke="none"/><text fill="#000000" stroke="none" font-family="Arial" font-size="13px" font-style="normal" font-weight="normal" text-decoration="none" x="69" y="426.5">+Authenticate(username: string, password: string): bool</text></g></g><g transform="translate(-54,-86) scale(1,1)"><g><path fill="none" stroke="none"/><text fill="#000000" stroke="none" font-family="Arial" font-size="13px" font-style="normal" font-weight="normal" text-decoration="none" x="69" y="441.5">+UpdateToken(username: string, token: string): void</text></g></g><g transform="translate(-54,-86) scale(1,1)"><g><path fill="none" stroke="none"/><text fill="#000000" stroke="none" font-family="Arial" font-size="13px" font-style="normal" font-weight="normal" text-decoration="none" x="69" y="456.5">+GetRoleByToken(token: string): RoleType</text></g></g><g transform="translate(-54,-86) scale(1,1)"><g><path fill="none" stroke="none"/><text fill="#000000" stroke="none" font-family="Arial" font-size="13px" font-style="normal" font-weight="normal" text-decoration="none" x="69" y="471.5">+Get(token: string): User</text></g></g><g transform="translate(-54,-86) scale(1,1)"><g><path fill="none" stroke="none"/><text fill="#000000" stroke="none" font-family="Arial" font-size="13px" font-style="normal" font-weight="normal" text-decoration="none" x="69" y="486.5">+Get(id: int): User</text></g></g><g transform="translate(-54,-86) scale(1,1)"><path fill="none" stroke="#000000" d="M 285 344 L 285 312 L 680 312 L 680 187" stroke-miterlimit="10" stroke-dasharray="3"/></g><g transform="translate(-54,-86) scale(1,1)"><path fill="#FFFFFF" stroke="none" d="M 688.419035512032 207.3253497152483 L 680 187 L 671.580964487968 207.3253497152483"/></g><g transform="translate(-54,-86) scale(1,1)"><path fill="none" stroke="#000000" d="M 688.419035512032 207.3253497152483 L 680 187 L 671.580964487968 207.3253497152483 L 688.419035512032 207.3253497152483" stroke-miterlimit="10"/></g><g transform="translate(-54,-86) scale(1,1)"><rect fill="#C0C0C0" stroke="none" x="927" y="103" width="376.0849609375" height="130" opacity="0.2"/></g><g transform="translate(-54,-86) scale(1,1)"><rect fill="#ffffff" stroke="none" x="920" y="96" width="376.0849609375" height="130"/></g><g transform="translate(-54,-86) scale(1,1)"><path fill="none" stroke="#000000" d="M 920 96 L 1296.0849609375 96 L 1296.0849609375 226 L 920 226 L 920 96 Z Z" stroke-miterlimit="10"/></g><g transform="translate(-54,-86) scale(1,1)"><path fill="none" stroke="#000000" d="M 920 121 L 1296.0849609375 121" stroke-miterlimit="10"/></g><g transform="translate(-54,-86) scale(1,1)"><path fill="none" stroke="#000000" d="M 920 174 L 1296.0849609375 174" stroke-miterlimit="10"/></g><g transform="translate(-54,-86) scale(1,1)"><g><path fill="none" stroke="none"/><text fill="#000000" stroke="none" font-family="Arial" font-size="13px" font-style="normal" font-weight="bold" text-decoration="none" x="1046.26708984375" y="115.5">BugSummaryContext</text></g></g><g transform="translate(-54,-86) scale(1,1)"><g><path fill="none" stroke="none"/><text fill="#000000" stroke="none" font-family="Arial" font-size="13px" font-style="normal" font-weight="normal" text-decoration="none" x="925" y="138.5">+Users: DbSet</text></g></g><g transform="translate(-54,-86) scale(1,1)"><g><path fill="none" stroke="none"/><text fill="#000000" stroke="none" font-family="Arial" font-size="13px" font-style="normal" font-weight="normal" text-decoration="none" x="925" y="153.5">+Bugs: DbSet</text></g></g><g transform="translate(-54,-86) scale(1,1)"><g><path fill="none" stroke="none"/><text fill="#000000" stroke="none" font-family="Arial" font-size="13px" font-style="normal" font-weight="normal" text-decoration="none" x="925" y="168.5">+Projects: DbSet</text></g></g><g transform="translate(-54,-86) scale(1,1)"><g><path fill="none" stroke="none"/><text fill="#000000" stroke="none" font-family="Arial" font-size="13px" font-style="normal" font-weight="normal" text-decoration="none" x="925" y="191.5">«constructor»+BugSummaryContext()</text></g></g><g transform="translate(-54,-86) scale(1,1)"><g><path fill="none" stroke="none"/><text fill="#000000" stroke="none" font-family="Arial" font-size="13px" font-style="normal" font-weight="normal" text-decoration="none" x="925" y="206.5">«constructor»+BugSummaryContext()</text></g></g><g transform="translate(-54,-86) scale(1,1)"><g><path fill="none" stroke="none"/><text fill="#000000" stroke="none" font-family="Arial" font-size="13px" font-style="normal" font-weight="normal" text-decoration="none" x="925" y="221.5">#OnConfiguring(optionsBuilder: DbContextOptionsBuilder): void</text></g></g><g transform="translate(-54,-86) scale(1,1)"><path fill="none" stroke="#000000" d="M 802 157 L 920 157" stroke-miterlimit="10"/></g><g transform="translate(-54,-86) scale(1,1)"><path fill="none" stroke="#000000" d="M 909.8373251423759 161.209517756016 L 920 157 L 909.8373251423758 152.790482243984" stroke-miterlimit="10"/></g><g transform="translate(-54,-86) scale(1,1)"><g><path fill="none" stroke="none"/><text fill="#000000" stroke="none" font-family="Arial" font-size="13px" font-style="normal" font-weight="normal" text-decoration="none" x="814.5" y="147.5">#Context</text></g></g><g transform="translate(-54,-86) scale(1,1)"><path fill="#C0C0C0" stroke="none" d="M 1191.107666015625 578.5 C 1191.107666015625 572.1487248 1196.256390815625 567 1202.607666015625 567 C 1208.958941215625 567 1214.107666015625 572.1487248 1214.107666015625 578.5 C 1214.107666015625 584.8512752 1208.958941215625 590 1202.607666015625 590 C 1196.256390815625 590 1191.107666015625 584.8512752 1191.107666015625 578.5 Z" opacity="0.2"/></g><g transform="translate(-54,-86) scale(1,1)"><path fill="#ffffff" stroke="none" d="M 1184.107666015625 571.5 C 1184.107666015625 565.1487248 1189.256390815625 560 1195.607666015625 560 C 1201.958941215625 560 1207.107666015625 565.1487248 1207.107666015625 571.5 C 1207.107666015625 577.8512752 1201.958941215625 583 1195.607666015625 583 C 1189.256390815625 583 1184.107666015625 577.8512752 1184.107666015625 571.5 Z"/></g><g transform="translate(-54,-86) scale(1,1)"><path fill="none" stroke="#000000" d="M 1184.107666015625 571.5 C 1184.107666015625 565.1487248 1189.256390815625 560 1195.607666015625 560 C 1201.958941215625 560 1207.107666015625 565.1487248 1207.107666015625 571.5 C 1207.107666015625 577.8512752 1201.958941215625 583 1195.607666015625 583 C 1189.256390815625 583 1184.107666015625 577.8512752 1184.107666015625 571.5 Z" stroke-miterlimit="10"/></g><g transform="translate(-54,-86) scale(1,1)"><g><path fill="none" stroke="none"/><text fill="#000000" stroke="none" font-family="Arial" font-size="13px" font-style="normal" font-weight="bold" text-decoration="none" x="1151.167724609375" y="602.5">IBugRepository</text></g></g><g transform="translate(-54,-86) scale(1,1)"><g><path fill="none" stroke="none"/><text fill="#000000" stroke="none" font-family="Arial" font-size="13px" font-style="normal" font-weight="normal" text-decoration="none" x="1116.5" y="617.5">(from DataAccessInterface)</text></g></g><g transform="translate(-54,-86) scale(1,1)"><path fill="#C0C0C0" stroke="none" d="M 727.107666015625 586.5 C 727.107666015625 580.1487248 732.256390815625 575 738.607666015625 575 C 744.958941215625 575 750.107666015625 580.1487248 750.107666015625 586.5 C 750.107666015625 592.8512752 744.958941215625 598 738.607666015625 598 C 732.256390815625 598 727.107666015625 592.8512752 727.107666015625 586.5 Z" opacity="0.2"/></g><g transform="translate(-54,-86) scale(1,1)"><path fill="#ffffff" stroke="none" d="M 720.107666015625 579.5 C 720.107666015625 573.1487248 725.256390815625 568 731.607666015625 568 C 737.958941215625 568 743.107666015625 573.1487248 743.107666015625 579.5 C 743.107666015625 585.8512752 737.958941215625 591 731.607666015625 591 C 725.256390815625 591 720.107666015625 585.8512752 720.107666015625 579.5 Z"/></g><g transform="translate(-54,-86) scale(1,1)"><path fill="none" stroke="#000000" d="M 720.107666015625 579.5 C 720.107666015625 573.1487248 725.256390815625 568 731.607666015625 568 C 737.958941215625 568 743.107666015625 573.1487248 743.107666015625 579.5 C 743.107666015625 585.8512752 737.958941215625 591 731.607666015625 591 C 725.256390815625 591 720.107666015625 585.8512752 720.107666015625 579.5 Z" stroke-miterlimit="10"/></g><g transform="translate(-54,-86) scale(1,1)"><g><path fill="none" stroke="none"/><text fill="#000000" stroke="none" font-family="Arial" font-size="13px" font-style="normal" font-weight="bold" text-decoration="none" x="678.503173828125" y="610.5">IProjectRepository</text></g></g><g transform="translate(-54,-86) scale(1,1)"><g><path fill="none" stroke="none"/><text fill="#000000" stroke="none" font-family="Arial" font-size="13px" font-style="normal" font-weight="normal" text-decoration="none" x="652.5" y="625.5">(from DataAccessInterface)</text></g></g><g transform="translate(-54,-86) scale(1,1)"><path fill="#C0C0C0" stroke="none" d="M 255.107666015625 586.5 C 255.107666015625 580.1487248 260.256390815625 575 266.607666015625 575 C 272.958941215625 575 278.107666015625 580.1487248 278.107666015625 586.5 C 278.107666015625 592.8512752 272.958941215625 598 266.607666015625 598 C 260.256390815625 598 255.107666015625 592.8512752 255.107666015625 586.5 Z" opacity="0.2"/></g><g transform="translate(-54,-86) scale(1,1)"><path fill="#ffffff" stroke="none" d="M 248.107666015625 579.5 C 248.107666015625 573.1487248 253.256390815625 568 259.607666015625 568 C 265.958941215625 568 271.107666015625 573.1487248 271.107666015625 579.5 C 271.107666015625 585.8512752 265.958941215625 591 259.607666015625 591 C 253.256390815625 591 248.107666015625 585.8512752 248.107666015625 579.5 Z"/></g><g transform="translate(-54,-86) scale(1,1)"><path fill="none" stroke="#000000" d="M 248.107666015625 579.5 C 248.107666015625 573.1487248 253.256390815625 568 259.607666015625 568 C 265.958941215625 568 271.107666015625 573.1487248 271.107666015625 579.5 C 271.107666015625 585.8512752 265.958941215625 591 259.607666015625 591 C 253.256390815625 591 248.107666015625 585.8512752 248.107666015625 579.5 Z" stroke-miterlimit="10"/></g><g transform="translate(-54,-86) scale(1,1)"><g><path fill="none" stroke="none"/><text fill="#000000" stroke="none" font-family="Arial" font-size="13px" font-style="normal" font-weight="bold" text-decoration="none" x="213.009521484375" y="610.5">IUserRepository</text></g></g><g transform="translate(-54,-86) scale(1,1)"><g><path fill="none" stroke="none"/><text fill="#000000" stroke="none" font-family="Arial" font-size="13px" font-style="normal" font-weight="normal" text-decoration="none" x="180.5" y="625.5">(from DataAccessInterface)</text></g></g><g transform="translate(-54,-86) scale(1,1)"><path fill="none" stroke="#000000" d="M 256 504 L 256 568" stroke-miterlimit="10"/></g><g transform="translate(-54,-86) scale(1,1)"><path fill="none" stroke="#000000" d="M 728 506 L 728 568" stroke-miterlimit="10"/></g><g transform="translate(-54,-86) scale(1,1)"><path fill="none" stroke="#000000" d="M 1192 504 L 1192 560" stroke-miterlimit="10"/></g><g transform="translate(-54,-86) scale(1,1)"><g><path fill="none" stroke="none"/><text fill="#000000" stroke="none" font-family="Arial" font-size="13px" font-style="normal" font-weight="normal" text-decoration="none" x="133" y="642">+void Add(User user);</text></g></g><g transform="translate(-54,-86) scale(1,1)"><g><path fill="none" stroke="none"/><text fill="#000000" stroke="none" font-family="Arial" font-size="13px" font-style="normal" font-weight="normal" text-decoration="none" x="133" y="657">+bool Authenticate(string username, string void </text></g></g><g transform="translate(-54,-86) scale(1,1)"><g><path fill="none" stroke="none"/><text fill="#000000" stroke="none" font-family="Arial" font-size="13px" font-style="normal" font-weight="normal" text-decoration="none" x="133" y="672">+UpdateToken(string username, string token);</text></g></g><g transform="translate(-54,-86) scale(1,1)"><g><path fill="none" stroke="none"/><text fill="#000000" stroke="none" font-family="Arial" font-size="13px" font-style="normal" font-weight="normal" text-decoration="none" x="133" y="687">+RoleType GetRoleByToken(string token);</text></g></g><g transform="translate(-54,-86) scale(1,1)"><g><path fill="none" stroke="none"/><text fill="#000000" stroke="none" font-family="Arial" font-size="13px" font-style="normal" font-weight="normal" text-decoration="none" x="133" y="702">+User Get(string token);</text></g></g><g transform="translate(-54,-86) scale(1,1)"><g><path fill="none" stroke="none"/><text fill="#000000" stroke="none" font-family="Arial" font-size="13px" font-style="normal" font-weight="normal" text-decoration="none" x="133" y="717">+User Get(int id);</text></g></g><g transform="translate(-54,-86) scale(1,1)"><g><path fill="none" stroke="none"/><text fill="#000000" stroke="none" font-family="Arial" font-size="13px" font-style="normal" font-weight="normal" text-decoration="none" x="133" y="732">+void Save();</text></g></g><g transform="translate(-54,-86) scale(1,1)"><g><path fill="none" stroke="none"/><text fill="#000000" stroke="none" font-family="Arial" font-size="13px" font-style="normal" font-weight="normal" text-decoration="none" x="573" y="642">+void Add(Project project);</text></g></g><g transform="translate(-54,-86) scale(1,1)"><g><path fill="none" stroke="none"/><text fill="#000000" stroke="none" font-family="Arial" font-size="13px" font-style="normal" font-weight="normal" text-decoration="none" x="573" y="657">+void Update(Project updatedProject);</text></g></g><g transform="translate(-54,-86) scale(1,1)"><g><path fill="none" stroke="none"/><text fill="#000000" stroke="none" font-family="Arial" font-size="13px" font-style="normal" font-weight="normal" text-decoration="none" x="573" y="672">+void Delete(int projectId);</text></g></g><g transform="translate(-54,-86) scale(1,1)"><g><path fill="none" stroke="none"/><text fill="#000000" stroke="none" font-family="Arial" font-size="13px" font-style="normal" font-weight="normal" text-decoration="none" x="573" y="687">+IEnumerable&lt;Project&gt; GetAll();</text></g></g><g transform="translate(-54,-86) scale(1,1)"><g><path fill="none" stroke="none"/><text fill="#000000" stroke="none" font-family="Arial" font-size="13px" font-style="normal" font-weight="normal" text-decoration="none" x="573" y="702">+void AssignUserToProject(int userId, int projectId);</text></g></g><g transform="translate(-54,-86) scale(1,1)"><g><path fill="none" stroke="none"/><text fill="#000000" stroke="none" font-family="Arial" font-size="13px" font-style="normal" font-weight="normal" text-decoration="none" x="573" y="717">+void DissociateUserFromProject(int userId, int projectId);</text></g></g><g transform="translate(-54,-86) scale(1,1)"><g><path fill="none" stroke="none"/><text fill="#000000" stroke="none" font-family="Arial" font-size="13px" font-style="normal" font-weight="normal" text-decoration="none" x="573" y="732">+void AddBugsFromFile(IEnumerable&lt;Project&gt; newProject);</text></g></g><g transform="translate(-54,-86) scale(1,1)"><g><path fill="none" stroke="none"/><text fill="#000000" stroke="none" font-family="Arial" font-size="13px" font-style="normal" font-weight="normal" text-decoration="none" x="573" y="747">+void Save();</text></g></g><g transform="translate(-54,-86) scale(1,1)"><g><path fill="none" stroke="none"/><text fill="#000000" stroke="none" font-family="Arial" font-size="13px" font-style="normal" font-weight="normal" text-decoration="none" x="997" y="634">+Bug Get(User user, int bugId);</text></g></g><g transform="translate(-54,-86) scale(1,1)"><g><path fill="none" stroke="none"/><text fill="#000000" stroke="none" font-family="Arial" font-size="13px" font-style="normal" font-weight="normal" text-decoration="none" x="997" y="649">+void Add(User user, Bug newBug);</text></g></g><g transform="translate(-54,-86) scale(1,1)"><g><path fill="none" stroke="none"/><text fill="#000000" stroke="none" font-family="Arial" font-size="13px" font-style="normal" font-weight="normal" text-decoration="none" x="997" y="664">+IEnumerable&lt;Bug&gt; GetAllFiltered(User user, Func&lt;Bug, bool&gt; criteria);</text></g></g><g transform="translate(-54,-86) scale(1,1)"><g><path fill="none" stroke="none"/><text fill="#000000" stroke="none" font-family="Arial" font-size="13px" font-style="normal" font-weight="normal" text-decoration="none" x="997" y="679">+void Update(User user, Bug updatedBug);</text></g></g><g transform="translate(-54,-86) scale(1,1)"><g><path fill="none" stroke="none"/><text fill="#000000" stroke="none" font-family="Arial" font-size="13px" font-style="normal" font-weight="normal" text-decoration="none" x="997" y="694">+void Delete(User testerUser, int bugId);</text></g></g><g transform="translate(-54,-86) scale(1,1)"><g><path fill="none" stroke="none"/><text fill="#000000" stroke="none" font-family="Arial" font-size="13px" font-style="normal" font-weight="normal" text-decoration="none" x="997" y="709">+void Fix(User user, int bugId);</text></g></g><g transform="translate(-54,-86) scale(1,1)"><g><path fill="none" stroke="none"/><text fill="#000000" stroke="none" font-family="Arial" font-size="13px" font-style="normal" font-weight="normal" text-decoration="none" x="997" y="724">+void Save();</text></g></g></g></svg>