<svg version="1.1" xmlns="http://www.w3.org/2000/svg" xmlns:xlink="http://www.w3.org/1999/xlink" width="836" height="485"><defs/><g><g transform="translate(-102,-94) scale(1,1)"><rect fill="#C0C0C0" stroke="none" x="119" y="231" width="344" height="57" opacity="0.2"/></g><g transform="translate(-102,-94) scale(1,1)"><rect fill="#ffffff" stroke="none" x="112" y="224" width="344" height="57"/></g><g transform="translate(-102,-94) scale(1,1)"><path fill="none" stroke="#000000" d="M 112 224 L 456 224 L 456 281 L 112 281 L 112 224 Z Z" stroke-miterlimit="10"/></g><g transform="translate(-102,-94) scale(1,1)"><path fill="none" stroke="#000000" d="M 112 249 L 456 249" stroke-miterlimit="10"/></g><g transform="translate(-102,-94) scale(1,1)"><path fill="none" stroke="#000000" d="M 112 259 L 456 259" stroke-miterlimit="10"/></g><g transform="translate(-102,-94) scale(1,1)"><g><path fill="none" stroke="none"/><text fill="#000000" stroke="none" font-family="Arial" font-size="13px" font-style="normal" font-weight="bold" text-decoration="none" x="166.209716796875" y="243.5">BugDescriptionLengthIncorrectException</text></g></g><g transform="translate(-102,-94) scale(1,1)"><g><path fill="none" stroke="none"/><text fill="#000000" stroke="none" font-family="Arial" font-size="13px" font-style="normal" font-weight="normal" text-decoration="none" x="117" y="276.5">«constructor»+BugDescriptionLengthIncorrectException()</text></g></g><g transform="translate(-102,-94) scale(1,1)"><rect fill="#C0C0C0" stroke="none" x="607" y="231" width="328" height="57" opacity="0.2"/></g><g transform="translate(-102,-94) scale(1,1)"><rect fill="#ffffff" stroke="none" x="600" y="224" width="328" height="57"/></g><g transform="translate(-102,-94) scale(1,1)"><path fill="none" stroke="#000000" d="M 600 224 L 928 224 L 928 281 L 600 281 L 600 224 Z Z" stroke-miterlimit="10"/></g><g transform="translate(-102,-94) scale(1,1)"><path fill="none" stroke="#000000" d="M 600 249 L 928 249" stroke-miterlimit="10"/></g><g transform="translate(-102,-94) scale(1,1)"><path fill="none" stroke="#000000" d="M 600 259 L 928 259" stroke-miterlimit="10"/></g><g transform="translate(-102,-94) scale(1,1)"><g><path fill="none" stroke="none"/><text fill="#000000" stroke="none" font-family="Arial" font-size="13px" font-style="normal" font-weight="bold" text-decoration="none" x="673.301513671875" y="243.5">BugIdLengthIncorrectException</text></g></g><g transform="translate(-102,-94) scale(1,1)"><g><path fill="none" stroke="none"/><text fill="#000000" stroke="none" font-family="Arial" font-size="13px" font-style="normal" font-weight="normal" text-decoration="none" x="605" y="276.5">«constructor»+BugIdLengthIncorrectException()</text></g></g><g transform="translate(-102,-94) scale(1,1)"><rect fill="#C0C0C0" stroke="none" x="607" y="303" width="328" height="57" opacity="0.2"/></g><g transform="translate(-102,-94) scale(1,1)"><rect fill="#ffffff" stroke="none" x="600" y="296" width="328" height="57"/></g><g transform="translate(-102,-94) scale(1,1)"><path fill="none" stroke="#000000" d="M 600 296 L 928 296 L 928 353 L 600 353 L 600 296 Z Z" stroke-miterlimit="10"/></g><g transform="translate(-102,-94) scale(1,1)"><path fill="none" stroke="#000000" d="M 600 321 L 928 321" stroke-miterlimit="10"/></g><g transform="translate(-102,-94) scale(1,1)"><path fill="none" stroke="#000000" d="M 600 331 L 928 331" stroke-miterlimit="10"/></g><g transform="translate(-102,-94) scale(1,1)"><g><path fill="none" stroke="none"/><text fill="#000000" stroke="none" font-family="Arial" font-size="13px" font-style="normal" font-weight="bold" text-decoration="none" x="661.3837890625" y="315.5">BugNameLengthIncorrectException</text></g></g><g transform="translate(-102,-94) scale(1,1)"><g><path fill="none" stroke="none"/><text fill="#000000" stroke="none" font-family="Arial" font-size="13px" font-style="normal" font-weight="normal" text-decoration="none" x="605" y="348.5">«constructor»+BugNameLengthIncorrectException()</text></g></g><g transform="translate(-102,-94) scale(1,1)"><rect fill="#C0C0C0" stroke="none" x="119" y="455" width="344" height="57" opacity="0.2"/></g><g transform="translate(-102,-94) scale(1,1)"><rect fill="#ffffff" stroke="none" x="112" y="448" width="344" height="57"/></g><g transform="translate(-102,-94) scale(1,1)"><path fill="none" stroke="#000000" d="M 112 448 L 456 448 L 456 505 L 112 505 L 112 448 Z Z" stroke-miterlimit="10"/></g><g transform="translate(-102,-94) scale(1,1)"><path fill="none" stroke="#000000" d="M 112 473 L 456 473" stroke-miterlimit="10"/></g><g transform="translate(-102,-94) scale(1,1)"><path fill="none" stroke="#000000" d="M 112 483 L 456 483" stroke-miterlimit="10"/></g><g transform="translate(-102,-94) scale(1,1)"><g><path fill="none" stroke="none"/><text fill="#000000" stroke="none" font-family="Arial" font-size="13px" font-style="normal" font-weight="bold" text-decoration="none" x="203.426025390625" y="467.5">BugStateIncorrectException</text></g></g><g transform="translate(-102,-94) scale(1,1)"><g><path fill="none" stroke="none"/><text fill="#000000" stroke="none" font-family="Arial" font-size="13px" font-style="normal" font-weight="normal" text-decoration="none" x="117" y="500.5">«constructor»+BugStateIncorrectException()</text></g></g><g transform="translate(-102,-94) scale(1,1)"><rect fill="#C0C0C0" stroke="none" x="607" y="375" width="328" height="57" opacity="0.2"/></g><g transform="translate(-102,-94) scale(1,1)"><rect fill="#ffffff" stroke="none" x="600" y="368" width="328" height="57"/></g><g transform="translate(-102,-94) scale(1,1)"><path fill="none" stroke="#000000" d="M 600 368 L 928 368 L 928 425 L 600 425 L 600 368 Z Z" stroke-miterlimit="10"/></g><g transform="translate(-102,-94) scale(1,1)"><path fill="none" stroke="#000000" d="M 600 393 L 928 393" stroke-miterlimit="10"/></g><g transform="translate(-102,-94) scale(1,1)"><path fill="none" stroke="#000000" d="M 600 403 L 928 403" stroke-miterlimit="10"/></g><g transform="translate(-102,-94) scale(1,1)"><g><path fill="none" stroke="none"/><text fill="#000000" stroke="none" font-family="Arial" font-size="13px" font-style="normal" font-weight="bold" text-decoration="none" x="657.0419921875" y="387.5">BugVersionLengthIncorrectException</text></g></g><g transform="translate(-102,-94) scale(1,1)"><g><path fill="none" stroke="none"/><text fill="#000000" stroke="none" font-family="Arial" font-size="13px" font-style="normal" font-weight="normal" text-decoration="none" x="605" y="420.5">«constructor»+BugVersionLengthIncorrectException()</text></g></g><g transform="translate(-102,-94) scale(1,1)"><rect fill="#C0C0C0" stroke="none" x="455" y="111" width="180.1962890625" height="72" opacity="0.2"/></g><g transform="translate(-102,-94) scale(1,1)"><rect fill="#ffffff" stroke="none" x="448" y="104" width="180.1962890625" height="72"/></g><g transform="translate(-102,-94) scale(1,1)"><path fill="none" stroke="#000000" d="M 448 104 L 628.1962890625 104 L 628.1962890625 176 L 448 176 L 448 104 Z Z" stroke-miterlimit="10"/></g><g transform="translate(-102,-94) scale(1,1)"><path fill="none" stroke="#000000" d="M 448 129 L 628.1962890625 129" stroke-miterlimit="10"/></g><g transform="translate(-102,-94) scale(1,1)"><path fill="none" stroke="#000000" d="M 448 167 L 628.1962890625 167" stroke-miterlimit="10"/></g><g transform="translate(-102,-94) scale(1,1)"><g><path fill="none" stroke="none"/><text fill="#000000" stroke="none" font-family="Arial" font-size="13px" font-style="normal" font-weight="bold" text-decoration="none" x="459.0888671875" y="123.5">DomainValidationException</text></g></g><g transform="translate(-102,-94) scale(1,1)"><g><path fill="none" stroke="none"/><text fill="#000000" stroke="none" font-family="Arial" font-size="13px" font-style="normal" font-weight="normal" text-decoration="none" x="453" y="146.5">#messageToDisplay: string</text></g></g><g transform="translate(-102,-94) scale(1,1)"><g><path fill="none" stroke="none"/><text fill="#000000" stroke="none" font-family="Arial" font-size="13px" font-style="normal" font-weight="normal" text-decoration="none" x="453" y="161.5">+Message: string</text></g></g><g transform="translate(-102,-94) scale(1,1)"><path fill="none" stroke="#000000" d="M 456 252 L 465 252 L 465 176" stroke-miterlimit="10"/></g><g transform="translate(-102,-94) scale(1,1)"><path fill="#FFFFFF" stroke="none" d="M 473.419035512032 196.3253497152483 L 465 176 L 456.580964487968 196.3253497152483"/></g><g transform="translate(-102,-94) scale(1,1)"><path fill="none" stroke="#000000" d="M 473.419035512032 196.3253497152483 L 465 176 L 456.580964487968 196.3253497152483 L 473.419035512032 196.3253497152483" stroke-miterlimit="10"/></g><g transform="translate(-102,-94) scale(1,1)"><path fill="none" stroke="#000000" d="M 608 224 L 608 176" stroke-miterlimit="10"/></g><g transform="translate(-102,-94) scale(1,1)"><path fill="#FFFFFF" stroke="none" d="M 616.419035512032 196.3253497152483 L 608 176 L 599.580964487968 196.3253497152483"/></g><g transform="translate(-102,-94) scale(1,1)"><path fill="none" stroke="#000000" d="M 616.419035512032 196.3253497152483 L 608 176 L 599.580964487968 196.3253497152483 L 616.419035512032 196.3253497152483" stroke-miterlimit="10"/></g><g transform="translate(-102,-94) scale(1,1)"><path fill="none" stroke="#000000" d="M 600 324 L 592 324 L 592 176" stroke-miterlimit="10"/></g><g transform="translate(-102,-94) scale(1,1)"><path fill="#FFFFFF" stroke="none" d="M 600.419035512032 196.3253497152483 L 592 176 L 583.580964487968 196.3253497152483"/></g><g transform="translate(-102,-94) scale(1,1)"><path fill="none" stroke="#000000" d="M 600.419035512032 196.3253497152483 L 592 176 L 583.580964487968 196.3253497152483 L 600.419035512032 196.3253497152483" stroke-miterlimit="10"/></g><g transform="translate(-102,-94) scale(1,1)"><path fill="none" stroke="#000000" d="M 456 476 L 512 476 L 512 176" stroke-miterlimit="10"/></g><g transform="translate(-102,-94) scale(1,1)"><path fill="#FFFFFF" stroke="none" d="M 520.419035512032 196.3253497152483 L 512 176 L 503.580964487968 196.3253497152483"/></g><g transform="translate(-102,-94) scale(1,1)"><path fill="none" stroke="#000000" d="M 520.419035512032 196.3253497152483 L 512 176 L 503.580964487968 196.3253497152483 L 520.419035512032 196.3253497152483" stroke-miterlimit="10"/></g><g transform="translate(-102,-94) scale(1,1)"><path fill="none" stroke="#000000" d="M 600 396 L 576 396 L 576 176" stroke-miterlimit="10"/></g><g transform="translate(-102,-94) scale(1,1)"><path fill="#FFFFFF" stroke="none" d="M 584.419035512032 196.3253497152483 L 576 176 L 567.580964487968 196.3253497152483"/></g><g transform="translate(-102,-94) scale(1,1)"><path fill="none" stroke="#000000" d="M 584.419035512032 196.3253497152483 L 576 176 L 567.580964487968 196.3253497152483 L 584.419035512032 196.3253497152483" stroke-miterlimit="10"/></g><g transform="translate(-102,-94) scale(1,1)"><rect fill="#C0C0C0" stroke="none" x="607" y="447" width="328" height="57" opacity="0.2"/></g><g transform="translate(-102,-94) scale(1,1)"><rect fill="#ffffff" stroke="none" x="600" y="440" width="328" height="57"/></g><g transform="translate(-102,-94) scale(1,1)"><path fill="none" stroke="#000000" d="M 600 440 L 928 440 L 928 497 L 600 497 L 600 440 Z Z" stroke-miterlimit="10"/></g><g transform="translate(-102,-94) scale(1,1)"><path fill="none" stroke="#000000" d="M 600 465 L 928 465" stroke-miterlimit="10"/></g><g transform="translate(-102,-94) scale(1,1)"><path fill="none" stroke="#000000" d="M 600 475 L 928 475" stroke-miterlimit="10"/></g><g transform="translate(-102,-94) scale(1,1)"><g><path fill="none" stroke="none"/><text fill="#000000" stroke="none" font-family="Arial" font-size="13px" font-style="normal" font-weight="bold" text-decoration="none" x="673.307861328125" y="459.5">InvalidBugSolverRoleException</text></g></g><g transform="translate(-102,-94) scale(1,1)"><g><path fill="none" stroke="none"/><text fill="#000000" stroke="none" font-family="Arial" font-size="13px" font-style="normal" font-weight="normal" text-decoration="none" x="605" y="492.5">«constructor»+InvalidBugSolverRoleException()</text></g></g><g transform="translate(-102,-94) scale(1,1)"><path fill="none" stroke="#000000" d="M 600 468 L 560 468 L 560 176" stroke-miterlimit="10"/></g><g transform="translate(-102,-94) scale(1,1)"><path fill="#FFFFFF" stroke="none" d="M 568.419035512032 196.3253497152483 L 560 176 L 551.580964487968 196.3253497152483"/></g><g transform="translate(-102,-94) scale(1,1)"><path fill="none" stroke="#000000" d="M 568.419035512032 196.3253497152483 L 560 176 L 551.580964487968 196.3253497152483 L 568.419035512032 196.3253497152483" stroke-miterlimit="10"/></g><g transform="translate(-102,-94) scale(1,1)"><rect fill="#C0C0C0" stroke="none" x="607" y="519" width="326.5732421875" height="57" opacity="0.2"/></g><g transform="translate(-102,-94) scale(1,1)"><rect fill="#ffffff" stroke="none" x="600" y="512" width="326.5732421875" height="57"/></g><g transform="translate(-102,-94) scale(1,1)"><path fill="none" stroke="#000000" d="M 600 512 L 926.5732421875 512 L 926.5732421875 569 L 600 569 L 600 512 Z Z" stroke-miterlimit="10"/></g><g transform="translate(-102,-94) scale(1,1)"><path fill="none" stroke="#000000" d="M 600 537 L 926.5732421875 537" stroke-miterlimit="10"/></g><g transform="translate(-102,-94) scale(1,1)"><path fill="none" stroke="#000000" d="M 600 547 L 926.5732421875 547" stroke-miterlimit="10"/></g><g transform="translate(-102,-94) scale(1,1)"><g><path fill="none" stroke="none"/><text fill="#000000" stroke="none" font-family="Arial" font-size="13px" font-style="normal" font-weight="bold" text-decoration="none" x="652.005859375" y="531.5">ProjectNameLengthIncorrectException</text></g></g><g transform="translate(-102,-94) scale(1,1)"><g><path fill="none" stroke="none"/><text fill="#000000" stroke="none" font-family="Arial" font-size="13px" font-style="normal" font-weight="normal" text-decoration="none" x="605" y="564.5">«constructor»+ProjectNameLengthIncorrectException()</text></g></g><g transform="translate(-102,-94) scale(1,1)"><path fill="none" stroke="#000000" d="M 600 540 L 544 540 L 544 176" stroke-miterlimit="10"/></g><g transform="translate(-102,-94) scale(1,1)"><path fill="#FFFFFF" stroke="none" d="M 552.419035512032 196.3253497152483 L 544 176 L 535.580964487968 196.3253497152483"/></g><g transform="translate(-102,-94) scale(1,1)"><path fill="none" stroke="#000000" d="M 552.419035512032 196.3253497152483 L 544 176 L 535.580964487968 196.3253497152483 L 552.419035512032 196.3253497152483" stroke-miterlimit="10"/></g><g transform="translate(-102,-94) scale(1,1)"><rect fill="#C0C0C0" stroke="none" x="119" y="383" width="344" height="57" opacity="0.2"/></g><g transform="translate(-102,-94) scale(1,1)"><rect fill="#ffffff" stroke="none" x="112" y="376" width="344" height="57"/></g><g transform="translate(-102,-94) scale(1,1)"><path fill="none" stroke="#000000" d="M 112 376 L 456 376 L 456 433 L 112 433 L 112 376 Z Z" stroke-miterlimit="10"/></g><g transform="translate(-102,-94) scale(1,1)"><path fill="none" stroke="#000000" d="M 112 401 L 456 401" stroke-miterlimit="10"/></g><g transform="translate(-102,-94) scale(1,1)"><path fill="none" stroke="#000000" d="M 112 411 L 456 411" stroke-miterlimit="10"/></g><g transform="translate(-102,-94) scale(1,1)"><g><path fill="none" stroke="none"/><text fill="#000000" stroke="none" font-family="Arial" font-size="13px" font-style="normal" font-weight="bold" text-decoration="none" x="200.912353515625" y="395.5">UserPropertyIsNullException</text></g></g><g transform="translate(-102,-94) scale(1,1)"><g><path fill="none" stroke="none"/><text fill="#000000" stroke="none" font-family="Arial" font-size="13px" font-style="normal" font-weight="normal" text-decoration="none" x="117" y="428.5">«constructor»+UserPropertyIsNullException()</text></g></g><g transform="translate(-102,-94) scale(1,1)"><path fill="none" stroke="#000000" d="M 456 404 L 496 404 L 496 176" stroke-miterlimit="10"/></g><g transform="translate(-102,-94) scale(1,1)"><path fill="#FFFFFF" stroke="none" d="M 504.419035512032 196.3253497152483 L 496 176 L 487.580964487968 196.3253497152483"/></g><g transform="translate(-102,-94) scale(1,1)"><path fill="none" stroke="#000000" d="M 504.419035512032 196.3253497152483 L 496 176 L 487.580964487968 196.3253497152483 L 504.419035512032 196.3253497152483" stroke-miterlimit="10"/></g><g transform="translate(-102,-94) scale(1,1)"><rect fill="#C0C0C0" stroke="none" x="119" y="311" width="344" height="57" opacity="0.2"/></g><g transform="translate(-102,-94) scale(1,1)"><rect fill="#ffffff" stroke="none" x="112" y="304" width="344" height="57"/></g><g transform="translate(-102,-94) scale(1,1)"><path fill="none" stroke="#000000" d="M 112 304 L 456 304 L 456 361 L 112 361 L 112 304 Z Z" stroke-miterlimit="10"/></g><g transform="translate(-102,-94) scale(1,1)"><path fill="none" stroke="#000000" d="M 112 329 L 456 329" stroke-miterlimit="10"/></g><g transform="translate(-102,-94) scale(1,1)"><path fill="none" stroke="#000000" d="M 112 339 L 456 339" stroke-miterlimit="10"/></g><g transform="translate(-102,-94) scale(1,1)"><g><path fill="none" stroke="none"/><text fill="#000000" stroke="none" font-family="Arial" font-size="13px" font-style="normal" font-weight="bold" text-decoration="none" x="203.076904296875" y="323.5">UserRoleIncorrectException</text></g></g><g transform="translate(-102,-94) scale(1,1)"><g><path fill="none" stroke="none"/><text fill="#000000" stroke="none" font-family="Arial" font-size="13px" font-style="normal" font-weight="normal" text-decoration="none" x="117" y="356.5">«constructor»+UserRoleIncorrectException()</text></g></g><g transform="translate(-102,-94) scale(1,1)"><path fill="none" stroke="#000000" d="M 456 332 L 480 332 L 480 176" stroke-miterlimit="10"/></g><g transform="translate(-102,-94) scale(1,1)"><path fill="#FFFFFF" stroke="none" d="M 488.419035512032 196.3253497152483 L 480 176 L 471.580964487968 196.3253497152483"/></g><g transform="translate(-102,-94) scale(1,1)"><path fill="none" stroke="#000000" d="M 488.419035512032 196.3253497152483 L 480 176 L 471.580964487968 196.3253497152483 L 488.419035512032 196.3253497152483" stroke-miterlimit="10"/></g></g></svg>