<svg version="1.1" xmlns="http://www.w3.org/2000/svg" xmlns:xlink="http://www.w3.org/1999/xlink" width="625.9599609375" height="848"><defs/><g><g transform="translate(-182,-94) scale(1,1)"><rect fill="#C0C0C0" stroke="none" x="359" y="111" width="325.72265625" height="310" opacity="0.2"/></g><g transform="translate(-182,-94) scale(1,1)"><rect fill="#ffffff" stroke="none" x="352" y="104" width="325.72265625" height="310"/></g><g transform="translate(-182,-94) scale(1,1)"><path fill="none" stroke="#000000" d="M 352 104 L 677.72265625 104 L 677.72265625 414 L 352 414 L 352 104 Z Z" stroke-miterlimit="10"/></g><g transform="translate(-182,-94) scale(1,1)"><path fill="none" stroke="#000000" d="M 352 129 L 677.72265625 129" stroke-miterlimit="10"/></g><g transform="translate(-182,-94) scale(1,1)"><path fill="none" stroke="#000000" d="M 352 317 L 677.72265625 317" stroke-miterlimit="10"/></g><g transform="translate(-182,-94) scale(1,1)"><g><path fill="none" stroke="none"/><text fill="#000000" stroke="none" font-family="Arial" font-size="13px" font-style="normal" font-weight="bold" text-decoration="none" x="503.2958984375" y="123.5">Bug</text></g></g><g transform="translate(-182,-94) scale(1,1)"><g><path fill="none" stroke="none"/><text fill="#000000" stroke="none" font-family="Arial" font-size="13px" font-style="normal" font-weight="normal" text-decoration="none" x="357" y="146.5">-_description: string</text></g></g><g transform="translate(-182,-94) scale(1,1)"><g><path fill="none" stroke="none"/><text fill="#000000" stroke="none" font-family="Arial" font-size="13px" font-style="normal" font-weight="normal" text-decoration="none" x="357" y="161.5">-_id: int</text></g></g><g transform="translate(-182,-94) scale(1,1)"><g><path fill="none" stroke="none"/><text fill="#000000" stroke="none" font-family="Arial" font-size="13px" font-style="normal" font-weight="normal" text-decoration="none" x="357" y="176.5">-_name: string</text></g></g><g transform="translate(-182,-94) scale(1,1)"><g><path fill="none" stroke="none"/><text fill="#000000" stroke="none" font-family="Arial" font-size="13px" font-style="normal" font-weight="normal" text-decoration="none" x="357" y="191.5">-_state: BugState</text></g></g><g transform="translate(-182,-94) scale(1,1)"><g><path fill="none" stroke="none"/><text fill="#000000" stroke="none" font-family="Arial" font-size="13px" font-style="normal" font-weight="normal" text-decoration="none" x="357" y="206.5">-_version: string</text></g></g><g transform="translate(-182,-94) scale(1,1)"><g><path fill="none" stroke="none"/><text fill="#000000" stroke="none" font-family="Arial" font-size="13px" font-style="normal" font-weight="normal" text-decoration="none" x="357" y="221.5">+Id: int</text></g></g><g transform="translate(-182,-94) scale(1,1)"><g><path fill="none" stroke="none"/><text fill="#000000" stroke="none" font-family="Arial" font-size="13px" font-style="normal" font-weight="normal" text-decoration="none" x="357" y="236.5">+Name: string</text></g></g><g transform="translate(-182,-94) scale(1,1)"><g><path fill="none" stroke="none"/><text fill="#000000" stroke="none" font-family="Arial" font-size="13px" font-style="normal" font-weight="normal" text-decoration="none" x="357" y="251.5">+Description: string</text></g></g><g transform="translate(-182,-94) scale(1,1)"><g><path fill="none" stroke="none"/><text fill="#000000" stroke="none" font-family="Arial" font-size="13px" font-style="normal" font-weight="normal" text-decoration="none" x="357" y="266.5">+Version: string</text></g></g><g transform="translate(-182,-94) scale(1,1)"><g><path fill="none" stroke="none"/><text fill="#000000" stroke="none" font-family="Arial" font-size="13px" font-style="normal" font-weight="normal" text-decoration="none" x="357" y="281.5">+State: BugState</text></g></g><g transform="translate(-182,-94) scale(1,1)"><g><path fill="none" stroke="none"/><text fill="#000000" stroke="none" font-family="Arial" font-size="13px" font-style="normal" font-weight="normal" text-decoration="none" x="357" y="296.5">+ProjectId: int</text></g></g><g transform="translate(-182,-94) scale(1,1)"><g><path fill="none" stroke="none"/><text fill="#000000" stroke="none" font-family="Arial" font-size="13px" font-style="normal" font-weight="normal" text-decoration="none" x="357" y="311.5">+FixerId: int?</text></g></g><g transform="translate(-182,-94) scale(1,1)"><g><path fill="none" stroke="none"/><text fill="#000000" stroke="none" font-family="Arial" font-size="13px" font-style="normal" font-weight="normal" text-decoration="none" x="357" y="334.5">-ValidateName(nameToValidate: string): void</text></g></g><g transform="translate(-182,-94) scale(1,1)"><g><path fill="none" stroke="none"/><text fill="#000000" stroke="none" font-family="Arial" font-size="13px" font-style="normal" font-weight="normal" text-decoration="none" x="357" y="349.5">+ValidateIdLength(idToValidate: int): void</text></g></g><g transform="translate(-182,-94) scale(1,1)"><g><path fill="none" stroke="none"/><text fill="#000000" stroke="none" font-family="Arial" font-size="13px" font-style="normal" font-weight="normal" text-decoration="none" x="357" y="364.5">-ValidateDescription(descriptionToValidate: string): void</text></g></g><g transform="translate(-182,-94) scale(1,1)"><g><path fill="none" stroke="none"/><text fill="#000000" stroke="none" font-family="Arial" font-size="13px" font-style="normal" font-weight="normal" text-decoration="none" x="357" y="379.5">-ValidateVersion(versionToValidate: string): void</text></g></g><g transform="translate(-182,-94) scale(1,1)"><g><path fill="none" stroke="none"/><text fill="#000000" stroke="none" font-family="Arial" font-size="13px" font-style="normal" font-weight="normal" text-decoration="none" x="357" y="394.5">-ValidateState(value: BugState): void</text></g></g><g transform="translate(-182,-94) scale(1,1)"><g><path fill="none" stroke="none"/><text fill="#000000" stroke="none" font-family="Arial" font-size="13px" font-style="normal" font-weight="normal" text-decoration="none" x="357" y="409.5">-ValidateFixerRole(user: User): void</text></g></g><g transform="translate(-182,-94) scale(1,1)"><rect fill="#C0C0C0" stroke="none" x="671" y="487" width="133.9599609375" height="62" opacity="0.2"/></g><g transform="translate(-182,-94) scale(1,1)"><rect fill="#ffffff" stroke="none" x="664" y="480" width="133.9599609375" height="62"/></g><g transform="translate(-182,-94) scale(1,1)"><path fill="none" stroke="#000000" d="M 664 480 L 797.9599609375 480 L 797.9599609375 542 L 664 542 L 664 480 Z Z" stroke-miterlimit="10"/></g><g transform="translate(-182,-94) scale(1,1)"><path fill="none" stroke="#000000" d="M 664 533 L 797.9599609375 533" stroke-miterlimit="10"/></g><g transform="translate(-182,-94) scale(1,1)"><g><path fill="none" stroke="none"/><text fill="#000000" stroke="none" font-family="Arial" font-size="13px" font-style="normal" font-weight="normal" text-decoration="none" x="687.615966796875" y="497.5">«enumeration»</text></g></g><g transform="translate(-182,-94) scale(1,1)"><g><path fill="none" stroke="none"/><text fill="#000000" stroke="none" font-family="Arial" font-size="13px" font-style="normal" font-weight="bold" text-decoration="none" x="704.2373046875" y="512.5">BugState</text></g></g><g transform="translate(-182,-94) scale(1,1)"><g><path fill="none" stroke="none"/><text fill="#000000" stroke="none" font-family="Arial" font-size="13px" font-style="normal" font-weight="normal" text-decoration="none" x="668.5" y="527.5">(from DomainUtilities)</text></g></g><g transform="translate(-182,-94) scale(1,1)"><rect fill="#C0C0C0" stroke="none" x="583" y="839" width="133.9599609375" height="62" opacity="0.2"/></g><g transform="translate(-182,-94) scale(1,1)"><rect fill="#ffffff" stroke="none" x="576" y="832" width="133.9599609375" height="62"/></g><g transform="translate(-182,-94) scale(1,1)"><path fill="none" stroke="#000000" d="M 576 832 L 709.9599609375 832 L 709.9599609375 894 L 576 894 L 576 832 Z Z" stroke-miterlimit="10"/></g><g transform="translate(-182,-94) scale(1,1)"><path fill="none" stroke="#000000" d="M 576 885 L 709.9599609375 885" stroke-miterlimit="10"/></g><g transform="translate(-182,-94) scale(1,1)"><g><path fill="none" stroke="none"/><text fill="#000000" stroke="none" font-family="Arial" font-size="13px" font-style="normal" font-weight="normal" text-decoration="none" x="599.615966796875" y="849.5">«enumeration»</text></g></g><g transform="translate(-182,-94) scale(1,1)"><g><path fill="none" stroke="none"/><text fill="#000000" stroke="none" font-family="Arial" font-size="13px" font-style="normal" font-weight="bold" text-decoration="none" x="615.52001953125" y="864.5">RoleType</text></g></g><g transform="translate(-182,-94) scale(1,1)"><g><path fill="none" stroke="none"/><text fill="#000000" stroke="none" font-family="Arial" font-size="13px" font-style="normal" font-weight="normal" text-decoration="none" x="580.5" y="879.5">(from DomainUtilities)</text></g></g><g transform="translate(-182,-94) scale(1,1)"><rect fill="#C0C0C0" stroke="none" x="527" y="599" width="265.0263671875" height="160" opacity="0.2"/></g><g transform="translate(-182,-94) scale(1,1)"><rect fill="#ffffff" stroke="none" x="520" y="592" width="265.0263671875" height="160"/></g><g transform="translate(-182,-94) scale(1,1)"><path fill="none" stroke="#000000" d="M 520 592 L 785.0263671875 592 L 785.0263671875 752 L 520 752 L 520 592 Z Z" stroke-miterlimit="10"/></g><g transform="translate(-182,-94) scale(1,1)"><path fill="none" stroke="#000000" d="M 520 617 L 785.0263671875 617" stroke-miterlimit="10"/></g><g transform="translate(-182,-94) scale(1,1)"><path fill="none" stroke="#000000" d="M 520 700 L 785.0263671875 700" stroke-miterlimit="10"/></g><g transform="translate(-182,-94) scale(1,1)"><g><path fill="none" stroke="none"/><text fill="#000000" stroke="none" font-family="Arial" font-size="13px" font-style="normal" font-weight="bold" text-decoration="none" x="632.283203125" y="611.5">Project</text></g></g><g transform="translate(-182,-94) scale(1,1)"><g><path fill="none" stroke="none"/><text fill="#000000" stroke="none" font-family="Arial" font-size="13px" font-style="normal" font-weight="normal" text-decoration="none" x="525" y="634.5">-_name: string</text></g></g><g transform="translate(-182,-94) scale(1,1)"><g><path fill="none" stroke="none"/><text fill="#000000" stroke="none" font-family="Arial" font-size="13px" font-style="normal" font-weight="normal" text-decoration="none" x="525" y="649.5">+Id: int</text></g></g><g transform="translate(-182,-94) scale(1,1)"><g><path fill="none" stroke="none"/><text fill="#000000" stroke="none" font-family="Arial" font-size="13px" font-style="normal" font-weight="normal" text-decoration="none" x="525" y="664.5">+Name: string</text></g></g><g transform="translate(-182,-94) scale(1,1)"><g><path fill="none" stroke="none"/><text fill="#000000" stroke="none" font-family="Arial" font-size="13px" font-style="normal" font-weight="normal" text-decoration="none" x="525" y="679.5">+Bugs: List</text></g></g><g transform="translate(-182,-94) scale(1,1)"><g><path fill="none" stroke="none"/><text fill="#000000" stroke="none" font-family="Arial" font-size="13px" font-style="normal" font-weight="normal" text-decoration="none" x="525" y="694.5">+Users: List</text></g></g><g transform="translate(-182,-94) scale(1,1)"><g><path fill="none" stroke="none"/><text fill="#000000" stroke="none" font-family="Arial" font-size="13px" font-style="normal" font-weight="normal" text-decoration="none" x="525" y="717.5">-ValidateName(nameToValidate: string): void</text></g></g><g transform="translate(-182,-94) scale(1,1)"><g><path fill="none" stroke="none"/><text fill="#000000" stroke="none" font-family="Arial" font-size="13px" font-style="normal" font-weight="normal" text-decoration="none" x="525" y="732.5">+AddUser(newUser: User): void</text></g></g><g transform="translate(-182,-94) scale(1,1)"><g><path fill="none" stroke="none"/><text fill="#000000" stroke="none" font-family="Arial" font-size="13px" font-style="normal" font-weight="normal" text-decoration="none" x="525" y="747.5">+RemoveUser(newUser: User): void</text></g></g><g transform="translate(-182,-94) scale(1,1)"><path fill="none" stroke="#000000" d="M 616 414 L 616 592" stroke-miterlimit="10"/></g><g transform="translate(-182,-94) scale(1,1)"><path fill="none" stroke="#000000" d="M 611.790482243984 581.8373251423759 L 616 592 L 620.209517756016 581.8373251423759" stroke-miterlimit="10"/></g><g transform="translate(-182,-94) scale(1,1)"><g><path fill="none" stroke="none"/><text fill="#000000" stroke="none" font-family="Arial" font-size="13px" font-style="normal" font-weight="normal" text-decoration="none" x="622.5" y="580.5">+Project</text></g></g><g transform="translate(-182,-94) scale(1,1)"><rect fill="#C0C0C0" stroke="none" x="199" y="599" width="255.8603515625" height="340" opacity="0.2"/></g><g transform="translate(-182,-94) scale(1,1)"><rect fill="#ffffff" stroke="none" x="192" y="592" width="255.8603515625" height="340"/></g><g transform="translate(-182,-94) scale(1,1)"><path fill="none" stroke="#000000" d="M 192 592 L 447.8603515625 592 L 447.8603515625 932 L 192 932 L 192 592 Z Z" stroke-miterlimit="10"/></g><g transform="translate(-182,-94) scale(1,1)"><path fill="none" stroke="#000000" d="M 192 617 L 447.8603515625 617" stroke-miterlimit="10"/></g><g transform="translate(-182,-94) scale(1,1)"><path fill="none" stroke="#000000" d="M 192 865 L 447.8603515625 865" stroke-miterlimit="10"/></g><g transform="translate(-182,-94) scale(1,1)"><g><path fill="none" stroke="none"/><text fill="#000000" stroke="none" font-family="Arial" font-size="13px" font-style="normal" font-weight="bold" text-decoration="none" x="306.20654296875" y="611.5">User</text></g></g><g transform="translate(-182,-94) scale(1,1)"><g><path fill="none" stroke="none"/><text fill="#000000" stroke="none" font-family="Arial" font-size="13px" font-style="normal" font-weight="normal" text-decoration="none" x="197" y="634.5">-_email: string</text></g></g><g transform="translate(-182,-94) scale(1,1)"><g><path fill="none" stroke="none"/><text fill="#000000" stroke="none" font-family="Arial" font-size="13px" font-style="normal" font-weight="normal" text-decoration="none" x="197" y="649.5">-_firstName: string</text></g></g><g transform="translate(-182,-94) scale(1,1)"><g><path fill="none" stroke="none"/><text fill="#000000" stroke="none" font-family="Arial" font-size="13px" font-style="normal" font-weight="normal" text-decoration="none" x="197" y="664.5">-_lastName: string</text></g></g><g transform="translate(-182,-94) scale(1,1)"><g><path fill="none" stroke="none"/><text fill="#000000" stroke="none" font-family="Arial" font-size="13px" font-style="normal" font-weight="normal" text-decoration="none" x="197" y="679.5">-_pass: string</text></g></g><g transform="translate(-182,-94) scale(1,1)"><g><path fill="none" stroke="none"/><text fill="#000000" stroke="none" font-family="Arial" font-size="13px" font-style="normal" font-weight="normal" text-decoration="none" x="197" y="694.5">-_role: RoleType</text></g></g><g transform="translate(-182,-94) scale(1,1)"><g><path fill="none" stroke="none"/><text fill="#000000" stroke="none" font-family="Arial" font-size="13px" font-style="normal" font-weight="normal" text-decoration="none" x="197" y="709.5">-_userName: string</text></g></g><g transform="translate(-182,-94) scale(1,1)"><g><path fill="none" stroke="none"/><text fill="#000000" stroke="none" font-family="Arial" font-size="13px" font-style="normal" font-weight="normal" text-decoration="none" x="197" y="724.5">+Id: int</text></g></g><g transform="translate(-182,-94) scale(1,1)"><g><path fill="none" stroke="none"/><text fill="#000000" stroke="none" font-family="Arial" font-size="13px" font-style="normal" font-weight="normal" text-decoration="none" x="197" y="739.5">+FirstName: string</text></g></g><g transform="translate(-182,-94) scale(1,1)"><g><path fill="none" stroke="none"/><text fill="#000000" stroke="none" font-family="Arial" font-size="13px" font-style="normal" font-weight="normal" text-decoration="none" x="197" y="754.5">+LastName: string</text></g></g><g transform="translate(-182,-94) scale(1,1)"><g><path fill="none" stroke="none"/><text fill="#000000" stroke="none" font-family="Arial" font-size="13px" font-style="normal" font-weight="normal" text-decoration="none" x="197" y="769.5">+UserName: string</text></g></g><g transform="translate(-182,-94) scale(1,1)"><g><path fill="none" stroke="none"/><text fill="#000000" stroke="none" font-family="Arial" font-size="13px" font-style="normal" font-weight="normal" text-decoration="none" x="197" y="784.5">+Password: string</text></g></g><g transform="translate(-182,-94) scale(1,1)"><g><path fill="none" stroke="none"/><text fill="#000000" stroke="none" font-family="Arial" font-size="13px" font-style="normal" font-weight="normal" text-decoration="none" x="197" y="799.5">+Email: string</text></g></g><g transform="translate(-182,-94) scale(1,1)"><g><path fill="none" stroke="none"/><text fill="#000000" stroke="none" font-family="Arial" font-size="13px" font-style="normal" font-weight="normal" text-decoration="none" x="197" y="814.5">+Role: RoleType</text></g></g><g transform="translate(-182,-94) scale(1,1)"><g><path fill="none" stroke="none"/><text fill="#000000" stroke="none" font-family="Arial" font-size="13px" font-style="normal" font-weight="normal" text-decoration="none" x="197" y="829.5">+Token: string</text></g></g><g transform="translate(-182,-94) scale(1,1)"><g><path fill="none" stroke="none"/><text fill="#000000" stroke="none" font-family="Arial" font-size="13px" font-style="normal" font-weight="normal" text-decoration="none" x="197" y="844.5">+Projects: List</text></g></g><g transform="translate(-182,-94) scale(1,1)"><g><path fill="none" stroke="none"/><text fill="#000000" stroke="none" font-family="Arial" font-size="13px" font-style="normal" font-weight="normal" text-decoration="none" x="197" y="859.5">+FixedBugs: List</text></g></g><g transform="translate(-182,-94) scale(1,1)"><g><path fill="none" stroke="none"/><text fill="#000000" stroke="none" font-family="Arial" font-size="13px" font-style="normal" font-weight="normal" text-decoration="none" x="197" y="882.5">-ValidateStringIsNotNull(value: string): void</text></g></g><g transform="translate(-182,-94) scale(1,1)"><g><path fill="none" stroke="none"/><text fill="#000000" stroke="none" font-family="Arial" font-size="13px" font-style="normal" font-weight="normal" text-decoration="none" x="197" y="897.5">-ValidateEmail(email: string): void</text></g></g><g transform="translate(-182,-94) scale(1,1)"><g><path fill="none" stroke="none"/><text fill="#000000" stroke="none" font-family="Arial" font-size="13px" font-style="normal" font-weight="normal" text-decoration="none" x="197" y="912.5">-ValidateRole(value: RoleType): void</text></g></g><g transform="translate(-182,-94) scale(1,1)"><g><path fill="none" stroke="none"/><text fill="#000000" stroke="none" font-family="Arial" font-size="13px" font-style="normal" font-weight="normal" text-decoration="none" x="197" y="927.5">+GetFixedBugCount(): int</text></g></g><g transform="translate(-182,-94) scale(1,1)"><path fill="none" stroke="#000000" d="M 368 414 L 368 592" stroke-miterlimit="10"/></g><g transform="translate(-182,-94) scale(1,1)"><path fill="none" stroke="#000000" d="M 363.790482243984 581.8373251423759 L 368 592 L 372.209517756016 581.8373251423759" stroke-miterlimit="10"/></g><g transform="translate(-182,-94) scale(1,1)"><g><path fill="none" stroke="none"/><text fill="#000000" stroke="none" font-family="Arial" font-size="13px" font-style="normal" font-weight="normal" text-decoration="none" x="326.5" y="564.5">+Fixer</text></g></g><g transform="translate(-182,-94) scale(1,1)"><g><path fill="none" stroke="none"/><text fill="#000000" stroke="none" font-family="Arial" font-size="13px" font-style="normal" font-weight="normal" text-decoration="none" x="325.5" y="579.5">-_fixer</text></g></g><g transform="translate(-182,-94) scale(1,1)"><path fill="none" stroke="#000000" d="M 664 414 L 664 480" stroke-miterlimit="10"/></g><g transform="translate(-182,-94) scale(1,1)"><path fill="none" stroke="#000000" d="M 659.790482243984 469.83732514237585 L 664 480 L 668.209517756016 469.83732514237585" stroke-miterlimit="10"/></g><g transform="translate(-182,-94) scale(1,1)"><g><path fill="none" stroke="none"/><text fill="#000000" stroke="none" font-family="Arial" font-size="13px" font-style="normal" font-weight="normal" text-decoration="none" x="675.15087890625" y="468.5">+state</text></g></g><g transform="translate(-182,-94) scale(1,1)"><g><path fill="none" stroke="none"/><text fill="#000000" stroke="none" font-family="Arial" font-size="13px" font-style="normal" font-weight="normal" text-decoration="none" x="673.13134765625" y="452.5">-_state</text></g></g><g transform="translate(-182,-94) scale(1,1)"><path fill="none" stroke="#000000" d="M 448 865 L 576 865" stroke-miterlimit="10"/></g><g transform="translate(-182,-94) scale(1,1)"><path fill="none" stroke="#000000" d="M 565.8373251423759 869.209517756016 L 576 865 L 565.8373251423758 860.790482243984" stroke-miterlimit="10"/></g><g transform="translate(-182,-94) scale(1,1)"><g><path fill="none" stroke="none"/><text fill="#000000" stroke="none" font-family="Arial" font-size="13px" font-style="normal" font-weight="normal" text-decoration="none" x="510.22314453125" y="836.5">-Role</text></g></g><g transform="translate(-182,-94) scale(1,1)"><g><path fill="none" stroke="none"/><text fill="#000000" stroke="none" font-family="Arial" font-size="13px" font-style="normal" font-weight="normal" text-decoration="none" x="503.13134765625" y="851.5">-_role</text></g></g><g transform="translate(-182,-94) scale(1,1)"><path fill="none" stroke="#000000" d="M 448 727 L 520 727" stroke-miterlimit="10"/></g><g transform="translate(-182,-94) scale(1,1)"><path fill="#FFFFFF" stroke="none" d="M 509.83732514237585 731.209517756016 L 520 727 L 509.83732514237585 722.790482243984 L 498 727"/></g><g transform="translate(-182,-94) scale(1,1)"><path fill="none" stroke="#000000" d="M 509.83732514237585 731.209517756016 L 520 727 L 509.83732514237585 722.790482243984 L 498 727 L 509.83732514237585 731.209517756016" stroke-miterlimit="10"/></g><g transform="translate(-182,-94) scale(1,1)"><path fill="none" stroke="#000000" d="M 520 664 L 448 664" stroke-miterlimit="10"/></g><g transform="translate(-182,-94) scale(1,1)"><path fill="#FFFFFF" stroke="none" d="M 458.16267485762415 659.790482243984 L 448 664 L 458.16267485762415 668.209517756016 L 470 664"/></g><g transform="translate(-182,-94) scale(1,1)"><path fill="none" stroke="#000000" d="M 458.16267485762415 659.790482243984 L 448 664 L 458.16267485762415 668.209517756016 L 470 664 L 458.16267485762415 659.790482243984" stroke-miterlimit="10"/></g><g transform="translate(-182,-94) scale(1,1)"><path fill="none" stroke="#000000" d="M 416 414 L 416 592" stroke-miterlimit="10"/></g><g transform="translate(-182,-94) scale(1,1)"><path fill="#FFFFFF" stroke="none" d="M 411.790482243984 581.8373251423759 L 416 592 L 420.209517756016 581.8373251423759 L 416 570"/></g><g transform="translate(-182,-94) scale(1,1)"><path fill="none" stroke="#000000" d="M 411.790482243984 581.8373251423759 L 416 592 L 420.209517756016 581.8373251423759 L 416 570 L 411.790482243984 581.8373251423759" stroke-miterlimit="10"/></g><g transform="translate(-182,-94) scale(1,1)"><path fill="none" stroke="#000000" d="M 566 414 L 566 592" stroke-miterlimit="10"/></g><g transform="translate(-182,-94) scale(1,1)"><path fill="#000000" stroke="none" d="M 561.790482243984 581.8373251423759 L 566 592 L 570.209517756016 581.8373251423759 L 566 570"/></g><g transform="translate(-182,-94) scale(1,1)"><path fill="none" stroke="#000000" d="M 561.790482243984 581.8373251423759 L 566 592 L 570.209517756016 581.8373251423759 L 566 570 L 561.790482243984 581.8373251423759" stroke-miterlimit="10"/></g></g></svg>