<svg version="1.1" xmlns="http://www.w3.org/2000/svg" xmlns:xlink="http://www.w3.org/1999/xlink" width="1260" height="892"><defs/><g><g transform="translate(-22,-46) scale(1,1)"><rect fill="#C0C0C0" stroke="none" x="839" y="487" width="67.20000000000005" height="15" opacity="0.2"/></g><g transform="translate(-22,-46) scale(1,1)"><rect fill="#C0C0C0" stroke="none" x="839" y="501" width="168" height="74" opacity="0.2"/></g><g transform="translate(-22,-46) scale(1,1)"><rect fill="#ffffff" stroke="none" x="832" y="495" width="168" height="73"/></g><g transform="translate(-22,-46) scale(1,1)"><path fill="none" stroke="#000000" d="M 832 495 L 1000 495 L 1000 568 L 832 568 L 832 495 Z Z" stroke-miterlimit="10"/></g><g transform="translate(-22,-46) scale(1,1)"><rect fill="#ffffff" stroke="none" x="832" y="480" width="67.20000000000005" height="15"/></g><g transform="translate(-22,-46) scale(1,1)"><path fill="none" stroke="#000000" d="M 832 480 L 899.2 480 L 899.2 495 L 832 495 L 832 480 Z Z" stroke-miterlimit="10"/></g><g transform="translate(-22,-46) scale(1,1)"><rect fill="#ffffff" stroke="none" x="832" y="494" width="168" height="74"/></g><g transform="translate(-22,-46) scale(1,1)"><path fill="none" stroke="#000000" d="M 832 494 L 1000 494 L 1000 568 L 832 568 L 832 494 Z Z" stroke-miterlimit="10"/></g><g transform="translate(-22,-46) scale(1,1)"><g><path fill="none" stroke="none"/><text fill="#000000" stroke="none" font-family="Arial" font-size="13px" font-style="normal" font-weight="bold" text-decoration="none" x="874.08642578125" y="514.5">BusinessLogic</text></g></g><g transform="translate(-22,-46) scale(1,1)"><rect fill="#C0C0C0" stroke="none" x="839" y="359" width="68.66250000000002" height="15" opacity="0.2"/></g><g transform="translate(-22,-46) scale(1,1)"><rect fill="#C0C0C0" stroke="none" x="839" y="373" width="171.65625" height="66" opacity="0.2"/></g><g transform="translate(-22,-46) scale(1,1)"><rect fill="#ffffff" stroke="none" x="832" y="367" width="171.65625" height="65"/></g><g transform="translate(-22,-46) scale(1,1)"><path fill="none" stroke="#000000" d="M 832 367 L 1003.65625 367 L 1003.65625 432 L 832 432 L 832 367 Z Z" stroke-miterlimit="10"/></g><g transform="translate(-22,-46) scale(1,1)"><rect fill="#ffffff" stroke="none" x="832" y="352" width="68.66250000000002" height="15"/></g><g transform="translate(-22,-46) scale(1,1)"><path fill="none" stroke="#000000" d="M 832 352 L 900.6625 352 L 900.6625 367 L 832 367 L 832 352 Z Z" stroke-miterlimit="10"/></g><g transform="translate(-22,-46) scale(1,1)"><rect fill="#ffffff" stroke="none" x="832" y="366" width="171.65625" height="66"/></g><g transform="translate(-22,-46) scale(1,1)"><path fill="none" stroke="#000000" d="M 832 366 L 1003.65625 366 L 1003.65625 432 L 832 432 L 832 366 Z Z" stroke-miterlimit="10"/></g><g transform="translate(-22,-46) scale(1,1)"><g><path fill="none" stroke="none"/><text fill="#000000" stroke="none" font-family="Arial" font-size="13px" font-style="normal" font-weight="bold" text-decoration="none" x="850.622314453125" y="386.5">BusinessLogicInterface</text></g></g><g transform="translate(-22,-46) scale(1,1)"><rect fill="#C0C0C0" stroke="none" x="839" y="727" width="64" height="15" opacity="0.2"/></g><g transform="translate(-22,-46) scale(1,1)"><rect fill="#C0C0C0" stroke="none" x="839" y="741" width="160" height="74" opacity="0.2"/></g><g transform="translate(-22,-46) scale(1,1)"><rect fill="#ffffff" stroke="none" x="832" y="735" width="160" height="73"/></g><g transform="translate(-22,-46) scale(1,1)"><path fill="none" stroke="#000000" d="M 832 735 L 992 735 L 992 808 L 832 808 L 832 735 Z Z" stroke-miterlimit="10"/></g><g transform="translate(-22,-46) scale(1,1)"><rect fill="#ffffff" stroke="none" x="832" y="720" width="64" height="15"/></g><g transform="translate(-22,-46) scale(1,1)"><path fill="none" stroke="#000000" d="M 832 720 L 896 720 L 896 735 L 832 735 L 832 720 Z Z" stroke-miterlimit="10"/></g><g transform="translate(-22,-46) scale(1,1)"><rect fill="#ffffff" stroke="none" x="832" y="734" width="160" height="74"/></g><g transform="translate(-22,-46) scale(1,1)"><path fill="none" stroke="#000000" d="M 832 734 L 992 734 L 992 808 L 832 808 L 832 734 Z Z" stroke-miterlimit="10"/></g><g transform="translate(-22,-46) scale(1,1)"><g><path fill="none" stroke="none"/><text fill="#000000" stroke="none" font-family="Arial" font-size="13px" font-style="normal" font-weight="bold" text-decoration="none" x="877.319580078125" y="754.5">DataAccess</text></g></g><g transform="translate(-22,-46) scale(1,1)"><rect fill="#C0C0C0" stroke="none" x="839" y="839" width="64" height="15" opacity="0.2"/></g><g transform="translate(-22,-46) scale(1,1)"><rect fill="#C0C0C0" stroke="none" x="839" y="853" width="160" height="74" opacity="0.2"/></g><g transform="translate(-22,-46) scale(1,1)"><rect fill="#ffffff" stroke="none" x="832" y="847" width="160" height="73"/></g><g transform="translate(-22,-46) scale(1,1)"><path fill="none" stroke="#000000" d="M 832 847 L 992 847 L 992 920 L 832 920 L 832 847 Z Z" stroke-miterlimit="10"/></g><g transform="translate(-22,-46) scale(1,1)"><rect fill="#ffffff" stroke="none" x="832" y="832" width="64" height="15"/></g><g transform="translate(-22,-46) scale(1,1)"><path fill="none" stroke="#000000" d="M 832 832 L 896 832 L 896 847 L 832 847 L 832 832 Z Z" stroke-miterlimit="10"/></g><g transform="translate(-22,-46) scale(1,1)"><rect fill="#ffffff" stroke="none" x="832" y="846" width="160" height="74"/></g><g transform="translate(-22,-46) scale(1,1)"><path fill="none" stroke="#000000" d="M 832 846 L 992 846 L 992 920 L 832 920 L 832 846 Z Z" stroke-miterlimit="10"/></g><g transform="translate(-22,-46) scale(1,1)"><g><path fill="none" stroke="none"/><text fill="#000000" stroke="none" font-family="Arial" font-size="13px" font-style="normal" font-weight="bold" text-decoration="none" x="882.016845703125" y="866.5">Migrations</text></g></g><g transform="translate(-22,-46) scale(1,1)"><rect fill="#C0C0C0" stroke="none" x="839" y="607" width="64" height="15" opacity="0.2"/></g><g transform="translate(-22,-46) scale(1,1)"><rect fill="#C0C0C0" stroke="none" x="839" y="621" width="160" height="78" opacity="0.2"/></g><g transform="translate(-22,-46) scale(1,1)"><rect fill="#ffffff" stroke="none" x="832" y="615" width="160" height="77"/></g><g transform="translate(-22,-46) scale(1,1)"><path fill="none" stroke="#000000" d="M 832 615 L 992 615 L 992 692 L 832 692 L 832 615 Z Z" stroke-miterlimit="10"/></g><g transform="translate(-22,-46) scale(1,1)"><rect fill="#ffffff" stroke="none" x="832" y="600" width="64" height="15"/></g><g transform="translate(-22,-46) scale(1,1)"><path fill="none" stroke="#000000" d="M 832 600 L 896 600 L 896 615 L 832 615 L 832 600 Z Z" stroke-miterlimit="10"/></g><g transform="translate(-22,-46) scale(1,1)"><rect fill="#ffffff" stroke="none" x="832" y="614" width="160" height="78"/></g><g transform="translate(-22,-46) scale(1,1)"><path fill="none" stroke="#000000" d="M 832 614 L 992 614 L 992 692 L 832 692 L 832 614 Z Z" stroke-miterlimit="10"/></g><g transform="translate(-22,-46) scale(1,1)"><g><path fill="none" stroke="none"/><text fill="#000000" stroke="none" font-family="Arial" font-size="13px" font-style="normal" font-weight="bold" text-decoration="none" x="852.02734375" y="634.5">DataAccessInterface</text></g></g><g transform="translate(-22,-46) scale(1,1)"><rect fill="#C0C0C0" stroke="none" x="247" y="383" width="80" height="15" opacity="0.2"/></g><g transform="translate(-22,-46) scale(1,1)"><rect fill="#C0C0C0" stroke="none" x="247" y="397" width="200" height="85" opacity="0.2"/></g><g transform="translate(-22,-46) scale(1,1)"><rect fill="#ff8282" stroke="none" x="240" y="391" width="200" height="84"/></g><g transform="translate(-22,-46) scale(1,1)"><path fill="none" stroke="#000000" d="M 240 391 L 440 391 L 440 475 L 240 475 L 240 391 Z Z" stroke-miterlimit="10"/></g><g transform="translate(-22,-46) scale(1,1)"><rect fill="#ff8282" stroke="none" x="240" y="376" width="80" height="15"/></g><g transform="translate(-22,-46) scale(1,1)"><path fill="none" stroke="#000000" d="M 240 376 L 320 376 L 320 391 L 240 391 L 240 376 Z Z" stroke-miterlimit="10"/></g><g transform="translate(-22,-46) scale(1,1)"><rect fill="#ff8282" stroke="none" x="240" y="390" width="200" height="85"/></g><g transform="translate(-22,-46) scale(1,1)"><path fill="none" stroke="#000000" d="M 240 390 L 440 390 L 440 475 L 240 475 L 240 390 Z Z" stroke-miterlimit="10"/></g><g transform="translate(-22,-46) scale(1,1)"><g><path fill="none" stroke="none"/><text fill="#000000" stroke="none" font-family="Arial" font-size="13px" font-style="normal" font-weight="bold" text-decoration="none" x="317.602294921875" y="410.5">Domain</text></g></g><g transform="translate(-22,-46) scale(1,1)"><rect fill="#C0C0C0" stroke="none" x="295" y="511" width="63.0498046875" height="15" opacity="0.2"/></g><g transform="translate(-22,-46) scale(1,1)"><rect fill="#C0C0C0" stroke="none" x="295" y="525" width="157.62451171875" height="42" opacity="0.2"/></g><g transform="translate(-22,-46) scale(1,1)"><rect fill="#ffffff" stroke="none" x="288" y="519" width="157.62451171875" height="41"/></g><g transform="translate(-22,-46) scale(1,1)"><path fill="none" stroke="#000000" d="M 288 519 L 445.62451171875 519 L 445.62451171875 560 L 288 560 L 288 519 Z Z" stroke-miterlimit="10"/></g><g transform="translate(-22,-46) scale(1,1)"><rect fill="#ffffff" stroke="none" x="288" y="504" width="63.0498046875" height="15"/></g><g transform="translate(-22,-46) scale(1,1)"><path fill="none" stroke="#000000" d="M 288 504 L 351.0498046875 504 L 351.0498046875 519 L 288 519 L 288 504 Z Z" stroke-miterlimit="10"/></g><g transform="translate(-22,-46) scale(1,1)"><rect fill="#ffffff" stroke="none" x="288" y="518" width="157.62451171875" height="42"/></g><g transform="translate(-22,-46) scale(1,1)"><path fill="none" stroke="#000000" d="M 288 518 L 445.62451171875 518 L 445.62451171875 560 L 288 560 L 288 518 Z Z" stroke-miterlimit="10"/></g><g transform="translate(-22,-46) scale(1,1)"><g><path fill="none" stroke="none"/><text fill="#000000" stroke="none" font-family="Arial" font-size="13px" font-style="normal" font-weight="bold" text-decoration="none" x="323.46728515625" y="538.5">DomainUtilities</text></g></g><g transform="translate(-22,-46) scale(1,1)"><rect fill="#C0C0C0" stroke="none" x="295" y="599" width="63.4970703125" height="15" opacity="0.2"/></g><g transform="translate(-22,-46) scale(1,1)"><rect fill="#C0C0C0" stroke="none" x="295" y="613" width="158.74267578125" height="50" opacity="0.2"/></g><g transform="translate(-22,-46) scale(1,1)"><rect fill="#ffffff" stroke="none" x="288" y="607" width="158.74267578125" height="49"/></g><g transform="translate(-22,-46) scale(1,1)"><path fill="none" stroke="#000000" d="M 288 607 L 446.74267578125 607 L 446.74267578125 656 L 288 656 L 288 607 Z Z" stroke-miterlimit="10"/></g><g transform="translate(-22,-46) scale(1,1)"><rect fill="#ffffff" stroke="none" x="288" y="592" width="63.4970703125" height="15"/></g><g transform="translate(-22,-46) scale(1,1)"><path fill="none" stroke="#000000" d="M 288 592 L 351.4970703125 592 L 351.4970703125 607 L 288 607 L 288 592 Z Z" stroke-miterlimit="10"/></g><g transform="translate(-22,-46) scale(1,1)"><rect fill="#ffffff" stroke="none" x="288" y="606" width="158.74267578125" height="50"/></g><g transform="translate(-22,-46) scale(1,1)"><path fill="none" stroke="#000000" d="M 288 606 L 446.74267578125 606 L 446.74267578125 656 L 288 656 L 288 606 Z Z" stroke-miterlimit="10"/></g><g transform="translate(-22,-46) scale(1,1)"><g><path fill="none" stroke="none"/><text fill="#000000" stroke="none" font-family="Arial" font-size="13px" font-style="normal" font-weight="bold" text-decoration="none" x="313.181396484375" y="626.5">CustomExceptions</text></g></g><g transform="translate(-22,-46) scale(1,1)"><rect fill="#C0C0C0" stroke="none" x="1127" y="383" width="60.799999999999955" height="15" opacity="0.2"/></g><g transform="translate(-22,-46) scale(1,1)"><rect fill="#C0C0C0" stroke="none" x="1127" y="397" width="152" height="90" opacity="0.2"/></g><g transform="translate(-22,-46) scale(1,1)"><rect fill="#ffffff" stroke="none" x="1120" y="391" width="152" height="89"/></g><g transform="translate(-22,-46) scale(1,1)"><path fill="none" stroke="#000000" d="M 1120 391 L 1272 391 L 1272 480 L 1120 480 L 1120 391 Z Z" stroke-miterlimit="10"/></g><g transform="translate(-22,-46) scale(1,1)"><rect fill="#ffffff" stroke="none" x="1120" y="376" width="60.799999999999955" height="15"/></g><g transform="translate(-22,-46) scale(1,1)"><path fill="none" stroke="#000000" d="M 1120 376 L 1180.8 376 L 1180.8 391 L 1120 391 L 1120 376 Z Z" stroke-miterlimit="10"/></g><g transform="translate(-22,-46) scale(1,1)"><rect fill="#ffffff" stroke="none" x="1120" y="390" width="152" height="90"/></g><g transform="translate(-22,-46) scale(1,1)"><path fill="none" stroke="#000000" d="M 1120 390 L 1272 390 L 1272 480 L 1120 480 L 1120 390 Z Z" stroke-miterlimit="10"/></g><g transform="translate(-22,-46) scale(1,1)"><g><path fill="none" stroke="none"/><text fill="#000000" stroke="none" font-family="Arial" font-size="13px" font-style="normal" font-weight="bold" text-decoration="none" x="1174.3291015625" y="410.5">Factory</text></g></g><g transform="translate(-22,-46) scale(1,1)"><rect fill="#C0C0C0" stroke="none" x="1127" y="623" width="60.799999999999955" height="15" opacity="0.2"/></g><g transform="translate(-22,-46) scale(1,1)"><rect fill="#C0C0C0" stroke="none" x="1127" y="637" width="152" height="98" opacity="0.2"/></g><g transform="translate(-22,-46) scale(1,1)"><rect fill="#ffffff" stroke="none" x="1120" y="631" width="152" height="97"/></g><g transform="translate(-22,-46) scale(1,1)"><path fill="none" stroke="#000000" d="M 1120 631 L 1272 631 L 1272 728 L 1120 728 L 1120 631 Z Z" stroke-miterlimit="10"/></g><g transform="translate(-22,-46) scale(1,1)"><rect fill="#ffffff" stroke="none" x="1120" y="616" width="60.799999999999955" height="15"/></g><g transform="translate(-22,-46) scale(1,1)"><path fill="none" stroke="#000000" d="M 1120 616 L 1180.8 616 L 1180.8 631 L 1120 631 L 1120 616 Z Z" stroke-miterlimit="10"/></g><g transform="translate(-22,-46) scale(1,1)"><rect fill="#ffffff" stroke="none" x="1120" y="630" width="152" height="98"/></g><g transform="translate(-22,-46) scale(1,1)"><path fill="none" stroke="#000000" d="M 1120 630 L 1272 630 L 1272 728 L 1120 728 L 1120 630 Z Z" stroke-miterlimit="10"/></g><g transform="translate(-22,-46) scale(1,1)"><g><path fill="none" stroke="none"/><text fill="#000000" stroke="none" font-family="Arial" font-size="13px" font-style="normal" font-weight="bold" text-decoration="none" x="1169.27001953125" y="650.5">Factories</text></g></g><g transform="translate(-22,-46) scale(1,1)"><rect fill="#C0C0C0" stroke="none" x="239" y="215" width="80" height="15" opacity="0.2"/></g><g transform="translate(-22,-46) scale(1,1)"><rect fill="#C0C0C0" stroke="none" x="239" y="229" width="200" height="85" opacity="0.2"/></g><g transform="translate(-22,-46) scale(1,1)"><rect fill="#ffffff" stroke="none" x="232" y="223" width="200" height="84"/></g><g transform="translate(-22,-46) scale(1,1)"><path fill="none" stroke="#000000" d="M 232 223 L 432 223 L 432 307 L 232 307 L 232 223 Z Z" stroke-miterlimit="10"/></g><g transform="translate(-22,-46) scale(1,1)"><rect fill="#ffffff" stroke="none" x="232" y="208" width="80" height="15"/></g><g transform="translate(-22,-46) scale(1,1)"><path fill="none" stroke="#000000" d="M 232 208 L 312 208 L 312 223 L 232 223 L 232 208 Z Z" stroke-miterlimit="10"/></g><g transform="translate(-22,-46) scale(1,1)"><rect fill="#ffffff" stroke="none" x="232" y="222" width="200" height="85"/></g><g transform="translate(-22,-46) scale(1,1)"><path fill="none" stroke="#000000" d="M 232 222 L 432 222 L 432 307 L 232 307 L 232 222 Z Z" stroke-miterlimit="10"/></g><g transform="translate(-22,-46) scale(1,1)"><g><path fill="none" stroke="none"/><text fill="#000000" stroke="none" font-family="Arial" font-size="13px" font-style="normal" font-weight="bold" text-decoration="none" x="298.763671875" y="242.5">FileHandler</text></g></g><g transform="translate(-22,-46) scale(1,1)"><rect fill="#C0C0C0" stroke="none" x="255" y="71" width="70.39999999999998" height="15" opacity="0.2"/></g><g transform="translate(-22,-46) scale(1,1)"><rect fill="#C0C0C0" stroke="none" x="255" y="85" width="176" height="85" opacity="0.2"/></g><g transform="translate(-22,-46) scale(1,1)"><rect fill="#ffffff" stroke="none" x="248" y="79" width="176" height="84"/></g><g transform="translate(-22,-46) scale(1,1)"><path fill="none" stroke="#000000" d="M 248 79 L 424 79 L 424 163 L 248 163 L 248 79 Z Z" stroke-miterlimit="10"/></g><g transform="translate(-22,-46) scale(1,1)"><rect fill="#ffffff" stroke="none" x="248" y="64" width="70.39999999999998" height="15"/></g><g transform="translate(-22,-46) scale(1,1)"><path fill="none" stroke="#000000" d="M 248 64 L 318.4 64 L 318.4 79 L 248 79 L 248 64 Z Z" stroke-miterlimit="10"/></g><g transform="translate(-22,-46) scale(1,1)"><rect fill="#ffffff" stroke="none" x="248" y="78" width="176" height="85"/></g><g transform="translate(-22,-46) scale(1,1)"><path fill="none" stroke="#000000" d="M 248 78 L 424 78 L 424 163 L 248 163 L 248 78 Z Z" stroke-miterlimit="10"/></g><g transform="translate(-22,-46) scale(1,1)"><g><path fill="none" stroke="none"/><text fill="#000000" stroke="none" font-family="Arial" font-size="13px" font-style="normal" font-weight="bold" text-decoration="none" x="281.0927734375" y="98.5">FileHandlerFactory</text></g></g><g transform="translate(-22,-46) scale(1,1)"><rect fill="#C0C0C0" stroke="none" x="255" y="703" width="89.18144531249999" height="15" opacity="0.2"/></g><g transform="translate(-22,-46) scale(1,1)"><rect fill="#C0C0C0" stroke="none" x="255" y="717" width="222.95361328125" height="93" opacity="0.2"/></g><g transform="translate(-22,-46) scale(1,1)"><rect fill="#6dceff" stroke="none" x="248" y="711" width="222.95361328125" height="92"/></g><g transform="translate(-22,-46) scale(1,1)"><path fill="none" stroke="#000000" d="M 248 711 L 470.95361328125 711 L 470.95361328125 803 L 248 803 L 248 711 Z Z" stroke-miterlimit="10"/></g><g transform="translate(-22,-46) scale(1,1)"><rect fill="#6dceff" stroke="none" x="248" y="696" width="89.18144531249999" height="15"/></g><g transform="translate(-22,-46) scale(1,1)"><path fill="none" stroke="#000000" d="M 248 696 L 337.1814453125 696 L 337.1814453125 711 L 248 711 L 248 696 Z Z" stroke-miterlimit="10"/></g><g transform="translate(-22,-46) scale(1,1)"><rect fill="#6dceff" stroke="none" x="248" y="710" width="222.95361328125" height="93"/></g><g transform="translate(-22,-46) scale(1,1)"><path fill="none" stroke="#000000" d="M 248 710 L 470.95361328125 710 L 470.95361328125 803 L 248 803 L 248 710 Z Z" stroke-miterlimit="10"/></g><g transform="translate(-22,-46) scale(1,1)"><g><path fill="none" stroke="none"/><text fill="#000000" stroke="none" font-family="Arial" font-size="13px" font-style="normal" font-weight="bold" text-decoration="none" x="338.529541015625" y="730.5">Utilities</text></g></g><g transform="translate(-22,-46) scale(1,1)"><rect fill="#C0C0C0" stroke="none" x="39" y="847" width="79.620947265625" height="15" opacity="0.2"/></g><g transform="translate(-22,-46) scale(1,1)"><rect fill="#C0C0C0" stroke="none" x="39" y="861" width="199.0523681640625" height="72" opacity="0.2"/></g><g transform="translate(-22,-46) scale(1,1)"><rect fill="#ffffff" stroke="none" x="32" y="855" width="199.0523681640625" height="71"/></g><g transform="translate(-22,-46) scale(1,1)"><path fill="none" stroke="#000000" d="M 32 855 L 231.0523681640625 855 L 231.0523681640625 926 L 32 926 L 32 855 Z Z" stroke-miterlimit="10"/></g><g transform="translate(-22,-46) scale(1,1)"><rect fill="#ffffff" stroke="none" x="32" y="840" width="79.620947265625" height="15"/></g><g transform="translate(-22,-46) scale(1,1)"><path fill="none" stroke="#000000" d="M 32 840 L 111.620947265625 840 L 111.620947265625 855 L 32 855 L 32 840 Z Z" stroke-miterlimit="10"/></g><g transform="translate(-22,-46) scale(1,1)"><rect fill="#ffffff" stroke="none" x="32" y="854" width="199.0523681640625" height="72"/></g><g transform="translate(-22,-46) scale(1,1)"><path fill="none" stroke="#000000" d="M 32 854 L 231.0523681640625 854 L 231.0523681640625 926 L 32 926 L 32 854 Z Z" stroke-miterlimit="10"/></g><g transform="translate(-22,-46) scale(1,1)"><g><path fill="none" stroke="none"/><text fill="#000000" stroke="none" font-family="Arial" font-size="13px" font-style="normal" font-weight="bold" text-decoration="none" x="90.32989501953125" y="874.5">Authentication</text></g></g><g transform="translate(-22,-46) scale(1,1)"><rect fill="#C0C0C0" stroke="none" x="263" y="841" width="65.47836914062498" height="15" opacity="0.2"/></g><g transform="translate(-22,-46) scale(1,1)"><rect fill="#C0C0C0" stroke="none" x="263" y="855" width="163.6959228515625" height="80" opacity="0.2"/></g><g transform="translate(-22,-46) scale(1,1)"><rect fill="#ffffff" stroke="none" x="256" y="849" width="163.6959228515625" height="79"/></g><g transform="translate(-22,-46) scale(1,1)"><path fill="none" stroke="#000000" d="M 256 849 L 419.6959228515625 849 L 419.6959228515625 928 L 256 928 L 256 849 Z Z" stroke-miterlimit="10"/></g><g transform="translate(-22,-46) scale(1,1)"><rect fill="#ffffff" stroke="none" x="256" y="834" width="65.47836914062498" height="15"/></g><g transform="translate(-22,-46) scale(1,1)"><path fill="none" stroke="#000000" d="M 256 834 L 321.478369140625 834 L 321.478369140625 849 L 256 849 L 256 834 Z Z" stroke-miterlimit="10"/></g><g transform="translate(-22,-46) scale(1,1)"><rect fill="#ffffff" stroke="none" x="256" y="848" width="163.6959228515625" height="80"/></g><g transform="translate(-22,-46) scale(1,1)"><path fill="none" stroke="#000000" d="M 256 848 L 419.6959228515625 848 L 419.6959228515625 928 L 256 928 L 256 848 Z Z" stroke-miterlimit="10"/></g><g transform="translate(-22,-46) scale(1,1)"><g><path fill="none" stroke="none"/><text fill="#000000" stroke="none" font-family="Arial" font-size="13px" font-style="normal" font-weight="bold" text-decoration="none" x="305.70025634765625" y="868.5">Comparers</text></g></g><g transform="translate(-22,-46) scale(1,1)"><rect fill="#C0C0C0" stroke="none" x="439" y="841" width="54.39999999999998" height="15" opacity="0.2"/></g><g transform="translate(-22,-46) scale(1,1)"><rect fill="#C0C0C0" stroke="none" x="439" y="855" width="136" height="80" opacity="0.2"/></g><g transform="translate(-22,-46) scale(1,1)"><rect fill="#ffffff" stroke="none" x="432" y="849" width="136" height="79"/></g><g transform="translate(-22,-46) scale(1,1)"><path fill="none" stroke="#000000" d="M 432 849 L 568 849 L 568 928 L 432 928 L 432 849 Z Z" stroke-miterlimit="10"/></g><g transform="translate(-22,-46) scale(1,1)"><rect fill="#ffffff" stroke="none" x="432" y="834" width="54.39999999999998" height="15"/></g><g transform="translate(-22,-46) scale(1,1)"><path fill="none" stroke="#000000" d="M 432 834 L 486.4 834 L 486.4 849 L 432 849 L 432 834 Z Z" stroke-miterlimit="10"/></g><g transform="translate(-22,-46) scale(1,1)"><rect fill="#ffffff" stroke="none" x="432" y="848" width="136" height="80"/></g><g transform="translate(-22,-46) scale(1,1)"><path fill="none" stroke="#000000" d="M 432 848 L 568 848 L 568 928 L 432 928 L 432 848 Z Z" stroke-miterlimit="10"/></g><g transform="translate(-22,-46) scale(1,1)"><g><path fill="none" stroke="none"/><text fill="#000000" stroke="none" font-family="Arial" font-size="13px" font-style="normal" font-weight="bold" text-decoration="none" x="475.802734375" y="868.5">Criterias</text></g></g><g transform="translate(-22,-46) scale(1,1)"><rect fill="#C0C0C0" stroke="none" x="591" y="847" width="60.799999999999955" height="15" opacity="0.2"/></g><g transform="translate(-22,-46) scale(1,1)"><rect fill="#C0C0C0" stroke="none" x="591" y="861" width="152" height="74" opacity="0.2"/></g><g transform="translate(-22,-46) scale(1,1)"><rect fill="#ffffff" stroke="none" x="584" y="855" width="152" height="73"/></g><g transform="translate(-22,-46) scale(1,1)"><path fill="none" stroke="#000000" d="M 584 855 L 736 855 L 736 928 L 584 928 L 584 855 Z Z" stroke-miterlimit="10"/></g><g transform="translate(-22,-46) scale(1,1)"><rect fill="#ffffff" stroke="none" x="584" y="840" width="60.799999999999955" height="15"/></g><g transform="translate(-22,-46) scale(1,1)"><path fill="none" stroke="#000000" d="M 584 840 L 644.8 840 L 644.8 855 L 584 855 L 584 840 Z Z" stroke-miterlimit="10"/></g><g transform="translate(-22,-46) scale(1,1)"><rect fill="#ffffff" stroke="none" x="584" y="854" width="152" height="74"/></g><g transform="translate(-22,-46) scale(1,1)"><path fill="none" stroke="#000000" d="M 584 854 L 736 854 L 736 928 L 584 928 L 584 854 Z Z" stroke-miterlimit="10"/></g><g transform="translate(-22,-46) scale(1,1)"><g><path fill="none" stroke="none"/><text fill="#000000" stroke="none" font-family="Arial" font-size="13px" font-style="normal" font-weight="bold" text-decoration="none" x="605.81005859375" y="874.5">CustomExceptions</text></g></g><g transform="translate(-22,-46) scale(1,1)"><rect fill="#C0C0C0" stroke="none" x="831" y="191" width="80" height="15" opacity="0.2"/></g><g transform="translate(-22,-46) scale(1,1)"><rect fill="#C0C0C0" stroke="none" x="831" y="205" width="200" height="90" opacity="0.2"/></g><g transform="translate(-22,-46) scale(1,1)"><rect fill="#ffffff" stroke="none" x="824" y="199" width="200" height="89"/></g><g transform="translate(-22,-46) scale(1,1)"><path fill="none" stroke="#000000" d="M 824 199 L 1024 199 L 1024 288 L 824 288 L 824 199 Z Z" stroke-miterlimit="10"/></g><g transform="translate(-22,-46) scale(1,1)"><rect fill="#ffffff" stroke="none" x="824" y="184" width="80" height="15"/></g><g transform="translate(-22,-46) scale(1,1)"><path fill="none" stroke="#000000" d="M 824 184 L 904 184 L 904 199 L 824 199 L 824 184 Z Z" stroke-miterlimit="10"/></g><g transform="translate(-22,-46) scale(1,1)"><rect fill="#ffffff" stroke="none" x="824" y="198" width="200" height="90"/></g><g transform="translate(-22,-46) scale(1,1)"><path fill="none" stroke="#000000" d="M 824 198 L 1024 198 L 1024 288 L 824 288 L 824 198 Z Z" stroke-miterlimit="10"/></g><g transform="translate(-22,-46) scale(1,1)"><g><path fill="none" stroke="none"/><text fill="#000000" stroke="none" font-family="Arial" font-size="13px" font-style="normal" font-weight="bold" text-decoration="none" x="901.35791015625" y="218.5">WebApi</text></g></g><g transform="translate(-22,-46) scale(1,1)"><rect fill="#C0C0C0" stroke="none" x="695" y="79" width="41.60000000000002" height="15" opacity="0.2"/></g><g transform="translate(-22,-46) scale(1,1)"><rect fill="#C0C0C0" stroke="none" x="695" y="93" width="104" height="82" opacity="0.2"/></g><g transform="translate(-22,-46) scale(1,1)"><rect fill="#ffffff" stroke="none" x="688" y="87" width="104" height="81"/></g><g transform="translate(-22,-46) scale(1,1)"><path fill="none" stroke="#000000" d="M 688 87 L 792 87 L 792 168 L 688 168 L 688 87 Z Z" stroke-miterlimit="10"/></g><g transform="translate(-22,-46) scale(1,1)"><rect fill="#ffffff" stroke="none" x="688" y="72" width="41.60000000000002" height="15"/></g><g transform="translate(-22,-46) scale(1,1)"><path fill="none" stroke="#000000" d="M 688 72 L 729.6 72 L 729.6 87 L 688 87 L 688 72 Z Z" stroke-miterlimit="10"/></g><g transform="translate(-22,-46) scale(1,1)"><rect fill="#ffffff" stroke="none" x="688" y="86" width="104" height="82"/></g><g transform="translate(-22,-46) scale(1,1)"><path fill="none" stroke="#000000" d="M 688 86 L 792 86 L 792 168 L 688 168 L 688 86 Z Z" stroke-miterlimit="10"/></g><g transform="translate(-22,-46) scale(1,1)"><g><path fill="none" stroke="none"/><text fill="#000000" stroke="none" font-family="Arial" font-size="13px" font-style="normal" font-weight="bold" text-decoration="none" x="708.57275390625" y="106.5">Controllers</text></g></g><g transform="translate(-22,-46) scale(1,1)"><rect fill="#C0C0C0" stroke="none" x="855" y="71" width="54.39999999999998" height="15" opacity="0.2"/></g><g transform="translate(-22,-46) scale(1,1)"><rect fill="#C0C0C0" stroke="none" x="855" y="85" width="136" height="82" opacity="0.2"/></g><g transform="translate(-22,-46) scale(1,1)"><rect fill="#ffffff" stroke="none" x="848" y="79" width="136" height="81"/></g><g transform="translate(-22,-46) scale(1,1)"><path fill="none" stroke="#000000" d="M 848 79 L 984 79 L 984 160 L 848 160 L 848 79 Z Z" stroke-miterlimit="10"/></g><g transform="translate(-22,-46) scale(1,1)"><rect fill="#ffffff" stroke="none" x="848" y="64" width="54.39999999999998" height="15"/></g><g transform="translate(-22,-46) scale(1,1)"><path fill="none" stroke="#000000" d="M 848 64 L 902.4 64 L 902.4 79 L 848 79 L 848 64 Z Z" stroke-miterlimit="10"/></g><g transform="translate(-22,-46) scale(1,1)"><rect fill="#ffffff" stroke="none" x="848" y="78" width="136" height="82"/></g><g transform="translate(-22,-46) scale(1,1)"><path fill="none" stroke="#000000" d="M 848 78 L 984 78 L 984 160 L 848 160 L 848 78 Z Z" stroke-miterlimit="10"/></g><g transform="translate(-22,-46) scale(1,1)"><g><path fill="none" stroke="none"/><text fill="#000000" stroke="none" font-family="Arial" font-size="13px" font-style="normal" font-weight="bold" text-decoration="none" x="898.305908203125" y="98.5">Filters</text></g></g><g transform="translate(-22,-46) scale(1,1)"><rect fill="#C0C0C0" stroke="none" x="1047" y="79" width="54.40000000000009" height="15" opacity="0.2"/></g><g transform="translate(-22,-46) scale(1,1)"><rect fill="#C0C0C0" stroke="none" x="1047" y="93" width="136" height="74" opacity="0.2"/></g><g transform="translate(-22,-46) scale(1,1)"><rect fill="#ffffff" stroke="none" x="1040" y="87" width="136" height="73"/></g><g transform="translate(-22,-46) scale(1,1)"><path fill="none" stroke="#000000" d="M 1040 87 L 1176 87 L 1176 160 L 1040 160 L 1040 87 Z Z" stroke-miterlimit="10"/></g><g transform="translate(-22,-46) scale(1,1)"><rect fill="#ffffff" stroke="none" x="1040" y="72" width="54.40000000000009" height="15"/></g><g transform="translate(-22,-46) scale(1,1)"><path fill="none" stroke="#000000" d="M 1040 72 L 1094.4 72 L 1094.4 87 L 1040 87 L 1040 72 Z Z" stroke-miterlimit="10"/></g><g transform="translate(-22,-46) scale(1,1)"><rect fill="#ffffff" stroke="none" x="1040" y="86" width="136" height="74"/></g><g transform="translate(-22,-46) scale(1,1)"><path fill="none" stroke="#000000" d="M 1040 86 L 1176 86 L 1176 160 L 1040 160 L 1040 86 Z Z" stroke-miterlimit="10"/></g><g transform="translate(-22,-46) scale(1,1)"><g><path fill="none" stroke="none"/><text fill="#000000" stroke="none" font-family="Arial" font-size="13px" font-style="normal" font-weight="bold" text-decoration="none" x="1087.04638671875" y="106.5">Models</text></g></g><g transform="translate(-22,-46) scale(1,1)"><path fill="none" stroke="#000000" d="M 912 832 L 912 808" stroke-miterlimit="10"/></g><g transform="translate(-22,-46) scale(1,1)"><path fill="#FFFFFF" stroke="none" d="M 905 815 C 905 811.1340064 908.1340064 808 912 808 C 915.8659936 808 919 811.1340064 919 815 C 919 818.8659936 915.8659936 822 912 822 C 908.1340064 822 905 818.8659936 905 815 Z"/></g><g transform="translate(-22,-46) scale(1,1)"><path fill="none" stroke="#000000" d="M 905 815 C 905 811.1340064 908.1340064 808 912 808 C 915.8659936 808 919 811.1340064 919 815 C 919 818.8659936 915.8659936 822 912 822 C 908.1340064 822 905 818.8659936 905 815 Z" stroke-miterlimit="10"/></g><g transform="translate(-22,-46) scale(1,1)"><path fill="none" stroke="#000000" d="M 912 822 L 912 808" stroke-miterlimit="10"/></g><g transform="translate(-22,-46) scale(1,1)"><path fill="none" stroke="#000000" d="M 919 815 L 905 815" stroke-miterlimit="10"/></g><g transform="translate(-22,-46) scale(1,1)"><path fill="none" stroke="#000000" d="M 392 504 L 392 475" stroke-miterlimit="10"/></g><g transform="translate(-22,-46) scale(1,1)"><path fill="#FFFFFF" stroke="none" d="M 385 482 C 385 478.1340064 388.1340064 475 392 475 C 395.8659936 475 399 478.1340064 399 482 C 399 485.8659936 395.8659936 489 392 489 C 388.1340064 489 385 485.8659936 385 482 Z"/></g><g transform="translate(-22,-46) scale(1,1)"><path fill="none" stroke="#000000" d="M 385 482 C 385 478.1340064 388.1340064 475 392 475 C 395.8659936 475 399 478.1340064 399 482 C 399 485.8659936 395.8659936 489 392 489 C 388.1340064 489 385 485.8659936 385 482 Z" stroke-miterlimit="10"/></g><g transform="translate(-22,-46) scale(1,1)"><path fill="none" stroke="#000000" d="M 392 489 L 392 475" stroke-miterlimit="10"/></g><g transform="translate(-22,-46) scale(1,1)"><path fill="none" stroke="#000000" d="M 399 482 L 385 482" stroke-miterlimit="10"/></g><g transform="translate(-22,-46) scale(1,1)"><path fill="none" stroke="#000000" d="M 384 592 L 384 569 L 386 569 L 386 560" stroke-miterlimit="10"/></g><g transform="translate(-22,-46) scale(1,1)"><path fill="#FFFFFF" stroke="none" d="M 379 567 C 379 563.1340064 382.1340064 560 386 560 C 389.8659936 560 393 563.1340064 393 567 C 393 570.8659936 389.8659936 574 386 574 C 382.1340064 574 379 570.8659936 379 567 Z"/></g><g transform="translate(-22,-46) scale(1,1)"><path fill="none" stroke="#000000" d="M 379 567 C 379 563.1340064 382.1340064 560 386 560 C 389.8659936 560 393 563.1340064 393 567 C 393 570.8659936 389.8659936 574 386 574 C 382.1340064 574 379 570.8659936 379 567 Z" stroke-miterlimit="10"/></g><g transform="translate(-22,-46) scale(1,1)"><path fill="none" stroke="#000000" d="M 386 574 L 386 560" stroke-miterlimit="10"/></g><g transform="translate(-22,-46) scale(1,1)"><path fill="none" stroke="#000000" d="M 393 567 L 379 567" stroke-miterlimit="10"/></g><g transform="translate(-22,-46) scale(1,1)"><path fill="none" stroke="#000000" d="M 1200 616 L 1200 480" stroke-miterlimit="10"/></g><g transform="translate(-22,-46) scale(1,1)"><path fill="#FFFFFF" stroke="none" d="M 1193 487 C 1193 483.1340064 1196.1340064 480 1200 480 C 1203.8659936 480 1207 483.1340064 1207 487 C 1207 490.8659936 1203.8659936 494 1200 494 C 1196.1340064 494 1193 490.8659936 1193 487 Z"/></g><g transform="translate(-22,-46) scale(1,1)"><path fill="none" stroke="#000000" d="M 1193 487 C 1193 483.1340064 1196.1340064 480 1200 480 C 1203.8659936 480 1207 483.1340064 1207 487 C 1207 490.8659936 1203.8659936 494 1200 494 C 1196.1340064 494 1193 490.8659936 1193 487 Z" stroke-miterlimit="10"/></g><g transform="translate(-22,-46) scale(1,1)"><path fill="none" stroke="#000000" d="M 1200 494 L 1200 480" stroke-miterlimit="10"/></g><g transform="translate(-22,-46) scale(1,1)"><path fill="none" stroke="#000000" d="M 1207 487 L 1193 487" stroke-miterlimit="10"/></g><g transform="translate(-22,-46) scale(1,1)"><path fill="none" stroke="#000000" d="M 160 840 L 160 768 L 248 768" stroke-miterlimit="10"/></g><g transform="translate(-22,-46) scale(1,1)"><path fill="#FFFFFF" stroke="none" d="M 234 768 C 234 764.1340064 237.1340064 761 241 761 C 244.8659936 761 248 764.1340064 248 768 C 248 771.8659936 244.8659936 775 241 775 C 237.1340064 775 234 771.8659936 234 768 Z"/></g><g transform="translate(-22,-46) scale(1,1)"><path fill="none" stroke="#000000" d="M 234 768 C 234 764.1340064 237.1340064 761 241 761 C 244.8659936 761 248 764.1340064 248 768 C 248 771.8659936 244.8659936 775 241 775 C 237.1340064 775 234 771.8659936 234 768 Z" stroke-miterlimit="10"/></g><g transform="translate(-22,-46) scale(1,1)"><path fill="none" stroke="#000000" d="M 234 768 L 248 768" stroke-miterlimit="10"/></g><g transform="translate(-22,-46) scale(1,1)"><path fill="none" stroke="#000000" d="M 241 775 L 241 761" stroke-miterlimit="10"/></g><g transform="translate(-22,-46) scale(1,1)"><path fill="none" stroke="#000000" d="M 376 834 L 376 803" stroke-miterlimit="10"/></g><g transform="translate(-22,-46) scale(1,1)"><path fill="#FFFFFF" stroke="none" d="M 369 810 C 369 806.1340064 372.1340064 803 376 803 C 379.8659936 803 383 806.1340064 383 810 C 383 813.8659936 379.8659936 817 376 817 C 372.1340064 817 369 813.8659936 369 810 Z"/></g><g transform="translate(-22,-46) scale(1,1)"><path fill="none" stroke="#000000" d="M 369 810 C 369 806.1340064 372.1340064 803 376 803 C 379.8659936 803 383 806.1340064 383 810 C 383 813.8659936 379.8659936 817 376 817 C 372.1340064 817 369 813.8659936 369 810 Z" stroke-miterlimit="10"/></g><g transform="translate(-22,-46) scale(1,1)"><path fill="none" stroke="#000000" d="M 376 817 L 376 803" stroke-miterlimit="10"/></g><g transform="translate(-22,-46) scale(1,1)"><path fill="none" stroke="#000000" d="M 383 810 L 369 810" stroke-miterlimit="10"/></g><g transform="translate(-22,-46) scale(1,1)"><path fill="none" stroke="#000000" d="M 456 834 L 456 819 L 458 819 L 458 803" stroke-miterlimit="10"/></g><g transform="translate(-22,-46) scale(1,1)"><path fill="#FFFFFF" stroke="none" d="M 451 810 C 451 806.1340064 454.1340064 803 458 803 C 461.8659936 803 465 806.1340064 465 810 C 465 813.8659936 461.8659936 817 458 817 C 454.1340064 817 451 813.8659936 451 810 Z"/></g><g transform="translate(-22,-46) scale(1,1)"><path fill="none" stroke="#000000" d="M 451 810 C 451 806.1340064 454.1340064 803 458 803 C 461.8659936 803 465 806.1340064 465 810 C 465 813.8659936 461.8659936 817 458 817 C 454.1340064 817 451 813.8659936 451 810 Z" stroke-miterlimit="10"/></g><g transform="translate(-22,-46) scale(1,1)"><path fill="none" stroke="#000000" d="M 458 817 L 458 803" stroke-miterlimit="10"/></g><g transform="translate(-22,-46) scale(1,1)"><path fill="none" stroke="#000000" d="M 465 810 L 451 810" stroke-miterlimit="10"/></g><g transform="translate(-22,-46) scale(1,1)"><path fill="none" stroke="#000000" d="M 594 840 L 594 784 L 471 784" stroke-miterlimit="10"/></g><g transform="translate(-22,-46) scale(1,1)"><path fill="#FFFFFF" stroke="none" d="M 471 784 C 471 780.1340064 474.1340064 777 478 777 C 481.8659936 777 485 780.1340064 485 784 C 485 787.8659936 481.8659936 791 478 791 C 474.1340064 791 471 787.8659936 471 784 Z"/></g><g transform="translate(-22,-46) scale(1,1)"><path fill="none" stroke="#000000" d="M 471 784 C 471 780.1340064 474.1340064 777 478 777 C 481.8659936 777 485 780.1340064 485 784 C 485 787.8659936 481.8659936 791 478 791 C 474.1340064 791 471 787.8659936 471 784 Z" stroke-miterlimit="10"/></g><g transform="translate(-22,-46) scale(1,1)"><path fill="none" stroke="#000000" d="M 485 784 L 471 784" stroke-miterlimit="10"/></g><g transform="translate(-22,-46) scale(1,1)"><path fill="none" stroke="#000000" d="M 478 777 L 478 791" stroke-miterlimit="10"/></g><g transform="translate(-22,-46) scale(1,1)"><path fill="none" stroke="#000000" d="M 727 168 L 727 232 L 824 232" stroke-miterlimit="10"/></g><g transform="translate(-22,-46) scale(1,1)"><path fill="#FFFFFF" stroke="none" d="M 810 232 C 810 228.1340064 813.1340064 225 817 225 C 820.8659936 225 824 228.1340064 824 232 C 824 235.8659936 820.8659936 239 817 239 C 813.1340064 239 810 235.8659936 810 232 Z"/></g><g transform="translate(-22,-46) scale(1,1)"><path fill="none" stroke="#000000" d="M 810 232 C 810 228.1340064 813.1340064 225 817 225 C 820.8659936 225 824 228.1340064 824 232 C 824 235.8659936 820.8659936 239 817 239 C 813.1340064 239 810 235.8659936 810 232 Z" stroke-miterlimit="10"/></g><g transform="translate(-22,-46) scale(1,1)"><path fill="none" stroke="#000000" d="M 810 232 L 824 232" stroke-miterlimit="10"/></g><g transform="translate(-22,-46) scale(1,1)"><path fill="none" stroke="#000000" d="M 817 239 L 817 225" stroke-miterlimit="10"/></g><g transform="translate(-22,-46) scale(1,1)"><path fill="none" stroke="#000000" d="M 944 160 L 944 184" stroke-miterlimit="10"/></g><g transform="translate(-22,-46) scale(1,1)"><path fill="#FFFFFF" stroke="none" d="M 937 177 C 937 173.1340064 940.1340064 170 944 170 C 947.8659936 170 951 173.1340064 951 177 C 951 180.8659936 947.8659936 184 944 184 C 940.1340064 184 937 180.8659936 937 177 Z"/></g><g transform="translate(-22,-46) scale(1,1)"><path fill="none" stroke="#000000" d="M 937 177 C 937 173.1340064 940.1340064 170 944 170 C 947.8659936 170 951 173.1340064 951 177 C 951 180.8659936 947.8659936 184 944 184 C 940.1340064 184 937 180.8659936 937 177 Z" stroke-miterlimit="10"/></g><g transform="translate(-22,-46) scale(1,1)"><path fill="none" stroke="#000000" d="M 944 170 L 944 184" stroke-miterlimit="10"/></g><g transform="translate(-22,-46) scale(1,1)"><path fill="none" stroke="#000000" d="M 937 177 L 951 177" stroke-miterlimit="10"/></g><g transform="translate(-22,-46) scale(1,1)"><path fill="none" stroke="#000000" d="M 1144 160 L 1144 232 L 1024 232" stroke-miterlimit="10"/></g><g transform="translate(-22,-46) scale(1,1)"><path fill="#FFFFFF" stroke="none" d="M 1024 232 C 1024 228.1340064 1027.1340064 225 1031 225 C 1034.8659936 225 1038 228.1340064 1038 232 C 1038 235.8659936 1034.8659936 239 1031 239 C 1027.1340064 239 1024 235.8659936 1024 232 Z"/></g><g transform="translate(-22,-46) scale(1,1)"><path fill="none" stroke="#000000" d="M 1024 232 C 1024 228.1340064 1027.1340064 225 1031 225 C 1034.8659936 225 1038 228.1340064 1038 232 C 1038 235.8659936 1034.8659936 239 1031 239 C 1027.1340064 239 1024 235.8659936 1024 232 Z" stroke-miterlimit="10"/></g><g transform="translate(-22,-46) scale(1,1)"><path fill="none" stroke="#000000" d="M 1038 232 L 1024 232" stroke-miterlimit="10"/></g><g transform="translate(-22,-46) scale(1,1)"><path fill="none" stroke="#000000" d="M 1031 225 L 1031 239" stroke-miterlimit="10"/></g><g transform="translate(-22,-46) scale(1,1)"><path fill="none" stroke="#000000" d="M 1024 264 L 1188 264 L 1188 376" stroke-miterlimit="10" stroke-dasharray="3"/></g><g transform="translate(-22,-46) scale(1,1)"><path fill="none" stroke="#000000" d="M 1183.7904822439841 365.83732514237585 L 1188 376 L 1192.2095177560159 365.83732514237585" stroke-miterlimit="10"/></g><g transform="translate(-22,-46) scale(1,1)"><path fill="none" stroke="#000000" d="M 922 288 L 922 352" stroke-miterlimit="10" stroke-dasharray="3"/></g><g transform="translate(-22,-46) scale(1,1)"><path fill="none" stroke="#000000" d="M 917.790482243984 341.83732514237585 L 922 352 L 926.209517756016 341.83732514237585" stroke-miterlimit="10"/></g><g transform="translate(-22,-46) scale(1,1)"><path fill="none" stroke="#d10000" d="M 824 288 L 800 288 L 800 352 L 268 352 L 268 376" stroke-miterlimit="10" stroke-dasharray="3"/></g><g transform="translate(-22,-46) scale(1,1)"><path fill="none" stroke="#d10000" d="M 263.790482243984 365.83732514237585 L 268 376 L 272.209517756016 365.83732514237585" stroke-miterlimit="10"/></g><g transform="translate(-22,-46) scale(1,1)"><path fill="none" stroke="#00a9ff" d="M 824 272 L 520 272 L 520 728 L 471 728" stroke-miterlimit="10" stroke-dasharray="3"/></g><g transform="translate(-22,-46) scale(1,1)"><path fill="none" stroke="#00a9ff" d="M 481.16267485762415 723.790482243984 L 471 728 L 481.16267485762415 732.209517756016" stroke-miterlimit="10"/></g><g transform="translate(-22,-46) scale(1,1)"><path fill="none" stroke="#000000" d="M 917 480 L 917 432" stroke-miterlimit="10" stroke-dasharray="3"/></g><g transform="translate(-22,-46) scale(1,1)"><path fill="none" stroke="#000000" d="M 921.209517756016 442.16267485762415 L 917 432 L 912.790482243984 442.16267485762415" stroke-miterlimit="10"/></g><g transform="translate(-22,-46) scale(1,1)"><path fill="none" stroke="#000000" d="M 919 568 L 919 600" stroke-miterlimit="10" stroke-dasharray="3"/></g><g transform="translate(-22,-46) scale(1,1)"><path fill="none" stroke="#000000" d="M 914.790482243984 589.8373251423759 L 919 600 L 923.209517756016 589.8373251423759" stroke-miterlimit="10"/></g><g transform="translate(-22,-46) scale(1,1)"><path fill="none" stroke="#000000" d="M 924 720 L 924 692" stroke-miterlimit="10" stroke-dasharray="3"/></g><g transform="translate(-22,-46) scale(1,1)"><path fill="none" stroke="#000000" d="M 928.209517756016 702.1626748576241 L 924 692 L 919.790482243984 702.1626748576241" stroke-miterlimit="10"/></g><g transform="translate(-22,-46) scale(1,1)"><rect fill="#C0C0C0" stroke="none" x="527" y="63" width="60.799999999999955" height="15" opacity="0.2"/></g><g transform="translate(-22,-46) scale(1,1)"><rect fill="#C0C0C0" stroke="none" x="527" y="77" width="152" height="82" opacity="0.2"/></g><g transform="translate(-22,-46) scale(1,1)"><rect fill="#ffffff" stroke="none" x="520" y="71" width="152" height="81"/></g><g transform="translate(-22,-46) scale(1,1)"><path fill="none" stroke="#000000" d="M 520 71 L 672 71 L 672 152 L 520 152 L 520 71 Z Z" stroke-miterlimit="10"/></g><g transform="translate(-22,-46) scale(1,1)"><rect fill="#ffffff" stroke="none" x="520" y="56" width="60.799999999999955" height="15"/></g><g transform="translate(-22,-46) scale(1,1)"><path fill="none" stroke="#000000" d="M 520 56 L 580.8 56 L 580.8 71 L 520 71 L 520 56 Z Z" stroke-miterlimit="10"/></g><g transform="translate(-22,-46) scale(1,1)"><rect fill="#ffffff" stroke="none" x="520" y="70" width="152" height="82"/></g><g transform="translate(-22,-46) scale(1,1)"><path fill="none" stroke="#000000" d="M 520 70 L 672 70 L 672 152 L 520 152 L 520 70 Z Z" stroke-miterlimit="10"/></g><g transform="translate(-22,-46) scale(1,1)"><g><path fill="none" stroke="none"/><text fill="#000000" stroke="none" font-family="Arial" font-size="13px" font-style="normal" font-weight="bold" text-decoration="none" x="537.471435546875" y="90.5">FileHandlerInterface</text></g></g><g transform="translate(-22,-46) scale(1,1)"><path fill="none" stroke="#000000" d="M 917 352 L 917 312 L 600 312 L 600 152" stroke-miterlimit="10" stroke-dasharray="3"/></g><g transform="translate(-22,-46) scale(1,1)"><path fill="none" stroke="#000000" d="M 604.209517756016 162.16267485762415 L 600 152 L 595.790482243984 162.16267485762415" stroke-miterlimit="10"/></g><g transform="translate(-22,-46) scale(1,1)"><path fill="none" stroke="#000000" d="M 424 152 L 520 152" stroke-miterlimit="10" stroke-dasharray="3"/></g><g transform="translate(-22,-46) scale(1,1)"><path fill="none" stroke="#000000" d="M 509.83732514237585 156.209517756016 L 520 152 L 509.83732514237585 147.790482243984" stroke-miterlimit="10"/></g><g transform="translate(-22,-46) scale(1,1)"><path fill="none" stroke="#000000" d="M 336 163 L 336 208" stroke-miterlimit="10" stroke-dasharray="3"/></g><g transform="translate(-22,-46) scale(1,1)"><path fill="none" stroke="#000000" d="M 331.790482243984 197.83732514237585 L 336 208 L 340.209517756016 197.83732514237585" stroke-miterlimit="10"/></g><g transform="translate(-22,-46) scale(1,1)"><path fill="none" stroke="#00a9ff" d="M 248 163 L 160 163 L 160 736 L 248 736" stroke-miterlimit="10" stroke-dasharray="3"/></g><g transform="translate(-22,-46) scale(1,1)"><path fill="none" stroke="#00a9ff" d="M 237.83732514237585 740.209517756016 L 248 736 L 237.83732514237585 731.790482243984" stroke-miterlimit="10"/></g><g transform="translate(-22,-46) scale(1,1)"><path fill="none" stroke="#000000" d="M 432 248 L 568 248 L 568 152" stroke-miterlimit="10" stroke-dasharray="3"/></g><g transform="translate(-22,-46) scale(1,1)"><path fill="none" stroke="#000000" d="M 572.209517756016 162.16267485762415 L 568 152 L 563.790482243984 162.16267485762415" stroke-miterlimit="10"/></g><g transform="translate(-22,-46) scale(1,1)"><path fill="none" stroke="#d10000" d="M 232 264 L 216 264 L 216 440 L 240 440" stroke-miterlimit="10" stroke-dasharray="3"/></g><g transform="translate(-22,-46) scale(1,1)"><path fill="none" stroke="#d10000" d="M 229.83732514237585 444.209517756016 L 240 440 L 229.83732514237585 435.790482243984" stroke-miterlimit="10"/></g><g transform="translate(-22,-46) scale(1,1)"><path fill="none" stroke="#00a9ff" d="M 232 248 L 192 248 L 192 712 L 248 712" stroke-miterlimit="10" stroke-dasharray="3"/></g><g transform="translate(-22,-46) scale(1,1)"><path fill="none" stroke="#00a9ff" d="M 237.83732514237585 716.209517756016 L 248 712 L 237.83732514237585 707.790482243984" stroke-miterlimit="10"/></g><g transform="translate(-22,-46) scale(1,1)"><path fill="none" stroke="#d10000" d="M 616 152 L 616 408 L 440 408" stroke-miterlimit="10" stroke-dasharray="3"/></g><g transform="translate(-22,-46) scale(1,1)"><path fill="none" stroke="#d10000" d="M 450.16267485762415 403.790482243984 L 440 408 L 450.16267485762415 412.209517756016" stroke-miterlimit="10"/></g><g transform="translate(-22,-46) scale(1,1)"><path fill="none" stroke="#d10000" d="M 832 632 L 816 632 L 816 672 L 256 672 L 256 475" stroke-miterlimit="10" stroke-dasharray="3"/></g><g transform="translate(-22,-46) scale(1,1)"><path fill="none" stroke="#d10000" d="M 260.209517756016 485.16267485762415 L 256 475 L 251.790482243984 485.16267485762415" stroke-miterlimit="10"/></g><g transform="translate(-22,-46) scale(1,1)"><path fill="none" stroke="#d10000" d="M 832 776 L 664 776 L 664 417 L 440 417" stroke-miterlimit="10" stroke-dasharray="3"/></g><g transform="translate(-22,-46) scale(1,1)"><path fill="none" stroke="#d10000" d="M 450.16267485762415 412.790482243984 L 440 417 L 450.16267485762415 421.209517756016" stroke-miterlimit="10"/></g><g transform="translate(-22,-46) scale(1,1)"><path fill="none" stroke="#00a9ff" d="M 832 744 L 624 744 L 624 760 L 471 760" stroke-miterlimit="10" stroke-dasharray="3"/></g><g transform="translate(-22,-46) scale(1,1)"><path fill="none" stroke="#00a9ff" d="M 481.16267485762415 755.790482243984 L 471 760 L 481.16267485762415 764.209517756016" stroke-miterlimit="10"/></g><g transform="translate(-22,-46) scale(1,1)"><path fill="none" stroke="#d10000" d="M 832 400 L 440 400" stroke-miterlimit="10" stroke-dasharray="3"/></g><g transform="translate(-22,-46) scale(1,1)"><path fill="none" stroke="#d10000" d="M 450.16267485762415 395.790482243984 L 440 400 L 450.16267485762415 404.209517756016" stroke-miterlimit="10"/></g><g transform="translate(-22,-46) scale(1,1)"><path fill="none" stroke="#00a9ff" d="M 832 552 L 560 552 L 560 744 L 471 744" stroke-miterlimit="10" stroke-dasharray="3"/></g><g transform="translate(-22,-46) scale(1,1)"><path fill="none" stroke="#00a9ff" d="M 481.16267485762415 739.790482243984 L 471 744 L 481.16267485762415 748.209517756016" stroke-miterlimit="10"/></g><g transform="translate(-22,-46) scale(1,1)"><path fill="none" stroke="#d10000" d="M 832 496 L 816 496 L 816 464 L 440 464" stroke-miterlimit="10" stroke-dasharray="3"/></g><g transform="translate(-22,-46) scale(1,1)"><path fill="none" stroke="#d10000" d="M 450.16267485762415 459.790482243984 L 440 464 L 450.16267485762415 468.209517756016" stroke-miterlimit="10"/></g><g transform="translate(-22,-46) scale(1,1)"><path fill="none" stroke="#000000" d="M 832 504 L 528 504 L 528 163 L 424 163" stroke-miterlimit="10" stroke-dasharray="3"/></g><g transform="translate(-22,-46) scale(1,1)"><path fill="none" stroke="#000000" d="M 434.16267485762415 158.790482243984 L 424 163 L 434.16267485762415 167.209517756016" stroke-miterlimit="10"/></g><g transform="translate(-22,-46) scale(1,1)"><path fill="none" stroke="#000000" d="M 1120 400 L 1004 400" stroke-miterlimit="10" stroke-dasharray="3"/></g><g transform="translate(-22,-46) scale(1,1)"><path fill="none" stroke="#000000" d="M 1014.1626748576241 395.790482243984 L 1004 400 L 1014.1626748576241 404.209517756016" stroke-miterlimit="10"/></g><g transform="translate(-22,-46) scale(1,1)"><path fill="none" stroke="#000000" d="M 1128 480 L 1128 528 L 1000 528" stroke-miterlimit="10" stroke-dasharray="3"/></g><g transform="translate(-22,-46) scale(1,1)"><path fill="none" stroke="#000000" d="M 1010.1626748576241 523.790482243984 L 1000 528 L 1010.1626748576241 532.209517756016" stroke-miterlimit="10"/></g><g transform="translate(-22,-46) scale(1,1)"><path fill="none" stroke="#000000" d="M 1136 480 L 1136 568 L 1088 568 L 1088 664 L 992 664" stroke-miterlimit="10" stroke-dasharray="3"/></g><g transform="translate(-22,-46) scale(1,1)"><path fill="none" stroke="#000000" d="M 1002.1626748576241 659.790482243984 L 992 664 L 1002.1626748576241 668.209517756016" stroke-miterlimit="10"/></g><g transform="translate(-22,-46) scale(1,1)"><path fill="none" stroke="#000000" d="M 1144 480 L 1144 584 L 1104 584 L 1104 760 L 992 760" stroke-miterlimit="10" stroke-dasharray="3"/></g><g transform="translate(-22,-46) scale(1,1)"><path fill="none" stroke="#000000" d="M 1002.1626748576241 755.790482243984 L 992 760 L 1002.1626748576241 764.209517756016" stroke-miterlimit="10"/></g><g transform="translate(-22,-46) scale(1,1)"><path fill="none" stroke="#ff0000" d="M 1120 448 L 480 448 L 480 433 L 440 433" stroke-miterlimit="10" stroke-dasharray="3"/></g><g transform="translate(-22,-46) scale(1,1)"><path fill="none" stroke="#ff0000" d="M 450.16267485762415 428.790482243984 L 440 433 L 450.16267485762415 437.209517756016" stroke-miterlimit="10"/></g></g></svg>