<svg version="1.1" xmlns="http://www.w3.org/2000/svg" xmlns:xlink="http://www.w3.org/1999/xlink" width="1612" height="734"><defs/><g>""""""""""""""""""""""""""""""""""""""""""""""""""""""""""""""""""""""""""""""""""""""""""""""""""""""""""""""""""""""""""""""""""""""""""""""""""""""""""""""""""""""""""""""""""""""""""""""""""""""""""""""""""""""""""""""""<text fill="#eeeeee" stroke="none" font-family="Arial" font-size="24px" font-style="normal" font-weight="normal" text-decoration="none" x="1600" y="720">UNREGISTERED</text><g transform="translate(-118,-38) scale(1,1)"><g><path fill="none" stroke="none"/><text fill="#000000" stroke="none" font-family="Arial" font-size="13px" font-style="normal" font-weight="normal" text-decoration="none" x="165" y="636">+ Add(User user): void</text></g></g><g transform="translate(-118,-38) scale(1,1)"><g><path fill="none" stroke="none"/><text fill="#000000" stroke="none" font-family="Arial" font-size="13px" font-style="normal" font-weight="normal" text-decoration="none" x="165" y="651">+ Authenticate(string username, string): bool</text></g></g><g transform="translate(-118,-38) scale(1,1)"><g><path fill="none" stroke="none"/><text fill="#000000" stroke="none" font-family="Arial" font-size="13px" font-style="normal" font-weight="normal" text-decoration="none" x="165" y="666">+UpdateToken(string username, string token);</text></g></g><g transform="translate(-118,-38) scale(1,1)"><g><path fill="none" stroke="none"/><text fill="#000000" stroke="none" font-family="Arial" font-size="13px" font-style="normal" font-weight="normal" text-decoration="none" x="165" y="681">+GetRoleByToken(string token): RoleType</text></g></g><g transform="translate(-118,-38) scale(1,1)"><g><path fill="none" stroke="none"/><text fill="#000000" stroke="none" font-family="Arial" font-size="13px" font-style="normal" font-weight="normal" text-decoration="none" x="165" y="696">+Get(string token): User</text></g></g><g transform="translate(-118,-38) scale(1,1)"><g><path fill="none" stroke="none"/><text fill="#000000" stroke="none" font-family="Arial" font-size="13px" font-style="normal" font-weight="normal" text-decoration="none" x="165" y="711">+Get(int id):User</text></g></g><g transform="translate(-118,-38) scale(1,1)"><g><path fill="none" stroke="none"/><text fill="#000000" stroke="none" font-family="Arial" font-size="13px" font-style="normal" font-weight="normal" text-decoration="none" x="165" y="726">+Save(): void</text></g></g><g transform="translate(-118,-38) scale(1,1)"><path fill="#C0C0C0" stroke="none" d="M 258.2099609375 578.5 C 258.2099609375 572.1487248 263.3586857375 567 269.7099609375 567 C 276.0612361375 567 281.2099609375 572.1487248 281.2099609375 578.5 C 281.2099609375 584.8512752 276.0612361375 590 269.7099609375 590 C 263.3586857375 590 258.2099609375 584.8512752 258.2099609375 578.5 Z" opacity="0.2"/></g><g transform="translate(-118,-38) scale(1,1)"><path fill="#ffffff" stroke="none" d="M 251.2099609375 571.5 C 251.2099609375 565.1487248 256.3586857375 560 262.7099609375 560 C 269.0612361375 560 274.2099609375 565.1487248 274.2099609375 571.5 C 274.2099609375 577.8512752 269.0612361375 583 262.7099609375 583 C 256.3586857375 583 251.2099609375 577.8512752 251.2099609375 571.5 Z"/></g><g transform="translate(-118,-38) scale(1,1)"><path fill="none" stroke="#000000" d="M 251.2099609375 571.5 C 251.2099609375 565.1487248 256.3586857375 560 262.7099609375 560 C 269.0612361375 560 274.2099609375 565.1487248 274.2099609375 571.5 C 274.2099609375 577.8512752 269.0612361375 583 262.7099609375 583 C 256.3586857375 583 251.2099609375 577.8512752 251.2099609375 571.5 Z" stroke-miterlimit="10"/></g><g transform="translate(-118,-38) scale(1,1)"><g><path fill="none" stroke="none"/><text fill="#000000" stroke="none" font-family="Arial" font-size="13px" font-style="normal" font-weight="bold" text-decoration="none" x="216.11181640625" y="602.5">IUserRepository</text></g></g><g transform="translate(-118,-38) scale(1,1)"><rect fill="#C0C0C0" stroke="none" x="135" y="311" width="328.0205078125" height="177" opacity="0.2"/></g><g transform="translate(-118,-38) scale(1,1)"><rect fill="#ffffff" stroke="none" x="128" y="304" width="328.0205078125" height="177"/></g><g transform="translate(-118,-38) scale(1,1)"><path fill="none" stroke="#000000" d="M 128 304 L 456.0205078125 304 L 456.0205078125 481 L 128 481 L 128 304 Z Z" stroke-miterlimit="10"/></g><g transform="translate(-118,-38) scale(1,1)"><path fill="none" stroke="#000000" d="M 128 329 L 456.0205078125 329" stroke-miterlimit="10"/></g><g transform="translate(-118,-38) scale(1,1)"><path fill="none" stroke="#000000" d="M 128 339 L 456.0205078125 339" stroke-miterlimit="10"/></g><g transform="translate(-118,-38) scale(1,1)"><g><path fill="none" stroke="none"/><text fill="#000000" stroke="none" font-family="Arial" font-size="13px" font-style="normal" font-weight="bold" text-decoration="none" x="247.218017578125" y="323.5">UserRepository</text></g></g><g transform="translate(-118,-38) scale(1,1)"><g><path fill="none" stroke="none"/><text fill="#000000" stroke="none" font-family="Arial" font-size="13px" font-style="normal" font-weight="normal" text-decoration="none" x="133" y="356.5">«constructor»+UserRepository()</text></g></g><g transform="translate(-118,-38) scale(1,1)"><g><path fill="none" stroke="none"/><text fill="#000000" stroke="none" font-family="Arial" font-size="13px" font-style="normal" font-weight="normal" text-decoration="none" x="133" y="371.5">+Add(user: User): void</text></g></g><g transform="translate(-118,-38) scale(1,1)"><g><path fill="none" stroke="none"/><text fill="#000000" stroke="none" font-family="Arial" font-size="13px" font-style="normal" font-weight="normal" text-decoration="none" x="133" y="386.5">+Authenticate(username: string, password: string): bool</text></g></g><g transform="translate(-118,-38) scale(1,1)"><g><path fill="none" stroke="none"/><text fill="#000000" stroke="none" font-family="Arial" font-size="13px" font-style="normal" font-weight="normal" text-decoration="none" x="133" y="401.5">+UpdateToken(username: string, token: string): void</text></g></g><g transform="translate(-118,-38) scale(1,1)"><g><path fill="none" stroke="none"/><text fill="#000000" stroke="none" font-family="Arial" font-size="13px" font-style="normal" font-weight="normal" text-decoration="none" x="133" y="416.5">+GetRoleByToken(token: string): RoleType</text></g></g><g transform="translate(-118,-38) scale(1,1)"><g><path fill="none" stroke="none"/><text fill="#000000" stroke="none" font-family="Arial" font-size="13px" font-style="normal" font-weight="normal" text-decoration="none" x="133" y="431.5">+Get(token: string): User</text></g></g><g transform="translate(-118,-38) scale(1,1)"><g><path fill="none" stroke="none"/><text fill="#000000" stroke="none" font-family="Arial" font-size="13px" font-style="normal" font-weight="normal" text-decoration="none" x="133" y="446.5">+Get(id: int): User</text></g></g><g transform="translate(-118,-38) scale(1,1)"><g><path fill="none" stroke="none"/><text fill="#000000" stroke="none" font-family="Arial" font-size="13px" font-style="normal" font-weight="normal" text-decoration="none" x="133" y="461.5">+GetProjects(token: string): IEnumerable</text></g></g><g transform="translate(-118,-38) scale(1,1)"><g><path fill="none" stroke="none"/><text fill="#000000" stroke="none" font-family="Arial" font-size="13px" font-style="normal" font-weight="normal" text-decoration="none" x="133" y="476.5">+GetAll(): IEnumerable</text></g></g><g transform="translate(-118,-38) scale(1,1)"><rect fill="#C0C0C0" stroke="none" x="511" y="303" width="349.64697265625" height="177" opacity="0.2"/></g><g transform="translate(-118,-38) scale(1,1)"><rect fill="#ffffff" stroke="none" x="504" y="296" width="349.64697265625" height="177"/></g><g transform="translate(-118,-38) scale(1,1)"><path fill="none" stroke="#000000" d="M 504 296 L 853.64697265625 296 L 853.64697265625 473 L 504 473 L 504 296 Z Z" stroke-miterlimit="10"/></g><g transform="translate(-118,-38) scale(1,1)"><path fill="none" stroke="#000000" d="M 504 321 L 853.64697265625 321" stroke-miterlimit="10"/></g><g transform="translate(-118,-38) scale(1,1)"><path fill="none" stroke="#000000" d="M 504 331 L 853.64697265625 331" stroke-miterlimit="10"/></g><g transform="translate(-118,-38) scale(1,1)"><g><path fill="none" stroke="none"/><text fill="#000000" stroke="none" font-family="Arial" font-size="13px" font-style="normal" font-weight="bold" text-decoration="none" x="627.52490234375" y="315.5">ProjectRepository</text></g></g><g transform="translate(-118,-38) scale(1,1)"><g><path fill="none" stroke="none"/><text fill="#000000" stroke="none" font-family="Arial" font-size="13px" font-style="normal" font-weight="normal" text-decoration="none" x="509" y="348.5">«constructor»+ProjectRepository()</text></g></g><g transform="translate(-118,-38) scale(1,1)"><g><path fill="none" stroke="none"/><text fill="#000000" stroke="none" font-family="Arial" font-size="13px" font-style="normal" font-weight="normal" text-decoration="none" x="509" y="363.5">+Add(project: Project): void</text></g></g><g transform="translate(-118,-38) scale(1,1)"><g><path fill="none" stroke="none"/><text fill="#000000" stroke="none" font-family="Arial" font-size="13px" font-style="normal" font-weight="normal" text-decoration="none" x="509" y="378.5">+GetAll(): IEnumerable</text></g></g><g transform="translate(-118,-38) scale(1,1)"><g><path fill="none" stroke="none"/><text fill="#000000" stroke="none" font-family="Arial" font-size="13px" font-style="normal" font-weight="normal" text-decoration="none" x="509" y="393.5">+Update(updatedProject: Project): void</text></g></g><g transform="translate(-118,-38) scale(1,1)"><g><path fill="none" stroke="none"/><text fill="#000000" stroke="none" font-family="Arial" font-size="13px" font-style="normal" font-weight="normal" text-decoration="none" x="509" y="408.5">+Delete(projectId: int): void</text></g></g><g transform="translate(-118,-38) scale(1,1)"><g><path fill="none" stroke="none"/><text fill="#000000" stroke="none" font-family="Arial" font-size="13px" font-style="normal" font-weight="normal" text-decoration="none" x="509" y="423.5">+AssignUserToProject(userId: int, projectId: int): void</text></g></g><g transform="translate(-118,-38) scale(1,1)"><g><path fill="none" stroke="none"/><text fill="#000000" stroke="none" font-family="Arial" font-size="13px" font-style="normal" font-weight="normal" text-decoration="none" x="509" y="438.5">+DissociateUserFromProject(userId: int, projectId: int): void</text></g></g><g transform="translate(-118,-38) scale(1,1)"><g><path fill="none" stroke="none"/><text fill="#000000" stroke="none" font-family="Arial" font-size="13px" font-style="normal" font-weight="normal" text-decoration="none" x="509" y="453.5">+AddBugsFromFile(projects: IEnumerable): void</text></g></g><g transform="translate(-118,-38) scale(1,1)"><g><path fill="none" stroke="none"/><text fill="#000000" stroke="none" font-family="Arial" font-size="13px" font-style="normal" font-weight="normal" text-decoration="none" x="509" y="468.5">+Get(projectId: int, token: string): Project</text></g></g><g transform="translate(-118,-38) scale(1,1)"><rect fill="#C0C0C0" stroke="none" x="951" y="311" width="326.52880859375" height="147" opacity="0.2"/></g><g transform="translate(-118,-38) scale(1,1)"><rect fill="#ffffff" stroke="none" x="944" y="304" width="326.52880859375" height="147"/></g><g transform="translate(-118,-38) scale(1,1)"><path fill="none" stroke="#000000" d="M 944 304 L 1270.52880859375 304 L 1270.52880859375 451 L 944 451 L 944 304 Z Z" stroke-miterlimit="10"/></g><g transform="translate(-118,-38) scale(1,1)"><path fill="none" stroke="#000000" d="M 944 329 L 1270.52880859375 329" stroke-miterlimit="10"/></g><g transform="translate(-118,-38) scale(1,1)"><path fill="none" stroke="#000000" d="M 944 339 L 1270.52880859375 339" stroke-miterlimit="10"/></g><g transform="translate(-118,-38) scale(1,1)"><g><path fill="none" stroke="none"/><text fill="#000000" stroke="none" font-family="Arial" font-size="13px" font-style="normal" font-weight="bold" text-decoration="none" x="1064.63037109375" y="323.5">BugRepository</text></g></g><g transform="translate(-118,-38) scale(1,1)"><g><path fill="none" stroke="none"/><text fill="#000000" stroke="none" font-family="Arial" font-size="13px" font-style="normal" font-weight="normal" text-decoration="none" x="949" y="356.5">«constructor»+BugRepository()</text></g></g><g transform="translate(-118,-38) scale(1,1)"><g><path fill="none" stroke="none"/><text fill="#000000" stroke="none" font-family="Arial" font-size="13px" font-style="normal" font-weight="normal" text-decoration="none" x="949" y="371.5">+GetAllFiltered(user: User, criteria: Func): IEnumerable</text></g></g><g transform="translate(-118,-38) scale(1,1)"><g><path fill="none" stroke="none"/><text fill="#000000" stroke="none" font-family="Arial" font-size="13px" font-style="normal" font-weight="normal" text-decoration="none" x="949" y="386.5">+Add(user: User, newBug: Bug): void</text></g></g><g transform="translate(-118,-38) scale(1,1)"><g><path fill="none" stroke="none"/><text fill="#000000" stroke="none" font-family="Arial" font-size="13px" font-style="normal" font-weight="normal" text-decoration="none" x="949" y="401.5">+Update(user: User, updatedBug: Bug): void</text></g></g><g transform="translate(-118,-38) scale(1,1)"><g><path fill="none" stroke="none"/><text fill="#000000" stroke="none" font-family="Arial" font-size="13px" font-style="normal" font-weight="normal" text-decoration="none" x="949" y="416.5">+Delete(user: User, bugId: int): void</text></g></g><g transform="translate(-118,-38) scale(1,1)"><g><path fill="none" stroke="none"/><text fill="#000000" stroke="none" font-family="Arial" font-size="13px" font-style="normal" font-weight="normal" text-decoration="none" x="949" y="431.5">+Fix(user: User, bugId: int, fixingTime: int): void</text></g></g><g transform="translate(-118,-38) scale(1,1)"><g><path fill="none" stroke="none"/><text fill="#000000" stroke="none" font-family="Arial" font-size="13px" font-style="normal" font-weight="normal" text-decoration="none" x="949" y="446.5">+Get(user: User, bugId: int): Bug</text></g></g><g transform="translate(-118,-38) scale(1,1)"><rect fill="#C0C0C0" stroke="none" x="1319" y="311" width="234.06884765625" height="72" opacity="0.2"/></g><g transform="translate(-118,-38) scale(1,1)"><rect fill="#ffffff" stroke="none" x="1312" y="304" width="234.06884765625" height="72"/></g><g transform="translate(-118,-38) scale(1,1)"><path fill="none" stroke="#000000" d="M 1312 304 L 1546.06884765625 304 L 1546.06884765625 376 L 1312 376 L 1312 304 Z Z" stroke-miterlimit="10"/></g><g transform="translate(-118,-38) scale(1,1)"><path fill="none" stroke="#000000" d="M 1312 329 L 1546.06884765625 329" stroke-miterlimit="10"/></g><g transform="translate(-118,-38) scale(1,1)"><path fill="none" stroke="#000000" d="M 1312 339 L 1546.06884765625 339" stroke-miterlimit="10"/></g><g transform="translate(-118,-38) scale(1,1)"><g><path fill="none" stroke="none"/><text fill="#000000" stroke="none" font-family="Arial" font-size="13px" font-style="normal" font-weight="bold" text-decoration="none" x="1364.005859375" y="323.5">AssignmentRepository</text></g></g><g transform="translate(-118,-38) scale(1,1)"><g><path fill="none" stroke="none"/><text fill="#000000" stroke="none" font-family="Arial" font-size="13px" font-style="normal" font-weight="normal" text-decoration="none" x="1317" y="356.5">«constructor»+AssignmentRepository()</text></g></g><g transform="translate(-118,-38) scale(1,1)"><g><path fill="none" stroke="none"/><text fill="#000000" stroke="none" font-family="Arial" font-size="13px" font-style="normal" font-weight="normal" text-decoration="none" x="1317" y="371.5">+Add(assignment: Assignment): void</text></g></g><g transform="translate(-118,-38) scale(1,1)"><rect fill="#C0C0C0" stroke="none" x="639" y="105" width="211.80615234375" height="70" opacity="0.2"/></g><g transform="translate(-118,-38) scale(1,1)"><rect fill="#C0C0C0" stroke="none" x="842.865234375" y="87" width="16.94091796875" height="22" opacity="0.2"/></g><g transform="translate(-118,-38) scale(1,1)"><rect fill="#ffffff" stroke="none" x="632" y="98" width="211.80615234375" height="70"/></g><g transform="translate(-118,-38) scale(1,1)"><path fill="none" stroke="#000000" d="M 632 98 L 843.80615234375 98 L 843.80615234375 168 L 632 168 L 632 98 Z Z" stroke-miterlimit="10"/></g><g transform="translate(-118,-38) scale(1,1)"><path fill="none" stroke="#000000" d="M 632 123 L 843.80615234375 123" stroke-miterlimit="10"/></g><g transform="translate(-118,-38) scale(1,1)"><path fill="none" stroke="#000000" d="M 632 146 L 843.80615234375 146" stroke-miterlimit="10"/></g><g transform="translate(-118,-38) scale(1,1)"><g><path fill="none" stroke="none"/><text fill="#000000" stroke="none" font-family="Arial" font-size="13px" font-style="italic" font-weight="bold" text-decoration="none" x="692.01904296875" y="117.5">BaseRepository</text></g></g><g transform="translate(-118,-38) scale(1,1)"><g><path fill="none" stroke="none"/><text fill="#000000" stroke="none" font-family="Arial" font-size="13px" font-style="normal" font-weight="normal" text-decoration="none" x="637" y="140.5">#Context: BugSummaryContext</text></g></g><g transform="translate(-118,-38) scale(1,1)"><g><path fill="none" stroke="none"/><text fill="#000000" stroke="none" font-family="Arial" font-size="13px" font-style="normal" font-weight="normal" text-decoration="none" x="637" y="163.5">+Save(): void</text></g></g><g transform="translate(-118,-38) scale(1,1)"><rect fill="#ffffff" stroke="none" x="835.865234375" y="80" width="16.94091796875" height="22"/></g><g transform="translate(-118,-38) scale(1,1)"><path fill="none" stroke="#000000" d="M 835.865234375 80 L 852.80615234375 80 L 852.80615234375 102 L 835.865234375 102 L 835.865234375 80 Z Z" stroke-miterlimit="10" stroke-dasharray="3"/></g><g transform="translate(-118,-38) scale(1,1)"><g><path fill="none" stroke="none"/><text fill="#000000" stroke="none" font-family="Arial" font-size="13px" font-style="normal" font-weight="normal" text-decoration="none" x="840.865234375" y="97.5">T</text></g></g><g transform="translate(-118,-38) scale(1,1)"><path fill="none" stroke="#000000" d="M 1312 304 L 1312 224 L 768 224 L 768 168" stroke-miterlimit="10" stroke-dasharray="3"/></g><g transform="translate(-118,-38) scale(1,1)"><path fill="#FFFFFF" stroke="none" d="M 776.419035512032 188.3253497152483 L 768 168 L 759.580964487968 188.3253497152483"/></g><g transform="translate(-118,-38) scale(1,1)"><path fill="none" stroke="#000000" d="M 776.419035512032 188.3253497152483 L 768 168 L 759.580964487968 188.3253497152483 L 776.419035512032 188.3253497152483" stroke-miterlimit="10"/></g><g transform="translate(-118,-38) scale(1,1)"><path fill="none" stroke="#000000" d="M 1040 304 L 1040 240 L 696 240 L 696 168" stroke-miterlimit="10" stroke-dasharray="3"/></g><g transform="translate(-118,-38) scale(1,1)"><path fill="#FFFFFF" stroke="none" d="M 704.419035512032 188.3253497152483 L 696 168 L 687.580964487968 188.3253497152483"/></g><g transform="translate(-118,-38) scale(1,1)"><path fill="none" stroke="#000000" d="M 704.419035512032 188.3253497152483 L 696 168 L 687.580964487968 188.3253497152483 L 704.419035512032 188.3253497152483" stroke-miterlimit="10"/></g><g transform="translate(-118,-38) scale(1,1)"><path fill="none" stroke="#000000" d="M 672 296 L 672 168" stroke-miterlimit="10" stroke-dasharray="3"/></g><g transform="translate(-118,-38) scale(1,1)"><path fill="#FFFFFF" stroke="none" d="M 680.419035512032 188.3253497152483 L 672 168 L 663.580964487968 188.3253497152483"/></g><g transform="translate(-118,-38) scale(1,1)"><path fill="none" stroke="#000000" d="M 680.419035512032 188.3253497152483 L 672 168 L 663.580964487968 188.3253497152483 L 680.419035512032 188.3253497152483" stroke-miterlimit="10"/></g><g transform="translate(-118,-38) scale(1,1)"><path fill="none" stroke="#000000" d="M 352 304 L 352 136 L 632 136" stroke-miterlimit="10" stroke-dasharray="3"/></g><g transform="translate(-118,-38) scale(1,1)"><path fill="#FFFFFF" stroke="none" d="M 611.6746502847517 144.41903551203197 L 632 136 L 611.6746502847517 127.58096448796803"/></g><g transform="translate(-118,-38) scale(1,1)"><path fill="none" stroke="#000000" d="M 611.6746502847517 144.41903551203197 L 632 136 L 611.6746502847517 127.58096448796803 L 611.6746502847517 144.41903551203197" stroke-miterlimit="10"/></g><g transform="translate(-118,-38) scale(1,1)"><rect fill="#C0C0C0" stroke="none" x="1135" y="55" width="376.0849609375" height="145" opacity="0.2"/></g><g transform="translate(-118,-38) scale(1,1)"><rect fill="#ffffff" stroke="none" x="1128" y="48" width="376.0849609375" height="145"/></g><g transform="translate(-118,-38) scale(1,1)"><path fill="none" stroke="#000000" d="M 1128 48 L 1504.0849609375 48 L 1504.0849609375 193 L 1128 193 L 1128 48 Z Z" stroke-miterlimit="10"/></g><g transform="translate(-118,-38) scale(1,1)"><path fill="none" stroke="#000000" d="M 1128 73 L 1504.0849609375 73" stroke-miterlimit="10"/></g><g transform="translate(-118,-38) scale(1,1)"><path fill="none" stroke="#000000" d="M 1128 141 L 1504.0849609375 141" stroke-miterlimit="10"/></g><g transform="translate(-118,-38) scale(1,1)"><g><path fill="none" stroke="none"/><text fill="#000000" stroke="none" font-family="Arial" font-size="13px" font-style="normal" font-weight="bold" text-decoration="none" x="1254.26708984375" y="67.5">BugSummaryContext</text></g></g><g transform="translate(-118,-38) scale(1,1)"><g><path fill="none" stroke="none"/><text fill="#000000" stroke="none" font-family="Arial" font-size="13px" font-style="normal" font-weight="normal" text-decoration="none" x="1133" y="90.5">+Users: DbSet</text></g></g><g transform="translate(-118,-38) scale(1,1)"><g><path fill="none" stroke="none"/><text fill="#000000" stroke="none" font-family="Arial" font-size="13px" font-style="normal" font-weight="normal" text-decoration="none" x="1133" y="105.5">+Bugs: DbSet</text></g></g><g transform="translate(-118,-38) scale(1,1)"><g><path fill="none" stroke="none"/><text fill="#000000" stroke="none" font-family="Arial" font-size="13px" font-style="normal" font-weight="normal" text-decoration="none" x="1133" y="120.5">+Projects: DbSet</text></g></g><g transform="translate(-118,-38) scale(1,1)"><g><path fill="none" stroke="none"/><text fill="#000000" stroke="none" font-family="Arial" font-size="13px" font-style="normal" font-weight="normal" text-decoration="none" x="1133" y="135.5">+Assignments: DbSet</text></g></g><g transform="translate(-118,-38) scale(1,1)"><g><path fill="none" stroke="none"/><text fill="#000000" stroke="none" font-family="Arial" font-size="13px" font-style="normal" font-weight="normal" text-decoration="none" x="1133" y="158.5">«constructor»+BugSummaryContext()</text></g></g><g transform="translate(-118,-38) scale(1,1)"><g><path fill="none" stroke="none"/><text fill="#000000" stroke="none" font-family="Arial" font-size="13px" font-style="normal" font-weight="normal" text-decoration="none" x="1133" y="173.5">«constructor»+BugSummaryContext()</text></g></g><g transform="translate(-118,-38) scale(1,1)"><g><path fill="none" stroke="none"/><text fill="#000000" stroke="none" font-family="Arial" font-size="13px" font-style="normal" font-weight="normal" text-decoration="none" x="1133" y="188.5">#OnConfiguring(optionsBuilder: DbContextOptionsBuilder): void</text></g></g><g transform="translate(-118,-38) scale(1,1)"><path fill="none" stroke="#000000" d="M 264 481 L 264 560" stroke-miterlimit="10"/></g><g transform="translate(-118,-38) scale(1,1)"><g><path fill="none" stroke="none"/><text fill="#000000" stroke="none" font-family="Arial" font-size="13px" font-style="normal" font-weight="normal" text-decoration="none" x="525" y="618">+Add(in project:Project): void</text></g></g><g transform="translate(-118,-38) scale(1,1)"><g><path fill="none" stroke="none"/><text fill="#000000" stroke="none" font-family="Arial" font-size="13px" font-style="normal" font-weight="normal" text-decoration="none" x="525" y="633">+Update(in updatedProject:Project): void</text></g></g><g transform="translate(-118,-38) scale(1,1)"><g><path fill="none" stroke="none"/><text fill="#000000" stroke="none" font-family="Arial" font-size="13px" font-style="normal" font-weight="normal" text-decoration="none" x="525" y="648">+Delete(in projectId:int): void</text></g></g><g transform="translate(-118,-38) scale(1,1)"><g><path fill="none" stroke="none"/><text fill="#000000" stroke="none" font-family="Arial" font-size="13px" font-style="normal" font-weight="normal" text-decoration="none" x="525" y="663">+GetAll(): IEnumerable</text></g></g><g transform="translate(-118,-38) scale(1,1)"><g><path fill="none" stroke="none"/><text fill="#000000" stroke="none" font-family="Arial" font-size="13px" font-style="normal" font-weight="normal" text-decoration="none" x="525" y="678">+Get(in projectId:int, in token:string): Project</text></g></g><g transform="translate(-118,-38) scale(1,1)"><g><path fill="none" stroke="none"/><text fill="#000000" stroke="none" font-family="Arial" font-size="13px" font-style="normal" font-weight="normal" text-decoration="none" x="525" y="693">+AssignUserToProject(in userId:int, in projectId:int): void</text></g></g><g transform="translate(-118,-38) scale(1,1)"><g><path fill="none" stroke="none"/><text fill="#000000" stroke="none" font-family="Arial" font-size="13px" font-style="normal" font-weight="normal" text-decoration="none" x="525" y="708">+DissociateUserFromProject(in userId:int, in projectId:int): void</text></g></g><g transform="translate(-118,-38) scale(1,1)"><g><path fill="none" stroke="none"/><text fill="#000000" stroke="none" font-family="Arial" font-size="13px" font-style="normal" font-weight="normal" text-decoration="none" x="525" y="723">+AddBugsFromFile(in projects:IEnumerable): void</text></g></g><g transform="translate(-118,-38) scale(1,1)"><g><path fill="none" stroke="none"/><text fill="#000000" stroke="none" font-family="Arial" font-size="13px" font-style="normal" font-weight="normal" text-decoration="none" x="525" y="738">+Save(): void </text></g></g><g transform="translate(-118,-38) scale(1,1)"><path fill="#C0C0C0" stroke="none" d="M 641.792236328125 562.5 C 641.792236328125 556.1487248 646.940961128125 551 653.292236328125 551 C 659.643511528125 551 664.792236328125 556.1487248 664.792236328125 562.5 C 664.792236328125 568.8512752 659.643511528125 574 653.292236328125 574 C 646.940961128125 574 641.792236328125 568.8512752 641.792236328125 562.5 Z" opacity="0.2"/></g><g transform="translate(-118,-38) scale(1,1)"><path fill="#ffffff" stroke="none" d="M 634.792236328125 555.5 C 634.792236328125 549.1487248 639.940961128125 544 646.292236328125 544 C 652.643511528125 544 657.792236328125 549.1487248 657.792236328125 555.5 C 657.792236328125 561.8512752 652.643511528125 567 646.292236328125 567 C 639.940961128125 567 634.792236328125 561.8512752 634.792236328125 555.5 Z"/></g><g transform="translate(-118,-38) scale(1,1)"><path fill="none" stroke="#000000" d="M 634.792236328125 555.5 C 634.792236328125 549.1487248 639.940961128125 544 646.292236328125 544 C 652.643511528125 544 657.792236328125 549.1487248 657.792236328125 555.5 C 657.792236328125 561.8512752 652.643511528125 567 646.292236328125 567 C 639.940961128125 567 634.792236328125 561.8512752 634.792236328125 555.5 Z" stroke-miterlimit="10"/></g><g transform="translate(-118,-38) scale(1,1)"><g><path fill="none" stroke="none"/><text fill="#000000" stroke="none" font-family="Arial" font-size="13px" font-style="normal" font-weight="bold" text-decoration="none" x="593.187744140625" y="586.5">IProjectRepository</text></g></g><g transform="translate(-118,-38) scale(1,1)"><path fill="none" stroke="#000000" d="M 648 473 L 648 544" stroke-miterlimit="10"/></g><g transform="translate(-118,-38) scale(1,1)"><g><path fill="none" stroke="none"/><text fill="#000000" stroke="none" font-family="Arial" font-size="13px" font-style="normal" font-weight="normal" text-decoration="none" x="957" y="618">+GetAllFiltered(in user:User, in criteria:Func): IEnumerable</text></g></g><g transform="translate(-118,-38) scale(1,1)"><g><path fill="none" stroke="none"/><text fill="#000000" stroke="none" font-family="Arial" font-size="13px" font-style="normal" font-weight="normal" text-decoration="none" x="957" y="633">+Add(in user:User, in newBug:Bug): void</text></g></g><g transform="translate(-118,-38) scale(1,1)"><g><path fill="none" stroke="none"/><text fill="#000000" stroke="none" font-family="Arial" font-size="13px" font-style="normal" font-weight="normal" text-decoration="none" x="957" y="648">+Update(in user:User, in updatedBug:Bug): void</text></g></g><g transform="translate(-118,-38) scale(1,1)"><g><path fill="none" stroke="none"/><text fill="#000000" stroke="none" font-family="Arial" font-size="13px" font-style="normal" font-weight="normal" text-decoration="none" x="957" y="663">+Delete(in user:User, in bugId:int): void</text></g></g><g transform="translate(-118,-38) scale(1,1)"><g><path fill="none" stroke="none"/><text fill="#000000" stroke="none" font-family="Arial" font-size="13px" font-style="normal" font-weight="normal" text-decoration="none" x="957" y="678">+Fix(in user:User, in bugId:int, in fixingTime:int): void</text></g></g><g transform="translate(-118,-38) scale(1,1)"><g><path fill="none" stroke="none"/><text fill="#000000" stroke="none" font-family="Arial" font-size="13px" font-style="normal" font-weight="normal" text-decoration="none" x="957" y="693">+Get(in user:User, in bugId:int): Bug</text></g></g><g transform="translate(-118,-38) scale(1,1)"><g><path fill="none" stroke="none"/><text fill="#000000" stroke="none" font-family="Arial" font-size="13px" font-style="normal" font-weight="normal" text-decoration="none" x="957" y="708">+Save(): void</text></g></g><g transform="translate(-118,-38) scale(1,1)"><path fill="#C0C0C0" stroke="none" d="M 1088.391357421875 554.5 C 1088.391357421875 548.1487248 1093.540082221875 543 1099.891357421875 543 C 1106.242632621875 543 1111.391357421875 548.1487248 1111.391357421875 554.5 C 1111.391357421875 560.8512752 1106.242632621875 566 1099.891357421875 566 C 1093.540082221875 566 1088.391357421875 560.8512752 1088.391357421875 554.5 Z" opacity="0.2"/></g><g transform="translate(-118,-38) scale(1,1)"><path fill="#ffffff" stroke="none" d="M 1081.391357421875 547.5 C 1081.391357421875 541.1487248 1086.540082221875 536 1092.891357421875 536 C 1099.242632621875 536 1104.391357421875 541.1487248 1104.391357421875 547.5 C 1104.391357421875 553.8512752 1099.242632621875 559 1092.891357421875 559 C 1086.540082221875 559 1081.391357421875 553.8512752 1081.391357421875 547.5 Z"/></g><g transform="translate(-118,-38) scale(1,1)"><path fill="none" stroke="#000000" d="M 1081.391357421875 547.5 C 1081.391357421875 541.1487248 1086.540082221875 536 1092.891357421875 536 C 1099.242632621875 536 1104.391357421875 541.1487248 1104.391357421875 547.5 C 1104.391357421875 553.8512752 1099.242632621875 559 1092.891357421875 559 C 1086.540082221875 559 1081.391357421875 553.8512752 1081.391357421875 547.5 Z" stroke-miterlimit="10"/></g><g transform="translate(-118,-38) scale(1,1)"><g><path fill="none" stroke="none"/><text fill="#000000" stroke="none" font-family="Arial" font-size="13px" font-style="normal" font-weight="bold" text-decoration="none" x="1048.451416015625" y="578.5">IBugRepository</text></g></g><g transform="translate(-118,-38) scale(1,1)"><path fill="none" stroke="#000000" d="M 1096 451 L 1096 536" stroke-miterlimit="10"/></g><g transform="translate(-118,-38) scale(1,1)"><g><path fill="none" stroke="none"/><text fill="#000000" stroke="none" font-family="Arial" font-size="13px" font-style="normal" font-weight="normal" text-decoration="none" x="1349" y="618">+Add(in assignment:Assignment): void</text></g></g><g transform="translate(-118,-38) scale(1,1)"><g><path fill="none" stroke="none"/><text fill="#000000" stroke="none" font-family="Arial" font-size="13px" font-style="normal" font-weight="normal" text-decoration="none" x="1349" y="633">+Save(): void</text></g></g><g transform="translate(-118,-38) scale(1,1)"><path fill="#C0C0C0" stroke="none" d="M 1480.956787109375 554.5 C 1480.956787109375 548.1487248 1486.105511909375 543 1492.456787109375 543 C 1498.808062309375 543 1503.956787109375 548.1487248 1503.956787109375 554.5 C 1503.956787109375 560.8512752 1498.808062309375 566 1492.456787109375 566 C 1486.105511909375 566 1480.956787109375 560.8512752 1480.956787109375 554.5 Z" opacity="0.2"/></g><g transform="translate(-118,-38) scale(1,1)"><path fill="#ffffff" stroke="none" d="M 1473.956787109375 547.5 C 1473.956787109375 541.1487248 1479.105511909375 536 1485.456787109375 536 C 1491.808062309375 536 1496.956787109375 541.1487248 1496.956787109375 547.5 C 1496.956787109375 553.8512752 1491.808062309375 559 1485.456787109375 559 C 1479.105511909375 559 1473.956787109375 553.8512752 1473.956787109375 547.5 Z"/></g><g transform="translate(-118,-38) scale(1,1)"><path fill="none" stroke="#000000" d="M 1473.956787109375 547.5 C 1473.956787109375 541.1487248 1479.105511909375 536 1485.456787109375 536 C 1491.808062309375 536 1496.956787109375 541.1487248 1496.956787109375 547.5 C 1496.956787109375 553.8512752 1491.808062309375 559 1485.456787109375 559 C 1479.105511909375 559 1473.956787109375 553.8512752 1473.956787109375 547.5 Z" stroke-miterlimit="10"/></g><g transform="translate(-118,-38) scale(1,1)"><g><path fill="none" stroke="none"/><text fill="#000000" stroke="none" font-family="Arial" font-size="13px" font-style="normal" font-weight="bold" text-decoration="none" x="1418.622314453125" y="578.5">IAssignmentRepository</text></g></g><g transform="translate(-118,-38) scale(1,1)"><path fill="none" stroke="#000000" d="M 1488 376 L 1488 536" stroke-miterlimit="10"/></g><g transform="translate(-118,-38) scale(1,1)"><path fill="none" stroke="#000000" d="M 854 123 L 1128 123" stroke-miterlimit="10"/></g><g transform="translate(-118,-38) scale(1,1)"><path fill="none" stroke="#000000" d="M 1117.837325142376 127.20951775601598 L 1128 123 L 1117.837325142376 118.79048224398402" stroke-miterlimit="10"/></g><g transform="translate(-118,-38) scale(1,1)"><g><path fill="none" stroke="none"/><text fill="#000000" stroke="none" font-family="Arial" font-size="13px" font-style="normal" font-weight="normal" text-decoration="none" x="865.5" y="141.5">0..*</text></g></g><g transform="translate(-118,-38) scale(1,1)"><g><path fill="none" stroke="none"/><text fill="#000000" stroke="none" font-family="Arial" font-size="13px" font-style="normal" font-weight="normal" text-decoration="none" x="1102.5" y="141.5">1</text></g></g></g></svg>