<svg version="1.1" xmlns="http://www.w3.org/2000/svg" xmlns:xlink="http://www.w3.org/1999/xlink" width="1270.033203125" height="845"><defs/><g>""""""""""""""""""""""""""""""""""""""""""""""""""""""""""""""""""""""""""""""""""""""""""""""""""""""""""""""""""""""""""""""""""""""""""""""""""""""""""""""""""""""""""""""""""""""""""""""""""""""""""<text fill="#eeeeee" stroke="none" font-family="Arial" font-size="24px" font-style="normal" font-weight="normal" text-decoration="none" x="1200" y="840">UNREGISTERED</text><g transform="translate(-302,-134) scale(1,1)"><rect fill="#C0C0C0" stroke="none" x="801" y="199" width="180.1962890625" height="87" opacity="0.2"/></g><g transform="translate(-302,-134) scale(1,1)"><rect fill="#ffffff" stroke="none" x="794" y="192" width="180.1962890625" height="87"/></g><g transform="translate(-302,-134) scale(1,1)"><path fill="none" stroke="#000000" d="M 794 192 L 974.1962890625 192 L 974.1962890625 279 L 794 279 L 794 192 Z Z" stroke-miterlimit="10"/></g><g transform="translate(-302,-134) scale(1,1)"><path fill="none" stroke="#000000" d="M 794 232 L 974.1962890625 232" stroke-miterlimit="10"/></g><g transform="translate(-302,-134) scale(1,1)"><path fill="none" stroke="#000000" d="M 794 270 L 974.1962890625 270" stroke-miterlimit="10"/></g><g transform="translate(-302,-134) scale(1,1)"><g><path fill="none" stroke="none"/><text fill="#000000" stroke="none" font-family="Arial" font-size="13px" font-style="normal" font-weight="bold" text-decoration="none" x="805.0888671875" y="211.5">DomainValidationException</text></g></g><g transform="translate(-302,-134) scale(1,1)"><g><path fill="none" stroke="none"/><text fill="#000000" stroke="none" font-family="Arial" font-size="13px" font-style="normal" font-weight="normal" text-decoration="none" x="819.805908203125" y="226.5">(from CsharpReverse)</text></g></g><g transform="translate(-302,-134) scale(1,1)"><g><path fill="none" stroke="none"/><text fill="#000000" stroke="none" font-family="Arial" font-size="13px" font-style="normal" font-weight="normal" text-decoration="none" x="799" y="249.5">#messageToDisplay: string</text></g></g><g transform="translate(-302,-134) scale(1,1)"><g><path fill="none" stroke="none"/><text fill="#000000" stroke="none" font-family="Arial" font-size="13px" font-style="normal" font-weight="normal" text-decoration="none" x="799" y="264.5">+Message: string</text></g></g><g transform="translate(-302,-134) scale(1,1)"><rect fill="#C0C0C0" stroke="none" x="1215" y="455" width="354.033203125" height="57" opacity="0.2"/></g><g transform="translate(-302,-134) scale(1,1)"><rect fill="#ffffff" stroke="none" x="1208" y="448" width="354.033203125" height="57"/></g><g transform="translate(-302,-134) scale(1,1)"><path fill="none" stroke="#000000" d="M 1208 448 L 1562.033203125 448 L 1562.033203125 505 L 1208 505 L 1208 448 Z Z" stroke-miterlimit="10"/></g><g transform="translate(-302,-134) scale(1,1)"><path fill="none" stroke="#000000" d="M 1208 473 L 1562.033203125 473" stroke-miterlimit="10"/></g><g transform="translate(-302,-134) scale(1,1)"><path fill="none" stroke="#000000" d="M 1208 483 L 1562.033203125 483" stroke-miterlimit="10"/></g><g transform="translate(-302,-134) scale(1,1)"><g><path fill="none" stroke="none"/><text fill="#000000" stroke="none" font-family="Arial" font-size="13px" font-style="normal" font-weight="bold" text-decoration="none" x="1271.923583984375" y="467.5">AssignmentIdLengthIncorrectException</text></g></g><g transform="translate(-302,-134) scale(1,1)"><g><path fill="none" stroke="none"/><text fill="#000000" stroke="none" font-family="Arial" font-size="13px" font-style="normal" font-weight="normal" text-decoration="none" x="1213" y="500.5">«constructor»+AssignmentIdLengthIncorrectException()</text></g></g><g transform="translate(-302,-134) scale(1,1)"><path fill="none" stroke="#000000" d="M 1208 484 L 1104 484 L 1104 240 L 974 240" stroke-miterlimit="10"/></g><g transform="translate(-302,-134) scale(1,1)"><path fill="#FFFFFF" stroke="none" d="M 994.3253497152483 231.58096448796803 L 974 240 L 994.3253497152483 248.41903551203197"/></g><g transform="translate(-302,-134) scale(1,1)"><path fill="none" stroke="#000000" d="M 994.3253497152483 231.58096448796803 L 974 240 L 994.3253497152483 248.41903551203197 L 994.3253497152483 231.58096448796803" stroke-miterlimit="10"/></g><g transform="translate(-302,-134) scale(1,1)"><rect fill="#C0C0C0" stroke="none" x="1215" y="551" width="354.033203125" height="57" opacity="0.2"/></g><g transform="translate(-302,-134) scale(1,1)"><rect fill="#ffffff" stroke="none" x="1208" y="544" width="354.033203125" height="57"/></g><g transform="translate(-302,-134) scale(1,1)"><path fill="none" stroke="#000000" d="M 1208 544 L 1562.033203125 544 L 1562.033203125 601 L 1208 601 L 1208 544 Z Z" stroke-miterlimit="10"/></g><g transform="translate(-302,-134) scale(1,1)"><path fill="none" stroke="#000000" d="M 1208 569 L 1562.033203125 569" stroke-miterlimit="10"/></g><g transform="translate(-302,-134) scale(1,1)"><path fill="none" stroke="#000000" d="M 1208 579 L 1562.033203125 579" stroke-miterlimit="10"/></g><g transform="translate(-302,-134) scale(1,1)"><g><path fill="none" stroke="none"/><text fill="#000000" stroke="none" font-family="Arial" font-size="13px" font-style="normal" font-weight="bold" text-decoration="none" x="1260.005859375" y="563.5">AssignmentNameLengthIncorrectException</text></g></g><g transform="translate(-302,-134) scale(1,1)"><g><path fill="none" stroke="none"/><text fill="#000000" stroke="none" font-family="Arial" font-size="13px" font-style="normal" font-weight="normal" text-decoration="none" x="1213" y="596.5">«constructor»+AssignmentNameLengthIncorrectException()</text></g></g><g transform="translate(-302,-134) scale(1,1)"><path fill="none" stroke="#000000" d="M 1208 552 L 1104 552 L 1104 240 L 974 240" stroke-miterlimit="10"/></g><g transform="translate(-302,-134) scale(1,1)"><path fill="#FFFFFF" stroke="none" d="M 994.3253497152483 231.58096448796803 L 974 240 L 994.3253497152483 248.41903551203197"/></g><g transform="translate(-302,-134) scale(1,1)"><path fill="none" stroke="#000000" d="M 994.3253497152483 231.58096448796803 L 974 240 L 994.3253497152483 248.41903551203197 L 994.3253497152483 231.58096448796803" stroke-miterlimit="10"/></g><g transform="translate(-302,-134) scale(1,1)"><rect fill="#C0C0C0" stroke="none" x="319" y="575" width="339.59228515625" height="57" opacity="0.2"/></g><g transform="translate(-302,-134) scale(1,1)"><rect fill="#ffffff" stroke="none" x="312" y="568" width="339.59228515625" height="57"/></g><g transform="translate(-302,-134) scale(1,1)"><path fill="none" stroke="#000000" d="M 312 568 L 651.59228515625 568 L 651.59228515625 625 L 312 625 L 312 568 Z Z" stroke-miterlimit="10"/></g><g transform="translate(-302,-134) scale(1,1)"><path fill="none" stroke="#000000" d="M 312 593 L 651.59228515625 593" stroke-miterlimit="10"/></g><g transform="translate(-302,-134) scale(1,1)"><path fill="none" stroke="#000000" d="M 312 603 L 651.59228515625 603" stroke-miterlimit="10"/></g><g transform="translate(-302,-134) scale(1,1)"><g><path fill="none" stroke="none"/><text fill="#000000" stroke="none" font-family="Arial" font-size="13px" font-style="normal" font-weight="bold" text-decoration="none" x="364.005859375" y="587.5">BugDescriptionLengthIncorrectException</text></g></g><g transform="translate(-302,-134) scale(1,1)"><g><path fill="none" stroke="none"/><text fill="#000000" stroke="none" font-family="Arial" font-size="13px" font-style="normal" font-weight="normal" text-decoration="none" x="317" y="620.5">«constructor»+BugDescriptionLengthIncorrectException()</text></g></g><g transform="translate(-302,-134) scale(1,1)"><path fill="none" stroke="#000000" d="M 652 604 L 712 604 L 712 232 L 794 232" stroke-miterlimit="10"/></g><g transform="translate(-302,-134) scale(1,1)"><path fill="#FFFFFF" stroke="none" d="M 773.6746502847517 240.41903551203197 L 794 232 L 773.6746502847517 223.58096448796803"/></g><g transform="translate(-302,-134) scale(1,1)"><path fill="none" stroke="#000000" d="M 773.6746502847517 240.41903551203197 L 794 232 L 773.6746502847517 223.58096448796803 L 773.6746502847517 240.41903551203197" stroke-miterlimit="10"/></g><g transform="translate(-302,-134) scale(1,1)"><rect fill="#C0C0C0" stroke="none" x="319" y="815" width="339.59228515625" height="57" opacity="0.2"/></g><g transform="translate(-302,-134) scale(1,1)"><rect fill="#ffffff" stroke="none" x="312" y="808" width="339.59228515625" height="57"/></g><g transform="translate(-302,-134) scale(1,1)"><path fill="none" stroke="#000000" d="M 312 808 L 651.59228515625 808 L 651.59228515625 865 L 312 865 L 312 808 Z Z" stroke-miterlimit="10"/></g><g transform="translate(-302,-134) scale(1,1)"><path fill="none" stroke="#000000" d="M 312 833 L 651.59228515625 833" stroke-miterlimit="10"/></g><g transform="translate(-302,-134) scale(1,1)"><path fill="none" stroke="#000000" d="M 312 843 L 651.59228515625 843" stroke-miterlimit="10"/></g><g transform="translate(-302,-134) scale(1,1)"><g><path fill="none" stroke="none"/><text fill="#000000" stroke="none" font-family="Arial" font-size="13px" font-style="normal" font-weight="bold" text-decoration="none" x="391.09765625" y="827.5">BugIdLengthIncorrectException</text></g></g><g transform="translate(-302,-134) scale(1,1)"><g><path fill="none" stroke="none"/><text fill="#000000" stroke="none" font-family="Arial" font-size="13px" font-style="normal" font-weight="normal" text-decoration="none" x="317" y="860.5">«constructor»+BugIdLengthIncorrectException()</text></g></g><g transform="translate(-302,-134) scale(1,1)"><path fill="none" stroke="#000000" d="M 652 836 L 712 836 L 712 232 L 794 232" stroke-miterlimit="10"/></g><g transform="translate(-302,-134) scale(1,1)"><path fill="#FFFFFF" stroke="none" d="M 773.6746502847517 240.41903551203197 L 794 232 L 773.6746502847517 223.58096448796803"/></g><g transform="translate(-302,-134) scale(1,1)"><path fill="none" stroke="#000000" d="M 773.6746502847517 240.41903551203197 L 794 232 L 773.6746502847517 223.58096448796803 L 773.6746502847517 240.41903551203197" stroke-miterlimit="10"/></g><g transform="translate(-302,-134) scale(1,1)"><rect fill="#C0C0C0" stroke="none" x="319" y="303" width="339.59228515625" height="57" opacity="0.2"/></g><g transform="translate(-302,-134) scale(1,1)"><rect fill="#ffffff" stroke="none" x="312" y="296" width="339.59228515625" height="57"/></g><g transform="translate(-302,-134) scale(1,1)"><path fill="none" stroke="#000000" d="M 312 296 L 651.59228515625 296 L 651.59228515625 353 L 312 353 L 312 296 Z Z" stroke-miterlimit="10"/></g><g transform="translate(-302,-134) scale(1,1)"><path fill="none" stroke="#000000" d="M 312 321 L 651.59228515625 321" stroke-miterlimit="10"/></g><g transform="translate(-302,-134) scale(1,1)"><path fill="none" stroke="#000000" d="M 312 331 L 651.59228515625 331" stroke-miterlimit="10"/></g><g transform="translate(-302,-134) scale(1,1)"><g><path fill="none" stroke="none"/><text fill="#000000" stroke="none" font-family="Arial" font-size="13px" font-style="normal" font-weight="bold" text-decoration="none" x="379.179931640625" y="315.5">BugNameLengthIncorrectException</text></g></g><g transform="translate(-302,-134) scale(1,1)"><g><path fill="none" stroke="none"/><text fill="#000000" stroke="none" font-family="Arial" font-size="13px" font-style="normal" font-weight="normal" text-decoration="none" x="317" y="348.5">«constructor»+BugNameLengthIncorrectException()</text></g></g><g transform="translate(-302,-134) scale(1,1)"><rect fill="#C0C0C0" stroke="none" x="319" y="479" width="339.59228515625" height="57" opacity="0.2"/></g><g transform="translate(-302,-134) scale(1,1)"><rect fill="#ffffff" stroke="none" x="312" y="472" width="339.59228515625" height="57"/></g><g transform="translate(-302,-134) scale(1,1)"><path fill="none" stroke="#000000" d="M 312 472 L 651.59228515625 472 L 651.59228515625 529 L 312 529 L 312 472 Z Z" stroke-miterlimit="10"/></g><g transform="translate(-302,-134) scale(1,1)"><path fill="none" stroke="#000000" d="M 312 497 L 651.59228515625 497" stroke-miterlimit="10"/></g><g transform="translate(-302,-134) scale(1,1)"><path fill="none" stroke="#000000" d="M 312 507 L 651.59228515625 507" stroke-miterlimit="10"/></g><g transform="translate(-302,-134) scale(1,1)"><g><path fill="none" stroke="none"/><text fill="#000000" stroke="none" font-family="Arial" font-size="13px" font-style="normal" font-weight="bold" text-decoration="none" x="401.22216796875" y="491.5">BugStateIncorrectException</text></g></g><g transform="translate(-302,-134) scale(1,1)"><g><path fill="none" stroke="none"/><text fill="#000000" stroke="none" font-family="Arial" font-size="13px" font-style="normal" font-weight="normal" text-decoration="none" x="317" y="524.5">«constructor»+BugStateIncorrectException()</text></g></g><g transform="translate(-302,-134) scale(1,1)"><path fill="none" stroke="#000000" d="M 652 500 L 712 500 L 712 232 L 794 232" stroke-miterlimit="10"/></g><g transform="translate(-302,-134) scale(1,1)"><path fill="#FFFFFF" stroke="none" d="M 773.6746502847517 240.41903551203197 L 794 232 L 773.6746502847517 223.58096448796803"/></g><g transform="translate(-302,-134) scale(1,1)"><path fill="none" stroke="#000000" d="M 773.6746502847517 240.41903551203197 L 794 232 L 773.6746502847517 223.58096448796803 L 773.6746502847517 240.41903551203197" stroke-miterlimit="10"/></g><g transform="translate(-302,-134) scale(1,1)"><rect fill="#C0C0C0" stroke="none" x="319" y="383" width="339.59228515625" height="57" opacity="0.2"/></g><g transform="translate(-302,-134) scale(1,1)"><rect fill="#ffffff" stroke="none" x="312" y="376" width="339.59228515625" height="57"/></g><g transform="translate(-302,-134) scale(1,1)"><path fill="none" stroke="#000000" d="M 312 376 L 651.59228515625 376 L 651.59228515625 433 L 312 433 L 312 376 Z Z" stroke-miterlimit="10"/></g><g transform="translate(-302,-134) scale(1,1)"><path fill="none" stroke="#000000" d="M 312 401 L 651.59228515625 401" stroke-miterlimit="10"/></g><g transform="translate(-302,-134) scale(1,1)"><path fill="none" stroke="#000000" d="M 312 411 L 651.59228515625 411" stroke-miterlimit="10"/></g><g transform="translate(-302,-134) scale(1,1)"><g><path fill="none" stroke="none"/><text fill="#000000" stroke="none" font-family="Arial" font-size="13px" font-style="normal" font-weight="bold" text-decoration="none" x="374.838134765625" y="395.5">BugVersionLengthIncorrectException</text></g></g><g transform="translate(-302,-134) scale(1,1)"><g><path fill="none" stroke="none"/><text fill="#000000" stroke="none" font-family="Arial" font-size="13px" font-style="normal" font-weight="normal" text-decoration="none" x="317" y="428.5">«constructor»+BugVersionLengthIncorrectException()</text></g></g><g transform="translate(-302,-134) scale(1,1)"><path fill="none" stroke="#000000" d="M 652 412 L 712 412 L 712 232 L 794 232" stroke-miterlimit="10"/></g><g transform="translate(-302,-134) scale(1,1)"><path fill="#FFFFFF" stroke="none" d="M 773.6746502847517 240.41903551203197 L 794 232 L 773.6746502847517 223.58096448796803"/></g><g transform="translate(-302,-134) scale(1,1)"><path fill="none" stroke="#000000" d="M 773.6746502847517 240.41903551203197 L 794 232 L 773.6746502847517 223.58096448796803 L 773.6746502847517 240.41903551203197" stroke-miterlimit="10"/></g><g transform="translate(-302,-134) scale(1,1)"><rect fill="#C0C0C0" stroke="none" x="1023" y="839" width="354.033203125" height="57" opacity="0.2"/></g><g transform="translate(-302,-134) scale(1,1)"><rect fill="#ffffff" stroke="none" x="1016" y="832" width="354.033203125" height="57"/></g><g transform="translate(-302,-134) scale(1,1)"><path fill="none" stroke="#000000" d="M 1016 832 L 1370.033203125 832 L 1370.033203125 889 L 1016 889 L 1016 832 Z Z" stroke-miterlimit="10"/></g><g transform="translate(-302,-134) scale(1,1)"><path fill="none" stroke="#000000" d="M 1016 857 L 1370.033203125 857" stroke-miterlimit="10"/></g><g transform="translate(-302,-134) scale(1,1)"><path fill="none" stroke="#000000" d="M 1016 867 L 1370.033203125 867" stroke-miterlimit="10"/></g><g transform="translate(-302,-134) scale(1,1)"><g><path fill="none" stroke="none"/><text fill="#000000" stroke="none" font-family="Arial" font-size="13px" font-style="normal" font-weight="bold" text-decoration="none" x="1117.876220703125" y="851.5">EmailIsIncorrectException</text></g></g><g transform="translate(-302,-134) scale(1,1)"><g><path fill="none" stroke="none"/><text fill="#000000" stroke="none" font-family="Arial" font-size="13px" font-style="normal" font-weight="normal" text-decoration="none" x="1021" y="884.5">«constructor»+EmailIsIncorrectException()</text></g></g><g transform="translate(-302,-134) scale(1,1)"><path fill="none" stroke="#000000" d="M 1016 860 L 848 860 L 848 279" stroke-miterlimit="10"/></g><g transform="translate(-302,-134) scale(1,1)"><path fill="#FFFFFF" stroke="none" d="M 856.419035512032 299.3253497152483 L 848 279 L 839.580964487968 299.3253497152483"/></g><g transform="translate(-302,-134) scale(1,1)"><path fill="none" stroke="#000000" d="M 856.419035512032 299.3253497152483 L 848 279 L 839.580964487968 299.3253497152483 L 856.419035512032 299.3253497152483" stroke-miterlimit="10"/></g><g transform="translate(-302,-134) scale(1,1)"><rect fill="#C0C0C0" stroke="none" x="319" y="735" width="339.59228515625" height="57" opacity="0.2"/></g><g transform="translate(-302,-134) scale(1,1)"><rect fill="#ffffff" stroke="none" x="312" y="728" width="339.59228515625" height="57"/></g><g transform="translate(-302,-134) scale(1,1)"><path fill="none" stroke="#000000" d="M 312 728 L 651.59228515625 728 L 651.59228515625 785 L 312 785 L 312 728 Z Z" stroke-miterlimit="10"/></g><g transform="translate(-302,-134) scale(1,1)"><path fill="none" stroke="#000000" d="M 312 753 L 651.59228515625 753" stroke-miterlimit="10"/></g><g transform="translate(-302,-134) scale(1,1)"><path fill="none" stroke="#000000" d="M 312 763 L 651.59228515625 763" stroke-miterlimit="10"/></g><g transform="translate(-302,-134) scale(1,1)"><g><path fill="none" stroke="none"/><text fill="#000000" stroke="none" font-family="Arial" font-size="13px" font-style="normal" font-weight="bold" text-decoration="none" x="391.354736328125" y="747.5">InvalidBugFixingTimeException</text></g></g><g transform="translate(-302,-134) scale(1,1)"><g><path fill="none" stroke="none"/><text fill="#000000" stroke="none" font-family="Arial" font-size="13px" font-style="normal" font-weight="normal" text-decoration="none" x="317" y="780.5">«constructor»+InvalidBugFixingTimeException()</text></g></g><g transform="translate(-302,-134) scale(1,1)"><path fill="none" stroke="#000000" d="M 652 756 L 712 756 L 712 232 L 794 232" stroke-miterlimit="10"/></g><g transform="translate(-302,-134) scale(1,1)"><path fill="#FFFFFF" stroke="none" d="M 773.6746502847517 240.41903551203197 L 794 232 L 773.6746502847517 223.58096448796803"/></g><g transform="translate(-302,-134) scale(1,1)"><path fill="none" stroke="#000000" d="M 773.6746502847517 240.41903551203197 L 794 232 L 773.6746502847517 223.58096448796803 L 773.6746502847517 240.41903551203197" stroke-miterlimit="10"/></g><g transform="translate(-302,-134) scale(1,1)"><rect fill="#C0C0C0" stroke="none" x="319" y="655" width="339.59228515625" height="57" opacity="0.2"/></g><g transform="translate(-302,-134) scale(1,1)"><rect fill="#ffffff" stroke="none" x="312" y="648" width="339.59228515625" height="57"/></g><g transform="translate(-302,-134) scale(1,1)"><path fill="none" stroke="#000000" d="M 312 648 L 651.59228515625 648 L 651.59228515625 705 L 312 705 L 312 648 Z Z" stroke-miterlimit="10"/></g><g transform="translate(-302,-134) scale(1,1)"><path fill="none" stroke="#000000" d="M 312 673 L 651.59228515625 673" stroke-miterlimit="10"/></g><g transform="translate(-302,-134) scale(1,1)"><path fill="none" stroke="#000000" d="M 312 683 L 651.59228515625 683" stroke-miterlimit="10"/></g><g transform="translate(-302,-134) scale(1,1)"><g><path fill="none" stroke="none"/><text fill="#000000" stroke="none" font-family="Arial" font-size="13px" font-style="normal" font-weight="bold" text-decoration="none" x="391.10400390625" y="667.5">InvalidBugSolverRoleException</text></g></g><g transform="translate(-302,-134) scale(1,1)"><g><path fill="none" stroke="none"/><text fill="#000000" stroke="none" font-family="Arial" font-size="13px" font-style="normal" font-weight="normal" text-decoration="none" x="317" y="700.5">«constructor»+InvalidBugSolverRoleException()</text></g></g><g transform="translate(-302,-134) scale(1,1)"><path fill="none" stroke="#000000" d="M 652 700 L 712 700 L 712 232 L 794 232" stroke-miterlimit="10"/></g><g transform="translate(-302,-134) scale(1,1)"><path fill="#FFFFFF" stroke="none" d="M 773.6746502847517 240.41903551203197 L 794 232 L 773.6746502847517 223.58096448796803"/></g><g transform="translate(-302,-134) scale(1,1)"><path fill="none" stroke="#000000" d="M 773.6746502847517 240.41903551203197 L 794 232 L 773.6746502847517 223.58096448796803 L 773.6746502847517 240.41903551203197" stroke-miterlimit="10"/></g><g transform="translate(-302,-134) scale(1,1)"><rect fill="#C0C0C0" stroke="none" x="1023" y="671" width="354.033203125" height="57" opacity="0.2"/></g><g transform="translate(-302,-134) scale(1,1)"><rect fill="#ffffff" stroke="none" x="1016" y="664" width="354.033203125" height="57"/></g><g transform="translate(-302,-134) scale(1,1)"><path fill="none" stroke="#000000" d="M 1016 664 L 1370.033203125 664 L 1370.033203125 721 L 1016 721 L 1016 664 Z Z" stroke-miterlimit="10"/></g><g transform="translate(-302,-134) scale(1,1)"><path fill="none" stroke="#000000" d="M 1016 689 L 1370.033203125 689" stroke-miterlimit="10"/></g><g transform="translate(-302,-134) scale(1,1)"><path fill="none" stroke="#000000" d="M 1016 699 L 1370.033203125 699" stroke-miterlimit="10"/></g><g transform="translate(-302,-134) scale(1,1)"><g><path fill="none" stroke="none"/><text fill="#000000" stroke="none" font-family="Arial" font-size="13px" font-style="normal" font-weight="bold" text-decoration="none" x="1099.44580078125" y="683.5">InvalidUserHourlyRateException</text></g></g><g transform="translate(-302,-134) scale(1,1)"><g><path fill="none" stroke="none"/><text fill="#000000" stroke="none" font-family="Arial" font-size="13px" font-style="normal" font-weight="normal" text-decoration="none" x="1021" y="716.5">«constructor»+InvalidUserHourlyRateException()</text></g></g><g transform="translate(-302,-134) scale(1,1)"><path fill="none" stroke="#000000" d="M 1016 692 L 904 692 L 904 279" stroke-miterlimit="10"/></g><g transform="translate(-302,-134) scale(1,1)"><path fill="#FFFFFF" stroke="none" d="M 912.419035512032 299.3253497152483 L 904 279 L 895.580964487968 299.3253497152483"/></g><g transform="translate(-302,-134) scale(1,1)"><path fill="none" stroke="#000000" d="M 912.419035512032 299.3253497152483 L 904 279 L 895.580964487968 299.3253497152483 L 912.419035512032 299.3253497152483" stroke-miterlimit="10"/></g><g transform="translate(-302,-134) scale(1,1)"><rect fill="#C0C0C0" stroke="none" x="1215" y="151" width="354.033203125" height="57" opacity="0.2"/></g><g transform="translate(-302,-134) scale(1,1)"><rect fill="#ffffff" stroke="none" x="1208" y="144" width="354.033203125" height="57"/></g><g transform="translate(-302,-134) scale(1,1)"><path fill="none" stroke="#000000" d="M 1208 144 L 1562.033203125 144 L 1562.033203125 201 L 1208 201 L 1208 144 Z Z" stroke-miterlimit="10"/></g><g transform="translate(-302,-134) scale(1,1)"><path fill="none" stroke="#000000" d="M 1208 169 L 1562.033203125 169" stroke-miterlimit="10"/></g><g transform="translate(-302,-134) scale(1,1)"><path fill="none" stroke="#000000" d="M 1208 179 L 1562.033203125 179" stroke-miterlimit="10"/></g><g transform="translate(-302,-134) scale(1,1)"><g><path fill="none" stroke="none"/><text fill="#000000" stroke="none" font-family="Arial" font-size="13px" font-style="normal" font-weight="bold" text-decoration="none" x="1273.73583984375" y="163.5">ProjectNameLengthIncorrectException</text></g></g><g transform="translate(-302,-134) scale(1,1)"><g><path fill="none" stroke="none"/><text fill="#000000" stroke="none" font-family="Arial" font-size="13px" font-style="normal" font-weight="normal" text-decoration="none" x="1213" y="196.5">«constructor»+ProjectNameLengthIncorrectException()</text></g></g><g transform="translate(-302,-134) scale(1,1)"><path fill="none" stroke="#000000" d="M 1208 200 L 974 200" stroke-miterlimit="10"/></g><g transform="translate(-302,-134) scale(1,1)"><path fill="#FFFFFF" stroke="none" d="M 994.3253497152483 191.58096448796803 L 974 200 L 994.3253497152483 208.41903551203197"/></g><g transform="translate(-302,-134) scale(1,1)"><path fill="none" stroke="#000000" d="M 994.3253497152483 191.58096448796803 L 974 200 L 994.3253497152483 208.41903551203197 L 994.3253497152483 191.58096448796803" stroke-miterlimit="10"/></g><g transform="translate(-302,-134) scale(1,1)"><rect fill="#C0C0C0" stroke="none" x="1023" y="919" width="354.033203125" height="57" opacity="0.2"/></g><g transform="translate(-302,-134) scale(1,1)"><rect fill="#ffffff" stroke="none" x="1016" y="912" width="354.033203125" height="57"/></g><g transform="translate(-302,-134) scale(1,1)"><path fill="none" stroke="#000000" d="M 1016 912 L 1370.033203125 912 L 1370.033203125 969 L 1016 969 L 1016 912 Z Z" stroke-miterlimit="10"/></g><g transform="translate(-302,-134) scale(1,1)"><path fill="none" stroke="#000000" d="M 1016 937 L 1370.033203125 937" stroke-miterlimit="10"/></g><g transform="translate(-302,-134) scale(1,1)"><path fill="none" stroke="#000000" d="M 1016 947 L 1370.033203125 947" stroke-miterlimit="10"/></g><g transform="translate(-302,-134) scale(1,1)"><g><path fill="none" stroke="none"/><text fill="#000000" stroke="none" font-family="Arial" font-size="13px" font-style="normal" font-weight="bold" text-decoration="none" x="1109.928955078125" y="931.5">UserPropertyIsNullException</text></g></g><g transform="translate(-302,-134) scale(1,1)"><g><path fill="none" stroke="none"/><text fill="#000000" stroke="none" font-family="Arial" font-size="13px" font-style="normal" font-weight="normal" text-decoration="none" x="1021" y="964.5">«constructor»+UserPropertyIsNullException()</text></g></g><g transform="translate(-302,-134) scale(1,1)"><path fill="none" stroke="#000000" d="M 1016 940 L 827 940 L 827 279" stroke-miterlimit="10"/></g><g transform="translate(-302,-134) scale(1,1)"><path fill="#FFFFFF" stroke="none" d="M 835.419035512032 299.3253497152483 L 827 279 L 818.580964487968 299.3253497152483"/></g><g transform="translate(-302,-134) scale(1,1)"><path fill="none" stroke="#000000" d="M 835.419035512032 299.3253497152483 L 827 279 L 818.580964487968 299.3253497152483 L 835.419035512032 299.3253497152483" stroke-miterlimit="10"/></g><g transform="translate(-302,-134) scale(1,1)"><rect fill="#C0C0C0" stroke="none" x="1023" y="759" width="354.033203125" height="57" opacity="0.2"/></g><g transform="translate(-302,-134) scale(1,1)"><rect fill="#ffffff" stroke="none" x="1016" y="752" width="354.033203125" height="57"/></g><g transform="translate(-302,-134) scale(1,1)"><path fill="none" stroke="#000000" d="M 1016 752 L 1370.033203125 752 L 1370.033203125 809 L 1016 809 L 1016 752 Z Z" stroke-miterlimit="10"/></g><g transform="translate(-302,-134) scale(1,1)"><path fill="none" stroke="#000000" d="M 1016 777 L 1370.033203125 777" stroke-miterlimit="10"/></g><g transform="translate(-302,-134) scale(1,1)"><path fill="none" stroke="#000000" d="M 1016 787 L 1370.033203125 787" stroke-miterlimit="10"/></g><g transform="translate(-302,-134) scale(1,1)"><g><path fill="none" stroke="none"/><text fill="#000000" stroke="none" font-family="Arial" font-size="13px" font-style="normal" font-weight="bold" text-decoration="none" x="1112.093505859375" y="771.5">UserRoleIncorrectException</text></g></g><g transform="translate(-302,-134) scale(1,1)"><g><path fill="none" stroke="none"/><text fill="#000000" stroke="none" font-family="Arial" font-size="13px" font-style="normal" font-weight="normal" text-decoration="none" x="1021" y="804.5">«constructor»+UserRoleIncorrectException()</text></g></g><g transform="translate(-302,-134) scale(1,1)"><path fill="none" stroke="#000000" d="M 1016 780 L 880 780 L 880 279" stroke-miterlimit="10"/></g><g transform="translate(-302,-134) scale(1,1)"><path fill="#FFFFFF" stroke="none" d="M 888.419035512032 299.3253497152483 L 880 279 L 871.580964487968 299.3253497152483"/></g><g transform="translate(-302,-134) scale(1,1)"><path fill="none" stroke="#000000" d="M 888.419035512032 299.3253497152483 L 880 279 L 871.580964487968 299.3253497152483 L 888.419035512032 299.3253497152483" stroke-miterlimit="10"/></g><g transform="translate(-302,-134) scale(1,1)"><path fill="none" stroke="#000000" d="M 600 296 L 600 232 L 794 232" stroke-miterlimit="10"/></g><g transform="translate(-302,-134) scale(1,1)"><path fill="#FFFFFF" stroke="none" d="M 773.6746502847517 240.41903551203197 L 794 232 L 773.6746502847517 223.58096448796803"/></g><g transform="translate(-302,-134) scale(1,1)"><path fill="none" stroke="#000000" d="M 773.6746502847517 240.41903551203197 L 794 232 L 773.6746502847517 223.58096448796803 L 773.6746502847517 240.41903551203197" stroke-miterlimit="10"/></g></g></svg>