<svg version="1.1" xmlns="http://www.w3.org/2000/svg" xmlns:xlink="http://www.w3.org/1999/xlink" width="1093.59716796875" height="498"><defs/><g>""""""""""""""""""""""""""""""""""""""""""""""""""""""""""""""""""""""""""""""""""""""""""""""""""""""<g transform="translate(-91,-209) scale(1,1)"><g><path fill="none" stroke="none"/><text fill="#000000" stroke="none" font-family="Arial" font-size="13px" font-style="normal" font-weight="normal" text-decoration="none" x="234" y="309">GetParameters(): IEnumerable&lt;Parameter&gt; </text></g></g><g transform="translate(-91,-209) scale(1,1)"><g><path fill="none" stroke="none"/><text fill="#000000" stroke="none" font-family="Arial" font-size="13px" font-style="normal" font-weight="normal" text-decoration="none" x="234" y="324">GetProjectsFromFile(IEnumerable&lt;Parameter&gt; parameters): IEnumerable&lt;ProjectModel&gt; </text></g></g><g transform="translate(-91,-209) scale(1,1)"><rect fill="#C0C0C0" stroke="none" x="1044" y="434" width="137.59716796875" height="117" opacity="0.2"/></g><g transform="translate(-91,-209) scale(1,1)"><rect fill="#ffffff" stroke="none" x="1037" y="427" width="137.59716796875" height="117"/></g><g transform="translate(-91,-209) scale(1,1)"><path fill="none" stroke="#000000" d="M 1037 427 L 1174.59716796875 427 L 1174.59716796875 544 L 1037 544 L 1037 427 Z Z" stroke-miterlimit="10"/></g><g transform="translate(-91,-209) scale(1,1)"><path fill="none" stroke="#000000" d="M 1037 467 L 1174.59716796875 467" stroke-miterlimit="10"/></g><g transform="translate(-91,-209) scale(1,1)"><path fill="none" stroke="#000000" d="M 1037 535 L 1174.59716796875 535" stroke-miterlimit="10"/></g><g transform="translate(-91,-209) scale(1,1)"><g><path fill="none" stroke="none"/><text fill="#000000" stroke="none" font-family="Arial" font-size="13px" font-style="normal" font-weight="bold" text-decoration="none" x="1076.529541015625" y="446.5">BugModel</text></g></g><g transform="translate(-91,-209) scale(1,1)"><g><path fill="none" stroke="none"/><text fill="#000000" stroke="none" font-family="Arial" font-size="13px" font-style="normal" font-weight="normal" text-decoration="none" x="1041.5" y="461.5">(from ExternalReader)</text></g></g><g transform="translate(-91,-209) scale(1,1)"><g><path fill="none" stroke="none"/><text fill="#000000" stroke="none" font-family="Arial" font-size="13px" font-style="normal" font-weight="normal" text-decoration="none" x="1042" y="484.5">+Name: string</text></g></g><g transform="translate(-91,-209) scale(1,1)"><g><path fill="none" stroke="none"/><text fill="#000000" stroke="none" font-family="Arial" font-size="13px" font-style="normal" font-weight="normal" text-decoration="none" x="1042" y="499.5">+Description: string</text></g></g><g transform="translate(-91,-209) scale(1,1)"><g><path fill="none" stroke="none"/><text fill="#000000" stroke="none" font-family="Arial" font-size="13px" font-style="normal" font-weight="normal" text-decoration="none" x="1042" y="514.5">+Version: string</text></g></g><g transform="translate(-91,-209) scale(1,1)"><g><path fill="none" stroke="none"/><text fill="#000000" stroke="none" font-family="Arial" font-size="13px" font-style="normal" font-weight="normal" text-decoration="none" x="1042" y="529.5">+State: BugState</text></g></g><g transform="translate(-91,-209) scale(1,1)"><rect fill="#C0C0C0" stroke="none" x="116" y="434" width="140.87255859375" height="102" opacity="0.2"/></g><g transform="translate(-91,-209) scale(1,1)"><rect fill="#ffffff" stroke="none" x="109" y="427" width="140.87255859375" height="102"/></g><g transform="translate(-91,-209) scale(1,1)"><path fill="none" stroke="#000000" d="M 109 427 L 249.87255859375 427 L 249.87255859375 529 L 109 529 L 109 427 Z Z" stroke-miterlimit="10"/></g><g transform="translate(-91,-209) scale(1,1)"><path fill="none" stroke="#000000" d="M 109 467 L 249.87255859375 467" stroke-miterlimit="10"/></g><g transform="translate(-91,-209) scale(1,1)"><path fill="none" stroke="#000000" d="M 109 520 L 249.87255859375 520" stroke-miterlimit="10"/></g><g transform="translate(-91,-209) scale(1,1)"><g><path fill="none" stroke="none"/><text fill="#000000" stroke="none" font-family="Arial" font-size="13px" font-style="normal" font-weight="bold" text-decoration="none" x="149.09130859375" y="446.5">Parameter</text></g></g><g transform="translate(-91,-209) scale(1,1)"><g><path fill="none" stroke="none"/><text fill="#000000" stroke="none" font-family="Arial" font-size="13px" font-style="normal" font-weight="normal" text-decoration="none" x="115.1376953125" y="461.5">(from ExternalReader)</text></g></g><g transform="translate(-91,-209) scale(1,1)"><g><path fill="none" stroke="none"/><text fill="#000000" stroke="none" font-family="Arial" font-size="13px" font-style="normal" font-weight="normal" text-decoration="none" x="114" y="484.5">+Name: string</text></g></g><g transform="translate(-91,-209) scale(1,1)"><g><path fill="none" stroke="none"/><text fill="#000000" stroke="none" font-family="Arial" font-size="13px" font-style="normal" font-weight="normal" text-decoration="none" x="114" y="499.5">+Value: string</text></g></g><g transform="translate(-91,-209) scale(1,1)"><g><path fill="none" stroke="none"/><text fill="#000000" stroke="none" font-family="Arial" font-size="13px" font-style="normal" font-weight="normal" text-decoration="none" x="114" y="514.5">+Type: ParameterType</text></g></g><g transform="translate(-91,-209) scale(1,1)"><rect fill="#C0C0C0" stroke="none" x="284" y="626" width="248" height="72" opacity="0.2"/></g><g transform="translate(-91,-209) scale(1,1)"><rect fill="#ffffff" stroke="none" x="277" y="619" width="248" height="72"/></g><g transform="translate(-91,-209) scale(1,1)"><path fill="none" stroke="#000000" d="M 277 619 L 525 619 L 525 691 L 277 691 L 277 619 Z Z" stroke-miterlimit="10"/></g><g transform="translate(-91,-209) scale(1,1)"><path fill="none" stroke="#000000" d="M 277 659 L 525 659" stroke-miterlimit="10"/></g><g transform="translate(-91,-209) scale(1,1)"><path fill="none" stroke="#000000" d="M 277 669 L 525 669" stroke-miterlimit="10"/></g><g transform="translate(-91,-209) scale(1,1)"><g><path fill="none" stroke="none"/><text fill="#000000" stroke="none" font-family="Arial" font-size="13px" font-style="normal" font-weight="bold" text-decoration="none" x="342.109619140625" y="638.5">ParameterException</text></g></g><g transform="translate(-91,-209) scale(1,1)"><g><path fill="none" stroke="none"/><text fill="#000000" stroke="none" font-family="Arial" font-size="13px" font-style="normal" font-weight="normal" text-decoration="none" x="336.701416015625" y="653.5">(from ExternalReader)</text></g></g><g transform="translate(-91,-209) scale(1,1)"><g><path fill="none" stroke="none"/><text fill="#000000" stroke="none" font-family="Arial" font-size="13px" font-style="normal" font-weight="normal" text-decoration="none" x="282" y="686.5">«constructor»+ParameterException()</text></g></g><g transform="translate(-91,-209) scale(1,1)"><rect fill="#C0C0C0" stroke="none" x="820" y="434" width="137.59716796875" height="87" opacity="0.2"/></g><g transform="translate(-91,-209) scale(1,1)"><rect fill="#ffffff" stroke="none" x="813" y="427" width="137.59716796875" height="87"/></g><g transform="translate(-91,-209) scale(1,1)"><path fill="none" stroke="#000000" d="M 813 427 L 950.59716796875 427 L 950.59716796875 514 L 813 514 L 813 427 Z Z" stroke-miterlimit="10"/></g><g transform="translate(-91,-209) scale(1,1)"><path fill="none" stroke="#000000" d="M 813 467 L 950.59716796875 467" stroke-miterlimit="10"/></g><g transform="translate(-91,-209) scale(1,1)"><path fill="none" stroke="#000000" d="M 813 505 L 950.59716796875 505" stroke-miterlimit="10"/></g><g transform="translate(-91,-209) scale(1,1)"><g><path fill="none" stroke="none"/><text fill="#000000" stroke="none" font-family="Arial" font-size="13px" font-style="normal" font-weight="bold" text-decoration="none" x="843.864990234375" y="446.5">ProjectModel</text></g></g><g transform="translate(-91,-209) scale(1,1)"><g><path fill="none" stroke="none"/><text fill="#000000" stroke="none" font-family="Arial" font-size="13px" font-style="normal" font-weight="normal" text-decoration="none" x="817.5" y="461.5">(from ExternalReader)</text></g></g><g transform="translate(-91,-209) scale(1,1)"><g><path fill="none" stroke="none"/><text fill="#000000" stroke="none" font-family="Arial" font-size="13px" font-style="normal" font-weight="normal" text-decoration="none" x="818" y="484.5">+Name: string</text></g></g><g transform="translate(-91,-209) scale(1,1)"><g><path fill="none" stroke="none"/><text fill="#000000" stroke="none" font-family="Arial" font-size="13px" font-style="normal" font-weight="normal" text-decoration="none" x="818" y="499.5">+Bugs: IEnumerable</text></g></g><g transform="translate(-91,-209) scale(1,1)"><rect fill="#C0C0C0" stroke="none" x="284" y="434" width="247.10693359375" height="72" opacity="0.2"/></g><g transform="translate(-91,-209) scale(1,1)"><rect fill="#ffffff" stroke="none" x="277" y="427" width="247.10693359375" height="72"/></g><g transform="translate(-91,-209) scale(1,1)"><path fill="none" stroke="#000000" d="M 277 427 L 524.10693359375 427 L 524.10693359375 499 L 277 499 L 277 427 Z Z" stroke-miterlimit="10"/></g><g transform="translate(-91,-209) scale(1,1)"><path fill="none" stroke="#000000" d="M 277 467 L 524.10693359375 467" stroke-miterlimit="10"/></g><g transform="translate(-91,-209) scale(1,1)"><path fill="none" stroke="#000000" d="M 277 477 L 524.10693359375 477" stroke-miterlimit="10"/></g><g transform="translate(-91,-209) scale(1,1)"><g><path fill="none" stroke="none"/><text fill="#000000" stroke="none" font-family="Arial" font-size="13px" font-style="normal" font-weight="bold" text-decoration="none" x="329.005859375" y="446.5">UnableToReadException</text></g></g><g transform="translate(-91,-209) scale(1,1)"><g><path fill="none" stroke="none"/><text fill="#000000" stroke="none" font-family="Arial" font-size="13px" font-style="normal" font-weight="normal" text-decoration="none" x="336.2548828125" y="461.5">(from ExternalReader)</text></g></g><g transform="translate(-91,-209) scale(1,1)"><g><path fill="none" stroke="none"/><text fill="#000000" stroke="none" font-family="Arial" font-size="13px" font-style="normal" font-weight="normal" text-decoration="none" x="282" y="494.5">«constructor»+UnableToReadException()</text></g></g><g transform="translate(-91,-209) scale(1,1)"><rect fill="#C0C0C0" stroke="none" x="284" y="530" width="248" height="72" opacity="0.2"/></g><g transform="translate(-91,-209) scale(1,1)"><rect fill="#ffffff" stroke="none" x="277" y="523" width="248" height="72"/></g><g transform="translate(-91,-209) scale(1,1)"><path fill="none" stroke="#000000" d="M 277 523 L 525 523 L 525 595 L 277 595 L 277 523 Z Z" stroke-miterlimit="10"/></g><g transform="translate(-91,-209) scale(1,1)"><path fill="none" stroke="#000000" d="M 277 563 L 525 563" stroke-miterlimit="10"/></g><g transform="translate(-91,-209) scale(1,1)"><path fill="none" stroke="#000000" d="M 277 573 L 525 573" stroke-miterlimit="10"/></g><g transform="translate(-91,-209) scale(1,1)"><g><path fill="none" stroke="none"/><text fill="#000000" stroke="none" font-family="Arial" font-size="13px" font-style="normal" font-weight="bold" text-decoration="none" x="332.842041015625" y="542.5">WrongFormatException</text></g></g><g transform="translate(-91,-209) scale(1,1)"><g><path fill="none" stroke="none"/><text fill="#000000" stroke="none" font-family="Arial" font-size="13px" font-style="normal" font-weight="normal" text-decoration="none" x="336.701416015625" y="557.5">(from ExternalReader)</text></g></g><g transform="translate(-91,-209) scale(1,1)"><g><path fill="none" stroke="none"/><text fill="#000000" stroke="none" font-family="Arial" font-size="13px" font-style="normal" font-weight="normal" text-decoration="none" x="282" y="590.5">«constructor»+WrongFormatException()</text></g></g><g transform="translate(-91,-209) scale(1,1)"><path fill="#C0C0C0" stroke="none" d="M 445.298583984375 237.5 C 445.298583984375 231.1487248 450.447308784375 226 456.798583984375 226 C 463.149859184375 226 468.298583984375 231.1487248 468.298583984375 237.5 C 468.298583984375 243.8512752 463.149859184375 249 456.798583984375 249 C 450.447308784375 249 445.298583984375 243.8512752 445.298583984375 237.5 Z" opacity="0.2"/></g><g transform="translate(-91,-209) scale(1,1)"><path fill="#ffffff" stroke="none" d="M 438.298583984375 230.5 C 438.298583984375 224.1487248 443.447308784375 219 449.798583984375 219 C 456.149859184375 219 461.298583984375 224.1487248 461.298583984375 230.5 C 461.298583984375 236.8512752 456.149859184375 242 449.798583984375 242 C 443.447308784375 242 438.298583984375 236.8512752 438.298583984375 230.5 Z"/></g><g transform="translate(-91,-209) scale(1,1)"><path fill="none" stroke="#000000" d="M 438.298583984375 230.5 C 438.298583984375 224.1487248 443.447308784375 219 449.798583984375 219 C 456.149859184375 219 461.298583984375 224.1487248 461.298583984375 230.5 C 461.298583984375 236.8512752 456.149859184375 242 449.798583984375 242 C 443.447308784375 242 438.298583984375 236.8512752 438.298583984375 230.5 Z" stroke-miterlimit="10"/></g><g transform="translate(-91,-209) scale(1,1)"><g><path fill="none" stroke="none"/><text fill="#000000" stroke="none" font-family="Arial" font-size="13px" font-style="normal" font-weight="bold" text-decoration="none" x="402.8291015625" y="261.5">IExternalReader</text></g></g><g transform="translate(-91,-209) scale(1,1)"><g><path fill="none" stroke="none"/><text fill="#000000" stroke="none" font-family="Arial" font-size="13px" font-style="normal" font-weight="normal" text-decoration="none" x="385.5" y="276.5">(from ExternalReader)</text></g></g><g transform="translate(-91,-209) scale(1,1)"><rect fill="#C0C0C0" stroke="none" x="1044" y="618" width="137.59716796875" height="62" opacity="0.2"/></g><g transform="translate(-91,-209) scale(1,1)"><rect fill="#ffffff" stroke="none" x="1037" y="611" width="137.59716796875" height="62"/></g><g transform="translate(-91,-209) scale(1,1)"><path fill="none" stroke="#000000" d="M 1037 611 L 1174.59716796875 611 L 1174.59716796875 673 L 1037 673 L 1037 611 Z Z" stroke-miterlimit="10"/></g><g transform="translate(-91,-209) scale(1,1)"><path fill="none" stroke="#000000" d="M 1037 664 L 1174.59716796875 664" stroke-miterlimit="10"/></g><g transform="translate(-91,-209) scale(1,1)"><g><path fill="none" stroke="none"/><text fill="#000000" stroke="none" font-family="Arial" font-size="13px" font-style="normal" font-weight="normal" text-decoration="none" x="1062.4345703125" y="628.5">«enumeration»</text></g></g><g transform="translate(-91,-209) scale(1,1)"><g><path fill="none" stroke="none"/><text fill="#000000" stroke="none" font-family="Arial" font-size="13px" font-style="normal" font-weight="bold" text-decoration="none" x="1079.055908203125" y="643.5">BugState</text></g></g><g transform="translate(-91,-209) scale(1,1)"><g><path fill="none" stroke="none"/><text fill="#000000" stroke="none" font-family="Arial" font-size="13px" font-style="normal" font-weight="normal" text-decoration="none" x="1041.5" y="658.5">(from ExternalReader)</text></g></g><g transform="translate(-91,-209) scale(1,1)"><rect fill="#C0C0C0" stroke="none" x="108" y="642" width="137.59716796875" height="62" opacity="0.2"/></g><g transform="translate(-91,-209) scale(1,1)"><rect fill="#ffffff" stroke="none" x="101" y="635" width="137.59716796875" height="62"/></g><g transform="translate(-91,-209) scale(1,1)"><path fill="none" stroke="#000000" d="M 101 635 L 238.59716796875 635 L 238.59716796875 697 L 101 697 L 101 635 Z Z" stroke-miterlimit="10"/></g><g transform="translate(-91,-209) scale(1,1)"><path fill="none" stroke="#000000" d="M 101 688 L 238.59716796875 688" stroke-miterlimit="10"/></g><g transform="translate(-91,-209) scale(1,1)"><g><path fill="none" stroke="none"/><text fill="#000000" stroke="none" font-family="Arial" font-size="13px" font-style="normal" font-weight="normal" text-decoration="none" x="126.4345703125" y="652.5">«enumeration»</text></g></g><g transform="translate(-91,-209) scale(1,1)"><g><path fill="none" stroke="none"/><text fill="#000000" stroke="none" font-family="Arial" font-size="13px" font-style="normal" font-weight="bold" text-decoration="none" x="125.36181640625" y="667.5">ParameterType</text></g></g><g transform="translate(-91,-209) scale(1,1)"><g><path fill="none" stroke="none"/><text fill="#000000" stroke="none" font-family="Arial" font-size="13px" font-style="normal" font-weight="normal" text-decoration="none" x="105.5" y="682.5">(from ExternalReader)</text></g></g><g transform="translate(-91,-209) scale(1,1)"><path fill="none" stroke="#000000" d="M 1109 544 L 1109 611" stroke-miterlimit="10"/></g><g transform="translate(-91,-209) scale(1,1)"><path fill="none" stroke="#000000" d="M 1104.7904822439841 600.8373251423759 L 1109 611 L 1113.2095177560159 600.8373251423759" stroke-miterlimit="10"/></g><g transform="translate(-91,-209) scale(1,1)"><g><path fill="none" stroke="none"/><text fill="#000000" stroke="none" font-family="Arial" font-size="13px" font-style="normal" font-weight="normal" text-decoration="none" x="1076.5" y="567.5">0...*</text></g></g><g transform="translate(-91,-209) scale(1,1)"><g><path fill="none" stroke="none"/><text fill="#000000" stroke="none" font-family="Arial" font-size="13px" font-style="normal" font-weight="normal" text-decoration="none" x="1084.5" y="598.5">1</text></g></g><g transform="translate(-91,-209) scale(1,1)"><path fill="none" stroke="#000000" d="M 176 529 L 176 635" stroke-miterlimit="10"/></g><g transform="translate(-91,-209) scale(1,1)"><path fill="none" stroke="#000000" d="M 171.790482243984 624.8373251423759 L 176 635 L 180.209517756016 624.8373251423759" stroke-miterlimit="10"/></g><g transform="translate(-91,-209) scale(1,1)"><g><path fill="none" stroke="none"/><text fill="#000000" stroke="none" font-family="Arial" font-size="13px" font-style="normal" font-weight="normal" text-decoration="none" x="177.5" y="560.5">+0..*</text></g></g><g transform="translate(-91,-209) scale(1,1)"><g><path fill="none" stroke="none"/><text fill="#000000" stroke="none" font-family="Arial" font-size="13px" font-style="normal" font-weight="normal" text-decoration="none" x="159.5" y="556.5">0</text></g></g><g transform="translate(-91,-209) scale(1,1)"><g><path fill="none" stroke="none"/><text fill="#000000" stroke="none" font-family="Arial" font-size="13px" font-style="normal" font-weight="normal" text-decoration="none" x="159.5" y="619.5">1</text></g></g><g transform="translate(-91,-209) scale(1,1)"><rect fill="#C0C0C0" stroke="none" x="628" y="434" width="166.50439453125" height="72" opacity="0.2"/></g><g transform="translate(-91,-209) scale(1,1)"><rect fill="#ffffff" stroke="none" x="621" y="427" width="166.50439453125" height="72"/></g><g transform="translate(-91,-209) scale(1,1)"><path fill="none" stroke="#000000" d="M 621 427 L 787.50439453125 427 L 787.50439453125 499 L 621 499 L 621 427 Z Z" stroke-miterlimit="10"/></g><g transform="translate(-91,-209) scale(1,1)"><path fill="none" stroke="#000000" d="M 621 467 L 787.50439453125 467" stroke-miterlimit="10"/></g><g transform="translate(-91,-209) scale(1,1)"><path fill="none" stroke="#000000" d="M 621 490 L 787.50439453125 490" stroke-miterlimit="10"/></g><g transform="translate(-91,-209) scale(1,1)"><g><path fill="none" stroke="none"/><text fill="#000000" stroke="none" font-family="Arial" font-size="13px" font-style="normal" font-weight="bold" text-decoration="none" x="630.543212890625" y="446.5">ExternalReaderException</text></g></g><g transform="translate(-91,-209) scale(1,1)"><g><path fill="none" stroke="none"/><text fill="#000000" stroke="none" font-family="Arial" font-size="13px" font-style="normal" font-weight="normal" text-decoration="none" x="639.95361328125" y="461.5">(from ExternalReader)</text></g></g><g transform="translate(-91,-209) scale(1,1)"><g><path fill="none" stroke="none"/><text fill="#000000" stroke="none" font-family="Arial" font-size="13px" font-style="normal" font-weight="normal" text-decoration="none" x="626" y="484.5">+Message: string</text></g></g><g transform="translate(-91,-209) scale(1,1)"><path fill="none" stroke="#000000" d="M 525 655 L 565 655 L 565 475 L 621 475" stroke-miterlimit="10"/></g><g transform="translate(-91,-209) scale(1,1)"><path fill="#FFFFFF" stroke="none" d="M 600.6746502847517 483.419035512032 L 621 475 L 600.6746502847517 466.580964487968"/></g><g transform="translate(-91,-209) scale(1,1)"><path fill="none" stroke="#000000" d="M 600.6746502847517 483.419035512032 L 621 475 L 600.6746502847517 466.580964487968 L 600.6746502847517 483.419035512032" stroke-miterlimit="10"/></g><g transform="translate(-91,-209) scale(1,1)"><path fill="none" stroke="#000000" d="M 524 443 L 621 443" stroke-miterlimit="10"/></g><g transform="translate(-91,-209) scale(1,1)"><path fill="#FFFFFF" stroke="none" d="M 600.6746502847517 451.419035512032 L 621 443 L 600.6746502847517 434.580964487968"/></g><g transform="translate(-91,-209) scale(1,1)"><path fill="none" stroke="#000000" d="M 600.6746502847517 451.419035512032 L 621 443 L 600.6746502847517 434.580964487968 L 600.6746502847517 451.419035512032" stroke-miterlimit="10"/></g><g transform="translate(-91,-209) scale(1,1)"><path fill="none" stroke="#000000" d="M 525 547 L 541 547 L 541 459 L 621 459" stroke-miterlimit="10"/></g><g transform="translate(-91,-209) scale(1,1)"><path fill="#FFFFFF" stroke="none" d="M 600.6746502847517 467.419035512032 L 621 459 L 600.6746502847517 450.580964487968"/></g><g transform="translate(-91,-209) scale(1,1)"><path fill="none" stroke="#000000" d="M 600.6746502847517 467.419035512032 L 621 459 L 600.6746502847517 450.580964487968 L 600.6746502847517 467.419035512032" stroke-miterlimit="10"/></g><g transform="translate(-91,-209) scale(1,1)"><path fill="none" stroke="#000000" d="M 381 235 L 195 235 L 195 427" stroke-miterlimit="10" stroke-dasharray="3"/></g><g transform="translate(-91,-209) scale(1,1)"><path fill="none" stroke="#000000" d="M 190.790482243984 416.83732514237585 L 195 427 L 199.209517756016 416.83732514237585" stroke-miterlimit="10"/></g><g transform="translate(-91,-209) scale(1,1)"><path fill="none" stroke="#000000" d="M 519 235 L 881 235 L 881 427" stroke-miterlimit="10" stroke-dasharray="3"/></g><g transform="translate(-91,-209) scale(1,1)"><path fill="none" stroke="#000000" d="M 876.790482243984 416.83732514237585 L 881 427 L 885.209517756016 416.83732514237585" stroke-miterlimit="10"/></g><g transform="translate(-91,-209) scale(1,1)"><path fill="none" stroke="#000000" d="M 176 529 L 176 635" stroke-miterlimit="10"/></g><g transform="translate(-91,-209) scale(1,1)"><path fill="none" stroke="#000000" d="M 171.790482243984 624.8373251423759 L 176 635 L 180.209517756016 624.8373251423759" stroke-miterlimit="10"/></g><g transform="translate(-91,-209) scale(1,1)"><g><path fill="none" stroke="none"/><text fill="#000000" stroke="none" font-family="Arial" font-size="13px" font-style="normal" font-weight="normal" text-decoration="none" x="146.5" y="556.5">0...*</text></g></g><g transform="translate(-91,-209) scale(1,1)"><g><path fill="none" stroke="none"/><text fill="#000000" stroke="none" font-family="Arial" font-size="13px" font-style="normal" font-weight="normal" text-decoration="none" x="159.5" y="619.5">1</text></g></g><g transform="translate(-91,-209) scale(1,1)"><path fill="none" stroke="#000000" d="M 1037 480 L 951 480" stroke-miterlimit="10"/></g><g transform="translate(-91,-209) scale(1,1)"><path fill="#000000" stroke="none" d="M 961.1626748576241 475.790482243984 L 951 480 L 961.1626748576241 484.209517756016 L 973 480"/></g><g transform="translate(-91,-209) scale(1,1)"><path fill="none" stroke="#000000" d="M 961.1626748576241 475.790482243984 L 951 480 L 961.1626748576241 484.209517756016 L 973 480 L 961.1626748576241 475.790482243984" stroke-miterlimit="10"/></g><g transform="translate(-91,-209) scale(1,1)"><g><path fill="none" stroke="none"/><text fill="#000000" stroke="none" font-family="Arial" font-size="13px" font-style="normal" font-weight="normal" text-decoration="none" x="1003.5" y="473.5">0...*</text></g></g><g transform="translate(-91,-209) scale(1,1)"><g><path fill="none" stroke="none"/><text fill="#000000" stroke="none" font-family="Arial" font-size="13px" font-style="normal" font-weight="normal" text-decoration="none" x="968.5" y="473.5">1</text></g></g></g></svg>