<?xml version="1.0" encoding="UTF-8" standalone="no"?><svg xmlns="http://www.w3.org/2000/svg" xmlns:xlink="http://www.w3.org/1999/xlink" contentScriptType="application/ecmascript" contentStyleType="text/css" height="750px" preserveAspectRatio="none" style="width:2148px;height:750px;background:#FFFFFF;" version="1.1" viewBox="0 0 2148 750" width="2148px" zoomAndPan="magnify"><defs><filter height="300%" id="fn8d3gnf4udfa" width="300%" x="-1" y="-1"><feGaussianBlur result="blurOut" stdDeviation="2.0"/><feColorMatrix in="blurOut" result="blurOut2" type="matrix" values="0 0 0 0 0 0 0 0 0 0 0 0 0 0 0 0 0 0 .4 0"/><feOffset dx="4.0" dy="4.0" in="blurOut2" result="blurOut3"/><feBlend in="SourceGraphic" in2="blurOut3" mode="normal"/></filter></defs><g><rect fill="#FFFFFF" filter="url(#fn8d3gnf4udfa)" height="528.4219" style="stroke:#A80036;stroke-width:1.0;" width="10" x="311.5" y="119.4297"/><rect fill="#FFFFFF" filter="url(#fn8d3gnf4udfa)" height="470.1563" style="stroke:#A80036;stroke-width:1.0;" width="10" x="728.5" y="148.5625"/><rect fill="#FFFFFF" filter="url(#fn8d3gnf4udfa)" height="74.4297" style="stroke:#A80036;stroke-width:1.0;" width="10" x="1264.5" y="177.6953"/><rect fill="#FFFFFF" filter="url(#fn8d3gnf4udfa)" height="29.1328" style="stroke:#A80036;stroke-width:1.0;" width="10" x="1747" y="281.2578"/><rect fill="#FFFFFF" filter="url(#fn8d3gnf4udfa)" height="207.9297" style="stroke:#A80036;stroke-width:1.0;" width="10" x="1888.5" y="381.6563"/><rect fill="#FFFFFF" filter="url(#fn8d3gnf4udfa)" height="77.3984" style="stroke:#000000;stroke-width:2.0;" width="331" x="1803.5" y="396.6563"/><rect fill="#FFFFFF" filter="url(#fn8d3gnf4udfa)" height="46.2656" style="stroke:#000000;stroke-width:2.0;" width="311" x="1813.5" y="420.7891"/><line style="stroke:#A80036;stroke-width:1.0;stroke-dasharray:5.0,5.0;" x1="39" x2="39" y1="88.2969" y2="665.8516"/><line style="stroke:#A80036;stroke-width:1.0;stroke-dasharray:5.0,5.0;" x1="316" x2="316" y1="88.2969" y2="665.8516"/><line style="stroke:#A80036;stroke-width:1.0;stroke-dasharray:5.0,5.0;" x1="733.5" x2="733.5" y1="88.2969" y2="665.8516"/><line style="stroke:#A80036;stroke-width:1.0;stroke-dasharray:5.0,5.0;" x1="1269" x2="1269" y1="88.2969" y2="665.8516"/><line style="stroke:#A80036;stroke-width:1.0;stroke-dasharray:5.0,5.0;" x1="1751.5" x2="1751.5" y1="218.3438" y2="665.8516"/><line style="stroke:#A80036;stroke-width:1.0;stroke-dasharray:5.0,5.0;" x1="1893.5" x2="1893.5" y1="88.2969" y2="665.8516"/><line style="stroke:#A80036;stroke-width:1.0;stroke-dasharray:5.0,5.0;" x1="2096.5" x2="2096.5" y1="88.2969" y2="665.8516"/><text fill="#000000" font-family="sans-serif" font-size="14" lengthAdjust="spacing" textLength="63" x="5" y="84.9951">Frontend</text><ellipse cx="39.5" cy="15" fill="#FEFECE" filter="url(#fn8d3gnf4udfa)" rx="8" ry="8" style="stroke:#A80036;stroke-width:2.0;"/><path d="M39.5,23 L39.5,50 M26.5,31 L52.5,31 M39.5,50 L26.5,65 M39.5,50 L52.5,65 " fill="none" filter="url(#fn8d3gnf4udfa)" style="stroke:#A80036;stroke-width:2.0;"/><text fill="#000000" font-family="sans-serif" font-size="14" lengthAdjust="spacing" textLength="63" x="5" y="677.8467">Frontend</text><ellipse cx="39.5" cy="691.1484" fill="#FEFECE" filter="url(#fn8d3gnf4udfa)" rx="8" ry="8" style="stroke:#A80036;stroke-width:2.0;"/><path d="M39.5,699.1484 L39.5,726.1484 M26.5,707.1484 L52.5,707.1484 M39.5,726.1484 L26.5,741.1484 M39.5,726.1484 L52.5,741.1484 " fill="none" filter="url(#fn8d3gnf4udfa)" style="stroke:#A80036;stroke-width:2.0;"/><rect fill="#FEFECE" filter="url(#fn8d3gnf4udfa)" height="30.2969" style="stroke:#A80036;stroke-width:1.5;" width="167" x="231" y="53"/><text fill="#000000" font-family="sans-serif" font-size="14" lengthAdjust="spacing" textLength="153" x="238" y="72.9951">BugReadersController</text><rect fill="#FEFECE" filter="url(#fn8d3gnf4udfa)" height="30.2969" style="stroke:#A80036;stroke-width:1.5;" width="167" x="231" y="664.8516"/><text fill="#000000" font-family="sans-serif" font-size="14" lengthAdjust="spacing" textLength="153" x="238" y="684.8467">BugReadersController</text><rect fill="#FEFECE" filter="url(#fn8d3gnf4udfa)" height="30.2969" style="stroke:#A80036;stroke-width:1.5;" width="98" x="682.5" y="53"/><text fill="#000000" font-family="sans-serif" font-size="14" lengthAdjust="spacing" textLength="84" x="689.5" y="72.9951">ProjectLogic</text><rect fill="#FEFECE" filter="url(#fn8d3gnf4udfa)" height="30.2969" style="stroke:#A80036;stroke-width:1.5;" width="98" x="682.5" y="664.8516"/><text fill="#000000" font-family="sans-serif" font-size="14" lengthAdjust="spacing" textLength="84" x="689.5" y="684.8467">ProjectLogic</text><rect fill="#FEFECE" filter="url(#fn8d3gnf4udfa)" height="30.2969" style="stroke:#A80036;stroke-width:1.5;" width="213" x="1161" y="53"/><text fill="#000000" font-family="sans-serif" font-size="14" lengthAdjust="spacing" textLength="199" x="1168" y="72.9951">ExternalReaderImporterLogic</text><rect fill="#FEFECE" filter="url(#fn8d3gnf4udfa)" height="30.2969" style="stroke:#A80036;stroke-width:1.5;" width="213" x="1161" y="664.8516"/><text fill="#000000" font-family="sans-serif" font-size="14" lengthAdjust="spacing" textLength="199" x="1168" y="684.8467">ExternalReaderImporterLogic</text><rect fill="#FEFECE" filter="url(#fn8d3gnf4udfa)" height="30.2969" style="stroke:#A80036;stroke-width:1.5;" width="119" x="1690.5" y="664.8516"/><text fill="#000000" font-family="sans-serif" font-size="14" lengthAdjust="spacing" textLength="105" x="1697.5" y="684.8467">externalReader</text><rect fill="#FEFECE" filter="url(#fn8d3gnf4udfa)" height="30.2969" style="stroke:#A80036;stroke-width:1.5;" width="136" x="1823.5" y="53"/><text fill="#000000" font-family="sans-serif" font-size="14" lengthAdjust="spacing" textLength="122" x="1830.5" y="72.9951">ProjectRepository</text><rect fill="#FEFECE" filter="url(#fn8d3gnf4udfa)" height="30.2969" style="stroke:#A80036;stroke-width:1.5;" width="136" x="1823.5" y="664.8516"/><text fill="#000000" font-family="sans-serif" font-size="14" lengthAdjust="spacing" textLength="122" x="1830.5" y="684.8467">ProjectRepository</text><text fill="#000000" font-family="sans-serif" font-size="14" lengthAdjust="spacing" textLength="21" x="2083" y="84.9951">DB</text><path d="M2078.5,36 C2078.5,26 2096.5,26 2096.5,26 C2096.5,26 2114.5,26 2114.5,36 L2114.5,62 C2114.5,72 2096.5,72 2096.5,72 C2096.5,72 2078.5,72 2078.5,62 L2078.5,36 " fill="#FEFECE" filter="url(#fn8d3gnf4udfa)" style="stroke:#000000;stroke-width:1.5;"/><path d="M2078.5,36 C2078.5,46 2096.5,46 2096.5,46 C2096.5,46 2114.5,46 2114.5,36 " fill="none" style="stroke:#000000;stroke-width:1.5;"/><text fill="#000000" font-family="sans-serif" font-size="14" lengthAdjust="spacing" textLength="21" x="2083" y="677.8467">DB</text><path d="M2078.5,691.1484 C2078.5,681.1484 2096.5,681.1484 2096.5,681.1484 C2096.5,681.1484 2114.5,681.1484 2114.5,691.1484 L2114.5,717.1484 C2114.5,727.1484 2096.5,727.1484 2096.5,727.1484 C2096.5,727.1484 2078.5,727.1484 2078.5,717.1484 L2078.5,691.1484 " fill="#FEFECE" filter="url(#fn8d3gnf4udfa)" style="stroke:#000000;stroke-width:1.5;"/><path d="M2078.5,691.1484 C2078.5,701.1484 2096.5,701.1484 2096.5,701.1484 C2096.5,701.1484 2114.5,701.1484 2114.5,691.1484 " fill="none" style="stroke:#000000;stroke-width:1.5;"/><rect fill="#FFFFFF" filter="url(#fn8d3gnf4udfa)" height="528.4219" style="stroke:#A80036;stroke-width:1.0;" width="10" x="311.5" y="119.4297"/><rect fill="#FFFFFF" filter="url(#fn8d3gnf4udfa)" height="470.1563" style="stroke:#A80036;stroke-width:1.0;" width="10" x="728.5" y="148.5625"/><rect fill="#FFFFFF" filter="url(#fn8d3gnf4udfa)" height="74.4297" style="stroke:#A80036;stroke-width:1.0;" width="10" x="1264.5" y="177.6953"/><rect fill="#FFFFFF" filter="url(#fn8d3gnf4udfa)" height="29.1328" style="stroke:#A80036;stroke-width:1.0;" width="10" x="1747" y="281.2578"/><rect fill="#FFFFFF" filter="url(#fn8d3gnf4udfa)" height="207.9297" style="stroke:#A80036;stroke-width:1.0;" width="10" x="1888.5" y="381.6563"/><polygon fill="#A80036" points="299.5,115.4297,309.5,119.4297,299.5,123.4297,303.5,119.4297" style="stroke:#A80036;stroke-width:1.0;"/><line style="stroke:#A80036;stroke-width:1.0;" x1="39.5" x2="305.5" y1="119.4297" y2="119.4297"/><text fill="#000000" font-family="sans-serif" font-size="13" font-weight="bold" lengthAdjust="spacing" textLength="9" x="46.5" y="114.3638">1</text><text fill="#000000" font-family="sans-serif" font-size="13" lengthAdjust="spacing" textLength="240" x="59.5" y="114.3638">Post(BugReaderModel) : IActionResult</text><polygon fill="#A80036" points="716.5,144.5625,726.5,148.5625,716.5,152.5625,720.5,148.5625" style="stroke:#A80036;stroke-width:1.0;"/><line style="stroke:#A80036;stroke-width:1.0;" x1="321.5" x2="722.5" y1="148.5625" y2="148.5625"/><text fill="#000000" font-family="sans-serif" font-size="13" font-weight="bold" lengthAdjust="spacing" textLength="9" x="328.5" y="143.4966">2</text><text fill="#000000" font-family="sans-serif" font-size="13" lengthAdjust="spacing" textLength="375" x="341.5" y="143.4966">AddBugsFromExternalReader(fileName, parameters) : void</text><polygon fill="#A80036" points="1252.5,173.6953,1262.5,177.6953,1252.5,181.6953,1256.5,177.6953" style="stroke:#A80036;stroke-width:1.0;"/><line style="stroke:#A80036;stroke-width:1.0;" x1="738.5" x2="1258.5" y1="177.6953" y2="177.6953"/><text fill="#000000" font-family="sans-serif" font-size="13" font-weight="bold" lengthAdjust="spacing" textLength="9" x="745.5" y="172.6294">3</text><text fill="#000000" font-family="sans-serif" font-size="13" lengthAdjust="spacing" textLength="494" x="758.5" y="172.6294">externalReader = GetExternalReader(externalReaderName) : IExternalReader</text><polygon fill="#A80036" points="1678.5,202.8281,1688.5,206.8281,1678.5,210.8281,1682.5,206.8281" style="stroke:#A80036;stroke-width:1.0;"/><line style="stroke:#A80036;stroke-width:1.0;" x1="1274.5" x2="1684.5" y1="206.8281" y2="206.8281"/><text fill="#000000" font-family="sans-serif" font-size="13" font-weight="bold" lengthAdjust="spacing" textLength="9" x="1281.5" y="201.7622">4</text><text fill="#000000" font-family="sans-serif" font-size="13" lengthAdjust="spacing" textLength="379" x="1294.5" y="201.7622">provider = Activator.CreateInstance(type) : IExternalReader</text><rect fill="#FEFECE" filter="url(#fn8d3gnf4udfa)" height="30.2969" style="stroke:#A80036;stroke-width:1.5;" width="119" x="1690.5" y="185.6953"/><text fill="#000000" font-family="sans-serif" font-size="14" lengthAdjust="spacing" textLength="105" x="1697.5" y="205.6904">externalReader</text><polygon fill="#A80036" points="749.5,248.125,739.5,252.125,749.5,256.125,745.5,252.125" style="stroke:#A80036;stroke-width:1.0;"/><line style="stroke:#A80036;stroke-width:1.0;" x1="743.5" x2="1268.5" y1="252.125" y2="252.125"/><text fill="#000000" font-family="sans-serif" font-size="13" font-weight="bold" lengthAdjust="spacing" textLength="9" x="755.5" y="247.0591">5</text><text fill="#000000" font-family="sans-serif" font-size="13" lengthAdjust="spacing" textLength="95" x="768.5" y="247.0591">return provider</text><polygon fill="#A80036" points="1735,277.2578,1745,281.2578,1735,285.2578,1739,281.2578" style="stroke:#A80036;stroke-width:1.0;"/><line style="stroke:#A80036;stroke-width:1.0;" x1="738.5" x2="1741" y1="281.2578" y2="281.2578"/><text fill="#000000" font-family="sans-serif" font-size="13" font-weight="bold" lengthAdjust="spacing" textLength="9" x="745.5" y="276.1919">6</text><text fill="#000000" font-family="sans-serif" font-size="13" lengthAdjust="spacing" textLength="479" x="758.5" y="276.1919">projects = GetProjectsFromFile(parameters) : IEnumerable&lt;ProjectModel&gt;</text><polygon fill="#A80036" points="749.5,306.3906,739.5,310.3906,749.5,314.3906,745.5,310.3906" style="stroke:#A80036;stroke-width:1.0;"/><line style="stroke:#A80036;stroke-width:1.0;" x1="743.5" x2="1751" y1="310.3906" y2="310.3906"/><text fill="#000000" font-family="sans-serif" font-size="13" font-weight="bold" lengthAdjust="spacing" textLength="9" x="755.5" y="305.3247">7</text><text fill="#000000" font-family="sans-serif" font-size="13" lengthAdjust="spacing" textLength="94" x="768.5" y="305.3247">return projects</text><line style="stroke:#A80036;stroke-width:1.0;" x1="738.5" x2="780.5" y1="339.5234" y2="339.5234"/><line style="stroke:#A80036;stroke-width:1.0;" x1="780.5" x2="780.5" y1="339.5234" y2="352.5234"/><line style="stroke:#A80036;stroke-width:1.0;" x1="739.5" x2="780.5" y1="352.5234" y2="352.5234"/><polygon fill="#A80036" points="749.5,348.5234,739.5,352.5234,749.5,356.5234,745.5,352.5234" style="stroke:#A80036;stroke-width:1.0;"/><text fill="#000000" font-family="sans-serif" font-size="13" font-weight="bold" lengthAdjust="spacing" textLength="9" x="745.5" y="334.4575">8</text><text fill="#000000" font-family="sans-serif" font-size="13" lengthAdjust="spacing" textLength="458" x="758.5" y="334.4575">parsedProjects = ParseProjectModels(projects) : IEnumerable&lt;Project&gt;</text><polygon fill="#A80036" points="1876.5,377.6563,1886.5,381.6563,1876.5,385.6563,1880.5,381.6563" style="stroke:#A80036;stroke-width:1.0;"/><line style="stroke:#A80036;stroke-width:1.0;" x1="738.5" x2="1882.5" y1="381.6563" y2="381.6563"/><text fill="#000000" font-family="sans-serif" font-size="13" font-weight="bold" lengthAdjust="spacing" textLength="9" x="745.5" y="376.5903">9</text><text fill="#000000" font-family="sans-serif" font-size="13" lengthAdjust="spacing" textLength="254" x="758.5" y="376.5903">AddBugsFromFile(parsedProjects) : void</text><path d="M1803.5,396.6563 L1880.5,396.6563 L1880.5,403.6563 L1870.5,413.6563 L1803.5,413.6563 L1803.5,396.6563 " fill="#EEEEEE" style="stroke:#000000;stroke-width:1.0;"/><rect fill="none" height="77.3984" style="stroke:#000000;stroke-width:2.0;" width="331" x="1803.5" y="396.6563"/><text fill="#000000" font-family="sans-serif" font-size="13" font-weight="bold" lengthAdjust="spacing" textLength="32" x="1818.5" y="409.7231">loop</text><text fill="#000000" font-family="sans-serif" font-size="11" font-weight="bold" lengthAdjust="spacing" textLength="134" x="1895.5" y="408.8667">[projects in projects]</text><path d="M1813.5,420.7891 L1890.5,420.7891 L1890.5,427.7891 L1880.5,437.7891 L1813.5,437.7891 L1813.5,420.7891 " fill="#EEEEEE" style="stroke:#000000;stroke-width:1.0;"/><rect fill="none" height="46.2656" style="stroke:#000000;stroke-width:2.0;" width="311" x="1813.5" y="420.7891"/><text fill="#000000" font-family="sans-serif" font-size="13" font-weight="bold" lengthAdjust="spacing" textLength="32" x="1828.5" y="433.856">loop</text><text fill="#000000" font-family="sans-serif" font-size="11" font-weight="bold" lengthAdjust="spacing" textLength="135" x="1905.5" y="432.9995">[bug in project.Bugs]</text><polygon fill="#A80036" points="2084.5,455.0547,2094.5,459.0547,2084.5,463.0547,2088.5,459.0547" style="stroke:#A80036;stroke-width:1.0;"/><line style="stroke:#A80036;stroke-width:1.0;" x1="1898.5" x2="2090.5" y1="459.0547" y2="459.0547"/><text fill="#000000" font-family="sans-serif" font-size="13" font-weight="bold" lengthAdjust="spacing" textLength="18" x="1905.5" y="453.9888">10</text><text fill="#000000" font-family="sans-serif" font-size="13" lengthAdjust="spacing" textLength="149" x="1927.5" y="453.9888">Context.Bugs.Add(bug)</text><polygon fill="#A80036" points="749.5,498.1875,739.5,502.1875,749.5,506.1875,745.5,502.1875" style="stroke:#A80036;stroke-width:1.0;"/><line style="stroke:#A80036;stroke-width:1.0;" x1="743.5" x2="1887.5" y1="502.1875" y2="502.1875"/><text fill="#000000" font-family="sans-serif" font-size="13" font-weight="bold" lengthAdjust="spacing" textLength="18" x="755.5" y="497.1216">11</text><text fill="#000000" font-family="sans-serif" font-size="13" lengthAdjust="spacing" textLength="0" x="781.5" y="497.1216"/><polygon fill="#A80036" points="1876.5,527.3203,1886.5,531.3203,1876.5,535.3203,1880.5,531.3203" style="stroke:#A80036;stroke-width:1.0;"/><line style="stroke:#A80036;stroke-width:1.0;" x1="738.5" x2="1882.5" y1="531.3203" y2="531.3203"/><text fill="#000000" font-family="sans-serif" font-size="13" font-weight="bold" lengthAdjust="spacing" textLength="18" x="745.5" y="526.2544">12</text><text fill="#000000" font-family="sans-serif" font-size="13" lengthAdjust="spacing" textLength="80" x="767.5" y="526.2544">Save() : void</text><polygon fill="#A80036" points="2084.5,556.4531,2094.5,560.4531,2084.5,564.4531,2088.5,560.4531" style="stroke:#A80036;stroke-width:1.0;"/><line style="stroke:#A80036;stroke-width:1.0;" x1="1898.5" x2="2090.5" y1="560.4531" y2="560.4531"/><text fill="#000000" font-family="sans-serif" font-size="13" font-weight="bold" lengthAdjust="spacing" textLength="18" x="1905.5" y="555.3872">13</text><text fill="#000000" font-family="sans-serif" font-size="13" lengthAdjust="spacing" textLength="152" x="1927.5" y="555.3872">Context.SaveChanges()</text><polygon fill="#A80036" points="749.5,585.5859,739.5,589.5859,749.5,593.5859,745.5,589.5859" style="stroke:#A80036;stroke-width:1.0;"/><line style="stroke:#A80036;stroke-width:1.0;" x1="743.5" x2="1892.5" y1="589.5859" y2="589.5859"/><text fill="#000000" font-family="sans-serif" font-size="13" font-weight="bold" lengthAdjust="spacing" textLength="18" x="755.5" y="584.52">14</text><text fill="#000000" font-family="sans-serif" font-size="13" lengthAdjust="spacing" textLength="0" x="781.5" y="584.52"/><polygon fill="#A80036" points="332.5,614.7188,322.5,618.7188,332.5,622.7188,328.5,618.7188" style="stroke:#A80036;stroke-width:1.0;"/><line style="stroke:#A80036;stroke-width:1.0;" x1="326.5" x2="732.5" y1="618.7188" y2="618.7188"/><text fill="#000000" font-family="sans-serif" font-size="13" font-weight="bold" lengthAdjust="spacing" textLength="18" x="338.5" y="613.6528">15</text><text fill="#000000" font-family="sans-serif" font-size="13" lengthAdjust="spacing" textLength="0" x="364.5" y="613.6528"/><polygon fill="#A80036" points="50.5,643.8516,40.5,647.8516,50.5,651.8516,46.5,647.8516" style="stroke:#A80036;stroke-width:1.0;"/><line style="stroke:#A80036;stroke-width:1.0;" x1="44.5" x2="315.5" y1="647.8516" y2="647.8516"/><text fill="#000000" font-family="sans-serif" font-size="13" font-weight="bold" lengthAdjust="spacing" textLength="18" x="56.5" y="642.7856">16</text><text fill="#000000" font-family="sans-serif" font-size="13" lengthAdjust="spacing" textLength="27" x="78.5" y="642.7856">Ok()</text><!--MD5=[4ba23c3f6955403109ce430ae6ac045b]
@startuml
autonumber
actor Frontend
Frontend-> BugReadersController : Post(BugReaderModel) : IActionResult
activate BugReadersController
BugReadersController -> ProjectLogic : AddBugsFromExternalReader(fileName, parameters) : void
activate ProjectLogic
ProjectLogic -> ExternalReaderImporterLogic : externalReader = GetExternalReader(externalReaderName) : IExternalReader
activate ExternalReaderImporterLogic
create externalReader
ExternalReaderImporterLogic -> externalReader : provider = Activator.CreateInstance(type) : IExternalReader
ExternalReaderImporterLogic -> ProjectLogic : return provider
deactivate ExternalReaderImporterLogic
ProjectLogic -> externalReader : projects = GetProjectsFromFile(parameters) : IEnumerable<ProjectModel>
activate externalReader
externalReader -> ProjectLogic : return projects
deactivate externalReader
ProjectLogic -> ProjectLogic: parsedProjects = ParseProjectModels(projects) : IEnumerable<Project>
ProjectLogic -> ProjectRepository: AddBugsFromFile(parsedProjects) : void
activate ProjectRepository
  loop projects in projects
    loop bug in project.Bugs
      database DB
      ProjectRepository -> DB : Context.Bugs.Add(bug)
    end
  end
ProjectRepository -> ProjectLogic
ProjectLogic -> ProjectRepository: Save() : void
ProjectRepository -> DB : Context.SaveChanges()
ProjectRepository -> ProjectLogic
deactivate ProjectRepository
ProjectLogic -> BugReadersController
deactivate ProjectLogic
BugReadersController -> Frontend : Ok()
deactivate BugReadersController
@enduml

PlantUML version 1.2021.7(Sun May 23 12:40:07 UTC 2021)
(GPL source distribution)
Java Runtime: OpenJDK Runtime Environment
JVM: OpenJDK 64-Bit Server VM
Default Encoding: UTF-8
Language: en
Country: US
--></g></svg>