<svg version="1.1" xmlns="http://www.w3.org/2000/svg" xmlns:xlink="http://www.w3.org/1999/xlink" width="1457.21240234375" height="726"><defs/><g>""""""""""""""""""""""""""""""""""""""""""""""""""""""""""""""""""""""""""""""""""""""""""""""""""""""""""""""""""""""""""""""""""""""""""""""""""""""""""""""""""""""""""""""""""""""""""""""""""""""""<g transform="translate(2,-246) scale(1,1)"><rect fill="#C0C0C0" stroke="none" x="599" y="839" width="200.12158203125" height="130" opacity="0.2"/></g><g transform="translate(2,-246) scale(1,1)"><rect fill="#ffffff" stroke="none" x="592" y="832" width="200.12158203125" height="130"/></g><g transform="translate(2,-246) scale(1,1)"><path fill="none" stroke="#000000" d="M 592 832 L 792.12158203125 832 L 792.12158203125 962 L 592 962 L 592 832 Z Z" stroke-miterlimit="10"/></g><g transform="translate(2,-246) scale(1,1)"><path fill="none" stroke="#000000" d="M 592 872 L 792.12158203125 872" stroke-miterlimit="10"/></g><g transform="translate(2,-246) scale(1,1)"><path fill="none" stroke="#000000" d="M 592 940 L 792.12158203125 940" stroke-miterlimit="10"/></g><g transform="translate(2,-246) scale(1,1)"><g><path fill="none" stroke="none"/><text fill="#000000" stroke="none" font-family="Arial" font-size="13px" font-style="normal" font-weight="bold" text-decoration="none" x="638.953125" y="851.5">BugSearchCriteria</text></g></g><g transform="translate(2,-246) scale(1,1)"><g><path fill="none" stroke="none"/><text fill="#000000" stroke="none" font-family="Arial" font-size="13px" font-style="normal" font-weight="normal" text-decoration="none" x="648.728515625" y="866.5">(from Criterias)</text></g></g><g transform="translate(2,-246) scale(1,1)"><g><path fill="none" stroke="none"/><text fill="#000000" stroke="none" font-family="Arial" font-size="13px" font-style="normal" font-weight="normal" text-decoration="none" x="597" y="889.5">+Name: string?</text></g></g><g transform="translate(2,-246) scale(1,1)"><g><path fill="none" stroke="none"/><text fill="#000000" stroke="none" font-family="Arial" font-size="13px" font-style="normal" font-weight="normal" text-decoration="none" x="597" y="904.5">+State: BugState?</text></g></g><g transform="translate(2,-246) scale(1,1)"><g><path fill="none" stroke="none"/><text fill="#000000" stroke="none" font-family="Arial" font-size="13px" font-style="normal" font-weight="normal" text-decoration="none" x="597" y="919.5">+ProjectId: int?</text></g></g><g transform="translate(2,-246) scale(1,1)"><g><path fill="none" stroke="none"/><text fill="#000000" stroke="none" font-family="Arial" font-size="13px" font-style="normal" font-weight="normal" text-decoration="none" x="597" y="934.5">+Id: int?</text></g></g><g transform="translate(2,-246) scale(1,1)"><g><path fill="none" stroke="none"/><text fill="#000000" stroke="none" font-family="Arial" font-size="13px" font-style="normal" font-weight="normal" text-decoration="none" x="597" y="957.5">+MatchesCriteria(bug: Bug): bool</text></g></g><g transform="translate(2,-246) scale(1,1)"><rect fill="#C0C0C0" stroke="none" x="319" y="263" width="164.34619140625" height="87" opacity="0.2"/></g><g transform="translate(2,-246) scale(1,1)"><rect fill="#ffffff" stroke="none" x="312" y="256" width="164.34619140625" height="87"/></g><g transform="translate(2,-246) scale(1,1)"><path fill="none" stroke="#000000" d="M 312 256 L 476.34619140625 256 L 476.34619140625 343 L 312 343 L 312 256 Z Z" stroke-miterlimit="10"/></g><g transform="translate(2,-246) scale(1,1)"><path fill="none" stroke="#000000" d="M 312 296 L 476.34619140625 296" stroke-miterlimit="10"/></g><g transform="translate(2,-246) scale(1,1)"><path fill="none" stroke="#000000" d="M 312 334 L 476.34619140625 334" stroke-miterlimit="10"/></g><g transform="translate(2,-246) scale(1,1)"><g><path fill="none" stroke="none"/><text fill="#000000" stroke="none" font-family="Arial" font-size="13px" font-style="normal" font-weight="bold" text-decoration="none" x="330.947265625" y="275.5">DataAccessException</text></g></g><g transform="translate(2,-246) scale(1,1)"><g><path fill="none" stroke="none"/><text fill="#000000" stroke="none" font-family="Arial" font-size="13px" font-style="normal" font-weight="normal" text-decoration="none" x="320.84814453125" y="290.5">(from CustomExceptions)</text></g></g><g transform="translate(2,-246) scale(1,1)"><g><path fill="none" stroke="none"/><text fill="#000000" stroke="none" font-family="Arial" font-size="13px" font-style="normal" font-weight="normal" text-decoration="none" x="317" y="313.5">#messageToDisplay: string</text></g></g><g transform="translate(2,-246) scale(1,1)"><g><path fill="none" stroke="none"/><text fill="#000000" stroke="none" font-family="Arial" font-size="13px" font-style="normal" font-weight="normal" text-decoration="none" x="317" y="328.5">+Message: string</text></g></g><g transform="translate(2,-246) scale(1,1)"><rect fill="#C0C0C0" stroke="none" x="15" y="391" width="257.2060546875" height="72" opacity="0.2"/></g><g transform="translate(2,-246) scale(1,1)"><rect fill="#ffffff" stroke="none" x="8" y="384" width="257.2060546875" height="72"/></g><g transform="translate(2,-246) scale(1,1)"><path fill="none" stroke="#000000" d="M 8 384 L 265.2060546875 384 L 265.2060546875 456 L 8 456 L 8 384 Z Z" stroke-miterlimit="10"/></g><g transform="translate(2,-246) scale(1,1)"><path fill="none" stroke="#000000" d="M 8 424 L 265.2060546875 424" stroke-miterlimit="10"/></g><g transform="translate(2,-246) scale(1,1)"><path fill="none" stroke="#000000" d="M 8 434 L 265.2060546875 434" stroke-miterlimit="10"/></g><g transform="translate(2,-246) scale(1,1)"><g><path fill="none" stroke="none"/><text fill="#000000" stroke="none" font-family="Arial" font-size="13px" font-style="normal" font-weight="bold" text-decoration="none" x="60.005859375" y="403.5">InexistentProjectException</text></g></g><g transform="translate(2,-246) scale(1,1)"><g><path fill="none" stroke="none"/><text fill="#000000" stroke="none" font-family="Arial" font-size="13px" font-style="normal" font-weight="normal" text-decoration="none" x="63.278076171875" y="418.5">(from CustomExceptions)</text></g></g><g transform="translate(2,-246) scale(1,1)"><g><path fill="none" stroke="none"/><text fill="#000000" stroke="none" font-family="Arial" font-size="13px" font-style="normal" font-weight="normal" text-decoration="none" x="13" y="451.5">«constructor»+InexistentProjectException()</text></g></g><g transform="translate(2,-246) scale(1,1)"><path fill="none" stroke="#000000" d="M 265 420 L 320 420 L 320 343" stroke-miterlimit="10"/></g><g transform="translate(2,-246) scale(1,1)"><path fill="#FFFFFF" stroke="none" d="M 328.419035512032 363.3253497152483 L 320 343 L 311.580964487968 363.3253497152483"/></g><g transform="translate(2,-246) scale(1,1)"><path fill="none" stroke="#000000" d="M 328.419035512032 363.3253497152483 L 320 343 L 311.580964487968 363.3253497152483 L 328.419035512032 363.3253497152483" stroke-miterlimit="10"/></g><g transform="translate(2,-246) scale(1,1)"><rect fill="#C0C0C0" stroke="none" x="439" y="447" width="307.77783203125" height="72" opacity="0.2"/></g><g transform="translate(2,-246) scale(1,1)"><rect fill="#ffffff" stroke="none" x="432" y="440" width="307.77783203125" height="72"/></g><g transform="translate(2,-246) scale(1,1)"><path fill="none" stroke="#000000" d="M 432 440 L 739.77783203125 440 L 739.77783203125 512 L 432 512 L 432 440 Z Z" stroke-miterlimit="10"/></g><g transform="translate(2,-246) scale(1,1)"><path fill="none" stroke="#000000" d="M 432 480 L 739.77783203125 480" stroke-miterlimit="10"/></g><g transform="translate(2,-246) scale(1,1)"><path fill="none" stroke="#000000" d="M 432 490 L 739.77783203125 490" stroke-miterlimit="10"/></g><g transform="translate(2,-246) scale(1,1)"><g><path fill="none" stroke="none"/><text fill="#000000" stroke="none" font-family="Arial" font-size="13px" font-style="normal" font-weight="bold" text-decoration="none" x="484.005859375" y="459.5">ProjectNameIsNotUniqueException</text></g></g><g transform="translate(2,-246) scale(1,1)"><g><path fill="none" stroke="none"/><text fill="#000000" stroke="none" font-family="Arial" font-size="13px" font-style="normal" font-weight="normal" text-decoration="none" x="512.56396484375" y="474.5">(from CustomExceptions)</text></g></g><g transform="translate(2,-246) scale(1,1)"><g><path fill="none" stroke="none"/><text fill="#000000" stroke="none" font-family="Arial" font-size="13px" font-style="normal" font-weight="normal" text-decoration="none" x="437" y="507.5">«constructor»+ProjectNameIsNotUniqueException()</text></g></g><g transform="translate(2,-246) scale(1,1)"><path fill="none" stroke="#000000" d="M 432 476 L 424 476 L 424 343" stroke-miterlimit="10"/></g><g transform="translate(2,-246) scale(1,1)"><path fill="#FFFFFF" stroke="none" d="M 432.419035512032 363.3253497152483 L 424 343 L 415.580964487968 363.3253497152483"/></g><g transform="translate(2,-246) scale(1,1)"><path fill="none" stroke="#000000" d="M 432.419035512032 363.3253497152483 L 424 343 L 415.580964487968 363.3253497152483 L 432.419035512032 363.3253497152483" stroke-miterlimit="10"/></g><g transform="translate(2,-246) scale(1,1)"><rect fill="#C0C0C0" stroke="none" x="15" y="487" width="244.193359375" height="72" opacity="0.2"/></g><g transform="translate(2,-246) scale(1,1)"><rect fill="#ffffff" stroke="none" x="8" y="480" width="244.193359375" height="72"/></g><g transform="translate(2,-246) scale(1,1)"><path fill="none" stroke="#000000" d="M 8 480 L 252.193359375 480 L 252.193359375 552 L 8 552 L 8 480 Z Z" stroke-miterlimit="10"/></g><g transform="translate(2,-246) scale(1,1)"><path fill="none" stroke="#000000" d="M 8 520 L 252.193359375 520" stroke-miterlimit="10"/></g><g transform="translate(2,-246) scale(1,1)"><path fill="none" stroke="#000000" d="M 8 530 L 252.193359375 530" stroke-miterlimit="10"/></g><g transform="translate(2,-246) scale(1,1)"><g><path fill="none" stroke="none"/><text fill="#000000" stroke="none" font-family="Arial" font-size="13px" font-style="normal" font-weight="bold" text-decoration="none" x="60.005859375" y="499.5">InexistentUserException</text></g></g><g transform="translate(2,-246) scale(1,1)"><g><path fill="none" stroke="none"/><text fill="#000000" stroke="none" font-family="Arial" font-size="13px" font-style="normal" font-weight="normal" text-decoration="none" x="56.771728515625" y="514.5">(from CustomExceptions)</text></g></g><g transform="translate(2,-246) scale(1,1)"><g><path fill="none" stroke="none"/><text fill="#000000" stroke="none" font-family="Arial" font-size="13px" font-style="normal" font-weight="normal" text-decoration="none" x="13" y="547.5">«constructor»+InexistentUserException()</text></g></g><g transform="translate(2,-246) scale(1,1)"><path fill="none" stroke="#000000" d="M 252 516 L 336 516 L 336 343" stroke-miterlimit="10"/></g><g transform="translate(2,-246) scale(1,1)"><path fill="#FFFFFF" stroke="none" d="M 344.419035512032 363.3253497152483 L 336 343 L 327.580964487968 363.3253497152483"/></g><g transform="translate(2,-246) scale(1,1)"><path fill="none" stroke="#000000" d="M 344.419035512032 363.3253497152483 L 336 343 L 327.580964487968 363.3253497152483 L 344.419035512032 363.3253497152483" stroke-miterlimit="10"/></g><g transform="translate(2,-246) scale(1,1)"><rect fill="#C0C0C0" stroke="none" x="439" y="543" width="292.60693359375" height="72" opacity="0.2"/></g><g transform="translate(2,-246) scale(1,1)"><rect fill="#ffffff" stroke="none" x="432" y="536" width="292.60693359375" height="72"/></g><g transform="translate(2,-246) scale(1,1)"><path fill="none" stroke="#000000" d="M 432 536 L 724.60693359375 536 L 724.60693359375 608 L 432 608 L 432 536 Z Z" stroke-miterlimit="10"/></g><g transform="translate(2,-246) scale(1,1)"><path fill="none" stroke="#000000" d="M 432 576 L 724.60693359375 576" stroke-miterlimit="10"/></g><g transform="translate(2,-246) scale(1,1)"><path fill="none" stroke="#000000" d="M 432 586 L 724.60693359375 586" stroke-miterlimit="10"/></g><g transform="translate(2,-246) scale(1,1)"><g><path fill="none" stroke="none"/><text fill="#000000" stroke="none" font-family="Arial" font-size="13px" font-style="normal" font-weight="bold" text-decoration="none" x="484.005859375" y="555.5">UsernameIsNotUniqueException</text></g></g><g transform="translate(2,-246) scale(1,1)"><g><path fill="none" stroke="none"/><text fill="#000000" stroke="none" font-family="Arial" font-size="13px" font-style="normal" font-weight="normal" text-decoration="none" x="504.978515625" y="570.5">(from CustomExceptions)</text></g></g><g transform="translate(2,-246) scale(1,1)"><g><path fill="none" stroke="none"/><text fill="#000000" stroke="none" font-family="Arial" font-size="13px" font-style="normal" font-weight="normal" text-decoration="none" x="437" y="603.5">«constructor»+UsernameIsNotUniqueException()</text></g></g><g transform="translate(2,-246) scale(1,1)"><path fill="none" stroke="#000000" d="M 432 572 L 408 572 L 408 343" stroke-miterlimit="10"/></g><g transform="translate(2,-246) scale(1,1)"><path fill="#FFFFFF" stroke="none" d="M 416.419035512032 363.3253497152483 L 408 343 L 399.580964487968 363.3253497152483"/></g><g transform="translate(2,-246) scale(1,1)"><path fill="none" stroke="#000000" d="M 416.419035512032 363.3253497152483 L 408 343 L 399.580964487968 363.3253497152483 L 416.419035512032 363.3253497152483" stroke-miterlimit="10"/></g><g transform="translate(2,-246) scale(1,1)"><rect fill="#C0C0C0" stroke="none" x="751" y="735" width="230.04443359375" height="72" opacity="0.2"/></g><g transform="translate(2,-246) scale(1,1)"><rect fill="#ffffff" stroke="none" x="744" y="728" width="230.04443359375" height="72"/></g><g transform="translate(2,-246) scale(1,1)"><path fill="none" stroke="#000000" d="M 744 728 L 974.04443359375 728 L 974.04443359375 800 L 744 800 L 744 728 Z Z" stroke-miterlimit="10"/></g><g transform="translate(2,-246) scale(1,1)"><path fill="none" stroke="#000000" d="M 744 768 L 974.04443359375 768" stroke-miterlimit="10"/></g><g transform="translate(2,-246) scale(1,1)"><path fill="none" stroke="#000000" d="M 744 791 L 974.04443359375 791" stroke-miterlimit="10"/></g><g transform="translate(2,-246) scale(1,1)"><g><path fill="none" stroke="none"/><text fill="#000000" stroke="none" font-family="Arial" font-size="13px" font-style="normal" font-weight="bold" text-decoration="none" x="756.0537109375" y="747.5">CompanyIsNotRegisteredException</text></g></g><g transform="translate(2,-246) scale(1,1)"><g><path fill="none" stroke="none"/><text fill="#000000" stroke="none" font-family="Arial" font-size="13px" font-style="normal" font-weight="normal" text-decoration="none" x="785.697265625" y="762.5">(from CustomExceptions)</text></g></g><g transform="translate(2,-246) scale(1,1)"><g><path fill="none" stroke="none"/><text fill="#000000" stroke="none" font-family="Arial" font-size="13px" font-style="normal" font-weight="normal" text-decoration="none" x="749" y="785.5">+Message: string</text></g></g><g transform="translate(2,-246) scale(1,1)"><rect fill="#C0C0C0" stroke="none" x="1175" y="727" width="227.18798828125" height="72" opacity="0.2"/></g><g transform="translate(2,-246) scale(1,1)"><rect fill="#ffffff" stroke="none" x="1168" y="720" width="227.18798828125" height="72"/></g><g transform="translate(2,-246) scale(1,1)"><path fill="none" stroke="#000000" d="M 1168 720 L 1395.18798828125 720 L 1395.18798828125 792 L 1168 792 L 1168 720 Z Z" stroke-miterlimit="10"/></g><g transform="translate(2,-246) scale(1,1)"><path fill="none" stroke="#000000" d="M 1168 760 L 1395.18798828125 760" stroke-miterlimit="10"/></g><g transform="translate(2,-246) scale(1,1)"><path fill="none" stroke="#000000" d="M 1168 783 L 1395.18798828125 783" stroke-miterlimit="10"/></g><g transform="translate(2,-246) scale(1,1)"><g><path fill="none" stroke="none"/><text fill="#000000" stroke="none" font-family="Arial" font-size="13px" font-style="normal" font-weight="bold" text-decoration="none" x="1180.063232421875" y="739.5">InexistentExternalReaderException</text></g></g><g transform="translate(2,-246) scale(1,1)"><g><path fill="none" stroke="none"/><text fill="#000000" stroke="none" font-family="Arial" font-size="13px" font-style="normal" font-weight="normal" text-decoration="none" x="1208.26904296875" y="754.5">(from CustomExceptions)</text></g></g><g transform="translate(2,-246) scale(1,1)"><g><path fill="none" stroke="none"/><text fill="#000000" stroke="none" font-family="Arial" font-size="13px" font-style="normal" font-weight="normal" text-decoration="none" x="1173" y="777.5">+Message: string</text></g></g><g transform="translate(2,-246) scale(1,1)"><rect fill="#C0C0C0" stroke="none" x="991" y="735" width="155.64990234375" height="72" opacity="0.2"/></g><g transform="translate(2,-246) scale(1,1)"><rect fill="#ffffff" stroke="none" x="984" y="728" width="155.64990234375" height="72"/></g><g transform="translate(2,-246) scale(1,1)"><path fill="none" stroke="#000000" d="M 984 728 L 1139.64990234375 728 L 1139.64990234375 800 L 984 800 L 984 728 Z Z" stroke-miterlimit="10"/></g><g transform="translate(2,-246) scale(1,1)"><path fill="none" stroke="#000000" d="M 984 768 L 1139.64990234375 768" stroke-miterlimit="10"/></g><g transform="translate(2,-246) scale(1,1)"><path fill="none" stroke="#000000" d="M 984 791 L 1139.64990234375 791" stroke-miterlimit="10"/></g><g transform="translate(2,-246) scale(1,1)"><g><path fill="none" stroke="none"/><text fill="#000000" stroke="none" font-family="Arial" font-size="13px" font-style="normal" font-weight="bold" text-decoration="none" x="1017.37548828125" y="747.5">LoginException</text></g></g><g transform="translate(2,-246) scale(1,1)"><g><path fill="none" stroke="none"/><text fill="#000000" stroke="none" font-family="Arial" font-size="13px" font-style="normal" font-weight="normal" text-decoration="none" x="988.5" y="762.5">(from CustomExceptions)</text></g></g><g transform="translate(2,-246) scale(1,1)"><g><path fill="none" stroke="none"/><text fill="#000000" stroke="none" font-family="Arial" font-size="13px" font-style="normal" font-weight="normal" text-decoration="none" x="989" y="785.5">+Message: string</text></g></g><g transform="translate(2,-246) scale(1,1)"><rect fill="#C0C0C0" stroke="none" x="983" y="263" width="194.63720703125" height="87" opacity="0.2"/></g><g transform="translate(2,-246) scale(1,1)"><rect fill="#ffffff" stroke="none" x="976" y="256" width="194.63720703125" height="87"/></g><g transform="translate(2,-246) scale(1,1)"><path fill="none" stroke="#000000" d="M 976 256 L 1170.63720703125 256 L 1170.63720703125 343 L 976 343 L 976 256 Z Z" stroke-miterlimit="10"/></g><g transform="translate(2,-246) scale(1,1)"><path fill="none" stroke="#000000" d="M 976 296 L 1170.63720703125 296" stroke-miterlimit="10"/></g><g transform="translate(2,-246) scale(1,1)"><path fill="none" stroke="#000000" d="M 976 334 L 1170.63720703125 334" stroke-miterlimit="10"/></g><g transform="translate(2,-246) scale(1,1)"><g><path fill="none" stroke="none"/><text fill="#000000" stroke="none" font-family="Arial" font-size="13px" font-style="normal" font-weight="bold" text-decoration="none" x="987.6982421875" y="275.5">ModelMissingFieldsException</text></g></g><g transform="translate(2,-246) scale(1,1)"><g><path fill="none" stroke="none"/><text fill="#000000" stroke="none" font-family="Arial" font-size="13px" font-style="normal" font-weight="normal" text-decoration="none" x="999.99365234375" y="290.5">(from CustomExceptions)</text></g></g><g transform="translate(2,-246) scale(1,1)"><g><path fill="none" stroke="none"/><text fill="#000000" stroke="none" font-family="Arial" font-size="13px" font-style="normal" font-weight="normal" text-decoration="none" x="981" y="313.5">#messageToDisplay: string</text></g></g><g transform="translate(2,-246) scale(1,1)"><g><path fill="none" stroke="none"/><text fill="#000000" stroke="none" font-family="Arial" font-size="13px" font-style="normal" font-weight="normal" text-decoration="none" x="981" y="328.5">+Message: string</text></g></g><g transform="translate(2,-246) scale(1,1)"><rect fill="#C0C0C0" stroke="none" x="23" y="575" width="260.1005859375" height="72" opacity="0.2"/></g><g transform="translate(2,-246) scale(1,1)"><rect fill="#ffffff" stroke="none" x="16" y="568" width="260.1005859375" height="72"/></g><g transform="translate(2,-246) scale(1,1)"><path fill="none" stroke="#000000" d="M 16 568 L 276.1005859375 568 L 276.1005859375 640 L 16 640 L 16 568 Z Z" stroke-miterlimit="10"/></g><g transform="translate(2,-246) scale(1,1)"><path fill="none" stroke="#000000" d="M 16 608 L 276.1005859375 608" stroke-miterlimit="10"/></g><g transform="translate(2,-246) scale(1,1)"><path fill="none" stroke="#000000" d="M 16 618 L 276.1005859375 618" stroke-miterlimit="10"/></g><g transform="translate(2,-246) scale(1,1)"><g><path fill="none" stroke="none"/><text fill="#000000" stroke="none" font-family="Arial" font-size="13px" font-style="normal" font-weight="bold" text-decoration="none" x="68.005859375" y="587.5">BugAlreadyFixedException</text></g></g><g transform="translate(2,-246) scale(1,1)"><g><path fill="none" stroke="none"/><text fill="#000000" stroke="none" font-family="Arial" font-size="13px" font-style="normal" font-weight="normal" text-decoration="none" x="72.725341796875" y="602.5">(from CustomExceptions)</text></g></g><g transform="translate(2,-246) scale(1,1)"><g><path fill="none" stroke="none"/><text fill="#000000" stroke="none" font-family="Arial" font-size="13px" font-style="normal" font-weight="normal" text-decoration="none" x="21" y="635.5">«constructor»+BugAlreadyFixedException()</text></g></g><g transform="translate(2,-246) scale(1,1)"><rect fill="#C0C0C0" stroke="none" x="447" y="735" width="239.876953125" height="72" opacity="0.2"/></g><g transform="translate(2,-246) scale(1,1)"><rect fill="#ffffff" stroke="none" x="440" y="728" width="239.876953125" height="72"/></g><g transform="translate(2,-246) scale(1,1)"><path fill="none" stroke="#000000" d="M 440 728 L 679.876953125 728 L 679.876953125 800 L 440 800 L 440 728 Z Z" stroke-miterlimit="10"/></g><g transform="translate(2,-246) scale(1,1)"><path fill="none" stroke="#000000" d="M 440 768 L 679.876953125 768" stroke-miterlimit="10"/></g><g transform="translate(2,-246) scale(1,1)"><path fill="none" stroke="#000000" d="M 440 778 L 679.876953125 778" stroke-miterlimit="10"/></g><g transform="translate(2,-246) scale(1,1)"><g><path fill="none" stroke="none"/><text fill="#000000" stroke="none" font-family="Arial" font-size="13px" font-style="normal" font-weight="bold" text-decoration="none" x="492.005859375" y="747.5">InexistentBugException</text></g></g><g transform="translate(2,-246) scale(1,1)"><g><path fill="none" stroke="none"/><text fill="#000000" stroke="none" font-family="Arial" font-size="13px" font-style="normal" font-weight="normal" text-decoration="none" x="486.613525390625" y="762.5">(from CustomExceptions)</text></g></g><g transform="translate(2,-246) scale(1,1)"><g><path fill="none" stroke="none"/><text fill="#000000" stroke="none" font-family="Arial" font-size="13px" font-style="normal" font-weight="normal" text-decoration="none" x="445" y="795.5">«constructor»+InexistentBugException()</text></g></g><g transform="translate(2,-246) scale(1,1)"><rect fill="#C0C0C0" stroke="none" x="439" y="639" width="326.560546875" height="72" opacity="0.2"/></g><g transform="translate(2,-246) scale(1,1)"><rect fill="#ffffff" stroke="none" x="432" y="632" width="326.560546875" height="72"/></g><g transform="translate(2,-246) scale(1,1)"><path fill="none" stroke="#000000" d="M 432 632 L 758.560546875 632 L 758.560546875 704 L 432 704 L 432 632 Z Z" stroke-miterlimit="10"/></g><g transform="translate(2,-246) scale(1,1)"><path fill="none" stroke="#000000" d="M 432 672 L 758.560546875 672" stroke-miterlimit="10"/></g><g transform="translate(2,-246) scale(1,1)"><path fill="none" stroke="#000000" d="M 432 682 L 758.560546875 682" stroke-miterlimit="10"/></g><g transform="translate(2,-246) scale(1,1)"><g><path fill="none" stroke="none"/><text fill="#000000" stroke="none" font-family="Arial" font-size="13px" font-style="normal" font-weight="bold" text-decoration="none" x="484.005859375" y="651.5">UserIsNotAssignedToProjectException</text></g></g><g transform="translate(2,-246) scale(1,1)"><g><path fill="none" stroke="none"/><text fill="#000000" stroke="none" font-family="Arial" font-size="13px" font-style="normal" font-weight="normal" text-decoration="none" x="521.955322265625" y="666.5">(from CustomExceptions)</text></g></g><g transform="translate(2,-246) scale(1,1)"><g><path fill="none" stroke="none"/><text fill="#000000" stroke="none" font-family="Arial" font-size="13px" font-style="normal" font-weight="normal" text-decoration="none" x="437" y="699.5">«constructor»+UserIsNotAssignedToProjectException()</text></g></g><g transform="translate(2,-246) scale(1,1)"><rect fill="#C0C0C0" stroke="none" x="767" y="535" width="336.67236328125" height="72" opacity="0.2"/></g><g transform="translate(2,-246) scale(1,1)"><rect fill="#ffffff" stroke="none" x="760" y="528" width="336.67236328125" height="72"/></g><g transform="translate(2,-246) scale(1,1)"><path fill="none" stroke="#000000" d="M 760 528 L 1096.67236328125 528 L 1096.67236328125 600 L 760 600 L 760 528 Z Z" stroke-miterlimit="10"/></g><g transform="translate(2,-246) scale(1,1)"><path fill="none" stroke="#000000" d="M 760 568 L 1096.67236328125 568" stroke-miterlimit="10"/></g><g transform="translate(2,-246) scale(1,1)"><path fill="none" stroke="#000000" d="M 760 578 L 1096.67236328125 578" stroke-miterlimit="10"/></g><g transform="translate(2,-246) scale(1,1)"><g><path fill="none" stroke="none"/><text fill="#000000" stroke="none" font-family="Arial" font-size="13px" font-style="normal" font-weight="bold" text-decoration="none" x="812.005859375" y="547.5">AssignmentModelMissingFieldException</text></g></g><g transform="translate(2,-246) scale(1,1)"><g><path fill="none" stroke="none"/><text fill="#000000" stroke="none" font-family="Arial" font-size="13px" font-style="normal" font-weight="normal" text-decoration="none" x="855.01123046875" y="562.5">(from CustomExceptions)</text></g></g><g transform="translate(2,-246) scale(1,1)"><g><path fill="none" stroke="none"/><text fill="#000000" stroke="none" font-family="Arial" font-size="13px" font-style="normal" font-weight="normal" text-decoration="none" x="765" y="595.5">«constructor»+AssignmentModelMissingFieldException()</text></g></g><g transform="translate(2,-246) scale(1,1)"><rect fill="#C0C0C0" stroke="none" x="767" y="447" width="291.88330078125" height="72" opacity="0.2"/></g><g transform="translate(2,-246) scale(1,1)"><rect fill="#ffffff" stroke="none" x="760" y="440" width="291.88330078125" height="72"/></g><g transform="translate(2,-246) scale(1,1)"><path fill="none" stroke="#000000" d="M 760 440 L 1051.88330078125 440 L 1051.88330078125 512 L 760 512 L 760 440 Z Z" stroke-miterlimit="10"/></g><g transform="translate(2,-246) scale(1,1)"><path fill="none" stroke="#000000" d="M 760 480 L 1051.88330078125 480" stroke-miterlimit="10"/></g><g transform="translate(2,-246) scale(1,1)"><path fill="none" stroke="#000000" d="M 760 490 L 1051.88330078125 490" stroke-miterlimit="10"/></g><g transform="translate(2,-246) scale(1,1)"><g><path fill="none" stroke="none"/><text fill="#000000" stroke="none" font-family="Arial" font-size="13px" font-style="normal" font-weight="bold" text-decoration="none" x="812.005859375" y="459.5">BugModelMissingFieldException</text></g></g><g transform="translate(2,-246) scale(1,1)"><g><path fill="none" stroke="none"/><text fill="#000000" stroke="none" font-family="Arial" font-size="13px" font-style="normal" font-weight="normal" text-decoration="none" x="832.61669921875" y="474.5">(from CustomExceptions)</text></g></g><g transform="translate(2,-246) scale(1,1)"><g><path fill="none" stroke="none"/><text fill="#000000" stroke="none" font-family="Arial" font-size="13px" font-style="normal" font-weight="normal" text-decoration="none" x="765" y="507.5">«constructor»+BugModelMissingFieldException()</text></g></g><g transform="translate(2,-246) scale(1,1)"><rect fill="#C0C0C0" stroke="none" x="1143" y="543" width="309.21240234375" height="72" opacity="0.2"/></g><g transform="translate(2,-246) scale(1,1)"><rect fill="#ffffff" stroke="none" x="1136" y="536" width="309.21240234375" height="72"/></g><g transform="translate(2,-246) scale(1,1)"><path fill="none" stroke="#000000" d="M 1136 536 L 1445.21240234375 536 L 1445.21240234375 608 L 1136 608 L 1136 536 Z Z" stroke-miterlimit="10"/></g><g transform="translate(2,-246) scale(1,1)"><path fill="none" stroke="#000000" d="M 1136 576 L 1445.21240234375 576" stroke-miterlimit="10"/></g><g transform="translate(2,-246) scale(1,1)"><path fill="none" stroke="#000000" d="M 1136 586 L 1445.21240234375 586" stroke-miterlimit="10"/></g><g transform="translate(2,-246) scale(1,1)"><g><path fill="none" stroke="none"/><text fill="#000000" stroke="none" font-family="Arial" font-size="13px" font-style="normal" font-weight="bold" text-decoration="none" x="1188.005859375" y="555.5">ProjectModelMissingFieldException</text></g></g><g transform="translate(2,-246) scale(1,1)"><g><path fill="none" stroke="none"/><text fill="#000000" stroke="none" font-family="Arial" font-size="13px" font-style="normal" font-weight="normal" text-decoration="none" x="1217.28125" y="570.5">(from CustomExceptions)</text></g></g><g transform="translate(2,-246) scale(1,1)"><g><path fill="none" stroke="none"/><text fill="#000000" stroke="none" font-family="Arial" font-size="13px" font-style="normal" font-weight="normal" text-decoration="none" x="1141" y="603.5">«constructor»+ProjectModelMissingFieldException()</text></g></g><g transform="translate(2,-246) scale(1,1)"><rect fill="#C0C0C0" stroke="none" x="1143" y="455" width="296.19970703125" height="72" opacity="0.2"/></g><g transform="translate(2,-246) scale(1,1)"><rect fill="#ffffff" stroke="none" x="1136" y="448" width="296.19970703125" height="72"/></g><g transform="translate(2,-246) scale(1,1)"><path fill="none" stroke="#000000" d="M 1136 448 L 1432.19970703125 448 L 1432.19970703125 520 L 1136 520 L 1136 448 Z Z" stroke-miterlimit="10"/></g><g transform="translate(2,-246) scale(1,1)"><path fill="none" stroke="#000000" d="M 1136 488 L 1432.19970703125 488" stroke-miterlimit="10"/></g><g transform="translate(2,-246) scale(1,1)"><path fill="none" stroke="#000000" d="M 1136 498 L 1432.19970703125 498" stroke-miterlimit="10"/></g><g transform="translate(2,-246) scale(1,1)"><g><path fill="none" stroke="none"/><text fill="#000000" stroke="none" font-family="Arial" font-size="13px" font-style="normal" font-weight="bold" text-decoration="none" x="1188.005859375" y="467.5">UserModelMissingFieldException</text></g></g><g transform="translate(2,-246) scale(1,1)"><g><path fill="none" stroke="none"/><text fill="#000000" stroke="none" font-family="Arial" font-size="13px" font-style="normal" font-weight="normal" text-decoration="none" x="1210.77490234375" y="482.5">(from CustomExceptions)</text></g></g><g transform="translate(2,-246) scale(1,1)"><g><path fill="none" stroke="none"/><text fill="#000000" stroke="none" font-family="Arial" font-size="13px" font-style="normal" font-weight="normal" text-decoration="none" x="1141" y="515.5">«constructor»+UserModelMissingFieldException()</text></g></g><g transform="translate(2,-246) scale(1,1)"><path fill="none" stroke="#000000" d="M 1085 528 L 1085 343" stroke-miterlimit="10"/></g><g transform="translate(2,-246) scale(1,1)"><path fill="#FFFFFF" stroke="none" d="M 1093.419035512032 363.3253497152483 L 1085 343 L 1076.580964487968 363.3253497152483"/></g><g transform="translate(2,-246) scale(1,1)"><path fill="none" stroke="#000000" d="M 1093.419035512032 363.3253497152483 L 1085 343 L 1076.580964487968 363.3253497152483 L 1093.419035512032 363.3253497152483" stroke-miterlimit="10"/></g><g transform="translate(2,-246) scale(1,1)"><path fill="none" stroke="#000000" d="M 1136 484 L 1124 484 L 1124 343" stroke-miterlimit="10"/></g><g transform="translate(2,-246) scale(1,1)"><path fill="#FFFFFF" stroke="none" d="M 1132.419035512032 363.3253497152483 L 1124 343 L 1115.580964487968 363.3253497152483"/></g><g transform="translate(2,-246) scale(1,1)"><path fill="none" stroke="#000000" d="M 1132.419035512032 363.3253497152483 L 1124 343 L 1115.580964487968 363.3253497152483 L 1132.419035512032 363.3253497152483" stroke-miterlimit="10"/></g><g transform="translate(2,-246) scale(1,1)"><path fill="none" stroke="#000000" d="M 1136 584 L 1112 584 L 1112 343" stroke-miterlimit="10"/></g><g transform="translate(2,-246) scale(1,1)"><path fill="#FFFFFF" stroke="none" d="M 1120.419035512032 363.3253497152483 L 1112 343 L 1103.580964487968 363.3253497152483"/></g><g transform="translate(2,-246) scale(1,1)"><path fill="none" stroke="#000000" d="M 1120.419035512032 363.3253497152483 L 1112 343 L 1103.580964487968 363.3253497152483 L 1120.419035512032 363.3253497152483" stroke-miterlimit="10"/></g><g transform="translate(2,-246) scale(1,1)"><path fill="none" stroke="#000000" d="M 1052 440 L 1068 440 L 1068 343" stroke-miterlimit="10"/></g><g transform="translate(2,-246) scale(1,1)"><path fill="#FFFFFF" stroke="none" d="M 1076.419035512032 363.3253497152483 L 1068 343 L 1059.580964487968 363.3253497152483"/></g><g transform="translate(2,-246) scale(1,1)"><path fill="none" stroke="#000000" d="M 1076.419035512032 363.3253497152483 L 1068 343 L 1059.580964487968 363.3253497152483 L 1076.419035512032 363.3253497152483" stroke-miterlimit="10"/></g><g transform="translate(2,-246) scale(1,1)"><path fill="none" stroke="#000000" d="M 276 604 L 357 604 L 357 343" stroke-miterlimit="10"/></g><g transform="translate(2,-246) scale(1,1)"><path fill="#FFFFFF" stroke="none" d="M 365.419035512032 363.3253497152483 L 357 343 L 348.580964487968 363.3253497152483"/></g><g transform="translate(2,-246) scale(1,1)"><path fill="none" stroke="#000000" d="M 365.419035512032 363.3253497152483 L 357 343 L 348.580964487968 363.3253497152483 L 365.419035512032 363.3253497152483" stroke-miterlimit="10"/></g><g transform="translate(2,-246) scale(1,1)"><path fill="none" stroke="#000000" d="M 432 668 L 392 668 L 392 343" stroke-miterlimit="10"/></g><g transform="translate(2,-246) scale(1,1)"><path fill="#FFFFFF" stroke="none" d="M 400.419035512032 363.3253497152483 L 392 343 L 383.580964487968 363.3253497152483"/></g><g transform="translate(2,-246) scale(1,1)"><path fill="none" stroke="#000000" d="M 400.419035512032 363.3253497152483 L 392 343 L 383.580964487968 363.3253497152483 L 400.419035512032 363.3253497152483" stroke-miterlimit="10"/></g><g transform="translate(2,-246) scale(1,1)"><path fill="none" stroke="#000000" d="M 440 728 L 376 728 L 376 343" stroke-miterlimit="10"/></g><g transform="translate(2,-246) scale(1,1)"><path fill="#FFFFFF" stroke="none" d="M 384.419035512032 363.3253497152483 L 376 343 L 367.580964487968 363.3253497152483"/></g><g transform="translate(2,-246) scale(1,1)"><path fill="none" stroke="#000000" d="M 384.419035512032 363.3253497152483 L 376 343 L 367.580964487968 363.3253497152483 L 384.419035512032 363.3253497152483" stroke-miterlimit="10"/></g></g></svg>