<svg version="1.1" xmlns="http://www.w3.org/2000/svg" xmlns:xlink="http://www.w3.org/1999/xlink" width="1973" height="1116"><defs/><g><g transform="translate(11,10) scale(1,1)"><path fill="none" stroke="#000000" d="M 40 0 L 1952 0 L 1952 1096 L 40 1096 L 40 0" stroke-miterlimit="10"/></g><g transform="translate(11,10) scale(1,1)"><path fill="#ffffff" stroke="none" d="M 40 0 L 40 22 L 220.72802734375 22 L 231.72802734375 11 L 231.72802734375 0 L 40 0"/></g><g transform="translate(11,10) scale(1,1)"><path fill="none" stroke="#000000" d="M 40 0 L 40 22 L 220.72802734375 22 L 231.72802734375 11 L 231.72802734375 0 L 40 0 L 40 0" stroke-miterlimit="10"/></g><g transform="translate(11,10) scale(1,1)"><g><path fill="none" stroke="none"/><text fill="#000000" stroke="none" font-family="Arial" font-size="13px" font-style="normal" font-weight="normal" text-decoration="none" x="64.72998046875" y="17.5">AddsBugsFromProjectFile</text></g></g><g transform="translate(11,10) scale(1,1)"><g><path fill="none" stroke="none"/><text fill="#000000" stroke="none" font-family="Arial" font-size="13px" font-style="normal" font-weight="bold" text-decoration="none" x="45" y="17.5">sd</text></g></g><g transform="translate(11,10) scale(1,1)"><rect fill="#C0C0C0" stroke="none" x="199" y="47" width="234.25537109375" height="39" opacity="0.2"/></g><g transform="translate(11,10) scale(1,1)"><rect fill="#ffffff" stroke="none" x="192" y="40" width="234.25537109375" height="39"/></g><g transform="translate(11,10) scale(1,1)"><path fill="none" stroke="#000000" d="M 192 40 L 426.25537109375 40 L 426.25537109375 79 L 192 79 L 192 40 Z Z" stroke-miterlimit="10"/></g><g transform="translate(11,10) scale(1,1)"><g><path fill="none" stroke="none"/><text fill="#000000" stroke="none" font-family="Arial" font-size="13px" font-style="normal" font-weight="bold" text-decoration="none" x="257.470458984375" y="59.5">ProjectsController</text></g></g><g transform="translate(11,10) scale(1,1)"><path fill="none" stroke="#000000" d="M 310.5 80 L 310.5 1096" stroke-miterlimit="10" stroke-dasharray="3"/></g><g transform="translate(11,10) scale(1,1)"><path fill="#000000" stroke="none" d="M 24 135.5 C 24 131.6340064 27.1340064 128.5 31 128.5 C 34.8659936 128.5 38 131.6340064 38 135.5 C 38 139.3659936 34.8659936 142.5 31 142.5 C 27.1340064 142.5 24 139.3659936 24 135.5 Z"/></g><g transform="translate(11,10) scale(1,1)"><rect fill="#C0C0C0" stroke="none" x="1159" y="47" width="216" height="39" opacity="0.2"/></g><g transform="translate(11,10) scale(1,1)"><rect fill="#ffffff" stroke="none" x="1152" y="40" width="216" height="39"/></g><g transform="translate(11,10) scale(1,1)"><path fill="none" stroke="#000000" d="M 1152 40 L 1368 40 L 1368 79 L 1152 79 L 1152 40 Z Z" stroke-miterlimit="10"/></g><g transform="translate(11,10) scale(1,1)"><g><path fill="none" stroke="none"/><text fill="#000000" stroke="none" font-family="Arial" font-size="13px" font-style="normal" font-weight="bold" text-decoration="none" x="1208.701416015625" y="59.5">ProjectRepository</text></g></g><g transform="translate(11,10) scale(1,1)"><path fill="none" stroke="#000000" d="M 1261.5 80 L 1261.5 1096" stroke-miterlimit="10" stroke-dasharray="3"/></g><g transform="translate(11,10) scale(1,1)"><rect fill="#C0C0C0" stroke="none" x="1567" y="47" width="200" height="39" opacity="0.2"/></g><g transform="translate(11,10) scale(1,1)"><rect fill="#ffffff" stroke="none" x="1560" y="40" width="200" height="39"/></g><g transform="translate(11,10) scale(1,1)"><path fill="none" stroke="#000000" d="M 1560 40 L 1760 40 L 1760 79 L 1560 79 L 1560 40 Z Z" stroke-miterlimit="10"/></g><g transform="translate(11,10) scale(1,1)"><g><path fill="none" stroke="none"/><text fill="#000000" stroke="none" font-family="Arial" font-size="13px" font-style="normal" font-weight="bold" text-decoration="none" x="1598.224609375" y="59.5">BugSummaryContext</text></g></g><g transform="translate(11,10) scale(1,1)"><path fill="none" stroke="#000000" d="M 1661.5 80 L 1661.5 1096" stroke-miterlimit="10" stroke-dasharray="3"/></g><g transform="translate(11,10) scale(1,1)"><rect fill="#C0C0C0" stroke="none" x="655" y="47" width="110.03173828125" height="39" opacity="0.2"/></g><g transform="translate(11,10) scale(1,1)"><rect fill="#ffffff" stroke="none" x="648" y="40" width="110.03173828125" height="39"/></g><g transform="translate(11,10) scale(1,1)"><path fill="none" stroke="#000000" d="M 648 40 L 758.03173828125 40 L 758.03173828125 79 L 648 79 L 648 40 Z Z" stroke-miterlimit="10"/></g><g transform="translate(11,10) scale(1,1)"><g><path fill="none" stroke="none"/><text fill="#000000" stroke="none" font-family="Arial" font-size="13px" font-style="normal" font-weight="bold" text-decoration="none" x="667.246826171875" y="59.5">ProjectLogic</text></g></g><g transform="translate(11,10) scale(1,1)"><path fill="none" stroke="#000000" d="M 704.5 80 L 704.5 1096" stroke-miterlimit="10" stroke-dasharray="3"/></g><g transform="translate(11,10) scale(1,1)"><rect fill="#C0C0C0" stroke="none" x="951" y="47" width="110.0380859375" height="39" opacity="0.2"/></g><g transform="translate(11,10) scale(1,1)"><rect fill="#ffffff" stroke="none" x="944" y="40" width="110.0380859375" height="39"/></g><g transform="translate(11,10) scale(1,1)"><path fill="none" stroke="#000000" d="M 944 40 L 1054.0380859375 40 L 1054.0380859375 79 L 944 79 L 944 40 Z Z" stroke-miterlimit="10"/></g><g transform="translate(11,10) scale(1,1)"><g><path fill="none" stroke="none"/><text fill="#000000" stroke="none" font-family="Arial" font-size="13px" font-style="normal" font-weight="bold" text-decoration="none" x="956.029541015625" y="59.5">ReaderFactory</text></g></g><g transform="translate(11,10) scale(1,1)"><path fill="none" stroke="#000000" d="M 1000.5 80 L 1000.5 1096" stroke-miterlimit="10" stroke-dasharray="3"/></g><g transform="translate(11,10) scale(1,1)"><path fill="#000000" stroke="none" d="M 1856 375.5 C 1856 371.6340064 1859.1340064 368.5 1863 368.5 C 1866.8659936 368.5 1870 371.6340064 1870 375.5 C 1870 379.3659936 1866.8659936 382.5 1863 382.5 C 1859.1340064 382.5 1856 379.3659936 1856 375.5 Z"/></g><g transform="translate(11,10) scale(1,1)"><rect fill="#C0C0C0" stroke="none" x="479" y="47" width="112.9072265625" height="39" opacity="0.2"/></g><g transform="translate(11,10) scale(1,1)"><rect fill="#ffffff" stroke="none" x="472" y="40" width="112.9072265625" height="39"/></g><g transform="translate(11,10) scale(1,1)"><path fill="none" stroke="#000000" d="M 472 40 L 584.9072265625 40 L 584.9072265625 79 L 472 79 L 472 40 Z Z" stroke-miterlimit="10"/></g><g transform="translate(11,10) scale(1,1)"><g><path fill="none" stroke="none"/><text fill="#000000" stroke="none" font-family="Arial" font-size="13px" font-style="normal" font-weight="bold" text-decoration="none" x="485.464111328125" y="59.5">ExceptionFilter</text></g></g><g transform="translate(11,10) scale(1,1)"><path fill="none" stroke="#000000" d="M 529.5 80 L 529.5 1096" stroke-miterlimit="10" stroke-dasharray="3"/></g><g transform="translate(11,10) scale(1,1)"><path fill="#000000" stroke="none" d="M 16 552.5 C 16 548.6340064 19.1340064 545.5 23 545.5 C 26.8659936 545.5 30 548.6340064 30 552.5 C 30 556.3659936 26.8659936 559.5 23 559.5 C 19.1340064 559.5 16 556.3659936 16 552.5 Z"/></g><g transform="translate(11,10) scale(1,1)"><path fill="#000000" stroke="none" d="M 1856 711.5 C 1856 707.6340064 1859.1340064 704.5 1863 704.5 C 1866.8659936 704.5 1870 707.6340064 1870 711.5 C 1870 715.3659936 1866.8659936 718.5 1863 718.5 C 1859.1340064 718.5 1856 715.3659936 1856 711.5 Z"/></g><g transform="translate(11,10) scale(1,1)"><path fill="#000000" stroke="none" d="M 15 1027.5 C 15 1023.6340064 18.1340064 1020.5 22 1020.5 C 25.8659936 1020.5 29 1023.6340064 29 1027.5 C 29 1031.3659936 25.8659936 1034.5 22 1034.5 C 18.1340064 1034.5 15 1031.3659936 15 1027.5 Z"/></g><g transform="translate(11,10) scale(1,1)"><path fill="#000000" stroke="none" d="M 1856 335.5 C 1856 331.6340064 1859.1340064 328.5 1863 328.5 C 1866.8659936 328.5 1870 331.6340064 1870 335.5 C 1870 339.3659936 1866.8659936 342.5 1863 342.5 C 1859.1340064 342.5 1856 339.3659936 1856 335.5 Z"/></g><g transform="translate(11,10) scale(1,1)"><path fill="#000000" stroke="none" d="M 1872 903.5 C 1872 899.6340064 1875.1340064 896.5 1879 896.5 C 1882.8659936 896.5 1886 899.6340064 1886 903.5 C 1886 907.3659936 1882.8659936 910.5 1879 910.5 C 1875.1340064 910.5 1872 907.3659936 1872 903.5 Z"/></g><g transform="translate(11,10) scale(1,1)"><path fill="none" stroke="#000000" d="M 38 136 L 303 136" stroke-miterlimit="10"/></g><g transform="translate(11,10) scale(1,1)"><path fill="#000000" stroke="none" d="M 292.83732514237585 140.209517756016 L 303 136 L 292.83732514237585 131.790482243984"/></g><g transform="translate(11,10) scale(1,1)"><path fill="none" stroke="#000000" d="M 292.83732514237585 140.209517756016 L 303 136 L 292.83732514237585 131.790482243984 L 292.83732514237585 140.209517756016" stroke-miterlimit="10"/></g><g transform="translate(11,10) scale(1,1)"><g><path fill="none" stroke="none"/><text fill="#000000" stroke="none" font-family="Arial" font-size="13px" font-style="normal" font-weight="normal" text-decoration="none" x="14.22314453125" y="123.5">1 : Post: /project/bugs?companyName=Empresa1</text></g></g><g transform="translate(11,10) scale(1,1)"><rect fill="#ffffff" stroke="none" x="303" y="136" width="13" height="936"/></g><g transform="translate(11,10) scale(1,1)"><path fill="none" stroke="#000000" d="M 303 136 L 316 136 L 316 1072 L 303 1072 L 303 136 Z Z" stroke-miterlimit="10"/></g><g transform="translate(11,10) scale(1,1)"><path fill="none" stroke="#000000" d="M 316 136 L 697 136" stroke-miterlimit="10"/></g><g transform="translate(11,10) scale(1,1)"><path fill="#000000" stroke="none" d="M 686.8373251423759 140.209517756016 L 697 136 L 686.8373251423758 131.790482243984"/></g><g transform="translate(11,10) scale(1,1)"><path fill="none" stroke="#000000" d="M 686.8373251423759 140.209517756016 L 697 136 L 686.8373251423758 131.790482243984 L 686.8373251423759 140.209517756016" stroke-miterlimit="10"/></g><g transform="translate(11,10) scale(1,1)"><g><path fill="none" stroke="none"/><text fill="#000000" stroke="none" font-family="Arial" font-size="13px" font-style="normal" font-weight="normal" text-decoration="none" x="352.5" y="132.5">2 : _projects.AddBugsFromFile(path, companyName)</text></g></g><g transform="translate(11,10) scale(1,1)"><rect fill="#ffffff" stroke="none" x="697" y="136" width="13" height="872"/></g><g transform="translate(11,10) scale(1,1)"><path fill="none" stroke="#000000" d="M 697 136 L 710 136 L 710 1008 L 697 1008 L 697 136 Z Z" stroke-miterlimit="10"/></g><g transform="translate(11,10) scale(1,1)"><path fill="none" stroke="#000000" d="M 710 155 L 993 155" stroke-miterlimit="10"/></g><g transform="translate(11,10) scale(1,1)"><path fill="#000000" stroke="none" d="M 982.8373251423759 159.209517756016 L 993 155 L 982.8373251423758 150.790482243984"/></g><g transform="translate(11,10) scale(1,1)"><path fill="none" stroke="#000000" d="M 982.8373251423759 159.209517756016 L 993 155 L 982.8373251423758 150.790482243984 L 982.8373251423759 159.209517756016" stroke-miterlimit="10"/></g><g transform="translate(11,10) scale(1,1)"><g><path fill="none" stroke="none"/><text fill="#000000" stroke="none" font-family="Arial" font-size="13px" font-style="normal" font-weight="normal" text-decoration="none" x="739.5" y="151.5">3 : readerFactory.GetStrategy(companyName)</text></g></g><g transform="translate(11,10) scale(1,1)"><rect fill="#ffffff" stroke="none" x="993" y="155" width="13" height="100"/></g><g transform="translate(11,10) scale(1,1)"><path fill="none" stroke="#000000" d="M 993 155 L 1006 155 L 1006 255 L 993 255 L 993 155 Z Z" stroke-miterlimit="10"/></g><g transform="translate(11,10) scale(1,1)"><path fill="none" stroke="#000000" d="M 993 176 L 710 176" stroke-miterlimit="10" stroke-dasharray="3"/></g><g transform="translate(11,10) scale(1,1)"><path fill="none" stroke="#000000" d="M 720.1626748576241 171.790482243984 L 710 176 L 720.1626748576241 180.209517756016" stroke-miterlimit="10"/></g><g transform="translate(11,10) scale(1,1)"><g><path fill="none" stroke="none"/><text fill="#000000" stroke="none" font-family="Arial" font-size="13px" font-style="normal" font-weight="normal" text-decoration="none" x="797.5" y="192.5">4 : readerStrategy</text></g></g><g transform="translate(11,10) scale(1,1)"><path fill="none" stroke="#000000" d="M 710 224 L 1000 224" stroke-miterlimit="10"/></g><g transform="translate(11,10) scale(1,1)"><path fill="#000000" stroke="none" d="M 989.8373251423759 228.209517756016 L 1000 224 L 989.8373251423758 219.790482243984"/></g><g transform="translate(11,10) scale(1,1)"><path fill="none" stroke="#000000" d="M 989.8373251423759 228.209517756016 L 1000 224 L 989.8373251423758 219.790482243984 L 989.8373251423759 228.209517756016" stroke-miterlimit="10"/></g><g transform="translate(11,10) scale(1,1)"><g><path fill="none" stroke="none"/><text fill="#000000" stroke="none" font-family="Arial" font-size="13px" font-style="normal" font-weight="normal" text-decoration="none" x="725.5" y="220.5">5 : readerStrategy.GetProjectsFromFile(path)</text></g></g><g transform="translate(11,10) scale(1,1)"><rect fill="#ffffff" stroke="none" x="1000" y="224" width="13" height="28"/></g><g transform="translate(11,10) scale(1,1)"><path fill="none" stroke="#000000" d="M 1000 224 L 1013 224 L 1013 252 L 1000 252 L 1000 224 Z Z" stroke-miterlimit="10"/></g><g transform="translate(11,10) scale(1,1)"><path fill="none" stroke="#000000" d="M 1000 251 L 710 251" stroke-miterlimit="10" stroke-dasharray="3"/></g><g transform="translate(11,10) scale(1,1)"><path fill="none" stroke="#000000" d="M 720.1626748576241 246.790482243984 L 710 251 L 720.1626748576241 255.209517756016" stroke-miterlimit="10"/></g><g transform="translate(11,10) scale(1,1)"><g><path fill="none" stroke="none"/><text fill="#000000" stroke="none" font-family="Arial" font-size="13px" font-style="normal" font-weight="normal" text-decoration="none" x="804.5" y="267.5">6 : parsedProject</text></g></g><g transform="translate(11,10) scale(1,1)"><path fill="none" stroke="#000000" d="M 710 312 L 1254 312" stroke-miterlimit="10"/></g><g transform="translate(11,10) scale(1,1)"><path fill="#000000" stroke="none" d="M 1243.837325142376 316.209517756016 L 1254 312 L 1243.837325142376 307.790482243984"/></g><g transform="translate(11,10) scale(1,1)"><path fill="none" stroke="#000000" d="M 1243.837325142376 316.209517756016 L 1254 312 L 1243.837325142376 307.790482243984 L 1243.837325142376 316.209517756016" stroke-miterlimit="10"/></g><g transform="translate(11,10) scale(1,1)"><g><path fill="none" stroke="none"/><text fill="#000000" stroke="none" font-family="Arial" font-size="13px" font-style="normal" font-weight="normal" text-decoration="none" x="837.12451171875" y="308.5">7 : _projectRepository.AddBugsFromFile(Projects)</text></g></g><g transform="translate(11,10) scale(1,1)"><rect fill="#ffffff" stroke="none" x="1254" y="312" width="13" height="648"/></g><g transform="translate(11,10) scale(1,1)"><path fill="none" stroke="#000000" d="M 1254 312 L 1267 312 L 1267 960 L 1254 960 L 1254 312 Z Z" stroke-miterlimit="10"/></g><g transform="translate(11,10) scale(1,1)"><path fill="none" stroke="#000000" d="M 1267 330 L 1654 330" stroke-miterlimit="10"/></g><g transform="translate(11,10) scale(1,1)"><path fill="#000000" stroke="none" d="M 1643.837325142376 334.209517756016 L 1654 330 L 1643.837325142376 325.790482243984"/></g><g transform="translate(11,10) scale(1,1)"><path fill="none" stroke="#000000" d="M 1643.837325142376 334.209517756016 L 1654 330 L 1643.837325142376 325.790482243984 L 1643.837325142376 334.209517756016" stroke-miterlimit="10"/></g><g transform="translate(11,10) scale(1,1)"><g><path fill="none" stroke="none"/><text fill="#000000" stroke="none" font-family="Arial" font-size="13px" font-style="normal" font-weight="normal" text-decoration="none" x="1285.5" y="326.5">8 : Context.Projects.First(p =&gt; p.name == newProject.Name)</text></g></g><g transform="translate(11,10) scale(1,1)"><rect fill="#ffffff" stroke="none" x="1654" y="330" width="13" height="606"/></g><g transform="translate(11,10) scale(1,1)"><path fill="none" stroke="#000000" d="M 1654 330 L 1667 330 L 1667 936 L 1654 936 L 1654 330 Z Z" stroke-miterlimit="10"/></g><g transform="translate(11,10) scale(1,1)"><path fill="none" stroke="#000000" d="M 1667 336 L 1856 336" stroke-miterlimit="10"/></g><g transform="translate(11,10) scale(1,1)"><path fill="#000000" stroke="none" d="M 1845.837325142376 340.209517756016 L 1856 336 L 1845.837325142376 331.790482243984"/></g><g transform="translate(11,10) scale(1,1)"><path fill="none" stroke="#000000" d="M 1845.837325142376 340.209517756016 L 1856 336 L 1845.837325142376 331.790482243984 L 1845.837325142376 340.209517756016" stroke-miterlimit="10"/></g><g transform="translate(11,10) scale(1,1)"><g><path fill="none" stroke="none"/><text fill="#000000" stroke="none" font-family="Arial" font-size="13px" font-style="normal" font-weight="normal" text-decoration="none" x="1697.5" y="332.5">9 : GetProjectFromDB</text></g></g><g transform="translate(11,10) scale(1,1)"><path fill="none" stroke="#000000" d="M 1856 376 L 1667 376" stroke-miterlimit="10" stroke-dasharray="3"/></g><g transform="translate(11,10) scale(1,1)"><path fill="none" stroke="#000000" d="M 1677.162674857624 371.790482243984 L 1667 376 L 1677.162674857624 380.209517756016" stroke-miterlimit="10"/></g><g transform="translate(11,10) scale(1,1)"><g><path fill="none" stroke="none"/><text fill="#000000" stroke="none" font-family="Arial" font-size="13px" font-style="normal" font-weight="normal" text-decoration="none" x="1727.5" y="392.5">10 : project</text></g></g><g transform="translate(11,10) scale(1,1)"><path fill="none" stroke="#000000" d="M 1654 400 L 1267 400" stroke-miterlimit="10" stroke-dasharray="3"/></g><g transform="translate(11,10) scale(1,1)"><path fill="none" stroke="#000000" d="M 1277.162674857624 395.790482243984 L 1267 400 L 1277.162674857624 404.209517756016" stroke-miterlimit="10"/></g><g transform="translate(11,10) scale(1,1)"><g><path fill="none" stroke="none"/><text fill="#000000" stroke="none" font-family="Arial" font-size="13px" font-style="normal" font-weight="normal" text-decoration="none" x="1396.982421875" y="420.5">11 : projectFromDb</text></g></g><g transform="translate(11,10) scale(1,1)"><path fill="none" stroke="#000000" d="M 1254 536 L 535 536" stroke-miterlimit="10"/></g><g transform="translate(11,10) scale(1,1)"><path fill="#000000" stroke="none" d="M 545.1626748576241 531.790482243984 L 535 536 L 545.1626748576241 540.209517756016"/></g><g transform="translate(11,10) scale(1,1)"><path fill="none" stroke="#000000" d="M 545.1626748576241 531.790482243984 L 535 536 L 545.1626748576241 540.209517756016 L 545.1626748576241 531.790482243984" stroke-miterlimit="10"/></g><g transform="translate(11,10) scale(1,1)"><g><path fill="none" stroke="none"/><text fill="#000000" stroke="none" font-family="Arial" font-size="13px" font-style="normal" font-weight="normal" text-decoration="none" x="706.5" y="531.5">12 : throws new InexistenProjectException()</text></g></g><g transform="translate(11,10) scale(1,1)"><rect fill="#ffffff" stroke="none" x="522" y="536" width="13" height="28"/></g><g transform="translate(11,10) scale(1,1)"><path fill="none" stroke="#000000" d="M 522 536 L 535 536 L 535 564 L 522 564 L 522 536 Z Z" stroke-miterlimit="10"/></g><g transform="translate(11,10) scale(1,1)"><path fill="none" stroke="#000000" d="M 522 553 L 30 553" stroke-miterlimit="10" stroke-dasharray="3"/></g><g transform="translate(11,10) scale(1,1)"><path fill="none" stroke="#000000" d="M 40.162674857624154 548.790482243984 L 30 553 L 40.162674857624154 557.209517756016" stroke-miterlimit="10"/></g><g transform="translate(11,10) scale(1,1)"><g><path fill="none" stroke="none"/><text fill="#000000" stroke="none" font-family="Arial" font-size="13px" font-style="normal" font-weight="normal" text-decoration="none" x="70.5" y="579.5">13 : statusCode = statusCode = 403 , exceptionMessage = The entered project does not exist</text></g></g><g transform="translate(11,10) scale(1,1)"><path fill="none" stroke="#000000" d="M 1267 688 L 1661 688" stroke-miterlimit="10"/></g><g transform="translate(11,10) scale(1,1)"><path fill="#000000" stroke="none" d="M 1650.837325142376 692.209517756016 L 1661 688 L 1650.837325142376 683.790482243984"/></g><g transform="translate(11,10) scale(1,1)"><path fill="none" stroke="#000000" d="M 1650.837325142376 692.209517756016 L 1661 688 L 1650.837325142376 683.790482243984 L 1650.837325142376 692.209517756016" stroke-miterlimit="10"/></g><g transform="translate(11,10) scale(1,1)"><g><path fill="none" stroke="none"/><text fill="#000000" stroke="none" font-family="Arial" font-size="13px" font-style="normal" font-weight="normal" text-decoration="none" x="1371.5" y="684.5">14 : Context.Bugs.Add(newBug)</text></g></g><g transform="translate(11,10) scale(1,1)"><rect fill="#ffffff" stroke="none" x="1661" y="688" width="13" height="45"/></g><g transform="translate(11,10) scale(1,1)"><path fill="none" stroke="#000000" d="M 1661 688 L 1674 688 L 1674 733 L 1661 733 L 1661 688 Z Z" stroke-miterlimit="10"/></g><g transform="translate(11,10) scale(1,1)"><path fill="none" stroke="#000000" d="M 1674 712 L 1856 712" stroke-miterlimit="10"/></g><g transform="translate(11,10) scale(1,1)"><path fill="#000000" stroke="none" d="M 1845.837325142376 716.209517756016 L 1856 712 L 1845.837325142376 707.790482243984"/></g><g transform="translate(11,10) scale(1,1)"><path fill="none" stroke="#000000" d="M 1845.837325142376 716.209517756016 L 1856 712 L 1845.837325142376 707.790482243984 L 1845.837325142376 716.209517756016" stroke-miterlimit="10"/></g><g transform="translate(11,10) scale(1,1)"><g><path fill="none" stroke="none"/><text fill="#000000" stroke="none" font-family="Arial" font-size="13px" font-style="normal" font-weight="normal" text-decoration="none" x="1679.5" y="700.5">15 : AddnewBugWithProjectFromDBId</text></g></g><g transform="translate(11,10) scale(1,1)"><path fill="none" stroke="#000000" d="M 1254 840 L 710 840" stroke-miterlimit="10" stroke-dasharray="3"/></g><g transform="translate(11,10) scale(1,1)"><path fill="none" stroke="#000000" d="M 720.1626748576241 835.790482243984 L 710 840 L 720.1626748576241 844.209517756016" stroke-miterlimit="10"/></g><g transform="translate(11,10) scale(1,1)"><g><path fill="none" stroke="none"/><text fill="#000000" stroke="none" font-family="Arial" font-size="13px" font-style="normal" font-weight="normal" text-decoration="none" x="968.5" y="856.5">16 : </text></g></g><g transform="translate(11,10) scale(1,1)"><path fill="none" stroke="#000000" d="M 710 884 L 1261 884" stroke-miterlimit="10"/></g><g transform="translate(11,10) scale(1,1)"><path fill="#000000" stroke="none" d="M 1250.837325142376 888.209517756016 L 1261 884 L 1250.837325142376 879.790482243984"/></g><g transform="translate(11,10) scale(1,1)"><path fill="none" stroke="#000000" d="M 1250.837325142376 888.209517756016 L 1261 884 L 1250.837325142376 879.790482243984 L 1250.837325142376 888.209517756016" stroke-miterlimit="10"/></g><g transform="translate(11,10) scale(1,1)"><g><path fill="none" stroke="none"/><text fill="#000000" stroke="none" font-family="Arial" font-size="13px" font-style="normal" font-weight="normal" text-decoration="none" x="897.5" y="880.5">17 : _projectRepository.Save()</text></g></g><g transform="translate(11,10) scale(1,1)"><rect fill="#ffffff" stroke="none" x="1261" y="884" width="13" height="28"/></g><g transform="translate(11,10) scale(1,1)"><path fill="none" stroke="#000000" d="M 1261 884 L 1274 884 L 1274 912 L 1261 912 L 1261 884 Z Z" stroke-miterlimit="10"/></g><g transform="translate(11,10) scale(1,1)"><path fill="none" stroke="#000000" d="M 1274 897 L 1661 897" stroke-miterlimit="10"/></g><g transform="translate(11,10) scale(1,1)"><path fill="#000000" stroke="none" d="M 1650.837325142376 901.209517756016 L 1661 897 L 1650.837325142376 892.790482243984"/></g><g transform="translate(11,10) scale(1,1)"><path fill="none" stroke="#000000" d="M 1650.837325142376 901.209517756016 L 1661 897 L 1650.837325142376 892.790482243984 L 1650.837325142376 901.209517756016" stroke-miterlimit="10"/></g><g transform="translate(11,10) scale(1,1)"><g><path fill="none" stroke="none"/><text fill="#000000" stroke="none" font-family="Arial" font-size="13px" font-style="normal" font-weight="normal" text-decoration="none" x="1384.5" y="893.5">18 : Context.SaveChanges()</text></g></g><g transform="translate(11,10) scale(1,1)"><rect fill="#ffffff" stroke="none" x="1661" y="897" width="13" height="28"/></g><g transform="translate(11,10) scale(1,1)"><path fill="none" stroke="#000000" d="M 1661 897 L 1674 897 L 1674 925 L 1661 925 L 1661 897 Z Z" stroke-miterlimit="10"/></g><g transform="translate(11,10) scale(1,1)"><path fill="none" stroke="#000000" d="M 1674 904 L 1872 904" stroke-miterlimit="10"/></g><g transform="translate(11,10) scale(1,1)"><path fill="#000000" stroke="none" d="M 1861.837325142376 908.209517756016 L 1872 904 L 1861.837325142376 899.790482243984"/></g><g transform="translate(11,10) scale(1,1)"><path fill="none" stroke="#000000" d="M 1861.837325142376 908.209517756016 L 1872 904 L 1861.837325142376 899.790482243984 L 1861.837325142376 908.209517756016" stroke-miterlimit="10"/></g><g transform="translate(11,10) scale(1,1)"><g><path fill="none" stroke="none"/><text fill="#000000" stroke="none" font-family="Arial" font-size="13px" font-style="normal" font-weight="normal" text-decoration="none" x="1701.5" y="900.5">19 : SaveChangesOnDB</text></g></g><g transform="translate(11,10) scale(1,1)"><path fill="none" stroke="#000000" d="M 1254 928 L 710 928" stroke-miterlimit="10" stroke-dasharray="3"/></g><g transform="translate(11,10) scale(1,1)"><path fill="none" stroke="#000000" d="M 720.1626748576241 923.790482243984 L 710 928 L 720.1626748576241 932.209517756016" stroke-miterlimit="10"/></g><g transform="translate(11,10) scale(1,1)"><g><path fill="none" stroke="none"/><text fill="#000000" stroke="none" font-family="Arial" font-size="13px" font-style="normal" font-weight="normal" text-decoration="none" x="968.5" y="944.5">20 : </text></g></g><g transform="translate(11,10) scale(1,1)"><path fill="none" stroke="#000000" d="M 697 989 L 316 989" stroke-miterlimit="10" stroke-dasharray="3"/></g><g transform="translate(11,10) scale(1,1)"><path fill="none" stroke="#000000" d="M 326.16267485762415 984.790482243984 L 316 989 L 326.16267485762415 993.209517756016" stroke-miterlimit="10"/></g><g transform="translate(11,10) scale(1,1)"><g><path fill="none" stroke="none"/><text fill="#000000" stroke="none" font-family="Arial" font-size="13px" font-style="normal" font-weight="normal" text-decoration="none" x="492.5" y="1005.5">21 : </text></g></g><g transform="translate(11,10) scale(1,1)"><path fill="none" stroke="#000000" d="M 303 1028 L 29 1028" stroke-miterlimit="10"/></g><g transform="translate(11,10) scale(1,1)"><path fill="#000000" stroke="none" d="M 39.162674857624154 1023.790482243984 L 29 1028 L 39.162674857624154 1032.2095177560159"/></g><g transform="translate(11,10) scale(1,1)"><path fill="none" stroke="#000000" d="M 39.162674857624154 1023.790482243984 L 29 1028 L 39.162674857624154 1032.2095177560159 L 39.162674857624154 1023.790482243984" stroke-miterlimit="10"/></g><g transform="translate(11,10) scale(1,1)"><g><path fill="none" stroke="none"/><text fill="#000000" stroke="none" font-family="Arial" font-size="13px" font-style="normal" font-weight="normal" text-decoration="none" x="139.8544921875" y="1044.5">22 : Ok()</text></g></g><g transform="translate(11,10) scale(1,1)"><path fill="none" stroke="#000000" d="M 1176 224 L 1928 224 L 1928 824 L 1176 824 L 1176 224" stroke-miterlimit="10"/></g><g transform="translate(11,10) scale(1,1)"><path fill="#ffffff" stroke="none" d="M 1176 224 L 1176 246 L 1283.0380859375 246 L 1294.0380859375 235 L 1294.0380859375 224 L 1176 224"/></g><g transform="translate(11,10) scale(1,1)"><path fill="none" stroke="#000000" d="M 1176 224 L 1176 246 L 1283.0380859375 246 L 1294.0380859375 235 L 1294.0380859375 224 L 1176 224 L 1176 224" stroke-miterlimit="10"/></g><g transform="translate(11,10) scale(1,1)"><g><path fill="none" stroke="none"/><text fill="#000000" stroke="none" font-family="Arial" font-size="13px" font-style="normal" font-weight="normal" text-decoration="none" x="1211.578125" y="241.5">ProjectsFor</text></g></g><g transform="translate(11,10) scale(1,1)"><g><path fill="none" stroke="none"/><text fill="#000000" stroke="none" font-family="Arial" font-size="13px" font-style="normal" font-weight="bold" text-decoration="none" x="1181" y="241.5">loop</text></g></g><g transform="translate(11,10) scale(1,1)"><g><path fill="none" stroke="none"/><text fill="#000000" stroke="none" font-family="Arial" font-size="13px" font-style="normal" font-weight="normal" text-decoration="none" x="1195.5" y="274.5">[for each newProject in Projects]</text></g></g><g transform="translate(11,10) scale(1,1)"><path fill="none" stroke="#000000" d="M 1200 440 L 1568 440 L 1568 568 L 1200 568 L 1200 440" stroke-miterlimit="10"/></g><g transform="translate(11,10) scale(1,1)"><path fill="#ffffff" stroke="none" d="M 1200 440 L 1200 462 L 1305.59716796875 462 L 1316.59716796875 451 L 1316.59716796875 440 L 1200 440"/></g><g transform="translate(11,10) scale(1,1)"><path fill="none" stroke="#000000" d="M 1200 440 L 1200 462 L 1305.59716796875 462 L 1316.59716796875 451 L 1316.59716796875 440 L 1200 440 L 1200 440" stroke-miterlimit="10"/></g><g transform="translate(11,10) scale(1,1)"><g><path fill="none" stroke="none"/><text fill="#000000" stroke="none" font-family="Arial" font-size="13px" font-style="normal" font-weight="normal" text-decoration="none" x="1224.72998046875" y="457.5">project is null</text></g></g><g transform="translate(11,10) scale(1,1)"><g><path fill="none" stroke="none"/><text fill="#000000" stroke="none" font-family="Arial" font-size="13px" font-style="normal" font-weight="bold" text-decoration="none" x="1205" y="457.5">alt</text></g></g><g transform="translate(11,10) scale(1,1)"><g><path fill="none" stroke="none"/><text fill="#000000" stroke="none" font-family="Arial" font-size="13px" font-style="normal" font-weight="normal" text-decoration="none" x="1219.5" y="490.5">[projectFromDb == null]</text></g></g><g transform="translate(11,10) scale(1,1)"><path fill="none" stroke="#000000" d="M 1200 592 L 1904 592 L 1904 776 L 1200 776 L 1200 592" stroke-miterlimit="10"/></g><g transform="translate(11,10) scale(1,1)"><path fill="#ffffff" stroke="none" d="M 1200 592 L 1200 614 L 1289.708984375 614 L 1300.708984375 603 L 1300.708984375 592 L 1200 592"/></g><g transform="translate(11,10) scale(1,1)"><path fill="none" stroke="#000000" d="M 1200 592 L 1200 614 L 1289.708984375 614 L 1300.708984375 603 L 1300.708984375 592 L 1200 592 L 1200 592" stroke-miterlimit="10"/></g><g transform="translate(11,10) scale(1,1)"><g><path fill="none" stroke="none"/><text fill="#000000" stroke="none" font-family="Arial" font-size="13px" font-style="normal" font-weight="normal" text-decoration="none" x="1235.578125" y="609.5">BugsFor</text></g></g><g transform="translate(11,10) scale(1,1)"><g><path fill="none" stroke="none"/><text fill="#000000" stroke="none" font-family="Arial" font-size="13px" font-style="normal" font-weight="bold" text-decoration="none" x="1205" y="609.5">loop</text></g></g><g transform="translate(11,10) scale(1,1)"><g><path fill="none" stroke="none"/><text fill="#000000" stroke="none" font-family="Arial" font-size="13px" font-style="normal" font-weight="normal" text-decoration="none" x="1219.5" y="642.5">[foreach newBug in newProject.Bugs]</text></g></g></g></svg>