<svg version="1.1" xmlns="http://www.w3.org/2000/svg" xmlns:xlink="http://www.w3.org/1999/xlink" width="1220" height="923"><defs/><g><g transform="translate(-46,-22) scale(1,1)"><rect fill="#C0C0C0" stroke="none" x="119" y="311" width="520" height="102" opacity="0.2"/></g><g transform="translate(-46,-22) scale(1,1)"><rect fill="#ffffff" stroke="none" x="112" y="304" width="520" height="102"/></g><g transform="translate(-46,-22) scale(1,1)"><path fill="none" stroke="#000000" d="M 112 304 L 632 304 L 632 406 L 112 406 L 112 304 Z Z" stroke-miterlimit="10"/></g><g transform="translate(-46,-22) scale(1,1)"><path fill="none" stroke="#000000" d="M 112 329 L 632 329" stroke-miterlimit="10"/></g><g transform="translate(-46,-22) scale(1,1)"><path fill="none" stroke="#000000" d="M 112 339 L 632 339" stroke-miterlimit="10"/></g><g transform="translate(-46,-22) scale(1,1)"><g><path fill="none" stroke="none"/><text fill="#000000" stroke="none" font-family="Arial" font-size="13px" font-style="normal" font-weight="bold" text-decoration="none" x="342.7373046875" y="323.5">UserLogic</text></g></g><g transform="translate(-46,-22) scale(1,1)"><g><path fill="none" stroke="none"/><text fill="#000000" stroke="none" font-family="Arial" font-size="13px" font-style="normal" font-weight="normal" text-decoration="none" x="117" y="356.5">«constructor»+UserLogic(IUserRepository userRepository)</text></g></g><g transform="translate(-46,-22) scale(1,1)"><g><path fill="none" stroke="none"/><text fill="#000000" stroke="none" font-family="Arial" font-size="13px" font-style="normal" font-weight="normal" text-decoration="none" x="117" y="371.5">+Add(newUser: User): void</text></g></g><g transform="translate(-46,-22) scale(1,1)"><g><path fill="none" stroke="none"/><text fill="#000000" stroke="none" font-family="Arial" font-size="13px" font-style="normal" font-weight="normal" text-decoration="none" x="117" y="386.5">+Get(token: string): User</text></g></g><g transform="translate(-46,-22) scale(1,1)"><g><path fill="none" stroke="none"/><text fill="#000000" stroke="none" font-family="Arial" font-size="13px" font-style="normal" font-weight="normal" text-decoration="none" x="117" y="401.5">+GetFixedBugCount(id: int): int</text></g></g><g transform="translate(-46,-22) scale(1,1)"><rect fill="#C0C0C0" stroke="none" x="119" y="647" width="520" height="102" opacity="0.2"/></g><g transform="translate(-46,-22) scale(1,1)"><rect fill="#ffffff" stroke="none" x="112" y="640" width="520" height="102"/></g><g transform="translate(-46,-22) scale(1,1)"><path fill="none" stroke="#000000" d="M 112 640 L 632 640 L 632 742 L 112 742 L 112 640 Z Z" stroke-miterlimit="10"/></g><g transform="translate(-46,-22) scale(1,1)"><path fill="none" stroke="#000000" d="M 112 665 L 632 665" stroke-miterlimit="10"/></g><g transform="translate(-46,-22) scale(1,1)"><path fill="none" stroke="#000000" d="M 112 675 L 632 675" stroke-miterlimit="10"/></g><g transform="translate(-46,-22) scale(1,1)"><g><path fill="none" stroke="none"/><text fill="#000000" stroke="none" font-family="Arial" font-size="13px" font-style="normal" font-weight="bold" text-decoration="none" x="333.33642578125" y="659.5">SessionLogic</text></g></g><g transform="translate(-46,-22) scale(1,1)"><g><path fill="none" stroke="none"/><text fill="#000000" stroke="none" font-family="Arial" font-size="13px" font-style="normal" font-weight="normal" text-decoration="none" x="117" y="692.5">«constructor»+SessionLogic(IUserRepository userRepository)</text></g></g><g transform="translate(-46,-22) scale(1,1)"><g><path fill="none" stroke="none"/><text fill="#000000" stroke="none" font-family="Arial" font-size="13px" font-style="normal" font-weight="normal" text-decoration="none" x="117" y="707.5">+GenerateToken(): string</text></g></g><g transform="translate(-46,-22) scale(1,1)"><g><path fill="none" stroke="none"/><text fill="#000000" stroke="none" font-family="Arial" font-size="13px" font-style="normal" font-weight="normal" text-decoration="none" x="117" y="722.5">+Authenticate(username: string, pass: string): string</text></g></g><g transform="translate(-46,-22) scale(1,1)"><g><path fill="none" stroke="none"/><text fill="#000000" stroke="none" font-family="Arial" font-size="13px" font-style="normal" font-weight="normal" text-decoration="none" x="117" y="737.5">+GetRoleByToken(token: string): RoleType</text></g></g><g transform="translate(-46,-22) scale(1,1)"><rect fill="#C0C0C0" stroke="none" x="119" y="767" width="520" height="175" opacity="0.2"/></g><g transform="translate(-46,-22) scale(1,1)"><rect fill="#ffffff" stroke="none" x="112" y="760" width="520" height="175"/></g><g transform="translate(-46,-22) scale(1,1)"><path fill="none" stroke="#000000" d="M 112 760 L 632 760 L 632 935 L 112 935 L 112 760 Z Z" stroke-miterlimit="10"/></g><g transform="translate(-46,-22) scale(1,1)"><path fill="none" stroke="#000000" d="M 112 785 L 632 785" stroke-miterlimit="10"/></g><g transform="translate(-46,-22) scale(1,1)"><path fill="none" stroke="#000000" d="M 112 808 L 632 808" stroke-miterlimit="10"/></g><g transform="translate(-46,-22) scale(1,1)"><g><path fill="none" stroke="none"/><text fill="#000000" stroke="none" font-family="Arial" font-size="13px" font-style="normal" font-weight="bold" text-decoration="none" x="336.23095703125" y="779.5">ProjectLogic</text></g></g><g transform="translate(-46,-22) scale(1,1)"><g><path fill="none" stroke="none"/><text fill="#000000" stroke="none" font-family="Arial" font-size="13px" font-style="normal" font-weight="normal" text-decoration="none" x="117" y="802.5">+readerFactory: ReaderFactory</text></g></g><g transform="translate(-46,-22) scale(1,1)"><g><path fill="none" stroke="none"/><text fill="#000000" stroke="none" font-family="Arial" font-size="13px" font-style="normal" font-weight="normal" text-decoration="none" x="117" y="825.5">«constructor»+ProjectLogic(IProjectRepository projectRepository)</text></g></g><g transform="translate(-46,-22) scale(1,1)"><g><path fill="none" stroke="none"/><text fill="#000000" stroke="none" font-family="Arial" font-size="13px" font-style="normal" font-weight="normal" text-decoration="none" x="117" y="840.5">+Add(newProject: Project): void</text></g></g><g transform="translate(-46,-22) scale(1,1)"><g><path fill="none" stroke="none"/><text fill="#000000" stroke="none" font-family="Arial" font-size="13px" font-style="normal" font-weight="normal" text-decoration="none" x="117" y="855.5">+Update(id: int, updatedProject: Project): void</text></g></g><g transform="translate(-46,-22) scale(1,1)"><g><path fill="none" stroke="none"/><text fill="#000000" stroke="none" font-family="Arial" font-size="13px" font-style="normal" font-weight="normal" text-decoration="none" x="117" y="870.5">+Delete(projectId: int): void</text></g></g><g transform="translate(-46,-22) scale(1,1)"><g><path fill="none" stroke="none"/><text fill="#000000" stroke="none" font-family="Arial" font-size="13px" font-style="normal" font-weight="normal" text-decoration="none" x="117" y="885.5">+AssignUserToProject(userId: int, projectId: int): void</text></g></g><g transform="translate(-46,-22) scale(1,1)"><g><path fill="none" stroke="none"/><text fill="#000000" stroke="none" font-family="Arial" font-size="13px" font-style="normal" font-weight="normal" text-decoration="none" x="117" y="900.5">+DissociateUserFromProject(userId: int, projectId: int): void</text></g></g><g transform="translate(-46,-22) scale(1,1)"><g><path fill="none" stroke="none"/><text fill="#000000" stroke="none" font-family="Arial" font-size="13px" font-style="normal" font-weight="normal" text-decoration="none" x="117" y="915.5">+AddBugsFromFile(path: string, companyName: string): void</text></g></g><g transform="translate(-46,-22) scale(1,1)"><g><path fill="none" stroke="none"/><text fill="#000000" stroke="none" font-family="Arial" font-size="13px" font-style="normal" font-weight="normal" text-decoration="none" x="117" y="930.5">+GetAll(): IEnumerable</text></g></g><g transform="translate(-46,-22) scale(1,1)"><rect fill="#C0C0C0" stroke="none" x="119" y="479" width="525.03271484375" height="147" opacity="0.2"/></g><g transform="translate(-46,-22) scale(1,1)"><rect fill="#ffffff" stroke="none" x="112" y="472" width="525.03271484375" height="147"/></g><g transform="translate(-46,-22) scale(1,1)"><path fill="none" stroke="#000000" d="M 112 472 L 637.03271484375 472 L 637.03271484375 619 L 112 619 L 112 472 Z Z" stroke-miterlimit="10"/></g><g transform="translate(-46,-22) scale(1,1)"><path fill="none" stroke="#000000" d="M 112 497 L 637.03271484375 497" stroke-miterlimit="10"/></g><g transform="translate(-46,-22) scale(1,1)"><path fill="none" stroke="#000000" d="M 112 507 L 637.03271484375 507" stroke-miterlimit="10"/></g><g transform="translate(-46,-22) scale(1,1)"><g><path fill="none" stroke="none"/><text fill="#000000" stroke="none" font-family="Arial" font-size="13px" font-style="normal" font-weight="bold" text-decoration="none" x="347.411865234375" y="491.5">BugLogic</text></g></g><g transform="translate(-46,-22) scale(1,1)"><g><path fill="none" stroke="none"/><text fill="#000000" stroke="none" font-family="Arial" font-size="13px" font-style="normal" font-weight="normal" text-decoration="none" x="117" y="524.5">«constructor»+BugLogic(IBugRepository bugRepository, IUserRepository userRepository)</text></g></g><g transform="translate(-46,-22) scale(1,1)"><g><path fill="none" stroke="none"/><text fill="#000000" stroke="none" font-family="Arial" font-size="13px" font-style="normal" font-weight="normal" text-decoration="none" x="117" y="539.5">+Add(token: string, newBug: Bug): void</text></g></g><g transform="translate(-46,-22) scale(1,1)"><g><path fill="none" stroke="none"/><text fill="#000000" stroke="none" font-family="Arial" font-size="13px" font-style="normal" font-weight="normal" text-decoration="none" x="117" y="554.5">+Update(token: string, updatedBug: Bug): void</text></g></g><g transform="translate(-46,-22) scale(1,1)"><g><path fill="none" stroke="none"/><text fill="#000000" stroke="none" font-family="Arial" font-size="13px" font-style="normal" font-weight="normal" text-decoration="none" x="117" y="569.5">+Fix(token: string, bugId: int): void</text></g></g><g transform="translate(-46,-22) scale(1,1)"><g><path fill="none" stroke="none"/><text fill="#000000" stroke="none" font-family="Arial" font-size="13px" font-style="normal" font-weight="normal" text-decoration="none" x="117" y="584.5">+Delete(token: string, bugId: int): void</text></g></g><g transform="translate(-46,-22) scale(1,1)"><g><path fill="none" stroke="none"/><text fill="#000000" stroke="none" font-family="Arial" font-size="13px" font-style="normal" font-weight="normal" text-decoration="none" x="117" y="599.5">+Get(token: string, bugId: int): Bug</text></g></g><g transform="translate(-46,-22) scale(1,1)"><g><path fill="none" stroke="none"/><text fill="#000000" stroke="none" font-family="Arial" font-size="13px" font-style="normal" font-weight="normal" text-decoration="none" x="117" y="614.5">+GetAllFiltered(token: string, criteria: BugSearchCriteria): IEnumerable</text></g></g><g transform="translate(-46,-22) scale(1,1)"><path fill="none" stroke="#000000" d="M 352 472 L 352 406" stroke-miterlimit="10"/></g><g transform="translate(-46,-22) scale(1,1)"><path fill="none" stroke="#000000" d="M 356.209517756016 416.16267485762415 L 352 406 L 347.790482243984 416.16267485762415" stroke-miterlimit="10"/></g><g transform="translate(-46,-22) scale(1,1)"><g><path fill="none" stroke="none"/><text fill="#000000" stroke="none" font-family="Arial" font-size="13px" font-style="normal" font-weight="normal" text-decoration="none" x="358.5" y="443.5">-_userLogic</text></g></g><g transform="translate(-46,-22) scale(1,1)"><path fill="none" stroke="#000000" d="M 756 790.5 A 11.5 11.5 0 0 1 756 767.5" stroke-miterlimit="10"/></g><g transform="translate(-46,-22) scale(1,1)"><g><path fill="none" stroke="none"/><text fill="#000000" stroke="none" font-family="Arial" font-size="13px" font-style="normal" font-weight="bold" text-decoration="none" x="698.99365234375" y="810.5">IFileReaderStrategy</text></g></g><g transform="translate(-46,-22) scale(1,1)"><path fill="none" stroke="#000000" d="M 632 779 L 745.298583984375 779" stroke-miterlimit="10"/></g><g transform="translate(-46,-22) scale(1,1)"><path fill="none" stroke="#000000" d="M 830 894.5 A 11.5 11.5 0 0 1 830 871.5" stroke-miterlimit="10"/></g><g transform="translate(-46,-22) scale(1,1)"><g><path fill="none" stroke="none"/><text fill="#000000" stroke="none" font-family="Arial" font-size="13px" font-style="normal" font-weight="bold" text-decoration="none" x="777.187744140625" y="914.5">IProjectRepository</text></g></g><g transform="translate(-46,-22) scale(1,1)"><path fill="none" stroke="#000000" d="M 830 358.5 A 11.5 11.5 0 0 1 830 335.5" stroke-miterlimit="10"/></g><g transform="translate(-46,-22) scale(1,1)"><path fill="none" stroke="#000000" d="M 830 358.5 A 11.5 11.5 0 0 1 830 335.5" stroke-miterlimit="10"/></g><g transform="translate(-46,-22) scale(1,1)"><path fill="none" stroke="#000000" d="M 830 358.5 A 11.5 11.5 0 0 1 830 335.5" stroke-miterlimit="10"/></g><g transform="translate(-46,-22) scale(1,1)"><g><path fill="none" stroke="none"/><text fill="#000000" stroke="none" font-family="Arial" font-size="13px" font-style="normal" font-weight="bold" text-decoration="none" x="784.11181640625" y="378.5">IUserRepository</text></g></g><g transform="translate(-46,-22) scale(1,1)"><path fill="none" stroke="#000000" d="M 828 582.5 A 11.5 11.5 0 0 1 828 559.5" stroke-miterlimit="10"/></g><g transform="translate(-46,-22) scale(1,1)"><g><path fill="none" stroke="none"/><text fill="#000000" stroke="none" font-family="Arial" font-size="13px" font-style="normal" font-weight="bold" text-decoration="none" x="784.451416015625" y="602.5">IBugRepository</text></g></g><g transform="translate(-46,-22) scale(1,1)"><path fill="none" stroke="#000000" d="M 632 883 L 818.792236328125 883" stroke-miterlimit="10"/></g><g transform="translate(-46,-22) scale(1,1)"><g><path fill="none" stroke="none"/><text fill="#000000" stroke="none" font-family="Arial" font-size="13px" font-style="normal" font-weight="normal" text-decoration="none" x="669.13134765625" y="874.5">-_projectRepository</text></g></g><g transform="translate(-46,-22) scale(1,1)"><path fill="none" stroke="#000000" d="M 632 347 L 819.2099609375 347" stroke-miterlimit="10"/></g><g transform="translate(-46,-22) scale(1,1)"><g><path fill="none" stroke="none"/><text fill="#000000" stroke="none" font-family="Arial" font-size="13px" font-style="normal" font-weight="normal" text-decoration="none" x="656.13134765625" y="339.5">-_userRepository</text></g></g><g transform="translate(-46,-22) scale(1,1)"><path fill="none" stroke="#000000" d="M 632 712 L 896 712 L 896 408 L 752 408 L 752 347 L 819.2099609375 347" stroke-miterlimit="10"/></g><g transform="translate(-46,-22) scale(1,1)"><g><path fill="none" stroke="none"/><text fill="#000000" stroke="none" font-family="Arial" font-size="13px" font-style="normal" font-weight="normal" text-decoration="none" x="680.13134765625" y="700.5">-_userRepository</text></g></g><g transform="translate(-46,-22) scale(1,1)"><path fill="none" stroke="#000000" d="M 637 571 L 817.391357421875 571" stroke-miterlimit="10"/></g><g transform="translate(-46,-22) scale(1,1)"><g><path fill="none" stroke="none"/><text fill="#000000" stroke="none" font-family="Arial" font-size="13px" font-style="normal" font-weight="normal" text-decoration="none" x="667.13134765625" y="563.5">-_bugRepository</text></g></g><g transform="translate(-46,-22) scale(1,1)"><path fill="none" stroke="#000000" d="M 637 528 L 752 528 L 752 347 L 819.2099609375 347" stroke-miterlimit="10"/></g><g transform="translate(-46,-22) scale(1,1)"><g><path fill="none" stroke="none"/><text fill="#000000" stroke="none" font-family="Arial" font-size="13px" font-style="normal" font-weight="normal" text-decoration="none" x="640.13134765625" y="524.5">-_userRepository</text></g></g><g transform="translate(-46,-22) scale(1,1)"><path fill="#C0C0C0" stroke="none" d="M 1017.591796875 186.5 C 1017.591796875 180.1487248 1022.740521675 175 1029.091796875 175 C 1035.443072075 175 1040.591796875 180.1487248 1040.591796875 186.5 C 1040.591796875 192.8512752 1035.443072075 198 1029.091796875 198 C 1022.740521675 198 1017.591796875 192.8512752 1017.591796875 186.5 Z" opacity="0.2"/></g><g transform="translate(-46,-22) scale(1,1)"><path fill="#ffffff" stroke="none" d="M 1010.591796875 179.5 C 1010.591796875 173.1487248 1015.740521675 168 1022.091796875 168 C 1028.443072075 168 1033.591796875 173.1487248 1033.591796875 179.5 C 1033.591796875 185.8512752 1028.443072075 191 1022.091796875 191 C 1015.740521675 191 1010.591796875 185.8512752 1010.591796875 179.5 Z"/></g><g transform="translate(-46,-22) scale(1,1)"><path fill="none" stroke="#000000" d="M 1010.591796875 179.5 C 1010.591796875 173.1487248 1015.740521675 168 1022.091796875 168 C 1028.443072075 168 1033.591796875 173.1487248 1033.591796875 179.5 C 1033.591796875 185.8512752 1028.443072075 191 1022.091796875 191 C 1015.740521675 191 1010.591796875 185.8512752 1010.591796875 179.5 Z" stroke-miterlimit="10"/></g><g transform="translate(-46,-22) scale(1,1)"><g><path fill="none" stroke="none"/><text fill="#000000" stroke="none" font-family="Arial" font-size="13px" font-style="normal" font-weight="bold" text-decoration="none" x="991.023193359375" y="210.5">IUserLogic</text></g></g><g transform="translate(-46,-22) scale(1,1)"><path fill="#C0C0C0" stroke="none" d="M 799.773193359375 186.5 C 799.773193359375 180.1487248 804.921918159375 175 811.273193359375 175 C 817.624468559375 175 822.773193359375 180.1487248 822.773193359375 186.5 C 822.773193359375 192.8512752 817.624468559375 198 811.273193359375 198 C 804.921918159375 198 799.773193359375 192.8512752 799.773193359375 186.5 Z" opacity="0.2"/></g><g transform="translate(-46,-22) scale(1,1)"><path fill="#ffffff" stroke="none" d="M 792.773193359375 179.5 C 792.773193359375 173.1487248 797.921918159375 168 804.273193359375 168 C 810.624468559375 168 815.773193359375 173.1487248 815.773193359375 179.5 C 815.773193359375 185.8512752 810.624468559375 191 804.273193359375 191 C 797.921918159375 191 792.773193359375 185.8512752 792.773193359375 179.5 Z"/></g><g transform="translate(-46,-22) scale(1,1)"><path fill="none" stroke="#000000" d="M 792.773193359375 179.5 C 792.773193359375 173.1487248 797.921918159375 168 804.273193359375 168 C 810.624468559375 168 815.773193359375 173.1487248 815.773193359375 179.5 C 815.773193359375 185.8512752 810.624468559375 191 804.273193359375 191 C 797.921918159375 191 792.773193359375 185.8512752 792.773193359375 179.5 Z" stroke-miterlimit="10"/></g><g transform="translate(-46,-22) scale(1,1)"><g><path fill="none" stroke="none"/><text fill="#000000" stroke="none" font-family="Arial" font-size="13px" font-style="normal" font-weight="bold" text-decoration="none" x="775.36279296875" y="210.5">IBugLogic</text></g></g><g transform="translate(-46,-22) scale(1,1)"><path fill="#C0C0C0" stroke="none" d="M 436.0654296875 178.5 C 436.0654296875 172.1487248 441.2141544875 167 447.5654296875 167 C 453.9167048875 167 459.0654296875 172.1487248 459.0654296875 178.5 C 459.0654296875 184.8512752 453.9167048875 190 447.5654296875 190 C 441.2141544875 190 436.0654296875 184.8512752 436.0654296875 178.5 Z" opacity="0.2"/></g><g transform="translate(-46,-22) scale(1,1)"><path fill="#ffffff" stroke="none" d="M 429.0654296875 171.5 C 429.0654296875 165.1487248 434.2141544875 160 440.5654296875 160 C 446.9167048875 160 452.0654296875 165.1487248 452.0654296875 171.5 C 452.0654296875 177.8512752 446.9167048875 183 440.5654296875 183 C 434.2141544875 183 429.0654296875 177.8512752 429.0654296875 171.5 Z"/></g><g transform="translate(-46,-22) scale(1,1)"><path fill="none" stroke="#000000" d="M 429.0654296875 171.5 C 429.0654296875 165.1487248 434.2141544875 160 440.5654296875 160 C 446.9167048875 160 452.0654296875 165.1487248 452.0654296875 171.5 C 452.0654296875 177.8512752 446.9167048875 183 440.5654296875 183 C 434.2141544875 183 429.0654296875 177.8512752 429.0654296875 171.5 Z" stroke-miterlimit="10"/></g><g transform="translate(-46,-22) scale(1,1)"><g><path fill="none" stroke="none"/><text fill="#000000" stroke="none" font-family="Arial" font-size="13px" font-style="normal" font-weight="bold" text-decoration="none" x="400.095947265625" y="202.5">ISessionLogic</text></g></g><g transform="translate(-46,-22) scale(1,1)"><path fill="#C0C0C0" stroke="none" d="M 154.983154296875 170.5 C 154.983154296875 164.1487248 160.131879096875 159 166.483154296875 159 C 172.834429496875 159 177.983154296875 164.1487248 177.983154296875 170.5 C 177.983154296875 176.8512752 172.834429496875 182 166.483154296875 182 C 160.131879096875 182 154.983154296875 176.8512752 154.983154296875 170.5 Z" opacity="0.2"/></g><g transform="translate(-46,-22) scale(1,1)"><path fill="#ffffff" stroke="none" d="M 147.983154296875 163.5 C 147.983154296875 157.1487248 153.131879096875 152 159.483154296875 152 C 165.834429496875 152 170.983154296875 157.1487248 170.983154296875 163.5 C 170.983154296875 169.8512752 165.834429496875 175 159.483154296875 175 C 153.131879096875 175 147.983154296875 169.8512752 147.983154296875 163.5 Z"/></g><g transform="translate(-46,-22) scale(1,1)"><path fill="none" stroke="#000000" d="M 147.983154296875 163.5 C 147.983154296875 157.1487248 153.131879096875 152 159.483154296875 152 C 165.834429496875 152 170.983154296875 157.1487248 170.983154296875 163.5 C 170.983154296875 169.8512752 165.834429496875 175 159.483154296875 175 C 153.131879096875 175 147.983154296875 169.8512752 147.983154296875 163.5 Z" stroke-miterlimit="10"/></g><g transform="translate(-46,-22) scale(1,1)"><g><path fill="none" stroke="none"/><text fill="#000000" stroke="none" font-family="Arial" font-size="13px" font-style="normal" font-weight="bold" text-decoration="none" x="120.102294921875" y="194.5">IProyectLogic</text></g></g><g transform="translate(-46,-22) scale(1,1)"><path fill="none" stroke="#000000" d="M 112 832 L 72 832 L 72 232 L 159 232 L 159 175" stroke-miterlimit="10"/></g><g transform="translate(-46,-22) scale(1,1)"><path fill="none" stroke="#000000" d="M 112 680 L 80 680 L 80 248 L 440 248 L 440 183" stroke-miterlimit="10"/></g><g transform="translate(-46,-22) scale(1,1)"><path fill="none" stroke="#000000" d="M 112 560 L 96 560 L 96 272 L 804 272 L 804 191" stroke-miterlimit="10"/></g><g transform="translate(-46,-22) scale(1,1)"><path fill="none" stroke="#000000" d="M 632 312 L 1022 312 L 1022 191" stroke-miterlimit="10"/></g><g transform="translate(-46,-22) scale(1,1)"><g><path fill="none" stroke="none"/><text fill="#000000" stroke="none" font-family="Arial" font-size="13px" font-style="normal" font-weight="normal" text-decoration="none" x="701" y="50">+void Add(string token, Bug newBug);</text></g></g><g transform="translate(-46,-22) scale(1,1)"><g><path fill="none" stroke="none"/><text fill="#000000" stroke="none" font-family="Arial" font-size="13px" font-style="normal" font-weight="normal" text-decoration="none" x="701" y="65">+Bug Get(string token, int bugId);</text></g></g><g transform="translate(-46,-22) scale(1,1)"><g><path fill="none" stroke="none"/><text fill="#000000" stroke="none" font-family="Arial" font-size="13px" font-style="normal" font-weight="normal" text-decoration="none" x="701" y="80">+IEnumerable&lt;Bug&gt; GetAllFiltered(string token,</text><text fill="#000000" stroke="none" font-family="Arial" font-size="13px" font-style="normal" font-weight="normal" text-decoration="none" x="701" y="93">BugSearchCriteria criteria);</text></g></g><g transform="translate(-46,-22) scale(1,1)"><g><path fill="none" stroke="none"/><text fill="#000000" stroke="none" font-family="Arial" font-size="13px" font-style="normal" font-weight="normal" text-decoration="none" x="701" y="108">+void Update(string token, Bug updatedBug);</text></g></g><g transform="translate(-46,-22) scale(1,1)"><g><path fill="none" stroke="none"/><text fill="#000000" stroke="none" font-family="Arial" font-size="13px" font-style="normal" font-weight="normal" text-decoration="none" x="701" y="123">+void Delete(string token, int bugId);</text></g></g><g transform="translate(-46,-22) scale(1,1)"><g><path fill="none" stroke="none"/><text fill="#000000" stroke="none" font-family="Arial" font-size="13px" font-style="normal" font-weight="normal" text-decoration="none" x="701" y="138">+void Fix(string token, int bugId);</text></g></g><g transform="translate(-46,-22) scale(1,1)"><g><path fill="none" stroke="none"/><text fill="#000000" stroke="none" font-family="Arial" font-size="13px" font-style="normal" font-weight="normal" text-decoration="none" x="357" y="50">+void Add(Project newProject);</text></g></g><g transform="translate(-46,-22) scale(1,1)"><g><path fill="none" stroke="none"/><text fill="#000000" stroke="none" font-family="Arial" font-size="13px" font-style="normal" font-weight="normal" text-decoration="none" x="357" y="65">+void Update(int id, Project updatedProject);</text></g></g><g transform="translate(-46,-22) scale(1,1)"><g><path fill="none" stroke="none"/><text fill="#000000" stroke="none" font-family="Arial" font-size="13px" font-style="normal" font-weight="normal" text-decoration="none" x="357" y="80">+void Delete(int projectId);</text></g></g><g transform="translate(-46,-22) scale(1,1)"><g><path fill="none" stroke="none"/><text fill="#000000" stroke="none" font-family="Arial" font-size="13px" font-style="normal" font-weight="normal" text-decoration="none" x="357" y="95">+void AssignUserToProject(int userId, int projectId);</text></g></g><g transform="translate(-46,-22) scale(1,1)"><g><path fill="none" stroke="none"/><text fill="#000000" stroke="none" font-family="Arial" font-size="13px" font-style="normal" font-weight="normal" text-decoration="none" x="357" y="110">+void DissociateUserFromProject(int userId, int projectId);</text></g></g><g transform="translate(-46,-22) scale(1,1)"><g><path fill="none" stroke="none"/><text fill="#000000" stroke="none" font-family="Arial" font-size="13px" font-style="normal" font-weight="normal" text-decoration="none" x="357" y="125">+void AddBugsFromFile(string path, string companyName);</text></g></g><g transform="translate(-46,-22) scale(1,1)"><g><path fill="none" stroke="none"/><text fill="#000000" stroke="none" font-family="Arial" font-size="13px" font-style="normal" font-weight="normal" text-decoration="none" x="357" y="140">+IEnumerable&lt;Project&gt; GetAll();</text></g></g><g transform="translate(-46,-22) scale(1,1)"><g><path fill="none" stroke="none"/><text fill="#000000" stroke="none" font-family="Arial" font-size="13px" font-style="normal" font-weight="normal" text-decoration="none" x="61" y="106">+string GenerateToken();</text></g></g><g transform="translate(-46,-22) scale(1,1)"><g><path fill="none" stroke="none"/><text fill="#000000" stroke="none" font-family="Arial" font-size="13px" font-style="normal" font-weight="normal" text-decoration="none" x="61" y="121">+string Authenticate(string username, string pass);   </text><text fill="#000000" stroke="none" font-family="Arial" font-size="13px" font-style="normal" font-weight="normal" text-decoration="none" x="61" y="134">  </text></g></g><g transform="translate(-46,-22) scale(1,1)"><g><path fill="none" stroke="none"/><text fill="#000000" stroke="none" font-family="Arial" font-size="13px" font-style="normal" font-weight="normal" text-decoration="none" x="61" y="136">+RoleType GetRoleByToken(string token);</text></g></g><g transform="translate(-46,-22) scale(1,1)"><g><path fill="none" stroke="none"/><text fill="#000000" stroke="none" font-family="Arial" font-size="13px" font-style="normal" font-weight="normal" text-decoration="none" x="989" y="106">+void Add(User newUser);</text></g></g><g transform="translate(-46,-22) scale(1,1)"><g><path fill="none" stroke="none"/><text fill="#000000" stroke="none" font-family="Arial" font-size="13px" font-style="normal" font-weight="normal" text-decoration="none" x="989" y="121">+User Get(string token);</text></g></g><g transform="translate(-46,-22) scale(1,1)"><g><path fill="none" stroke="none"/><text fill="#000000" stroke="none" font-family="Arial" font-size="13px" font-style="normal" font-weight="normal" text-decoration="none" x="989" y="136">+int GetFixedBugCount(int id);</text></g></g></g></svg>