<svg version="1.1" xmlns="http://www.w3.org/2000/svg" xmlns:xlink="http://www.w3.org/1999/xlink" width="663.18701171875" height="244"><defs/><g><g transform="translate(-414,-110) scale(1,1)"><rect fill="#C0C0C0" stroke="none" x="431" y="263" width="283.18701171875" height="88" opacity="0.2"/></g><g transform="translate(-414,-110) scale(1,1)"><rect fill="#ffffff" stroke="none" x="424" y="256" width="283.18701171875" height="88"/></g><g transform="translate(-414,-110) scale(1,1)"><path fill="none" stroke="#000000" d="M 424 256 L 707.18701171875 256 L 707.18701171875 344 L 424 344 L 424 256 Z Z" stroke-miterlimit="10"/></g><g transform="translate(-414,-110) scale(1,1)"><path fill="none" stroke="#000000" d="M 424 281 L 707.18701171875 281" stroke-miterlimit="10"/></g><g transform="translate(-414,-110) scale(1,1)"><path fill="none" stroke="#000000" d="M 424 291 L 707.18701171875 291" stroke-miterlimit="10"/></g><g transform="translate(-414,-110) scale(1,1)"><g><path fill="none" stroke="none"/><text fill="#000000" stroke="none" font-family="Arial" font-size="13px" font-style="normal" font-weight="bold" text-decoration="none" x="512.84130859375" y="275.5">Company1Reader</text></g></g><g transform="translate(-414,-110) scale(1,1)"><g><path fill="none" stroke="none"/><text fill="#000000" stroke="none" font-family="Arial" font-size="13px" font-style="normal" font-weight="normal" text-decoration="none" x="429" y="308.5">+GetProjectFromFile(path: string): IEnumerable</text></g></g><g transform="translate(-414,-110) scale(1,1)"><rect fill="#C0C0C0" stroke="none" x="791" y="262" width="283.18701171875" height="87" opacity="0.2"/></g><g transform="translate(-414,-110) scale(1,1)"><rect fill="#ffffff" stroke="none" x="784" y="255" width="283.18701171875" height="87"/></g><g transform="translate(-414,-110) scale(1,1)"><path fill="none" stroke="#000000" d="M 784 255 L 1067.18701171875 255 L 1067.18701171875 342 L 784 342 L 784 255 Z Z" stroke-miterlimit="10"/></g><g transform="translate(-414,-110) scale(1,1)"><path fill="none" stroke="#000000" d="M 784 280 L 1067.18701171875 280" stroke-miterlimit="10"/></g><g transform="translate(-414,-110) scale(1,1)"><path fill="none" stroke="#000000" d="M 784 290 L 1067.18701171875 290" stroke-miterlimit="10"/></g><g transform="translate(-414,-110) scale(1,1)"><g><path fill="none" stroke="none"/><text fill="#000000" stroke="none" font-family="Arial" font-size="13px" font-style="normal" font-weight="bold" text-decoration="none" x="872.84130859375" y="274.5">Company2Reader</text></g></g><g transform="translate(-414,-110) scale(1,1)"><g><path fill="none" stroke="none"/><text fill="#000000" stroke="none" font-family="Arial" font-size="13px" font-style="normal" font-weight="normal" text-decoration="none" x="789" y="307.5">+GetProjectFromFile(path: string): IEnumerable</text></g></g><g transform="translate(-414,-110) scale(1,1)"><g><path fill="none" stroke="none"/><text fill="#000000" stroke="none" font-family="Arial" font-size="13px" font-style="normal" font-weight="normal" text-decoration="none" x="789" y="322.5">-GetTotalLength(): int</text></g></g><g transform="translate(-414,-110) scale(1,1)"><g><path fill="none" stroke="none"/><text fill="#000000" stroke="none" font-family="Arial" font-size="13px" font-style="normal" font-weight="normal" text-decoration="none" x="789" y="337.5">-Split(str: string, chunkSize: int): IEnumerable</text></g></g><g transform="translate(-414,-110) scale(1,1)"><path fill="#C0C0C0" stroke="none" d="M 757.0517578125 138.5 C 757.0517578125 132.1487248 762.2004826125 127 768.5517578125 127 C 774.9030330125 127 780.0517578125 132.1487248 780.0517578125 138.5 C 780.0517578125 144.8512752 774.9030330125 150 768.5517578125 150 C 762.2004826125 150 757.0517578125 144.8512752 757.0517578125 138.5 Z" opacity="0.2"/></g><g transform="translate(-414,-110) scale(1,1)"><path fill="#ffffff" stroke="none" d="M 750.0517578125 131.5 C 750.0517578125 125.1487248 755.2004826125 120 761.5517578125 120 C 767.9030330125 120 773.0517578125 125.1487248 773.0517578125 131.5 C 773.0517578125 137.8512752 767.9030330125 143 761.5517578125 143 C 755.2004826125 143 750.0517578125 137.8512752 750.0517578125 131.5 Z"/></g><g transform="translate(-414,-110) scale(1,1)"><path fill="none" stroke="#000000" d="M 750.0517578125 131.5 C 750.0517578125 125.1487248 755.2004826125 120 761.5517578125 120 C 767.9030330125 120 773.0517578125 125.1487248 773.0517578125 131.5 C 773.0517578125 137.8512752 767.9030330125 143 761.5517578125 143 C 755.2004826125 143 750.0517578125 137.8512752 750.0517578125 131.5 Z" stroke-miterlimit="10"/></g><g transform="translate(-414,-110) scale(1,1)"><g><path fill="none" stroke="none"/><text fill="#000000" stroke="none" font-family="Arial" font-size="13px" font-style="normal" font-weight="bold" text-decoration="none" x="703.746826171875" y="162.5">IFileReaderStrategy</text></g></g><g transform="translate(-414,-110) scale(1,1)"><path fill="none" stroke="#000000" d="M 560 256 L 560 131 L 750.0517578125 131" stroke-miterlimit="10"/></g><g transform="translate(-414,-110) scale(1,1)"><path fill="none" stroke="#000000" d="M 936 255 L 936 131 L 773.0517578125 131" stroke-miterlimit="10"/></g><g transform="translate(-414,-110) scale(1,1)"><g><path fill="none" stroke="none"/><text fill="#000000" stroke="none" font-family="Arial" font-size="13px" font-style="normal" font-weight="normal" text-decoration="none" x="589" y="178">+IEnumerable&lt;Project&gt; GetProjectFromFile(string path)</text></g></g></g></svg>