<svg version="1.1" xmlns="http://www.w3.org/2000/svg" xmlns:xlink="http://www.w3.org/1999/xlink" width="1825" height="1116"><defs/><g><g transform="translate(15,10) scale(1,1)"><path fill="none" stroke="#000000" d="M 0 0 L 1800 0 L 1800 1096 L 0 1096 L 0 0" stroke-miterlimit="10"/></g><g transform="translate(15,10) scale(1,1)"><path fill="#ffffff" stroke="none" d="M 0 0 L 0 22 L 144.6162109375 22 L 155.6162109375 11 L 155.6162109375 0 L 0 0"/></g><g transform="translate(15,10) scale(1,1)"><path fill="none" stroke="#000000" d="M 0 0 L 0 22 L 144.6162109375 22 L 155.6162109375 11 L 155.6162109375 0 L 0 0 L 0 0" stroke-miterlimit="10"/></g><g transform="translate(15,10) scale(1,1)"><g><path fill="none" stroke="none"/><text fill="#000000" stroke="none" font-family="Arial" font-size="13px" font-style="normal" font-weight="normal" text-decoration="none" x="24.72998046875" y="17.5">FixBugByDeveloper</text></g></g><g transform="translate(15,10) scale(1,1)"><g><path fill="none" stroke="none"/><text fill="#000000" stroke="none" font-family="Arial" font-size="13px" font-style="normal" font-weight="bold" text-decoration="none" x="5" y="17.5">sd</text></g></g><g transform="translate(15,10) scale(1,1)"><rect fill="#C0C0C0" stroke="none" x="199" y="47" width="234.25537109375" height="39" opacity="0.2"/></g><g transform="translate(15,10) scale(1,1)"><rect fill="#ffffff" stroke="none" x="192" y="40" width="234.25537109375" height="39"/></g><g transform="translate(15,10) scale(1,1)"><path fill="none" stroke="#000000" d="M 192 40 L 426.25537109375 40 L 426.25537109375 79 L 192 79 L 192 40 Z Z" stroke-miterlimit="10"/></g><g transform="translate(15,10) scale(1,1)"><g><path fill="none" stroke="none"/><text fill="#000000" stroke="none" font-family="Arial" font-size="13px" font-style="normal" font-weight="bold" text-decoration="none" x="257.470458984375" y="59.5">ProjectsController</text></g></g><g transform="translate(15,10) scale(1,1)"><path fill="none" stroke="#000000" d="M 310.5 80 L 310.5 1096" stroke-miterlimit="10" stroke-dasharray="3"/></g><g transform="translate(15,10) scale(1,1)"><path fill="#000000" stroke="none" d="M 16 135.5 C 16 131.6340064 19.1340064 128.5 23 128.5 C 26.8659936 128.5 30 131.6340064 30 135.5 C 30 139.3659936 26.8659936 142.5 23 142.5 C 19.1340064 142.5 16 139.3659936 16 135.5 Z"/></g><g transform="translate(15,10) scale(1,1)"><rect fill="#C0C0C0" stroke="none" x="1119" y="47" width="216" height="39" opacity="0.2"/></g><g transform="translate(15,10) scale(1,1)"><rect fill="#ffffff" stroke="none" x="1112" y="40" width="216" height="39"/></g><g transform="translate(15,10) scale(1,1)"><path fill="none" stroke="#000000" d="M 1112 40 L 1328 40 L 1328 79 L 1112 79 L 1112 40 Z Z" stroke-miterlimit="10"/></g><g transform="translate(15,10) scale(1,1)"><g><path fill="none" stroke="none"/><text fill="#000000" stroke="none" font-family="Arial" font-size="13px" font-style="normal" font-weight="bold" text-decoration="none" x="1177.365966796875" y="59.5">BugRepository</text></g></g><g transform="translate(15,10) scale(1,1)"><path fill="none" stroke="#000000" d="M 1221.5 80 L 1221.5 1096" stroke-miterlimit="10" stroke-dasharray="3"/></g><g transform="translate(15,10) scale(1,1)"><rect fill="#C0C0C0" stroke="none" x="1463" y="47" width="200" height="39" opacity="0.2"/></g><g transform="translate(15,10) scale(1,1)"><rect fill="#ffffff" stroke="none" x="1456" y="40" width="200" height="39"/></g><g transform="translate(15,10) scale(1,1)"><path fill="none" stroke="#000000" d="M 1456 40 L 1656 40 L 1656 79 L 1456 79 L 1456 40 Z Z" stroke-miterlimit="10"/></g><g transform="translate(15,10) scale(1,1)"><g><path fill="none" stroke="none"/><text fill="#000000" stroke="none" font-family="Arial" font-size="13px" font-style="normal" font-weight="bold" text-decoration="none" x="1494.224609375" y="59.5">BugSummaryContext</text></g></g><g transform="translate(15,10) scale(1,1)"><path fill="none" stroke="#000000" d="M 1557.5 80 L 1557.5 1096" stroke-miterlimit="10" stroke-dasharray="3"/></g><g transform="translate(15,10) scale(1,1)"><rect fill="#C0C0C0" stroke="none" x="655" y="47" width="110.03173828125" height="39" opacity="0.2"/></g><g transform="translate(15,10) scale(1,1)"><rect fill="#ffffff" stroke="none" x="648" y="40" width="110.03173828125" height="39"/></g><g transform="translate(15,10) scale(1,1)"><path fill="none" stroke="#000000" d="M 648 40 L 758.03173828125 40 L 758.03173828125 79 L 648 79 L 648 40 Z Z" stroke-miterlimit="10"/></g><g transform="translate(15,10) scale(1,1)"><g><path fill="none" stroke="none"/><text fill="#000000" stroke="none" font-family="Arial" font-size="13px" font-style="normal" font-weight="bold" text-decoration="none" x="675.911376953125" y="59.5">BugLogic</text></g></g><g transform="translate(15,10) scale(1,1)"><path fill="none" stroke="#000000" d="M 704.5 80 L 704.5 1096" stroke-miterlimit="10" stroke-dasharray="3"/></g><g transform="translate(15,10) scale(1,1)"><rect fill="#C0C0C0" stroke="none" x="951" y="47" width="110.0380859375" height="39" opacity="0.2"/></g><g transform="translate(15,10) scale(1,1)"><rect fill="#ffffff" stroke="none" x="944" y="40" width="110.0380859375" height="39"/></g><g transform="translate(15,10) scale(1,1)"><path fill="none" stroke="#000000" d="M 944 40 L 1054.0380859375 40 L 1054.0380859375 79 L 944 79 L 944 40 Z Z" stroke-miterlimit="10"/></g><g transform="translate(15,10) scale(1,1)"><g><path fill="none" stroke="none"/><text fill="#000000" stroke="none" font-family="Arial" font-size="13px" font-style="normal" font-weight="bold" text-decoration="none" x="969.75634765625" y="59.5">UserLogic</text></g></g><g transform="translate(15,10) scale(1,1)"><path fill="none" stroke="#000000" d="M 1000.5 80 L 1000.5 1096" stroke-miterlimit="10" stroke-dasharray="3"/></g><g transform="translate(15,10) scale(1,1)"><path fill="#000000" stroke="none" d="M 1752 375.5 C 1752 371.6340064 1755.1340064 368.5 1759 368.5 C 1762.8659936 368.5 1766 371.6340064 1766 375.5 C 1766 379.3659936 1762.8659936 382.5 1759 382.5 C 1755.1340064 382.5 1752 379.3659936 1752 375.5 Z"/></g><g transform="translate(15,10) scale(1,1)"><rect fill="#C0C0C0" stroke="none" x="479" y="47" width="112.9072265625" height="39" opacity="0.2"/></g><g transform="translate(15,10) scale(1,1)"><rect fill="#ffffff" stroke="none" x="472" y="40" width="112.9072265625" height="39"/></g><g transform="translate(15,10) scale(1,1)"><path fill="none" stroke="#000000" d="M 472 40 L 584.9072265625 40 L 584.9072265625 79 L 472 79 L 472 40 Z Z" stroke-miterlimit="10"/></g><g transform="translate(15,10) scale(1,1)"><g><path fill="none" stroke="none"/><text fill="#000000" stroke="none" font-family="Arial" font-size="13px" font-style="normal" font-weight="bold" text-decoration="none" x="485.464111328125" y="59.5">ExceptionFilter</text></g></g><g transform="translate(15,10) scale(1,1)"><path fill="none" stroke="#000000" d="M 529.5 80 L 529.5 1096" stroke-miterlimit="10" stroke-dasharray="3"/></g><g transform="translate(15,10) scale(1,1)"><path fill="#000000" stroke="none" d="M 16 527.5 C 16 523.6340064 19.1340064 520.5 23 520.5 C 26.8659936 520.5 30 523.6340064 30 527.5 C 30 531.3659936 26.8659936 534.5 23 534.5 C 19.1340064 534.5 16 531.3659936 16 527.5 Z"/></g><g transform="translate(15,10) scale(1,1)"><path fill="#000000" stroke="none" d="M 1752 839.5 C 1752 835.6340064 1755.1340064 832.5 1759 832.5 C 1762.8659936 832.5 1766 835.6340064 1766 839.5 C 1766 843.3659936 1762.8659936 846.5 1759 846.5 C 1755.1340064 846.5 1752 843.3659936 1752 839.5 Z"/></g><g transform="translate(15,10) scale(1,1)"><path fill="#000000" stroke="none" d="M 15 1027.5 C 15 1023.6340064 18.1340064 1020.5 22 1020.5 C 25.8659936 1020.5 29 1023.6340064 29 1027.5 C 29 1031.3659936 25.8659936 1034.5 22 1034.5 C 18.1340064 1034.5 15 1031.3659936 15 1027.5 Z"/></g><g transform="translate(15,10) scale(1,1)"><path fill="#000000" stroke="none" d="M 16 664.5 C 16 660.6340064 19.1340064 657.5 23 657.5 C 26.8659936 657.5 30 660.6340064 30 664.5 C 30 668.3659936 26.8659936 671.5 23 671.5 C 19.1340064 671.5 16 668.3659936 16 664.5 Z"/></g><g transform="translate(15,10) scale(1,1)"><path fill="#000000" stroke="none" d="M 16 759.5 C 16 755.6340064 19.1340064 752.5 23 752.5 C 26.8659936 752.5 30 755.6340064 30 759.5 C 30 763.3659936 26.8659936 766.5 23 766.5 C 19.1340064 766.5 16 763.3659936 16 759.5 Z"/></g><g transform="translate(15,10) scale(1,1)"><path fill="#000000" stroke="none" d="M 1752 936.5 C 1752 932.6340064 1755.1340064 929.5 1759 929.5 C 1762.8659936 929.5 1766 932.6340064 1766 936.5 C 1766 940.3659936 1762.8659936 943.5 1759 943.5 C 1755.1340064 943.5 1752 940.3659936 1752 936.5 Z"/></g><g transform="translate(15,10) scale(1,1)"><path fill="#000000" stroke="none" d="M 1752 335.5 C 1752 331.6340064 1755.1340064 328.5 1759 328.5 C 1762.8659936 328.5 1766 331.6340064 1766 335.5 C 1766 339.3659936 1762.8659936 342.5 1759 342.5 C 1755.1340064 342.5 1752 339.3659936 1752 335.5 Z"/></g><g transform="translate(15,10) scale(1,1)"><path fill="none" stroke="#000000" d="M 30 136 L 303 136" stroke-miterlimit="10"/></g><g transform="translate(15,10) scale(1,1)"><path fill="#000000" stroke="none" d="M 292.83732514237585 140.209517756016 L 303 136 L 292.83732514237585 131.790482243984"/></g><g transform="translate(15,10) scale(1,1)"><path fill="none" stroke="#000000" d="M 292.83732514237585 140.209517756016 L 303 136 L 292.83732514237585 131.790482243984 L 292.83732514237585 140.209517756016" stroke-miterlimit="10"/></g><g transform="translate(15,10) scale(1,1)"><g><path fill="none" stroke="none"/><text fill="#000000" stroke="none" font-family="Arial" font-size="13px" font-style="normal" font-weight="normal" text-decoration="none" x="90.600341796875" y="123.5">1 : Patch: /bugs/bugId</text></g></g><g transform="translate(15,10) scale(1,1)"><rect fill="#ffffff" stroke="none" x="303" y="136" width="13" height="936"/></g><g transform="translate(15,10) scale(1,1)"><path fill="none" stroke="#000000" d="M 303 136 L 316 136 L 316 1072 L 303 1072 L 303 136 Z Z" stroke-miterlimit="10"/></g><g transform="translate(15,10) scale(1,1)"><path fill="none" stroke="#000000" d="M 316 136 L 697 136" stroke-miterlimit="10"/></g><g transform="translate(15,10) scale(1,1)"><path fill="#000000" stroke="none" d="M 686.8373251423759 140.209517756016 L 697 136 L 686.8373251423758 131.790482243984"/></g><g transform="translate(15,10) scale(1,1)"><path fill="none" stroke="#000000" d="M 686.8373251423759 140.209517756016 L 697 136 L 686.8373251423758 131.790482243984 L 686.8373251423759 140.209517756016" stroke-miterlimit="10"/></g><g transform="translate(15,10) scale(1,1)"><g><path fill="none" stroke="none"/><text fill="#000000" stroke="none" font-family="Arial" font-size="13px" font-style="normal" font-weight="normal" text-decoration="none" x="363.71630859375" y="130.5">2 : _bugs.Fix(token, bugId)</text></g></g><g transform="translate(15,10) scale(1,1)"><rect fill="#ffffff" stroke="none" x="697" y="136" width="13" height="872"/></g><g transform="translate(15,10) scale(1,1)"><path fill="none" stroke="#000000" d="M 697 136 L 710 136 L 710 1008 L 697 1008 L 697 136 Z Z" stroke-miterlimit="10"/></g><g transform="translate(15,10) scale(1,1)"><path fill="none" stroke="#000000" d="M 710 155 L 993 155" stroke-miterlimit="10"/></g><g transform="translate(15,10) scale(1,1)"><path fill="#000000" stroke="none" d="M 982.8373251423759 159.209517756016 L 993 155 L 982.8373251423758 150.790482243984"/></g><g transform="translate(15,10) scale(1,1)"><path fill="none" stroke="#000000" d="M 982.8373251423759 159.209517756016 L 993 155 L 982.8373251423758 150.790482243984 L 982.8373251423759 159.209517756016" stroke-miterlimit="10"/></g><g transform="translate(15,10) scale(1,1)"><g><path fill="none" stroke="none"/><text fill="#000000" stroke="none" font-family="Arial" font-size="13px" font-style="normal" font-weight="normal" text-decoration="none" x="799.697998046875" y="151.5">3 : _userLogic.Get(token)</text></g></g><g transform="translate(15,10) scale(1,1)"><rect fill="#ffffff" stroke="none" x="993" y="155" width="13" height="100"/></g><g transform="translate(15,10) scale(1,1)"><path fill="none" stroke="#000000" d="M 993 155 L 1006 155 L 1006 255 L 993 255 L 993 155 Z Z" stroke-miterlimit="10"/></g><g transform="translate(15,10) scale(1,1)"><path fill="none" stroke="#000000" d="M 993 176 L 710 176" stroke-miterlimit="10" stroke-dasharray="3"/></g><g transform="translate(15,10) scale(1,1)"><path fill="none" stroke="#000000" d="M 720.1626748576241 171.790482243984 L 710 176 L 720.1626748576241 180.209517756016" stroke-miterlimit="10"/></g><g transform="translate(15,10) scale(1,1)"><g><path fill="none" stroke="none"/><text fill="#000000" stroke="none" font-family="Arial" font-size="13px" font-style="normal" font-weight="normal" text-decoration="none" x="802.9208984375" y="192.5">4 : userByToken</text></g></g><g transform="translate(15,10) scale(1,1)"><path fill="none" stroke="#000000" d="M 710 312 L 1214 312" stroke-miterlimit="10"/></g><g transform="translate(15,10) scale(1,1)"><path fill="#000000" stroke="none" d="M 1203.837325142376 316.209517756016 L 1214 312 L 1203.837325142376 307.790482243984"/></g><g transform="translate(15,10) scale(1,1)"><path fill="none" stroke="#000000" d="M 1203.837325142376 316.209517756016 L 1214 312 L 1203.837325142376 307.790482243984 L 1203.837325142376 316.209517756016" stroke-miterlimit="10"/></g><g transform="translate(15,10) scale(1,1)"><g><path fill="none" stroke="none"/><text fill="#000000" stroke="none" font-family="Arial" font-size="13px" font-style="normal" font-weight="normal" text-decoration="none" x="718.976806640625" y="307.5">5 : _bugRepository.Fix(userByToken,bugId)</text></g></g><g transform="translate(15,10) scale(1,1)"><rect fill="#ffffff" stroke="none" x="1214" y="312" width="13" height="648"/></g><g transform="translate(15,10) scale(1,1)"><path fill="none" stroke="#000000" d="M 1214 312 L 1227 312 L 1227 960 L 1214 960 L 1214 312 Z Z" stroke-miterlimit="10"/></g><g transform="translate(15,10) scale(1,1)"><path fill="none" stroke="#000000" d="M 1227 330 L 1550 330" stroke-miterlimit="10"/></g><g transform="translate(15,10) scale(1,1)"><path fill="#000000" stroke="none" d="M 1539.837325142376 334.209517756016 L 1550 330 L 1539.837325142376 325.790482243984"/></g><g transform="translate(15,10) scale(1,1)"><path fill="none" stroke="#000000" d="M 1539.837325142376 334.209517756016 L 1550 330 L 1539.837325142376 325.790482243984 L 1539.837325142376 334.209517756016" stroke-miterlimit="10"/></g><g transform="translate(15,10) scale(1,1)"><g><path fill="none" stroke="none"/><text fill="#000000" stroke="none" font-family="Arial" font-size="13px" font-style="normal" font-weight="normal" text-decoration="none" x="1269.841796875" y="326.5">6 : Context.Bugs.First(b =&gt; b.Id== bugId)</text></g></g><g transform="translate(15,10) scale(1,1)"><rect fill="#ffffff" stroke="none" x="1550" y="330" width="13" height="629"/></g><g transform="translate(15,10) scale(1,1)"><path fill="none" stroke="#000000" d="M 1550 330 L 1563 330 L 1563 959 L 1550 959 L 1550 330 Z Z" stroke-miterlimit="10"/></g><g transform="translate(15,10) scale(1,1)"><path fill="none" stroke="#000000" d="M 1563 336 L 1752 336" stroke-miterlimit="10"/></g><g transform="translate(15,10) scale(1,1)"><path fill="#000000" stroke="none" d="M 1741.837325142376 340.209517756016 L 1752 336 L 1741.837325142376 331.790482243984"/></g><g transform="translate(15,10) scale(1,1)"><path fill="none" stroke="#000000" d="M 1741.837325142376 340.209517756016 L 1752 336 L 1741.837325142376 331.790482243984 L 1741.837325142376 340.209517756016" stroke-miterlimit="10"/></g><g transform="translate(15,10) scale(1,1)"><g><path fill="none" stroke="none"/><text fill="#000000" stroke="none" font-family="Arial" font-size="13px" font-style="normal" font-weight="normal" text-decoration="none" x="1601.5" y="332.5">7 : GetBugFromDB</text></g></g><g transform="translate(15,10) scale(1,1)"><path fill="none" stroke="#000000" d="M 1752 376 L 1563 376" stroke-miterlimit="10" stroke-dasharray="3"/></g><g transform="translate(15,10) scale(1,1)"><path fill="none" stroke="#000000" d="M 1573.162674857624 371.790482243984 L 1563 376 L 1573.162674857624 380.209517756016" stroke-miterlimit="10"/></g><g transform="translate(15,10) scale(1,1)"><g><path fill="none" stroke="none"/><text fill="#000000" stroke="none" font-family="Arial" font-size="13px" font-style="normal" font-weight="normal" text-decoration="none" x="1620.5" y="392.5">8 : bugToFix</text></g></g><g transform="translate(15,10) scale(1,1)"><path fill="none" stroke="#000000" d="M 1550 400 L 1227 400" stroke-miterlimit="10" stroke-dasharray="3"/></g><g transform="translate(15,10) scale(1,1)"><path fill="none" stroke="#000000" d="M 1237.162674857624 395.790482243984 L 1227 400 L 1237.162674857624 404.209517756016" stroke-miterlimit="10"/></g><g transform="translate(15,10) scale(1,1)"><g><path fill="none" stroke="none"/><text fill="#000000" stroke="none" font-family="Arial" font-size="13px" font-style="normal" font-weight="normal" text-decoration="none" x="1344.7236328125" y="420.5">9 : bugToFix</text></g></g><g transform="translate(15,10) scale(1,1)"><path fill="none" stroke="#000000" d="M 1214 504 L 535 504" stroke-miterlimit="10"/></g><g transform="translate(15,10) scale(1,1)"><path fill="#000000" stroke="none" d="M 545.1626748576241 499.790482243984 L 535 504 L 545.1626748576241 508.209517756016"/></g><g transform="translate(15,10) scale(1,1)"><path fill="none" stroke="#000000" d="M 545.1626748576241 499.790482243984 L 535 504 L 545.1626748576241 508.209517756016 L 545.1626748576241 499.790482243984" stroke-miterlimit="10"/></g><g transform="translate(15,10) scale(1,1)"><g><path fill="none" stroke="none"/><text fill="#000000" stroke="none" font-family="Arial" font-size="13px" font-style="normal" font-weight="normal" text-decoration="none" x="726.16455078125" y="491.5">10 : throws new InexistenBugException()</text></g></g><g transform="translate(15,10) scale(1,1)"><rect fill="#ffffff" stroke="none" x="522" y="504" width="13" height="28"/></g><g transform="translate(15,10) scale(1,1)"><path fill="none" stroke="#000000" d="M 522 504 L 535 504 L 535 532 L 522 532 L 522 504 Z Z" stroke-miterlimit="10"/></g><g transform="translate(15,10) scale(1,1)"><path fill="none" stroke="#000000" d="M 522 528 L 30 528" stroke-miterlimit="10" stroke-dasharray="3"/></g><g transform="translate(15,10) scale(1,1)"><path fill="none" stroke="#000000" d="M 40.162674857624154 523.790482243984 L 30 528 L 40.162674857624154 532.209517756016" stroke-miterlimit="10"/></g><g transform="translate(15,10) scale(1,1)"><g><path fill="none" stroke="none"/><text fill="#000000" stroke="none" font-family="Arial" font-size="13px" font-style="normal" font-weight="normal" text-decoration="none" x="79.64697265625" y="554.5">11 : statusCode = statusCode = 403 , exceptionMessage = The entered bug does not exist</text></g></g><g transform="translate(15,10) scale(1,1)"><path fill="none" stroke="#000000" d="M 1214 645 L 535 645" stroke-miterlimit="10"/></g><g transform="translate(15,10) scale(1,1)"><path fill="#000000" stroke="none" d="M 545.1626748576241 640.790482243984 L 535 645 L 545.1626748576241 649.209517756016"/></g><g transform="translate(15,10) scale(1,1)"><path fill="none" stroke="#000000" d="M 545.1626748576241 640.790482243984 L 535 645 L 545.1626748576241 649.209517756016 L 545.1626748576241 640.790482243984" stroke-miterlimit="10"/></g><g transform="translate(15,10) scale(1,1)"><g><path fill="none" stroke="none"/><text fill="#000000" stroke="none" font-family="Arial" font-size="13px" font-style="normal" font-weight="normal" text-decoration="none" x="743.5" y="661.5">12 : throws new BugAlreadyFixedException()</text></g></g><g transform="translate(15,10) scale(1,1)"><rect fill="#ffffff" stroke="none" x="522" y="645" width="13" height="28"/></g><g transform="translate(15,10) scale(1,1)"><path fill="none" stroke="#000000" d="M 522 645 L 535 645 L 535 673 L 522 673 L 522 645 Z Z" stroke-miterlimit="10"/></g><g transform="translate(15,10) scale(1,1)"><path fill="none" stroke="#000000" d="M 522 665 L 30 665" stroke-miterlimit="10" stroke-dasharray="3"/></g><g transform="translate(15,10) scale(1,1)"><path fill="none" stroke="#000000" d="M 40.162674857624154 660.790482243984 L 30 665 L 40.162674857624154 669.209517756016" stroke-miterlimit="10"/></g><g transform="translate(15,10) scale(1,1)"><g><path fill="none" stroke="none"/><text fill="#000000" stroke="none" font-family="Arial" font-size="13px" font-style="normal" font-weight="normal" text-decoration="none" x="106.78857421875" y="691.5">13 : statusCode = 403 , exceptionMessage = The bug you are trying to fixed is already fixed</text></g></g><g transform="translate(15,10) scale(1,1)"><path fill="none" stroke="#000000" d="M 1214 752 L 535 752" stroke-miterlimit="10"/></g><g transform="translate(15,10) scale(1,1)"><path fill="#000000" stroke="none" d="M 545.1626748576241 747.790482243984 L 535 752 L 545.1626748576241 756.209517756016"/></g><g transform="translate(15,10) scale(1,1)"><path fill="none" stroke="#000000" d="M 545.1626748576241 747.790482243984 L 535 752 L 545.1626748576241 756.209517756016 L 545.1626748576241 747.790482243984" stroke-miterlimit="10"/></g><g transform="translate(15,10) scale(1,1)"><g><path fill="none" stroke="none"/><text fill="#000000" stroke="none" font-family="Arial" font-size="13px" font-style="normal" font-weight="normal" text-decoration="none" x="710.5" y="768.5">14 : throws new UserIsNotAssignedToProjectException()</text></g></g><g transform="translate(15,10) scale(1,1)"><rect fill="#ffffff" stroke="none" x="522" y="752" width="13" height="28"/></g><g transform="translate(15,10) scale(1,1)"><path fill="none" stroke="#000000" d="M 522 752 L 535 752 L 535 780 L 522 780 L 522 752 Z Z" stroke-miterlimit="10"/></g><g transform="translate(15,10) scale(1,1)"><path fill="none" stroke="#000000" d="M 522 760 L 30 760" stroke-miterlimit="10" stroke-dasharray="3"/></g><g transform="translate(15,10) scale(1,1)"><path fill="none" stroke="#000000" d="M 40.162674857624154 755.790482243984 L 30 760 L 40.162674857624154 764.209517756016" stroke-miterlimit="10"/></g><g transform="translate(15,10) scale(1,1)"><g><path fill="none" stroke="none"/><text fill="#000000" stroke="none" font-family="Arial" font-size="13px" font-style="normal" font-weight="normal" text-decoration="none" x="47.5" y="795.5">15 : statusCode = 403 , exceptionMessage = The user is not assigned to the Project the bug belong to.</text></g></g><g transform="translate(15,10) scale(1,1)"><path fill="none" stroke="#000000" d="M 1227 816 L 1557 816" stroke-miterlimit="10"/></g><g transform="translate(15,10) scale(1,1)"><path fill="#000000" stroke="none" d="M 1546.837325142376 820.209517756016 L 1557 816 L 1546.837325142376 811.790482243984"/></g><g transform="translate(15,10) scale(1,1)"><path fill="none" stroke="#000000" d="M 1546.837325142376 820.209517756016 L 1557 816 L 1546.837325142376 811.790482243984 L 1546.837325142376 820.209517756016" stroke-miterlimit="10"/></g><g transform="translate(15,10) scale(1,1)"><g><path fill="none" stroke="none"/><text fill="#000000" stroke="none" font-family="Arial" font-size="13px" font-style="normal" font-weight="normal" text-decoration="none" x="1286.5" y="812.5">16 : Context.Bugs.Update(bugToFix)</text></g></g><g transform="translate(15,10) scale(1,1)"><rect fill="#ffffff" stroke="none" x="1557" y="816" width="13" height="45"/></g><g transform="translate(15,10) scale(1,1)"><path fill="none" stroke="#000000" d="M 1557 816 L 1570 816 L 1570 861 L 1557 861 L 1557 816 Z Z" stroke-miterlimit="10"/></g><g transform="translate(15,10) scale(1,1)"><path fill="none" stroke="#000000" d="M 1570 840 L 1752 840" stroke-miterlimit="10"/></g><g transform="translate(15,10) scale(1,1)"><path fill="#000000" stroke="none" d="M 1741.837325142376 844.209517756016 L 1752 840 L 1741.837325142376 835.790482243984"/></g><g transform="translate(15,10) scale(1,1)"><path fill="none" stroke="#000000" d="M 1741.837325142376 844.209517756016 L 1752 840 L 1741.837325142376 835.790482243984 L 1741.837325142376 844.209517756016" stroke-miterlimit="10"/></g><g transform="translate(15,10) scale(1,1)"><g><path fill="none" stroke="none"/><text fill="#000000" stroke="none" font-family="Arial" font-size="13px" font-style="normal" font-weight="normal" text-decoration="none" x="1579.20361328125" y="836.5">17 : UpdatesBugStateOnDB</text></g></g><g transform="translate(15,10) scale(1,1)"><path fill="none" stroke="#000000" d="M 1214 864 L 710 864" stroke-miterlimit="10" stroke-dasharray="3"/></g><g transform="translate(15,10) scale(1,1)"><path fill="none" stroke="#000000" d="M 720.1626748576241 859.790482243984 L 710 864 L 720.1626748576241 868.209517756016" stroke-miterlimit="10"/></g><g transform="translate(15,10) scale(1,1)"><g><path fill="none" stroke="none"/><text fill="#000000" stroke="none" font-family="Arial" font-size="13px" font-style="normal" font-weight="normal" text-decoration="none" x="948.5" y="880.5">18 : </text></g></g><g transform="translate(15,10) scale(1,1)"><path fill="none" stroke="#000000" d="M 710 904 L 1221 904" stroke-miterlimit="10"/></g><g transform="translate(15,10) scale(1,1)"><path fill="#000000" stroke="none" d="M 1210.837325142376 908.209517756016 L 1221 904 L 1210.837325142376 899.790482243984"/></g><g transform="translate(15,10) scale(1,1)"><path fill="none" stroke="#000000" d="M 1210.837325142376 908.209517756016 L 1221 904 L 1210.837325142376 899.790482243984 L 1210.837325142376 908.209517756016" stroke-miterlimit="10"/></g><g transform="translate(15,10) scale(1,1)"><g><path fill="none" stroke="none"/><text fill="#000000" stroke="none" font-family="Arial" font-size="13px" font-style="normal" font-weight="normal" text-decoration="none" x="883.5" y="900.5">19 : _bugRespository.Save()</text></g></g><g transform="translate(15,10) scale(1,1)"><rect fill="#ffffff" stroke="none" x="1221" y="904" width="13" height="28"/></g><g transform="translate(15,10) scale(1,1)"><path fill="none" stroke="#000000" d="M 1221 904 L 1234 904 L 1234 932 L 1221 932 L 1221 904 Z Z" stroke-miterlimit="10"/></g><g transform="translate(15,10) scale(1,1)"><path fill="none" stroke="#000000" d="M 1234 928 L 1557 928" stroke-miterlimit="10"/></g><g transform="translate(15,10) scale(1,1)"><path fill="#000000" stroke="none" d="M 1546.837325142376 932.209517756016 L 1557 928 L 1546.837325142376 923.790482243984"/></g><g transform="translate(15,10) scale(1,1)"><path fill="none" stroke="#000000" d="M 1546.837325142376 932.209517756016 L 1557 928 L 1546.837325142376 923.790482243984 L 1546.837325142376 932.209517756016" stroke-miterlimit="10"/></g><g transform="translate(15,10) scale(1,1)"><g><path fill="none" stroke="none"/><text fill="#000000" stroke="none" font-family="Arial" font-size="13px" font-style="normal" font-weight="normal" text-decoration="none" x="1312.5" y="924.5">20 : Context.SaveChanges()</text></g></g><g transform="translate(15,10) scale(1,1)"><rect fill="#ffffff" stroke="none" x="1557" y="928" width="13" height="28"/></g><g transform="translate(15,10) scale(1,1)"><path fill="none" stroke="#000000" d="M 1557 928 L 1570 928 L 1570 956 L 1557 956 L 1557 928 Z Z" stroke-miterlimit="10"/></g><g transform="translate(15,10) scale(1,1)"><path fill="none" stroke="#000000" d="M 1570 937 L 1752 937" stroke-miterlimit="10"/></g><g transform="translate(15,10) scale(1,1)"><path fill="#000000" stroke="none" d="M 1741.837325142376 941.209517756016 L 1752 937 L 1741.837325142376 932.790482243984"/></g><g transform="translate(15,10) scale(1,1)"><path fill="none" stroke="#000000" d="M 1741.837325142376 941.209517756016 L 1752 937 L 1741.837325142376 932.790482243984 L 1741.837325142376 941.209517756016" stroke-miterlimit="10"/></g><g transform="translate(15,10) scale(1,1)"><g><path fill="none" stroke="none"/><text fill="#000000" stroke="none" font-family="Arial" font-size="13px" font-style="normal" font-weight="normal" text-decoration="none" x="1591.5" y="933.5">21 : SaveChangesonDB</text></g></g><g transform="translate(15,10) scale(1,1)"><path fill="none" stroke="#000000" d="M 1214 952 L 710 952" stroke-miterlimit="10" stroke-dasharray="3"/></g><g transform="translate(15,10) scale(1,1)"><path fill="none" stroke="#000000" d="M 720.1626748576241 947.790482243984 L 710 952 L 720.1626748576241 956.209517756016" stroke-miterlimit="10"/></g><g transform="translate(15,10) scale(1,1)"><g><path fill="none" stroke="none"/><text fill="#000000" stroke="none" font-family="Arial" font-size="13px" font-style="normal" font-weight="normal" text-decoration="none" x="948.5" y="968.5">22 : </text></g></g><g transform="translate(15,10) scale(1,1)"><path fill="none" stroke="#000000" d="M 697 989 L 316 989" stroke-miterlimit="10" stroke-dasharray="3"/></g><g transform="translate(15,10) scale(1,1)"><path fill="none" stroke="#000000" d="M 326.16267485762415 984.790482243984 L 316 989 L 326.16267485762415 993.209517756016" stroke-miterlimit="10"/></g><g transform="translate(15,10) scale(1,1)"><g><path fill="none" stroke="none"/><text fill="#000000" stroke="none" font-family="Arial" font-size="13px" font-style="normal" font-weight="normal" text-decoration="none" x="492.5" y="1005.5">23 : </text></g></g><g transform="translate(15,10) scale(1,1)"><path fill="none" stroke="#000000" d="M 303 1028 L 29 1028" stroke-miterlimit="10"/></g><g transform="translate(15,10) scale(1,1)"><path fill="#000000" stroke="none" d="M 39.162674857624154 1023.790482243984 L 29 1028 L 39.162674857624154 1032.2095177560159"/></g><g transform="translate(15,10) scale(1,1)"><path fill="none" stroke="#000000" d="M 39.162674857624154 1023.790482243984 L 29 1028 L 39.162674857624154 1032.2095177560159 L 39.162674857624154 1023.790482243984" stroke-miterlimit="10"/></g><g transform="translate(15,10) scale(1,1)"><g><path fill="none" stroke="none"/><text fill="#000000" stroke="none" font-family="Arial" font-size="13px" font-style="normal" font-weight="normal" text-decoration="none" x="139.8544921875" y="1044.5">24 : Ok()</text></g></g><g transform="translate(15,10) scale(1,1)"><path fill="none" stroke="#000000" d="M 1200 432 L 1520 432 L 1520 536 L 1200 536 L 1200 432" stroke-miterlimit="10"/></g><g transform="translate(15,10) scale(1,1)"><path fill="#ffffff" stroke="none" d="M 1200 432 L 1200 454 L 1288.26806640625 454 L 1299.26806640625 443 L 1299.26806640625 432 L 1200 432"/></g><g transform="translate(15,10) scale(1,1)"><path fill="none" stroke="#000000" d="M 1200 432 L 1200 454 L 1288.26806640625 454 L 1299.26806640625 443 L 1299.26806640625 432 L 1200 432 L 1200 432" stroke-miterlimit="10"/></g><g transform="translate(15,10) scale(1,1)"><g><path fill="none" stroke="none"/><text fill="#000000" stroke="none" font-family="Arial" font-size="13px" font-style="normal" font-weight="normal" text-decoration="none" x="1224.72998046875" y="449.5">bug is null</text></g></g><g transform="translate(15,10) scale(1,1)"><g><path fill="none" stroke="none"/><text fill="#000000" stroke="none" font-family="Arial" font-size="13px" font-style="normal" font-weight="bold" text-decoration="none" x="1205" y="449.5">alt</text></g></g><g transform="translate(15,10) scale(1,1)"><g><path fill="none" stroke="none"/><text fill="#000000" stroke="none" font-family="Arial" font-size="13px" font-style="normal" font-weight="normal" text-decoration="none" x="1219.5" y="482.5">[bugToFix == null]</text></g></g><g transform="translate(15,10) scale(1,1)"><path fill="none" stroke="#000000" d="M 1200 552 L 1520 552 L 1520 656 L 1200 656 L 1200 552" stroke-miterlimit="10"/></g><g transform="translate(15,10) scale(1,1)"><path fill="#ffffff" stroke="none" d="M 1200 552 L 1200 574 L 1330.17529296875 574 L 1341.17529296875 563 L 1341.17529296875 552 L 1200 552"/></g><g transform="translate(15,10) scale(1,1)"><path fill="none" stroke="#000000" d="M 1200 552 L 1200 574 L 1330.17529296875 574 L 1341.17529296875 563 L 1341.17529296875 552 L 1200 552 L 1200 552" stroke-miterlimit="10"/></g><g transform="translate(15,10) scale(1,1)"><g><path fill="none" stroke="none"/><text fill="#000000" stroke="none" font-family="Arial" font-size="13px" font-style="normal" font-weight="normal" text-decoration="none" x="1224.72998046875" y="569.5">bugState is Fixed</text></g></g><g transform="translate(15,10) scale(1,1)"><g><path fill="none" stroke="none"/><text fill="#000000" stroke="none" font-family="Arial" font-size="13px" font-style="normal" font-weight="bold" text-decoration="none" x="1205" y="569.5">alt</text></g></g><g transform="translate(15,10) scale(1,1)"><g><path fill="none" stroke="none"/><text fill="#000000" stroke="none" font-family="Arial" font-size="13px" font-style="normal" font-weight="normal" text-decoration="none" x="1219.5" y="602.5">[bugToFix.State == Fixed]</text></g></g><g transform="translate(15,10) scale(1,1)"><path fill="none" stroke="#000000" d="M 1200 680 L 1520 680 L 1520 775 L 1200 775 L 1200 680" stroke-miterlimit="10"/></g><g transform="translate(15,10) scale(1,1)"><path fill="#ffffff" stroke="none" d="M 1200 680 L 1200 702 L 1387.26611328125 702 L 1398.26611328125 691 L 1398.26611328125 680 L 1200 680"/></g><g transform="translate(15,10) scale(1,1)"><path fill="none" stroke="#000000" d="M 1200 680 L 1200 702 L 1387.26611328125 702 L 1398.26611328125 691 L 1398.26611328125 680 L 1200 680 L 1200 680" stroke-miterlimit="10"/></g><g transform="translate(15,10) scale(1,1)"><g><path fill="none" stroke="none"/><text fill="#000000" stroke="none" font-family="Arial" font-size="13px" font-style="normal" font-weight="normal" text-decoration="none" x="1224.72998046875" y="697.5">User dont belong to Project</text></g></g><g transform="translate(15,10) scale(1,1)"><g><path fill="none" stroke="none"/><text fill="#000000" stroke="none" font-family="Arial" font-size="13px" font-style="normal" font-weight="bold" text-decoration="none" x="1205" y="697.5">alt</text></g></g><g transform="translate(15,10) scale(1,1)"><g><path fill="none" stroke="none"/><text fill="#000000" stroke="none" font-family="Arial" font-size="13px" font-style="normal" font-weight="normal" text-decoration="none" x="1219.5" y="730.5">[users.Project.Find(p.Id == bugToFix.ProjectId) != null]</text></g></g></g></svg>