<svg version="1.1" xmlns="http://www.w3.org/2000/svg" xmlns:xlink="http://www.w3.org/1999/xlink" width="1060.94775390625" height="452"><defs/><g><g transform="translate(-518,-462) scale(1,1)"><rect fill="#C0C0C0" stroke="none" x="1279" y="639" width="129.66259765625" height="59" opacity="0.2"/></g><g transform="translate(-518,-462) scale(1,1)"><rect fill="#ffffff" stroke="none" x="1272" y="632" width="129.66259765625" height="59"/></g><g transform="translate(-518,-462) scale(1,1)"><path fill="none" stroke="#000000" d="M 1272 632 L 1401.66259765625 632 L 1401.66259765625 691 L 1272 691 L 1272 632 Z Z" stroke-miterlimit="10"/></g><g transform="translate(-518,-462) scale(1,1)"><path fill="none" stroke="#000000" d="M 1272 672 L 1401.66259765625 672" stroke-miterlimit="10"/></g><g transform="translate(-518,-462) scale(1,1)"><path fill="none" stroke="#000000" d="M 1272 682 L 1401.66259765625 682" stroke-miterlimit="10"/></g><g transform="translate(-518,-462) scale(1,1)"><g><path fill="none" stroke="none"/><text fill="#000000" stroke="none" font-family="Arial" font-size="13px" font-style="normal" font-weight="bold" text-decoration="none" x="1300.338623046875" y="651.5">TokenHelper</text></g></g><g transform="translate(-518,-462) scale(1,1)"><g><path fill="none" stroke="none"/><text fill="#000000" stroke="none" font-family="Arial" font-size="13px" font-style="normal" font-weight="normal" text-decoration="none" x="1276.5" y="666.5">(from Authentication)</text></g></g><g transform="translate(-518,-462) scale(1,1)"><rect fill="#C0C0C0" stroke="none" x="887" y="609" width="306.71630859375" height="87" opacity="0.2"/></g><g transform="translate(-518,-462) scale(1,1)"><rect fill="#C0C0C0" stroke="none" x="1185.775390625" y="591" width="16.94091796875" height="22" opacity="0.2"/></g><g transform="translate(-518,-462) scale(1,1)"><rect fill="#ffffff" stroke="none" x="880" y="602" width="306.71630859375" height="87"/></g><g transform="translate(-518,-462) scale(1,1)"><path fill="none" stroke="#000000" d="M 880 602 L 1186.71630859375 602 L 1186.71630859375 689 L 880 689 L 880 602 Z Z" stroke-miterlimit="10"/></g><g transform="translate(-518,-462) scale(1,1)"><path fill="none" stroke="#000000" d="M 880 642 L 1186.71630859375 642" stroke-miterlimit="10"/></g><g transform="translate(-518,-462) scale(1,1)"><path fill="none" stroke="#000000" d="M 880 652 L 1186.71630859375 652" stroke-miterlimit="10"/></g><g transform="translate(-518,-462) scale(1,1)"><g><path fill="none" stroke="none"/><text fill="#000000" stroke="none" font-family="Arial" font-size="13px" font-style="italic" font-weight="bold" text-decoration="none" x="989.64501953125" y="621.5">BaseComparer</text></g></g><g transform="translate(-518,-462) scale(1,1)"><g><path fill="none" stroke="none"/><text fill="#000000" stroke="none" font-family="Arial" font-size="13px" font-style="normal" font-weight="normal" text-decoration="none" x="982.075439453125" y="636.5">(from Comparers)</text></g></g><g transform="translate(-518,-462) scale(1,1)"><g><path fill="none" stroke="none"/><text fill="#000000" stroke="none" font-family="Arial" font-size="13px" font-style="normal" font-weight="normal" text-decoration="none" x="885" y="669.5">+Compare(x: object, y: object): int</text></g></g><g transform="translate(-518,-462) scale(1,1)"><g><path fill="none" stroke="none"/><text fill="#000000" stroke="none" font-family="Arial" font-size="13px" font-style="italic" font-weight="normal" text-decoration="none" x="885" y="684.5">#ConcreteCompare(expected: T, actual: T): bool</text></g></g><g transform="translate(-518,-462) scale(1,1)"><rect fill="#ffffff" stroke="none" x="1178.775390625" y="584" width="16.94091796875" height="22"/></g><g transform="translate(-518,-462) scale(1,1)"><path fill="none" stroke="#000000" d="M 1178.775390625 584 L 1195.71630859375 584 L 1195.71630859375 606 L 1178.775390625 606 L 1178.775390625 584 Z Z" stroke-miterlimit="10" stroke-dasharray="3"/></g><g transform="translate(-518,-462) scale(1,1)"><g><path fill="none" stroke="none"/><text fill="#000000" stroke="none" font-family="Arial" font-size="13px" font-style="normal" font-weight="normal" text-decoration="none" x="1183.775390625" y="601.5">T</text></g></g><g transform="translate(-518,-462) scale(1,1)"><rect fill="#C0C0C0" stroke="none" x="535" y="839" width="318.28955078125" height="72" opacity="0.2"/></g><g transform="translate(-518,-462) scale(1,1)"><rect fill="#ffffff" stroke="none" x="528" y="832" width="318.28955078125" height="72"/></g><g transform="translate(-518,-462) scale(1,1)"><path fill="none" stroke="#000000" d="M 528 832 L 846.28955078125 832 L 846.28955078125 904 L 528 904 L 528 832 Z Z" stroke-miterlimit="10"/></g><g transform="translate(-518,-462) scale(1,1)"><path fill="none" stroke="#000000" d="M 528 872 L 846.28955078125 872" stroke-miterlimit="10"/></g><g transform="translate(-518,-462) scale(1,1)"><path fill="none" stroke="#000000" d="M 528 882 L 846.28955078125 882" stroke-miterlimit="10"/></g><g transform="translate(-518,-462) scale(1,1)"><g><path fill="none" stroke="none"/><text fill="#000000" stroke="none" font-family="Arial" font-size="13px" font-style="normal" font-weight="bold" text-decoration="none" x="646.681640625" y="851.5">BugComparer</text></g></g><g transform="translate(-518,-462) scale(1,1)"><g><path fill="none" stroke="none"/><text fill="#000000" stroke="none" font-family="Arial" font-size="13px" font-style="normal" font-weight="normal" text-decoration="none" x="635.862060546875" y="866.5">(from Comparers)</text></g></g><g transform="translate(-518,-462) scale(1,1)"><g><path fill="none" stroke="none"/><text fill="#000000" stroke="none" font-family="Arial" font-size="13px" font-style="normal" font-weight="normal" text-decoration="none" x="533" y="899.5">#ConcreteCompare(expected: Bug, actual: Bug): bool</text></g></g><g transform="translate(-518,-462) scale(1,1)"><path fill="none" stroke="#000000" d="M 808 832 L 808 792 L 920 792 L 920 689" stroke-miterlimit="10"/></g><g transform="translate(-518,-462) scale(1,1)"><path fill="#FFFFFF" stroke="none" d="M 928.419035512032 709.3253497152483 L 920 689 L 911.580964487968 709.3253497152483"/></g><g transform="translate(-518,-462) scale(1,1)"><path fill="none" stroke="#000000" d="M 928.419035512032 709.3253497152483 L 920 689 L 911.580964487968 709.3253497152483 L 928.419035512032 709.3253497152483" stroke-miterlimit="10"/></g><g transform="translate(-518,-462) scale(1,1)"><rect fill="#C0C0C0" stroke="none" x="1223" y="839" width="352.94775390625" height="72" opacity="0.2"/></g><g transform="translate(-518,-462) scale(1,1)"><rect fill="#ffffff" stroke="none" x="1216" y="832" width="352.94775390625" height="72"/></g><g transform="translate(-518,-462) scale(1,1)"><path fill="none" stroke="#000000" d="M 1216 832 L 1568.94775390625 832 L 1568.94775390625 904 L 1216 904 L 1216 832 Z Z" stroke-miterlimit="10"/></g><g transform="translate(-518,-462) scale(1,1)"><path fill="none" stroke="#000000" d="M 1216 872 L 1568.94775390625 872" stroke-miterlimit="10"/></g><g transform="translate(-518,-462) scale(1,1)"><path fill="none" stroke="#000000" d="M 1216 882 L 1568.94775390625 882" stroke-miterlimit="10"/></g><g transform="translate(-518,-462) scale(1,1)"><g><path fill="none" stroke="none"/><text fill="#000000" stroke="none" font-family="Arial" font-size="13px" font-style="normal" font-weight="bold" text-decoration="none" x="1343.34619140625" y="851.5">ProjectComparer</text></g></g><g transform="translate(-518,-462) scale(1,1)"><g><path fill="none" stroke="none"/><text fill="#000000" stroke="none" font-family="Arial" font-size="13px" font-style="normal" font-weight="normal" text-decoration="none" x="1341.191162109375" y="866.5">(from Comparers)</text></g></g><g transform="translate(-518,-462) scale(1,1)"><g><path fill="none" stroke="none"/><text fill="#000000" stroke="none" font-family="Arial" font-size="13px" font-style="normal" font-weight="normal" text-decoration="none" x="1221" y="899.5">#ConcreteCompare(expected: Project, actual: Project): bool</text></g></g><g transform="translate(-518,-462) scale(1,1)"><path fill="none" stroke="#000000" d="M 1216 832 L 1216 784 L 1128 784 L 1128 689" stroke-miterlimit="10"/></g><g transform="translate(-518,-462) scale(1,1)"><path fill="#FFFFFF" stroke="none" d="M 1136.419035512032 709.3253497152483 L 1128 689 L 1119.580964487968 709.3253497152483"/></g><g transform="translate(-518,-462) scale(1,1)"><path fill="none" stroke="#000000" d="M 1136.419035512032 709.3253497152483 L 1128 689 L 1119.580964487968 709.3253497152483 L 1136.419035512032 709.3253497152483" stroke-miterlimit="10"/></g><g transform="translate(-518,-462) scale(1,1)"><rect fill="#C0C0C0" stroke="none" x="879" y="839" width="326.205078125" height="72" opacity="0.2"/></g><g transform="translate(-518,-462) scale(1,1)"><rect fill="#ffffff" stroke="none" x="872" y="832" width="326.205078125" height="72"/></g><g transform="translate(-518,-462) scale(1,1)"><path fill="none" stroke="#000000" d="M 872 832 L 1198.205078125 832 L 1198.205078125 904 L 872 904 L 872 832 Z Z" stroke-miterlimit="10"/></g><g transform="translate(-518,-462) scale(1,1)"><path fill="none" stroke="#000000" d="M 872 872 L 1198.205078125 872" stroke-miterlimit="10"/></g><g transform="translate(-518,-462) scale(1,1)"><path fill="none" stroke="#000000" d="M 872 882 L 1198.205078125 882" stroke-miterlimit="10"/></g><g transform="translate(-518,-462) scale(1,1)"><g><path fill="none" stroke="none"/><text fill="#000000" stroke="none" font-family="Arial" font-size="13px" font-style="normal" font-weight="bold" text-decoration="none" x="992.481201171875" y="851.5">UserComparer</text></g></g><g transform="translate(-518,-462) scale(1,1)"><g><path fill="none" stroke="none"/><text fill="#000000" stroke="none" font-family="Arial" font-size="13px" font-style="normal" font-weight="normal" text-decoration="none" x="983.81982421875" y="866.5">(from Comparers)</text></g></g><g transform="translate(-518,-462) scale(1,1)"><g><path fill="none" stroke="none"/><text fill="#000000" stroke="none" font-family="Arial" font-size="13px" font-style="normal" font-weight="normal" text-decoration="none" x="877" y="899.5">#ConcreteCompare(expected: User, actual: User): bool</text></g></g><g transform="translate(-518,-462) scale(1,1)"><path fill="none" stroke="#000000" d="M 1048 832 L 1048 689" stroke-miterlimit="10"/></g><g transform="translate(-518,-462) scale(1,1)"><path fill="#FFFFFF" stroke="none" d="M 1056.419035512032 709.3253497152483 L 1048 689 L 1039.580964487968 709.3253497152483"/></g><g transform="translate(-518,-462) scale(1,1)"><path fill="none" stroke="#000000" d="M 1056.419035512032 709.3253497152483 L 1048 689 L 1039.580964487968 709.3253497152483 L 1056.419035512032 709.3253497152483" stroke-miterlimit="10"/></g><g transform="translate(-518,-462) scale(1,1)"><rect fill="#C0C0C0" stroke="none" x="1279" y="487" width="200.12158203125" height="130" opacity="0.2"/></g><g transform="translate(-518,-462) scale(1,1)"><rect fill="#ffffff" stroke="none" x="1272" y="480" width="200.12158203125" height="130"/></g><g transform="translate(-518,-462) scale(1,1)"><path fill="none" stroke="#000000" d="M 1272 480 L 1472.12158203125 480 L 1472.12158203125 610 L 1272 610 L 1272 480 Z Z" stroke-miterlimit="10"/></g><g transform="translate(-518,-462) scale(1,1)"><path fill="none" stroke="#000000" d="M 1272 520 L 1472.12158203125 520" stroke-miterlimit="10"/></g><g transform="translate(-518,-462) scale(1,1)"><path fill="none" stroke="#000000" d="M 1272 588 L 1472.12158203125 588" stroke-miterlimit="10"/></g><g transform="translate(-518,-462) scale(1,1)"><g><path fill="none" stroke="none"/><text fill="#000000" stroke="none" font-family="Arial" font-size="13px" font-style="normal" font-weight="bold" text-decoration="none" x="1318.953125" y="499.5">BugSearchCriteria</text></g></g><g transform="translate(-518,-462) scale(1,1)"><g><path fill="none" stroke="none"/><text fill="#000000" stroke="none" font-family="Arial" font-size="13px" font-style="normal" font-weight="normal" text-decoration="none" x="1328.728515625" y="514.5">(from Criterias)</text></g></g><g transform="translate(-518,-462) scale(1,1)"><g><path fill="none" stroke="none"/><text fill="#000000" stroke="none" font-family="Arial" font-size="13px" font-style="normal" font-weight="normal" text-decoration="none" x="1277" y="537.5">+Name: string</text></g></g><g transform="translate(-518,-462) scale(1,1)"><g><path fill="none" stroke="none"/><text fill="#000000" stroke="none" font-family="Arial" font-size="13px" font-style="normal" font-weight="normal" text-decoration="none" x="1277" y="552.5">+State: BugState?</text></g></g><g transform="translate(-518,-462) scale(1,1)"><g><path fill="none" stroke="none"/><text fill="#000000" stroke="none" font-family="Arial" font-size="13px" font-style="normal" font-weight="normal" text-decoration="none" x="1277" y="567.5">+ProjectId: int?</text></g></g><g transform="translate(-518,-462) scale(1,1)"><g><path fill="none" stroke="none"/><text fill="#000000" stroke="none" font-family="Arial" font-size="13px" font-style="normal" font-weight="normal" text-decoration="none" x="1277" y="582.5">+Id: int?</text></g></g><g transform="translate(-518,-462) scale(1,1)"><g><path fill="none" stroke="none"/><text fill="#000000" stroke="none" font-family="Arial" font-size="13px" font-style="normal" font-weight="normal" text-decoration="none" x="1277" y="605.5">+MatchesCriteria(bug: Bug): bool</text></g></g><g transform="translate(-518,-462) scale(1,1)"><rect fill="#C0C0C0" stroke="none" x="559" y="479" width="164.34619140625" height="87" opacity="0.2"/></g><g transform="translate(-518,-462) scale(1,1)"><rect fill="#ffffff" stroke="none" x="552" y="472" width="164.34619140625" height="87"/></g><g transform="translate(-518,-462) scale(1,1)"><path fill="none" stroke="#000000" d="M 552 472 L 716.34619140625 472 L 716.34619140625 559 L 552 559 L 552 472 Z Z" stroke-miterlimit="10"/></g><g transform="translate(-518,-462) scale(1,1)"><path fill="none" stroke="#000000" d="M 552 512 L 716.34619140625 512" stroke-miterlimit="10"/></g><g transform="translate(-518,-462) scale(1,1)"><path fill="none" stroke="#000000" d="M 552 550 L 716.34619140625 550" stroke-miterlimit="10"/></g><g transform="translate(-518,-462) scale(1,1)"><g><path fill="none" stroke="none"/><text fill="#000000" stroke="none" font-family="Arial" font-size="13px" font-style="normal" font-weight="bold" text-decoration="none" x="570.947265625" y="491.5">DataAccessException</text></g></g><g transform="translate(-518,-462) scale(1,1)"><g><path fill="none" stroke="none"/><text fill="#000000" stroke="none" font-family="Arial" font-size="13px" font-style="normal" font-weight="normal" text-decoration="none" x="560.84814453125" y="506.5">(from CustomExceptions)</text></g></g><g transform="translate(-518,-462) scale(1,1)"><g><path fill="none" stroke="none"/><text fill="#000000" stroke="none" font-family="Arial" font-size="13px" font-style="normal" font-weight="normal" text-decoration="none" x="557" y="529.5">#messageToDisplay: string</text></g></g><g transform="translate(-518,-462) scale(1,1)"><g><path fill="none" stroke="none"/><text fill="#000000" stroke="none" font-family="Arial" font-size="13px" font-style="normal" font-weight="normal" text-decoration="none" x="557" y="544.5">+Message: string</text></g></g><g transform="translate(-518,-462) scale(1,1)"><rect fill="#C0C0C0" stroke="none" x="759" y="479" width="194.63720703125" height="87" opacity="0.2"/></g><g transform="translate(-518,-462) scale(1,1)"><rect fill="#ffffff" stroke="none" x="752" y="472" width="194.63720703125" height="87"/></g><g transform="translate(-518,-462) scale(1,1)"><path fill="none" stroke="#000000" d="M 752 472 L 946.63720703125 472 L 946.63720703125 559 L 752 559 L 752 472 Z Z" stroke-miterlimit="10"/></g><g transform="translate(-518,-462) scale(1,1)"><path fill="none" stroke="#000000" d="M 752 512 L 946.63720703125 512" stroke-miterlimit="10"/></g><g transform="translate(-518,-462) scale(1,1)"><path fill="none" stroke="#000000" d="M 752 550 L 946.63720703125 550" stroke-miterlimit="10"/></g><g transform="translate(-518,-462) scale(1,1)"><g><path fill="none" stroke="none"/><text fill="#000000" stroke="none" font-family="Arial" font-size="13px" font-style="normal" font-weight="bold" text-decoration="none" x="763.6982421875" y="491.5">ModelMissingFieldsException</text></g></g><g transform="translate(-518,-462) scale(1,1)"><g><path fill="none" stroke="none"/><text fill="#000000" stroke="none" font-family="Arial" font-size="13px" font-style="normal" font-weight="normal" text-decoration="none" x="775.99365234375" y="506.5">(from CustomExceptions)</text></g></g><g transform="translate(-518,-462) scale(1,1)"><g><path fill="none" stroke="none"/><text fill="#000000" stroke="none" font-family="Arial" font-size="13px" font-style="normal" font-weight="normal" text-decoration="none" x="757" y="529.5">#messageToDisplay: string</text></g></g><g transform="translate(-518,-462) scale(1,1)"><g><path fill="none" stroke="none"/><text fill="#000000" stroke="none" font-family="Arial" font-size="13px" font-style="normal" font-weight="normal" text-decoration="none" x="757" y="544.5">+Message: string</text></g></g></g></svg>