<svg version="1.1" xmlns="http://www.w3.org/2000/svg" xmlns:xlink="http://www.w3.org/1999/xlink" width="1096.8095703125" height="1048"><defs/><g><g transform="translate(-102,-126) scale(1,1)"><rect fill="#C0C0C0" stroke="none" x="335" y="415" width="418.296875" height="162" opacity="0.2"/></g><g transform="translate(-102,-126) scale(1,1)"><rect fill="#ffffff" stroke="none" x="328" y="408" width="418.296875" height="162"/></g><g transform="translate(-102,-126) scale(1,1)"><path fill="none" stroke="#000000" d="M 328 408 L 746.296875 408 L 746.296875 570 L 328 570 L 328 408 Z Z" stroke-miterlimit="10"/></g><g transform="translate(-102,-126) scale(1,1)"><path fill="none" stroke="#000000" d="M 328 448 L 746.296875 448" stroke-miterlimit="10"/></g><g transform="translate(-102,-126) scale(1,1)"><path fill="none" stroke="#000000" d="M 328 458 L 746.296875 458" stroke-miterlimit="10"/></g><g transform="translate(-102,-126) scale(1,1)"><g><path fill="none" stroke="none"/><text fill="#000000" stroke="none" font-family="Arial" font-size="13px" font-style="normal" font-weight="bold" text-decoration="none" x="494.15576171875" y="427.5">BugsController</text></g></g><g transform="translate(-102,-126) scale(1,1)"><g><path fill="none" stroke="none"/><text fill="#000000" stroke="none" font-family="Arial" font-size="13px" font-style="normal" font-weight="normal" text-decoration="none" x="486.586181640625" y="442.5">(from Controllers)</text></g></g><g transform="translate(-102,-126) scale(1,1)"><g><path fill="none" stroke="none"/><text fill="#000000" stroke="none" font-family="Arial" font-size="13px" font-style="normal" font-weight="normal" text-decoration="none" x="333" y="475.5">«constructor»+BugsController(IBugLogic bugs)</text></g></g><g transform="translate(-102,-126) scale(1,1)"><g><path fill="none" stroke="none"/><text fill="#000000" stroke="none" font-family="Arial" font-size="13px" font-style="normal" font-weight="normal" text-decoration="none" x="333" y="490.5">+Get(token: string, bugId: int): IActionResult</text></g></g><g transform="translate(-102,-126) scale(1,1)"><g><path fill="none" stroke="none"/><text fill="#000000" stroke="none" font-family="Arial" font-size="13px" font-style="normal" font-weight="normal" text-decoration="none" x="333" y="505.5">+Put(token: string, bug: BugModel, bugId: int): IActionResult</text></g></g><g transform="translate(-102,-126) scale(1,1)"><g><path fill="none" stroke="none"/><text fill="#000000" stroke="none" font-family="Arial" font-size="13px" font-style="normal" font-weight="normal" text-decoration="none" x="333" y="520.5">+Post(token: string, bug: BugModel): IActionResult</text></g></g><g transform="translate(-102,-126) scale(1,1)"><g><path fill="none" stroke="none"/><text fill="#000000" stroke="none" font-family="Arial" font-size="13px" font-style="normal" font-weight="normal" text-decoration="none" x="333" y="535.5">+Delete(bugId: int, token: string): IActionResult</text></g></g><g transform="translate(-102,-126) scale(1,1)"><g><path fill="none" stroke="none"/><text fill="#000000" stroke="none" font-family="Arial" font-size="13px" font-style="normal" font-weight="normal" text-decoration="none" x="333" y="550.5">+Patch(token: string, bugId: int): IActionResult</text></g></g><g transform="translate(-102,-126) scale(1,1)"><g><path fill="none" stroke="none"/><text fill="#000000" stroke="none" font-family="Arial" font-size="13px" font-style="normal" font-weight="normal" text-decoration="none" x="333" y="565.5">+GetAllFiltered(token: string, criteria: BugSearchCriteria): IActionResult</text></g></g><g transform="translate(-102,-126) scale(1,1)"><rect fill="#C0C0C0" stroke="none" x="335" y="695" width="416" height="177" opacity="0.2"/></g><g transform="translate(-102,-126) scale(1,1)"><rect fill="#ffffff" stroke="none" x="328" y="688" width="416" height="177"/></g><g transform="translate(-102,-126) scale(1,1)"><path fill="none" stroke="#000000" d="M 328 688 L 744 688 L 744 865 L 328 865 L 328 688 Z Z" stroke-miterlimit="10"/></g><g transform="translate(-102,-126) scale(1,1)"><path fill="none" stroke="#000000" d="M 328 728 L 744 728" stroke-miterlimit="10"/></g><g transform="translate(-102,-126) scale(1,1)"><path fill="none" stroke="#000000" d="M 328 738 L 744 738" stroke-miterlimit="10"/></g><g transform="translate(-102,-126) scale(1,1)"><g><path fill="none" stroke="none"/><text fill="#000000" stroke="none" font-family="Arial" font-size="13px" font-style="normal" font-weight="bold" text-decoration="none" x="484.3427734375" y="707.5">ProjectsController</text></g></g><g transform="translate(-102,-126) scale(1,1)"><g><path fill="none" stroke="none"/><text fill="#000000" stroke="none" font-family="Arial" font-size="13px" font-style="normal" font-weight="normal" text-decoration="none" x="485.437744140625" y="722.5">(from Controllers)</text></g></g><g transform="translate(-102,-126) scale(1,1)"><g><path fill="none" stroke="none"/><text fill="#000000" stroke="none" font-family="Arial" font-size="13px" font-style="normal" font-weight="normal" text-decoration="none" x="333" y="755.5">«constructor»+ProjectsController(IProjectLogic projects)</text></g></g><g transform="translate(-102,-126) scale(1,1)"><g><path fill="none" stroke="none"/><text fill="#000000" stroke="none" font-family="Arial" font-size="13px" font-style="normal" font-weight="normal" text-decoration="none" x="333" y="770.5">+Post(model: ProjectModel): IActionResult</text></g></g><g transform="translate(-102,-126) scale(1,1)"><g><path fill="none" stroke="none"/><text fill="#000000" stroke="none" font-family="Arial" font-size="13px" font-style="normal" font-weight="normal" text-decoration="none" x="333" y="785.5">+Put(id: int, model: ProjectModel): IActionResult</text></g></g><g transform="translate(-102,-126) scale(1,1)"><g><path fill="none" stroke="none"/><text fill="#000000" stroke="none" font-family="Arial" font-size="13px" font-style="normal" font-weight="normal" text-decoration="none" x="333" y="800.5">+Delete(id: int): IActionResult</text></g></g><g transform="translate(-102,-126) scale(1,1)"><g><path fill="none" stroke="none"/><text fill="#000000" stroke="none" font-family="Arial" font-size="13px" font-style="normal" font-weight="normal" text-decoration="none" x="333" y="815.5">+Post(userId: int, projectId: int): IActionResult</text></g></g><g transform="translate(-102,-126) scale(1,1)"><g><path fill="none" stroke="none"/><text fill="#000000" stroke="none" font-family="Arial" font-size="13px" font-style="normal" font-weight="normal" text-decoration="none" x="333" y="830.5">+Delete(userId: int, projectId: int): IActionResult</text></g></g><g transform="translate(-102,-126) scale(1,1)"><g><path fill="none" stroke="none"/><text fill="#000000" stroke="none" font-family="Arial" font-size="13px" font-style="normal" font-weight="normal" text-decoration="none" x="333" y="845.5">+Post(path: string, companyName: string): IActionResult</text></g></g><g transform="translate(-102,-126) scale(1,1)"><g><path fill="none" stroke="none"/><text fill="#000000" stroke="none" font-family="Arial" font-size="13px" font-style="normal" font-weight="normal" text-decoration="none" x="333" y="860.5">+Get(): IActionResult</text></g></g><g transform="translate(-102,-126) scale(1,1)"><rect fill="#C0C0C0" stroke="none" x="335" y="591" width="416" height="96" opacity="0.2"/></g><g transform="translate(-102,-126) scale(1,1)"><rect fill="#ffffff" stroke="none" x="328" y="584" width="416" height="96"/></g><g transform="translate(-102,-126) scale(1,1)"><path fill="none" stroke="#000000" d="M 328 584 L 744 584 L 744 680 L 328 680 L 328 584 Z Z" stroke-miterlimit="10"/></g><g transform="translate(-102,-126) scale(1,1)"><path fill="none" stroke="#000000" d="M 328 624 L 744 624" stroke-miterlimit="10"/></g><g transform="translate(-102,-126) scale(1,1)"><path fill="none" stroke="#000000" d="M 328 634 L 744 634" stroke-miterlimit="10"/></g><g transform="translate(-102,-126) scale(1,1)"><g><path fill="none" stroke="none"/><text fill="#000000" stroke="none" font-family="Arial" font-size="13px" font-style="normal" font-weight="bold" text-decoration="none" x="481.4482421875" y="603.5">SessionsController</text></g></g><g transform="translate(-102,-126) scale(1,1)"><g><path fill="none" stroke="none"/><text fill="#000000" stroke="none" font-family="Arial" font-size="13px" font-style="normal" font-weight="normal" text-decoration="none" x="485.437744140625" y="618.5">(from Controllers)</text></g></g><g transform="translate(-102,-126) scale(1,1)"><g><path fill="none" stroke="none"/><text fill="#000000" stroke="none" font-family="Arial" font-size="13px" font-style="normal" font-weight="normal" text-decoration="none" x="333" y="651.5">«constructor»+SessionsController(ISessionLogic sessionLogic)</text></g></g><g transform="translate(-102,-126) scale(1,1)"><g><path fill="none" stroke="none"/><text fill="#000000" stroke="none" font-family="Arial" font-size="13px" font-style="normal" font-weight="normal" text-decoration="none" x="333" y="666.5">+Post(model: LoginModel): IActionResult</text></g></g><g transform="translate(-102,-126) scale(1,1)"><rect fill="#C0C0C0" stroke="none" x="335" y="879" width="416" height="102" opacity="0.2"/></g><g transform="translate(-102,-126) scale(1,1)"><rect fill="#ffffff" stroke="none" x="328" y="872" width="416" height="102"/></g><g transform="translate(-102,-126) scale(1,1)"><path fill="none" stroke="#000000" d="M 328 872 L 744 872 L 744 974 L 328 974 L 328 872 Z Z" stroke-miterlimit="10"/></g><g transform="translate(-102,-126) scale(1,1)"><path fill="none" stroke="#000000" d="M 328 912 L 744 912" stroke-miterlimit="10"/></g><g transform="translate(-102,-126) scale(1,1)"><path fill="none" stroke="#000000" d="M 328 922 L 744 922" stroke-miterlimit="10"/></g><g transform="translate(-102,-126) scale(1,1)"><g><path fill="none" stroke="none"/><text fill="#000000" stroke="none" font-family="Arial" font-size="13px" font-style="normal" font-weight="bold" text-decoration="none" x="490.84912109375" y="891.5">UsersController</text></g></g><g transform="translate(-102,-126) scale(1,1)"><g><path fill="none" stroke="none"/><text fill="#000000" stroke="none" font-family="Arial" font-size="13px" font-style="normal" font-weight="normal" text-decoration="none" x="485.437744140625" y="906.5">(from Controllers)</text></g></g><g transform="translate(-102,-126) scale(1,1)"><g><path fill="none" stroke="none"/><text fill="#000000" stroke="none" font-family="Arial" font-size="13px" font-style="normal" font-weight="normal" text-decoration="none" x="333" y="939.5">«constructor»+UsersController(IUserLogic users)</text></g></g><g transform="translate(-102,-126) scale(1,1)"><g><path fill="none" stroke="none"/><text fill="#000000" stroke="none" font-family="Arial" font-size="13px" font-style="normal" font-weight="normal" text-decoration="none" x="333" y="954.5">+Post(model: UserModel): IActionResult</text></g></g><g transform="translate(-102,-126) scale(1,1)"><g><path fill="none" stroke="none"/><text fill="#000000" stroke="none" font-family="Arial" font-size="13px" font-style="normal" font-weight="normal" text-decoration="none" x="333" y="969.5">+Get(id: int): IActionResult</text></g></g><g transform="translate(-102,-126) scale(1,1)"><rect fill="#C0C0C0" stroke="none" x="335" y="143" width="348.25048828125" height="130" opacity="0.2"/></g><g transform="translate(-102,-126) scale(1,1)"><rect fill="#ffffff" stroke="none" x="328" y="136" width="348.25048828125" height="130"/></g><g transform="translate(-102,-126) scale(1,1)"><path fill="none" stroke="#000000" d="M 328 136 L 676.25048828125 136 L 676.25048828125 266 L 328 266 L 328 136 Z Z" stroke-miterlimit="10"/></g><g transform="translate(-102,-126) scale(1,1)"><path fill="none" stroke="#000000" d="M 328 176 L 676.25048828125 176" stroke-miterlimit="10"/></g><g transform="translate(-102,-126) scale(1,1)"><path fill="none" stroke="#000000" d="M 328 214 L 676.25048828125 214" stroke-miterlimit="10"/></g><g transform="translate(-102,-126) scale(1,1)"><g><path fill="none" stroke="none"/><text fill="#000000" stroke="none" font-family="Arial" font-size="13px" font-style="normal" font-weight="bold" text-decoration="none" x="406.396240234375" y="155.5">AuthorizationWithParameterFilter</text></g></g><g transform="translate(-102,-126) scale(1,1)"><g><path fill="none" stroke="none"/><text fill="#000000" stroke="none" font-family="Arial" font-size="13px" font-style="normal" font-weight="normal" text-decoration="none" x="465.296142578125" y="170.5">(from Filters)</text></g></g><g transform="translate(-102,-126) scale(1,1)"><g><path fill="none" stroke="none"/><text fill="#000000" stroke="none" font-family="Arial" font-size="13px" font-style="normal" font-weight="normal" text-decoration="none" x="333" y="193.5">-_messageMap: Dictionary</text><path fill="none" stroke="#000000" d="M 333 193.5 L 487.6162109375 193.5" stroke-miterlimit="10"/></g></g><g transform="translate(-102,-126) scale(1,1)"><g><path fill="none" stroke="none"/><text fill="#000000" stroke="none" font-family="Arial" font-size="13px" font-style="normal" font-weight="normal" text-decoration="none" x="333" y="208.5">-_argument: RoleType[][*]</text></g></g><g transform="translate(-102,-126) scale(1,1)"><g><path fill="none" stroke="none"/><text fill="#000000" stroke="none" font-family="Arial" font-size="13px" font-style="normal" font-weight="normal" text-decoration="none" x="333" y="231.5">«constructor»+AuthorizationWithParameterFilter()</text></g></g><g transform="translate(-102,-126) scale(1,1)"><g><path fill="none" stroke="none"/><text fill="#000000" stroke="none" font-family="Arial" font-size="13px" font-style="normal" font-weight="normal" text-decoration="none" x="333" y="246.5">+OnAuthorization(context: AuthorizationFilterContext): void</text></g></g><g transform="translate(-102,-126) scale(1,1)"><g><path fill="none" stroke="none"/><text fill="#000000" stroke="none" font-family="Arial" font-size="13px" font-style="normal" font-weight="normal" text-decoration="none" x="333" y="261.5">-GetMessageByRole(roles: RoleType[][*]): string</text></g></g><g transform="translate(-102,-126) scale(1,1)"><rect fill="#C0C0C0" stroke="none" x="335" y="287" width="281.7841796875" height="72" opacity="0.2"/></g><g transform="translate(-102,-126) scale(1,1)"><rect fill="#ffffff" stroke="none" x="328" y="280" width="281.7841796875" height="72"/></g><g transform="translate(-102,-126) scale(1,1)"><path fill="none" stroke="#000000" d="M 328 280 L 609.7841796875 280 L 609.7841796875 352 L 328 352 L 328 280 Z Z" stroke-miterlimit="10"/></g><g transform="translate(-102,-126) scale(1,1)"><path fill="none" stroke="#000000" d="M 328 320 L 609.7841796875 320" stroke-miterlimit="10"/></g><g transform="translate(-102,-126) scale(1,1)"><path fill="none" stroke="#000000" d="M 328 330 L 609.7841796875 330" stroke-miterlimit="10"/></g><g transform="translate(-102,-126) scale(1,1)"><g><path fill="none" stroke="none"/><text fill="#000000" stroke="none" font-family="Arial" font-size="13px" font-style="normal" font-weight="bold" text-decoration="none" x="425.902587890625" y="299.5">ExceptionFilter</text></g></g><g transform="translate(-102,-126) scale(1,1)"><g><path fill="none" stroke="none"/><text fill="#000000" stroke="none" font-family="Arial" font-size="13px" font-style="normal" font-weight="normal" text-decoration="none" x="432.06298828125" y="314.5">(from Filters)</text></g></g><g transform="translate(-102,-126) scale(1,1)"><g><path fill="none" stroke="none"/><text fill="#000000" stroke="none" font-family="Arial" font-size="13px" font-style="normal" font-weight="normal" text-decoration="none" x="333" y="347.5">+OnException(context: ExceptionContext): void</text></g></g><g transform="translate(-102,-126) scale(1,1)"><rect fill="#C0C0C0" stroke="none" x="862" y="290" width="333.8095703125" height="220" opacity="0.2"/></g><g transform="translate(-102,-126) scale(1,1)"><rect fill="#ffffff" stroke="none" x="855" y="283" width="333.8095703125" height="220"/></g><g transform="translate(-102,-126) scale(1,1)"><path fill="none" stroke="#000000" d="M 855 283 L 1188.8095703125 283 L 1188.8095703125 503 L 855 503 L 855 283 Z Z" stroke-miterlimit="10"/></g><g transform="translate(-102,-126) scale(1,1)"><path fill="none" stroke="#000000" d="M 855 323 L 1188.8095703125 323" stroke-miterlimit="10"/></g><g transform="translate(-102,-126) scale(1,1)"><path fill="none" stroke="#000000" d="M 855 421 L 1188.8095703125 421" stroke-miterlimit="10"/></g><g transform="translate(-102,-126) scale(1,1)"><g><path fill="none" stroke="none"/><text fill="#000000" stroke="none" font-family="Arial" font-size="13px" font-style="normal" font-weight="bold" text-decoration="none" x="992.6357421875" y="302.5">BugModel</text></g></g><g transform="translate(-102,-126) scale(1,1)"><g><path fill="none" stroke="none"/><text fill="#000000" stroke="none" font-family="Arial" font-size="13px" font-style="normal" font-weight="normal" text-decoration="none" x="981.816162109375" y="317.5">(from Models)</text></g></g><g transform="translate(-102,-126) scale(1,1)"><g><path fill="none" stroke="none"/><text fill="#000000" stroke="none" font-family="Arial" font-size="13px" font-style="normal" font-weight="normal" text-decoration="none" x="860" y="340.5">+Name: string</text></g></g><g transform="translate(-102,-126) scale(1,1)"><g><path fill="none" stroke="none"/><text fill="#000000" stroke="none" font-family="Arial" font-size="13px" font-style="normal" font-weight="normal" text-decoration="none" x="860" y="355.5">+Description: string</text></g></g><g transform="translate(-102,-126) scale(1,1)"><g><path fill="none" stroke="none"/><text fill="#000000" stroke="none" font-family="Arial" font-size="13px" font-style="normal" font-weight="normal" text-decoration="none" x="860" y="370.5">+State: BugState</text></g></g><g transform="translate(-102,-126) scale(1,1)"><g><path fill="none" stroke="none"/><text fill="#000000" stroke="none" font-family="Arial" font-size="13px" font-style="normal" font-weight="normal" text-decoration="none" x="860" y="385.5">+Version: string</text></g></g><g transform="translate(-102,-126) scale(1,1)"><g><path fill="none" stroke="none"/><text fill="#000000" stroke="none" font-family="Arial" font-size="13px" font-style="normal" font-weight="normal" text-decoration="none" x="860" y="400.5">+ProjectId: int</text></g></g><g transform="translate(-102,-126) scale(1,1)"><g><path fill="none" stroke="none"/><text fill="#000000" stroke="none" font-family="Arial" font-size="13px" font-style="normal" font-weight="normal" text-decoration="none" x="860" y="415.5">+Id: int</text></g></g><g transform="translate(-102,-126) scale(1,1)"><g><path fill="none" stroke="none"/><text fill="#000000" stroke="none" font-family="Arial" font-size="13px" font-style="normal" font-weight="normal" text-decoration="none" x="860" y="438.5">+ToEntity(): Bug</text></g></g><g transform="translate(-102,-126) scale(1,1)"><g><path fill="none" stroke="none"/><text fill="#000000" stroke="none" font-family="Arial" font-size="13px" font-style="normal" font-weight="normal" text-decoration="none" x="860" y="453.5">+ToEntityWithID(id: int): Bug</text></g></g><g transform="translate(-102,-126) scale(1,1)"><g><path fill="none" stroke="none"/><text fill="#000000" stroke="none" font-family="Arial" font-size="13px" font-style="normal" font-weight="normal" text-decoration="none" x="860" y="468.5">+ToModel(bugEntity: Bug): BugModel</text><path fill="none" stroke="#000000" d="M 860 468.5 L 1075.7060546875 468.5" stroke-miterlimit="10"/></g></g><g transform="translate(-102,-126) scale(1,1)"><g><path fill="none" stroke="none"/><text fill="#000000" stroke="none" font-family="Arial" font-size="13px" font-style="normal" font-weight="normal" text-decoration="none" x="860" y="483.5">+ToModelList(bugsToModel: IEnumerable): IEnumerable</text><path fill="none" stroke="#000000" d="M 860 483.5 L 1184.8095703125 483.5" stroke-miterlimit="10"/></g></g><g transform="translate(-102,-126) scale(1,1)"><g><path fill="none" stroke="none"/><text fill="#000000" stroke="none" font-family="Arial" font-size="13px" font-style="normal" font-weight="normal" text-decoration="none" x="860" y="498.5">-ValidateFields(): void</text></g></g><g transform="translate(-102,-126) scale(1,1)"><rect fill="#C0C0C0" stroke="none" x="863" y="543" width="328" height="87" opacity="0.2"/></g><g transform="translate(-102,-126) scale(1,1)"><rect fill="#ffffff" stroke="none" x="856" y="536" width="328" height="87"/></g><g transform="translate(-102,-126) scale(1,1)"><path fill="none" stroke="#000000" d="M 856 536 L 1184 536 L 1184 623 L 856 623 L 856 536 Z Z" stroke-miterlimit="10"/></g><g transform="translate(-102,-126) scale(1,1)"><path fill="none" stroke="#000000" d="M 856 576 L 1184 576" stroke-miterlimit="10"/></g><g transform="translate(-102,-126) scale(1,1)"><path fill="none" stroke="#000000" d="M 856 614 L 1184 614" stroke-miterlimit="10"/></g><g transform="translate(-102,-126) scale(1,1)"><g><path fill="none" stroke="none"/><text fill="#000000" stroke="none" font-family="Arial" font-size="13px" font-style="normal" font-weight="bold" text-decoration="none" x="986.392333984375" y="555.5">LoginModel</text></g></g><g transform="translate(-102,-126) scale(1,1)"><g><path fill="none" stroke="none"/><text fill="#000000" stroke="none" font-family="Arial" font-size="13px" font-style="normal" font-weight="normal" text-decoration="none" x="979.911376953125" y="570.5">(from Models)</text></g></g><g transform="translate(-102,-126) scale(1,1)"><g><path fill="none" stroke="none"/><text fill="#000000" stroke="none" font-family="Arial" font-size="13px" font-style="normal" font-weight="normal" text-decoration="none" x="861" y="593.5">+Username: string</text></g></g><g transform="translate(-102,-126) scale(1,1)"><g><path fill="none" stroke="none"/><text fill="#000000" stroke="none" font-family="Arial" font-size="13px" font-style="normal" font-weight="normal" text-decoration="none" x="861" y="608.5">+Password: string</text></g></g><g transform="translate(-102,-126) scale(1,1)"><rect fill="#C0C0C0" stroke="none" x="863" y="743" width="328" height="100" opacity="0.2"/></g><g transform="translate(-102,-126) scale(1,1)"><rect fill="#ffffff" stroke="none" x="856" y="736" width="328" height="100"/></g><g transform="translate(-102,-126) scale(1,1)"><path fill="none" stroke="#000000" d="M 856 736 L 1184 736 L 1184 836 L 856 836 L 856 736 Z Z" stroke-miterlimit="10"/></g><g transform="translate(-102,-126) scale(1,1)"><path fill="none" stroke="#000000" d="M 856 776 L 1184 776" stroke-miterlimit="10"/></g><g transform="translate(-102,-126) scale(1,1)"><path fill="none" stroke="#000000" d="M 856 814 L 1184 814" stroke-miterlimit="10"/></g><g transform="translate(-102,-126) scale(1,1)"><g><path fill="none" stroke="none"/><text fill="#000000" stroke="none" font-family="Arial" font-size="13px" font-style="normal" font-weight="bold" text-decoration="none" x="953.156005859375" y="755.5">ProjectBugCountModel</text></g></g><g transform="translate(-102,-126) scale(1,1)"><g><path fill="none" stroke="none"/><text fill="#000000" stroke="none" font-family="Arial" font-size="13px" font-style="normal" font-weight="normal" text-decoration="none" x="979.911376953125" y="770.5">(from Models)</text></g></g><g transform="translate(-102,-126) scale(1,1)"><g><path fill="none" stroke="none"/><text fill="#000000" stroke="none" font-family="Arial" font-size="13px" font-style="normal" font-weight="normal" text-decoration="none" x="861" y="793.5">+Name: string</text></g></g><g transform="translate(-102,-126) scale(1,1)"><g><path fill="none" stroke="none"/><text fill="#000000" stroke="none" font-family="Arial" font-size="13px" font-style="normal" font-weight="normal" text-decoration="none" x="861" y="808.5">+BugCount: int</text></g></g><g transform="translate(-102,-126) scale(1,1)"><g><path fill="none" stroke="none"/><text fill="#000000" stroke="none" font-family="Arial" font-size="13px" font-style="normal" font-weight="normal" text-decoration="none" x="861" y="831.5">+ToModel(projects: IEnumerable): IEnumerable</text><path fill="none" stroke="#000000" d="M 861 831.5 L 1133.771484375 831.5" stroke-miterlimit="10"/></g></g><g transform="translate(-102,-126) scale(1,1)"><rect fill="#C0C0C0" stroke="none" x="863" y="647" width="328" height="85" opacity="0.2"/></g><g transform="translate(-102,-126) scale(1,1)"><rect fill="#ffffff" stroke="none" x="856" y="640" width="328" height="85"/></g><g transform="translate(-102,-126) scale(1,1)"><path fill="none" stroke="#000000" d="M 856 640 L 1184 640 L 1184 725 L 856 725 L 856 640 Z Z" stroke-miterlimit="10"/></g><g transform="translate(-102,-126) scale(1,1)"><path fill="none" stroke="#000000" d="M 856 680 L 1184 680" stroke-miterlimit="10"/></g><g transform="translate(-102,-126) scale(1,1)"><path fill="none" stroke="#000000" d="M 856 703 L 1184 703" stroke-miterlimit="10"/></g><g transform="translate(-102,-126) scale(1,1)"><g><path fill="none" stroke="none"/><text fill="#000000" stroke="none" font-family="Arial" font-size="13px" font-style="normal" font-weight="bold" text-decoration="none" x="982.06640625" y="659.5">ProjectModel</text></g></g><g transform="translate(-102,-126) scale(1,1)"><g><path fill="none" stroke="none"/><text fill="#000000" stroke="none" font-family="Arial" font-size="13px" font-style="normal" font-weight="normal" text-decoration="none" x="979.911376953125" y="674.5">(from Models)</text></g></g><g transform="translate(-102,-126) scale(1,1)"><g><path fill="none" stroke="none"/><text fill="#000000" stroke="none" font-family="Arial" font-size="13px" font-style="normal" font-weight="normal" text-decoration="none" x="861" y="697.5">+Name: string</text></g></g><g transform="translate(-102,-126) scale(1,1)"><g><path fill="none" stroke="none"/><text fill="#000000" stroke="none" font-family="Arial" font-size="13px" font-style="normal" font-weight="normal" text-decoration="none" x="861" y="720.5">+ToEntity(): Project</text></g></g><g transform="translate(-102,-126) scale(1,1)"><rect fill="#C0C0C0" stroke="none" x="863" y="855" width="328" height="190" opacity="0.2"/></g><g transform="translate(-102,-126) scale(1,1)"><rect fill="#ffffff" stroke="none" x="856" y="848" width="328" height="190"/></g><g transform="translate(-102,-126) scale(1,1)"><path fill="none" stroke="#000000" d="M 856 848 L 1184 848 L 1184 1038 L 856 1038 L 856 848 Z Z" stroke-miterlimit="10"/></g><g transform="translate(-102,-126) scale(1,1)"><path fill="none" stroke="#000000" d="M 856 888 L 1184 888" stroke-miterlimit="10"/></g><g transform="translate(-102,-126) scale(1,1)"><path fill="none" stroke="#000000" d="M 856 986 L 1184 986" stroke-miterlimit="10"/></g><g transform="translate(-102,-126) scale(1,1)"><g><path fill="none" stroke="none"/><text fill="#000000" stroke="none" font-family="Arial" font-size="13px" font-style="normal" font-weight="bold" text-decoration="none" x="988.57275390625" y="867.5">UserModel</text></g></g><g transform="translate(-102,-126) scale(1,1)"><g><path fill="none" stroke="none"/><text fill="#000000" stroke="none" font-family="Arial" font-size="13px" font-style="normal" font-weight="normal" text-decoration="none" x="979.911376953125" y="882.5">(from Models)</text></g></g><g transform="translate(-102,-126) scale(1,1)"><g><path fill="none" stroke="none"/><text fill="#000000" stroke="none" font-family="Arial" font-size="13px" font-style="normal" font-weight="normal" text-decoration="none" x="861" y="905.5">+FirstName: string</text></g></g><g transform="translate(-102,-126) scale(1,1)"><g><path fill="none" stroke="none"/><text fill="#000000" stroke="none" font-family="Arial" font-size="13px" font-style="normal" font-weight="normal" text-decoration="none" x="861" y="920.5">+LastName: string</text></g></g><g transform="translate(-102,-126) scale(1,1)"><g><path fill="none" stroke="none"/><text fill="#000000" stroke="none" font-family="Arial" font-size="13px" font-style="normal" font-weight="normal" text-decoration="none" x="861" y="935.5">+UserName: string</text></g></g><g transform="translate(-102,-126) scale(1,1)"><g><path fill="none" stroke="none"/><text fill="#000000" stroke="none" font-family="Arial" font-size="13px" font-style="normal" font-weight="normal" text-decoration="none" x="861" y="950.5">+Password: string</text></g></g><g transform="translate(-102,-126) scale(1,1)"><g><path fill="none" stroke="none"/><text fill="#000000" stroke="none" font-family="Arial" font-size="13px" font-style="normal" font-weight="normal" text-decoration="none" x="861" y="965.5">+Email: string</text></g></g><g transform="translate(-102,-126) scale(1,1)"><g><path fill="none" stroke="none"/><text fill="#000000" stroke="none" font-family="Arial" font-size="13px" font-style="normal" font-weight="normal" text-decoration="none" x="861" y="980.5">+Role: RoleType</text></g></g><g transform="translate(-102,-126) scale(1,1)"><g><path fill="none" stroke="none"/><text fill="#000000" stroke="none" font-family="Arial" font-size="13px" font-style="normal" font-weight="normal" text-decoration="none" x="861" y="1003.5">+ToEntity(): User</text></g></g><g transform="translate(-102,-126) scale(1,1)"><g><path fill="none" stroke="none"/><text fill="#000000" stroke="none" font-family="Arial" font-size="13px" font-style="normal" font-weight="normal" text-decoration="none" x="861" y="1018.5">+ToModel(user: User): UserModel</text><path fill="none" stroke="#000000" d="M 861 1018.5 L 1056.42529296875 1018.5" stroke-miterlimit="10"/></g></g><g transform="translate(-102,-126) scale(1,1)"><g><path fill="none" stroke="none"/><text fill="#000000" stroke="none" font-family="Arial" font-size="13px" font-style="normal" font-weight="normal" text-decoration="none" x="861" y="1033.5">-ValidateFields(): void</text></g></g><g transform="translate(-102,-126) scale(1,1)"><rect fill="#C0C0C0" stroke="none" x="343" y="1063" width="293.30517578125" height="72" opacity="0.2"/></g><g transform="translate(-102,-126) scale(1,1)"><rect fill="#ffffff" stroke="none" x="336" y="1056" width="293.30517578125" height="72"/></g><g transform="translate(-102,-126) scale(1,1)"><path fill="none" stroke="#000000" d="M 336 1056 L 629.30517578125 1056 L 629.30517578125 1128 L 336 1128 L 336 1056 Z Z" stroke-miterlimit="10"/></g><g transform="translate(-102,-126) scale(1,1)"><path fill="none" stroke="#000000" d="M 336 1081 L 629.30517578125 1081" stroke-miterlimit="10"/></g><g transform="translate(-102,-126) scale(1,1)"><path fill="none" stroke="#000000" d="M 336 1091 L 629.30517578125 1091" stroke-miterlimit="10"/></g><g transform="translate(-102,-126) scale(1,1)"><g><path fill="none" stroke="none"/><text fill="#000000" stroke="none" font-family="Arial" font-size="13px" font-style="normal" font-weight="bold" text-decoration="none" x="457.728515625" y="1075.5">Program</text></g></g><g transform="translate(-102,-126) scale(1,1)"><g><path fill="none" stroke="none"/><text fill="#000000" stroke="none" font-family="Arial" font-size="13px" font-style="normal" font-weight="normal" text-decoration="none" x="341" y="1108.5">+Main(args: string[][*]): void</text><path fill="none" stroke="#000000" d="M 341 1108.5 L 500.30712890625 1108.5" stroke-miterlimit="10"/></g></g><g transform="translate(-102,-126) scale(1,1)"><g><path fill="none" stroke="none"/><text fill="#000000" stroke="none" font-family="Arial" font-size="13px" font-style="normal" font-weight="normal" text-decoration="none" x="341" y="1123.5">+CreateHostBuilder(args: string[][*]): IHostBuilder</text><path fill="none" stroke="#000000" d="M 341 1123.5 L 625.30517578125 1123.5" stroke-miterlimit="10"/></g></g><g transform="translate(-102,-126) scale(1,1)"><rect fill="#C0C0C0" stroke="none" x="719" y="1071" width="413.78369140625" height="100" opacity="0.2"/></g><g transform="translate(-102,-126) scale(1,1)"><rect fill="#ffffff" stroke="none" x="712" y="1064" width="413.78369140625" height="100"/></g><g transform="translate(-102,-126) scale(1,1)"><path fill="none" stroke="#000000" d="M 712 1064 L 1125.78369140625 1064 L 1125.78369140625 1164 L 712 1164 L 712 1064 Z Z" stroke-miterlimit="10"/></g><g transform="translate(-102,-126) scale(1,1)"><path fill="none" stroke="#000000" d="M 712 1089 L 1125.78369140625 1089" stroke-miterlimit="10"/></g><g transform="translate(-102,-126) scale(1,1)"><path fill="none" stroke="#000000" d="M 712 1112 L 1125.78369140625 1112" stroke-miterlimit="10"/></g><g transform="translate(-102,-126) scale(1,1)"><g><path fill="none" stroke="none"/><text fill="#000000" stroke="none" font-family="Arial" font-size="13px" font-style="normal" font-weight="bold" text-decoration="none" x="897.93505859375" y="1083.5">Startup</text></g></g><g transform="translate(-102,-126) scale(1,1)"><g><path fill="none" stroke="none"/><text fill="#000000" stroke="none" font-family="Arial" font-size="13px" font-style="normal" font-weight="normal" text-decoration="none" x="717" y="1106.5">+Configuration: IConfiguration</text></g></g><g transform="translate(-102,-126) scale(1,1)"><g><path fill="none" stroke="none"/><text fill="#000000" stroke="none" font-family="Arial" font-size="13px" font-style="normal" font-weight="normal" text-decoration="none" x="717" y="1129.5">«constructor»+Startup()</text></g></g><g transform="translate(-102,-126) scale(1,1)"><g><path fill="none" stroke="none"/><text fill="#000000" stroke="none" font-family="Arial" font-size="13px" font-style="normal" font-weight="normal" text-decoration="none" x="717" y="1144.5">+ConfigureServices(services: IServiceCollection): void</text></g></g><g transform="translate(-102,-126) scale(1,1)"><g><path fill="none" stroke="none"/><text fill="#000000" stroke="none" font-family="Arial" font-size="13px" font-style="normal" font-weight="normal" text-decoration="none" x="717" y="1159.5">+Configure(app: IApplicationBuilder, env: IWebHostEnvironment): void</text></g></g><g transform="translate(-102,-126) scale(1,1)"><path fill="none" stroke="#000000" d="M 744 768 L 856 768" stroke-miterlimit="10" stroke-dasharray="3"/></g><g transform="translate(-102,-126) scale(1,1)"><path fill="none" stroke="#000000" d="M 845.8373251423759 772.209517756016 L 856 768 L 845.8373251423758 763.790482243984" stroke-miterlimit="10"/></g><g transform="translate(-102,-126) scale(1,1)"><path fill="none" stroke="#000000" d="M 744 904 L 856 904" stroke-miterlimit="10" stroke-dasharray="3"/></g><g transform="translate(-102,-126) scale(1,1)"><path fill="none" stroke="#000000" d="M 845.8373251423759 908.209517756016 L 856 904 L 845.8373251423758 899.790482243984" stroke-miterlimit="10"/></g><g transform="translate(-102,-126) scale(1,1)"><path fill="none" stroke="#000000" d="M 744 622 L 856 622" stroke-miterlimit="10" stroke-dasharray="3"/></g><g transform="translate(-102,-126) scale(1,1)"><path fill="none" stroke="#000000" d="M 845.8373251423759 626.209517756016 L 856 622 L 845.8373251423758 617.790482243984" stroke-miterlimit="10"/></g><g transform="translate(-102,-126) scale(1,1)"><path fill="none" stroke="#000000" d="M 744 712 L 856 712" stroke-miterlimit="10" stroke-dasharray="3"/></g><g transform="translate(-102,-126) scale(1,1)"><path fill="none" stroke="#000000" d="M 845.8373251423759 716.209517756016 L 856 712 L 845.8373251423758 707.790482243984" stroke-miterlimit="10"/></g><g transform="translate(-102,-126) scale(1,1)"><path fill="none" stroke="#000000" d="M 746 466 L 855 466" stroke-miterlimit="10" stroke-dasharray="3"/></g><g transform="translate(-102,-126) scale(1,1)"><path fill="none" stroke="#000000" d="M 844.8373251423759 470.209517756016 L 855 466 L 844.8373251423758 461.790482243984" stroke-miterlimit="10"/></g><g transform="translate(-102,-126) scale(1,1)"><path fill="none" stroke="#000000" d="M 483 408 L 483 352" stroke-miterlimit="10" stroke-dasharray="3"/></g><g transform="translate(-102,-126) scale(1,1)"><path fill="none" stroke="#000000" d="M 487.209517756016 362.16267485762415 L 483 352 L 478.790482243984 362.16267485762415" stroke-miterlimit="10"/></g><g transform="translate(-102,-126) scale(1,1)"><path fill="none" stroke="#000000" d="M 328 632 L 312 632 L 312 336 L 328 336" stroke-miterlimit="10" stroke-dasharray="3"/></g><g transform="translate(-102,-126) scale(1,1)"><path fill="none" stroke="#000000" d="M 317.83732514237585 340.209517756016 L 328 336 L 317.83732514237585 331.790482243984" stroke-miterlimit="10"/></g><g transform="translate(-102,-126) scale(1,1)"><path fill="none" stroke="#000000" d="M 328 776 L 297 776 L 297 320 L 328 320" stroke-miterlimit="10" stroke-dasharray="3"/></g><g transform="translate(-102,-126) scale(1,1)"><path fill="none" stroke="#000000" d="M 317.83732514237585 324.209517756016 L 328 320 L 317.83732514237585 315.790482243984" stroke-miterlimit="10"/></g><g transform="translate(-102,-126) scale(1,1)"><path fill="none" stroke="#000000" d="M 328 888 L 280 888 L 280 304 L 328 304" stroke-miterlimit="10" stroke-dasharray="3"/></g><g transform="translate(-102,-126) scale(1,1)"><path fill="none" stroke="#000000" d="M 317.83732514237585 308.209517756016 L 328 304 L 317.83732514237585 299.790482243984" stroke-miterlimit="10"/></g><g transform="translate(-102,-126) scale(1,1)"><path fill="none" stroke="#000000" d="M 746 432 L 776 432 L 776 256 L 676 256" stroke-miterlimit="10" stroke-dasharray="3"/></g><g transform="translate(-102,-126) scale(1,1)"><path fill="none" stroke="#000000" d="M 686.1626748576241 251.790482243984 L 676 256 L 686.1626748576241 260.209517756016" stroke-miterlimit="10"/></g><g transform="translate(-102,-126) scale(1,1)"><path fill="none" stroke="#000000" d="M 744 584 L 784 584 L 784 240 L 676 240" stroke-miterlimit="10" stroke-dasharray="3"/></g><g transform="translate(-102,-126) scale(1,1)"><path fill="none" stroke="#000000" d="M 686.1626748576241 235.790482243984 L 676 240 L 686.1626748576241 244.209517756016" stroke-miterlimit="10"/></g><g transform="translate(-102,-126) scale(1,1)"><path fill="none" stroke="#000000" d="M 744 688 L 792 688 L 792 224 L 676 224" stroke-miterlimit="10" stroke-dasharray="3"/></g><g transform="translate(-102,-126) scale(1,1)"><path fill="none" stroke="#000000" d="M 686.1626748576241 219.790482243984 L 676 224 L 686.1626748576241 228.209517756016" stroke-miterlimit="10"/></g><g transform="translate(-102,-126) scale(1,1)"><path fill="none" stroke="#000000" d="M 744 880 L 800 880 L 800 208 L 676 208" stroke-miterlimit="10" stroke-dasharray="3"/></g><g transform="translate(-102,-126) scale(1,1)"><path fill="none" stroke="#000000" d="M 686.1626748576241 203.790482243984 L 676 208 L 686.1626748576241 212.209517756016" stroke-miterlimit="10"/></g><g transform="translate(-102,-126) scale(1,1)"><path fill="none" stroke="#000000" d="M 156 447.5 A 11.5 11.5 0 0 1 156 470.5" stroke-miterlimit="10"/></g><g transform="translate(-102,-126) scale(1,1)"><g><path fill="none" stroke="none"/><text fill="#000000" stroke="none" font-family="Arial" font-size="13px" font-style="normal" font-weight="bold" text-decoration="none" x="127.36279296875" y="490.5">IBugLogic</text></g></g><g transform="translate(-102,-126) scale(1,1)"><path fill="none" stroke="#000000" d="M 328 459 L 167.773193359375 459" stroke-miterlimit="10"/></g><g transform="translate(-102,-126) scale(1,1)"><path fill="none" stroke="#000000" d="M 160 607.5 A 11.5 11.5 0 0 1 160 630.5" stroke-miterlimit="10"/></g><g transform="translate(-102,-126) scale(1,1)"><g><path fill="none" stroke="none"/><text fill="#000000" stroke="none" font-family="Arial" font-size="13px" font-style="normal" font-weight="bold" text-decoration="none" x="120.095947265625" y="650.5">ISessionLogic</text></g></g><g transform="translate(-102,-126) scale(1,1)"><path fill="none" stroke="#000000" d="M 157 719.5 A 11.5 11.5 0 0 1 157 742.5" stroke-miterlimit="10"/></g><g transform="translate(-102,-126) scale(1,1)"><g><path fill="none" stroke="none"/><text fill="#000000" stroke="none" font-family="Arial" font-size="13px" font-style="normal" font-weight="bold" text-decoration="none" x="120.09912109375" y="762.5">IProjectLogic</text></g></g><g transform="translate(-102,-126) scale(1,1)"><path fill="none" stroke="#000000" d="M 158 895.5 A 11.5 11.5 0 0 1 158 918.5" stroke-miterlimit="10"/></g><g transform="translate(-102,-126) scale(1,1)"><g><path fill="none" stroke="none"/><text fill="#000000" stroke="none" font-family="Arial" font-size="13px" font-style="normal" font-weight="bold" text-decoration="none" x="127.023193359375" y="938.5">IUserLogic</text></g></g><g transform="translate(-102,-126) scale(1,1)"><path fill="none" stroke="#000000" d="M 328 619 L 172.0654296875 619" stroke-miterlimit="10"/></g><g transform="translate(-102,-126) scale(1,1)"><path fill="none" stroke="#000000" d="M 328 731 L 169.174072265625 731" stroke-miterlimit="10"/></g><g transform="translate(-102,-126) scale(1,1)"><path fill="none" stroke="#000000" d="M 328 907 L 169.591796875 907" stroke-miterlimit="10"/></g></g></svg>